<svg width="150" height="150" viewBox="0 0 150 150" fill="none" xmlns="http://www.w3.org/2000/svg">
<path d="M117.675 40.5C109.575 31.275 98.286 25.143 86.052 24.747C68.628 24.186 59.652 38.796 46.719 45.537C33.786 52.278 24.807 58.2 23.223 71.4C21.639 84.6 22.959 96.966 33.783 103.146C44.607 109.326 51.207 98.946 65.196 99.495C79.185 100.044 87.636 116.922 105.189 111.861C116.742 108.531 125.304 96.33 128.523 84.594C132.933 68.514 127.827 52.08 117.675 40.5Z" fill="#455A64"/>
<path opacity="0.7" d="M117.675 40.5C109.575 31.275 98.286 25.143 86.052 24.747C68.628 24.186 59.652 38.796 46.719 45.537C33.786 52.278 24.807 58.2 23.223 71.4C21.639 84.6 22.959 96.966 33.783 103.146C44.607 109.326 51.207 98.946 65.196 99.495C79.185 100.044 87.636 116.922 105.189 111.861C116.742 108.531 125.304 96.33 128.523 84.594C132.933 68.514 127.827 52.08 117.675 40.5Z" fill="white"/>
<path d="M52.9049 83.775C52.9049 83.775 51.2519 82.47 50.8259 81.63C50.4659 80.916 50.2049 79.908 50.5769 79.146C50.6587 78.9642 50.7778 78.8017 50.9264 78.6689C51.0751 78.5361 51.25 78.4361 51.4398 78.3753C51.6296 78.3145 51.8301 78.2942 52.0282 78.3159C52.2264 78.3375 52.4177 78.4006 52.5899 78.501C53.6069 79.134 53.7179 81.297 53.4569 82.335C53.4359 82.425 52.9229 83.79 52.9049 83.775Z" fill="#455A64"/>
<path d="M68.2077 94.665C68.1387 94.728 66.9597 95.586 66.9537 95.565C66.9477 95.544 66.2937 93.561 66.4017 92.628C66.4947 91.833 66.8337 90.846 67.5657 90.417C67.734 90.3106 67.9228 90.2407 68.1198 90.2118C68.3168 90.183 68.5177 90.1959 68.7095 90.2496C68.9012 90.3033 69.0795 90.3967 69.2329 90.5238C69.3862 90.6508 69.5112 90.8086 69.5997 90.987C70.1007 92.079 68.9997 93.942 68.2077 94.665Z" fill="#455A64"/>
<path d="M33.528 85.758C33.528 85.758 39.588 92.01 39.555 99.693C39.522 107.376 33.408 113.58 33.408 113.58C33.408 113.58 27.348 107.325 27.381 99.642C27.414 91.959 33.528 85.758 33.528 85.758Z" fill="#455A64"/>
<path d="M42.1679 104.295C42.0866 104.209 42.0123 104.117 41.9459 104.019C41.5079 103.353 41.1299 102.378 41.4149 101.58C41.4748 101.39 41.574 101.215 41.7061 101.066C41.8383 100.917 42.0003 100.797 42.1817 100.715C42.3631 100.632 42.5598 100.589 42.759 100.588C42.9582 100.586 43.1555 100.627 43.3379 100.707C44.1599 101.097 44.5649 102.414 44.6519 103.494C44.9789 103.419 45.2759 103.362 45.5309 103.32L45.8579 102.579C45.9779 102.324 46.0619 102.069 46.1579 101.808C46.3019 101.424 46.4339 101.022 46.5629 100.608C46.0859 100.392 44.6879 99.741 44.1629 99.165C43.6379 98.589 43.1069 97.665 43.2629 96.834C43.2937 96.6371 43.3654 96.4489 43.4736 96.2815C43.5818 96.1141 43.7239 95.9714 43.8908 95.8625C44.0577 95.7536 44.2456 95.681 44.4424 95.6494C44.6391 95.6178 44.8403 95.6279 45.0329 95.679C46.1849 96.024 46.8599 98.079 46.8839 99.15C46.8839 99.186 46.8659 99.411 46.8419 99.681C46.9589 99.285 47.0759 98.889 47.1779 98.481C47.4779 97.329 47.7419 96.15 48.0119 94.968C48.0689 94.722 48.1289 94.476 48.1859 94.23C47.7809 94.05 46.2629 93.357 45.7169 92.754C45.1709 92.151 44.6609 91.254 44.8169 90.423C44.8475 90.2258 44.9194 90.0373 45.0278 89.8698C45.1362 89.7023 45.2787 89.5595 45.446 89.4508C45.6133 89.3421 45.8017 89.2699 45.9988 89.2389C46.1959 89.2079 46.3973 89.2189 46.5899 89.271C47.7389 89.613 48.4139 91.671 48.4379 92.739C48.4379 92.778 48.4169 93.039 48.3899 93.339C48.5459 92.7 48.7109 92.064 48.8909 91.437C49.1982 90.3603 49.576 89.3051 50.0219 88.278C49.8809 88.218 48.0839 87.441 47.4779 86.778C46.9409 86.178 46.4219 85.278 46.5779 84.447C46.6086 84.2502 46.6804 84.062 46.7886 83.8947C46.8968 83.7275 47.039 83.5849 47.2059 83.4762C47.3729 83.3675 47.5609 83.2952 47.7576 83.264C47.9544 83.2328 48.1555 83.2434 48.3479 83.295C49.4999 83.637 50.1749 85.695 50.1989 86.763C50.1989 86.841 50.1119 87.819 50.0669 88.167C50.0732 88.1556 50.0782 88.1435 50.0819 88.131C50.5468 87.1342 51.099 86.1805 51.7319 85.281C52.2935 84.4753 52.9015 83.703 53.5529 82.968C54.1529 82.281 54.7379 81.687 55.2629 81.168C55.5629 80.889 55.8179 80.64 56.0699 80.409H56.0429C56.0219 80.409 56.6039 79.071 56.6429 78.99C57.1829 78.063 58.7669 76.59 59.9429 76.842C60.1368 76.8894 60.3186 76.9771 60.4763 77.0995C60.634 77.2219 60.7641 77.3762 60.8581 77.5523C60.9521 77.7284 61.0079 77.9224 61.0218 78.1215C61.0357 78.3207 61.0075 78.5205 60.9389 78.708C60.6779 79.512 59.7869 80.055 59.0279 80.316C58.2689 80.577 56.5589 80.454 56.1389 80.418C55.8839 80.664 55.6109 80.928 55.3169 81.228C54.8069 81.759 54.2309 82.362 53.6519 83.061C53.4989 83.247 53.3519 83.451 53.1809 83.661C53.5169 83.385 53.9789 83.01 54.0299 82.98C54.9299 82.404 57.0299 81.825 57.9299 82.593C58.0778 82.7243 58.1965 82.8851 58.2786 83.065C58.3606 83.2449 58.4042 83.44 58.4065 83.6377C58.4087 83.8354 58.3696 84.0314 58.2917 84.2132C58.2138 84.3949 58.0987 84.5583 57.9539 84.693C57.3539 85.293 56.3099 85.359 55.5179 85.242C54.7259 85.125 53.2139 84.198 52.8929 83.991C52.5509 84.435 52.2089 84.891 51.8819 85.398C51.2758 86.2983 50.7517 87.2511 50.3159 88.245C50.2889 88.302 50.2709 88.365 50.2469 88.425C50.3879 88.26 51.2309 87.408 51.2969 87.354C52.1339 86.685 54.1409 85.878 55.1429 86.538C55.3065 86.6523 55.4443 86.7997 55.5472 86.9707C55.6501 87.1417 55.7158 87.3324 55.7402 87.5305C55.7645 87.7286 55.7469 87.9295 55.6884 88.1203C55.63 88.3112 55.532 88.4875 55.4009 88.638C54.8639 89.295 53.8379 89.478 53.0369 89.451C52.1159 89.415 50.3009 88.5 50.2319 88.464C49.8241 89.4669 49.4814 90.495 49.2059 91.542C48.9989 92.319 48.8219 93.111 48.6509 93.906C48.8399 93.696 49.6229 92.904 49.6859 92.856C50.5229 92.184 52.5299 91.38 53.5349 92.04C53.6983 92.1545 53.8358 92.3021 53.9384 92.4732C54.041 92.6443 54.1065 92.8351 54.1305 93.0332C54.1546 93.2312 54.1367 93.4321 54.078 93.6228C54.0193 93.8135 53.9212 93.9897 53.7899 94.14C53.2529 94.797 52.2269 94.983 51.4259 94.953C50.5259 94.92 48.7829 94.053 48.6359 93.975C48.5579 94.338 48.4799 94.698 48.4049 95.064C48.1589 96.249 47.9189 97.44 47.6459 98.607C47.5529 99.012 47.4449 99.405 47.3459 99.807C47.6459 99.507 48.1859 98.949 48.2459 98.907C49.0829 98.238 51.0929 97.431 52.0949 98.091C52.2579 98.2058 52.395 98.3535 52.4974 98.5246C52.5997 98.6957 52.665 98.8864 52.6891 99.0843C52.7131 99.2823 52.6953 99.483 52.6369 99.6737C52.5785 99.8643 52.4807 100.041 52.3499 100.191C51.8129 100.845 50.7869 101.031 49.9889 101.004C49.1909 100.977 47.7029 100.275 47.2889 100.071C47.1089 100.728 46.9139 101.376 46.6889 102.006C46.5869 102.276 46.5029 102.558 46.3889 102.81C46.3319 102.945 46.2779 103.08 46.2209 103.212L46.4519 103.191C46.4519 103.191 46.4669 103.566 46.4309 104.175C47.3129 103.548 48.5849 103.008 49.4129 103.386C49.5917 103.474 49.75 103.6 49.8773 103.753C50.0046 103.907 50.0982 104.085 50.1519 104.277C50.2057 104.47 50.2184 104.671 50.1893 104.868C50.1602 105.066 50.0899 105.255 49.9829 105.423C49.9288 105.513 49.8665 105.597 49.7969 105.675C49.641 106.605 49.2495 107.48 48.6599 108.216C48.6149 108.267 48.0149 108.816 47.7029 109.095C48.0029 108.933 48.3029 108.771 48.6029 108.594C49.0529 108.345 49.5209 108.066 49.9769 107.799L50.6759 107.355C50.9159 107.208 51.1259 107.037 51.3569 106.881C51.6899 106.641 52.0199 106.374 52.3529 106.113C52.0709 105.669 51.2669 104.355 51.1529 103.59C51.0389 102.825 51.0989 101.757 51.6899 101.148C51.8243 101.001 51.9882 100.883 52.171 100.803C52.3538 100.723 52.5513 100.683 52.7508 100.684C52.9502 100.686 53.1472 100.729 53.3288 100.811C53.5104 100.894 53.6726 101.014 53.8049 101.163C54.5759 102.084 54.0059 104.163 53.4329 105.063C53.4149 105.093 53.2739 105.273 53.1059 105.483C53.4209 105.216 53.7359 104.952 54.0479 104.67C54.9299 103.875 55.8029 103.035 56.6789 102.198L57.2309 101.679C56.9939 101.307 56.1089 99.879 55.9889 99.09C55.8689 98.301 55.9349 97.257 56.5259 96.648C56.6589 96.5017 56.821 96.3848 57.0018 96.3048C57.1827 96.2248 57.3782 96.1835 57.5759 96.1835C57.7736 96.1835 57.9692 96.2248 58.15 96.3048C58.3308 96.3848 58.4929 96.5017 58.6259 96.648C59.3969 97.569 58.8269 99.648 58.2569 100.563C58.2359 100.596 58.0679 100.809 57.8759 101.046C58.3619 100.599 58.8479 100.146 59.3459 99.738C60.1946 99.0082 61.0916 98.3367 62.0309 97.728C61.9469 97.596 60.8759 95.958 60.7409 95.064C60.6209 94.275 60.6869 93.231 61.2779 92.625C61.4123 92.4776 61.5762 92.3601 61.759 92.2802C61.9418 92.2003 62.1393 92.1597 62.3388 92.1612C62.5382 92.1626 62.7352 92.2059 62.9168 92.2884C63.0984 92.3709 63.2606 92.4907 63.3929 92.64C64.1639 93.561 63.5939 95.64 63.0209 96.555C62.9819 96.618 62.3669 97.386 62.1389 97.653L62.1689 97.632C63.1063 97.0562 64.0932 96.5652 65.1179 96.165C66.0298 95.8012 66.9624 95.4917 67.9109 95.238C68.7899 94.995 69.6089 94.824 70.3319 94.68C70.7249 94.605 71.0879 94.542 71.4239 94.488L71.4059 94.473C71.3879 94.473 72.6059 93.666 72.6929 93.624C73.6529 93.147 75.7889 92.79 76.6259 93.651C76.7606 93.7974 76.863 93.9704 76.9265 94.1589C76.99 94.3474 77.0132 94.5471 76.9945 94.7451C76.9758 94.9431 76.9157 95.135 76.8181 95.3083C76.7205 95.4816 76.5876 95.6324 76.4279 95.751C75.7649 96.279 74.7209 96.24 73.9469 96.051C73.1729 95.862 71.8109 94.803 71.4809 94.551C71.1329 94.614 70.7579 94.686 70.3499 94.773C69.6269 94.935 68.8169 95.121 67.9499 95.373C67.7189 95.442 67.4729 95.526 67.2329 95.604C67.6649 95.556 68.2589 95.502 68.3159 95.502C69.3869 95.523 71.4479 96.189 71.7959 97.338C71.8481 97.5304 71.8592 97.7315 71.8286 97.9285C71.798 98.1254 71.7264 98.3137 71.6183 98.4811C71.5103 98.6486 71.3682 98.7915 71.2014 98.9005C71.0345 99.0095 70.8467 99.0823 70.6499 99.114C69.8159 99.276 68.9099 98.76 68.3129 98.214C67.7159 97.668 66.9689 96.072 66.8129 95.724C66.2819 95.904 65.7419 96.102 65.1929 96.324C64.1907 96.7384 63.227 97.2404 62.3129 97.824C62.2619 97.857 62.2109 97.899 62.1599 97.935C62.3699 97.875 63.5399 97.635 63.6239 97.635C64.6919 97.536 66.8129 97.971 67.2839 99.075C67.3567 99.2607 67.3897 99.4596 67.3808 99.6588C67.3719 99.858 67.3212 100.053 67.2322 100.232C67.1431 100.41 67.0176 100.568 66.8637 100.695C66.7098 100.821 66.531 100.915 66.3389 100.968C65.5319 101.22 64.5719 100.806 63.9209 100.341C63.1709 99.804 62.1599 98.04 62.1209 97.974C61.2273 98.5848 60.3745 99.2532 59.5679 99.975C58.9679 100.506 58.3829 101.07 57.8009 101.64C58.0739 101.568 59.1629 101.34 59.2439 101.34C60.3119 101.241 62.4299 101.676 62.9039 102.78C62.9772 102.965 63.0105 103.164 63.0018 103.363C62.9931 103.563 62.9425 103.758 62.8534 103.936C62.7642 104.114 62.6385 104.272 62.4844 104.398C62.3302 104.525 62.1512 104.617 61.9589 104.67C61.1489 104.925 60.1919 104.511 59.5409 104.046C58.8089 103.524 57.8339 101.835 57.7409 101.691L56.9459 102.471C56.0879 103.326 55.2299 104.184 54.3599 105.009C54.0599 105.294 53.7599 105.564 53.4419 105.834C53.8559 105.741 54.6149 105.585 54.6809 105.579C55.7489 105.48 57.8669 105.915 58.3379 107.019C58.4117 107.204 58.4456 107.403 58.4373 107.603C58.4291 107.802 58.3788 107.997 58.2899 108.176C58.201 108.355 58.0755 108.513 57.9214 108.639C57.7674 108.766 57.5883 108.859 57.3959 108.912C56.5859 109.164 55.6289 108.75 54.9779 108.285C54.3269 107.82 53.4779 106.416 53.2379 106.017C52.7249 106.467 52.2029 106.899 51.6689 107.301C51.4349 107.472 51.2099 107.658 50.9759 107.808L50.2859 108.267C49.8059 108.567 49.3589 108.843 48.9029 109.11C48.6749 109.245 48.4559 109.368 48.2309 109.497C48.6359 109.341 49.2839 109.101 49.3439 109.083C50.3849 108.825 52.5449 108.936 53.1779 109.956C53.2783 110.128 53.3413 110.319 53.3629 110.517C53.3846 110.715 53.3643 110.915 53.3035 111.105C53.2426 111.294 53.1426 111.469 53.0098 111.617C52.8771 111.766 52.7146 111.885 52.5329 111.966C51.7709 112.338 50.7599 112.077 50.0459 111.717C49.2599 111.318 48.0749 109.851 47.9309 109.671C47.3819 109.971 46.8419 110.286 46.3319 110.556C44.9729 111.285 43.7849 111.864 42.8639 112.296C39.8639 114.885 35.6639 115.17 35.6639 115.17C35.6639 115.17 35.4419 110.124 38.4119 106.806C39.464 105.703 40.7465 104.846 42.1679 104.295ZM47.5109 109.215C47.4179 109.008 46.7009 107.415 46.6499 106.515C46.4819 106.482 46.3169 106.449 46.1549 106.41C45.8498 108.004 45.2163 109.517 44.2949 110.853C44.8409 110.595 45.4289 110.307 46.0529 109.989C46.5209 109.74 47.0099 109.5 47.5109 109.215Z" fill="#455A64"/>
<path d="M20.0996 103.332C20.0996 103.332 25.1456 103.485 28.2356 106.695C31.3256 109.905 31.2866 114.954 31.2866 114.954C31.2866 114.954 26.2346 114.798 23.1476 111.6C20.0606 108.402 20.0996 103.332 20.0996 103.332Z" fill="#455A64"/>
<g opacity="0.5">
<path opacity="0.5" d="M52.9049 83.775C52.9049 83.775 51.2519 82.47 50.8259 81.63C50.4659 80.916 50.2049 79.908 50.5769 79.146C50.6587 78.9642 50.7778 78.8017 50.9264 78.6689C51.0751 78.5361 51.25 78.4361 51.4398 78.3753C51.6296 78.3145 51.8301 78.2942 52.0282 78.3159C52.2264 78.3375 52.4177 78.4006 52.5899 78.501C53.6069 79.134 53.7179 81.297 53.4569 82.335C53.4359 82.425 52.9229 83.79 52.9049 83.775Z" fill="white"/>
<path opacity="0.5" d="M68.2077 94.665C68.1387 94.728 66.9597 95.586 66.9537 95.565C66.9477 95.544 66.2937 93.561 66.4017 92.628C66.4947 91.833 66.8337 90.846 67.5657 90.417C67.734 90.3106 67.9228 90.2407 68.1198 90.2118C68.3168 90.183 68.5177 90.1959 68.7095 90.2496C68.9012 90.3033 69.0795 90.3967 69.2329 90.5238C69.3862 90.6508 69.5112 90.8086 69.5997 90.987C70.1007 92.079 68.9997 93.942 68.2077 94.665Z" fill="white"/>
<path opacity="0.5" d="M33.5275 85.758C33.5275 85.758 39.5875 92.01 39.5545 99.693C39.5215 107.376 33.4075 113.58 33.4075 113.58C33.4075 113.58 27.3475 107.325 27.3805 99.642C27.4135 91.959 33.5275 85.758 33.5275 85.758Z" fill="white"/>
<path opacity="0.5" d="M42.1674 104.295C42.0861 104.209 42.0118 104.117 41.9454 104.019C41.5074 103.353 41.1294 102.378 41.4144 101.58C41.4743 101.39 41.5735 101.215 41.7057 101.066C41.8378 100.917 41.9998 100.797 42.1812 100.715C42.3626 100.632 42.5593 100.589 42.7585 100.588C42.9577 100.586 43.155 100.627 43.3374 100.707C44.1594 101.097 44.5644 102.414 44.6514 103.494C44.9784 103.419 45.2754 103.362 45.5304 103.32L45.8574 102.579C45.9774 102.324 46.0614 102.069 46.1574 101.808C46.3014 101.424 46.4334 101.022 46.5624 100.608C46.0854 100.392 44.6874 99.741 44.1624 99.165C43.6374 98.589 43.1064 97.665 43.2624 96.834C43.2932 96.6371 43.3649 96.4489 43.4731 96.2815C43.5813 96.1141 43.7234 95.9714 43.8903 95.8625C44.0572 95.7536 44.2451 95.681 44.4419 95.6494C44.6386 95.6178 44.8398 95.6279 45.0324 95.679C46.1844 96.024 46.8594 98.079 46.8834 99.15C46.8834 99.186 46.8654 99.411 46.8414 99.681C46.9584 99.285 47.0754 98.889 47.1774 98.481C47.4774 97.329 47.7414 96.15 48.0114 94.968C48.0684 94.722 48.1284 94.476 48.1854 94.23C47.7804 94.05 46.2624 93.357 45.7164 92.754C45.1704 92.151 44.6604 91.254 44.8164 90.423C44.847 90.2258 44.9189 90.0373 45.0273 89.8698C45.1357 89.7023 45.2782 89.5595 45.4455 89.4508C45.6128 89.3421 45.8012 89.2699 45.9983 89.2389C46.1954 89.2079 46.3968 89.2189 46.5894 89.271C47.7384 89.613 48.4134 91.671 48.4374 92.739C48.4374 92.778 48.4164 93.039 48.3894 93.339C48.5454 92.7 48.7104 92.064 48.8904 91.437C49.1977 90.3603 49.5756 89.3051 50.0214 88.278C49.8804 88.218 48.0834 87.441 47.4774 86.778C46.9404 86.178 46.4214 85.278 46.5774 84.447C46.6081 84.2502 46.6799 84.062 46.7881 83.8947C46.8963 83.7275 47.0385 83.5849 47.2055 83.4762C47.3724 83.3675 47.5604 83.2952 47.7571 83.264C47.9539 83.2328 48.155 83.2434 48.3474 83.295C49.4994 83.637 50.1744 85.695 50.1984 86.763C50.1984 86.841 50.1114 87.819 50.0664 88.167C50.0727 88.1556 50.0777 88.1435 50.0814 88.131C50.5463 87.1342 51.0985 86.1805 51.7314 85.281C52.293 84.4753 52.901 83.703 53.5524 82.968C54.1524 82.281 54.7374 81.687 55.2624 81.168C55.5624 80.889 55.8174 80.64 56.0694 80.409H56.0424C56.0214 80.409 56.6034 79.071 56.6424 78.99C57.1824 78.063 58.7664 76.59 59.9424 76.842C60.1364 76.8894 60.3181 76.9771 60.4758 77.0995C60.6335 77.2219 60.7636 77.3762 60.8576 77.5523C60.9516 77.7284 61.0074 77.9224 61.0213 78.1215C61.0353 78.3207 61.007 78.5205 60.9384 78.708C60.6774 79.512 59.7864 80.055 59.0274 80.316C58.2684 80.577 56.5584 80.454 56.1384 80.418C55.8834 80.664 55.6104 80.928 55.3164 81.228C54.8064 81.759 54.2304 82.362 53.6514 83.061C53.4984 83.247 53.3514 83.451 53.1804 83.661C53.5164 83.385 53.9784 83.01 54.0294 82.98C54.9294 82.404 57.0294 81.825 57.9294 82.593C58.0773 82.7243 58.196 82.8851 58.2781 83.065C58.3602 83.2449 58.4037 83.44 58.406 83.6377C58.4082 83.8354 58.3691 84.0314 58.2912 84.2132C58.2133 84.3949 58.0982 84.5583 57.9534 84.693C57.3534 85.293 56.3094 85.359 55.5174 85.242C54.7254 85.125 53.2134 84.198 52.8924 83.991C52.5504 84.435 52.2084 84.891 51.8814 85.398C51.2753 86.2983 50.7512 87.2511 50.3154 88.245C50.2884 88.302 50.2704 88.365 50.2464 88.425C50.3874 88.26 51.2304 87.408 51.2964 87.354C52.1334 86.685 54.1404 85.878 55.1424 86.538C55.306 86.6523 55.4438 86.7997 55.5467 86.9707C55.6496 87.1417 55.7153 87.3324 55.7397 87.5305C55.764 87.7286 55.7464 87.9295 55.6879 88.1203C55.6295 88.3112 55.5315 88.4875 55.4004 88.638C54.8634 89.295 53.8374 89.478 53.0364 89.451C52.1154 89.415 50.3004 88.5 50.2314 88.464C49.8237 89.4669 49.481 90.495 49.2054 91.542C48.9984 92.319 48.8214 93.111 48.6504 93.906C48.8394 93.696 49.6224 92.904 49.6854 92.856C50.5224 92.184 52.5294 91.38 53.5344 92.04C53.6978 92.1545 53.8353 92.3021 53.9379 92.4732C54.0405 92.6443 54.106 92.8351 54.1301 93.0332C54.1541 93.2312 54.1362 93.4321 54.0775 93.6228C54.0188 93.8135 53.9207 93.9897 53.7894 94.14C53.2524 94.797 52.2264 94.983 51.4254 94.953C50.5254 94.92 48.7824 94.053 48.6354 93.975C48.5574 94.338 48.4794 94.698 48.4044 95.064C48.1584 96.249 47.9184 97.44 47.6454 98.607C47.5524 99.012 47.4444 99.405 47.3454 99.807C47.6454 99.507 48.1854 98.949 48.2454 98.907C49.0824 98.238 51.0924 97.431 52.0944 98.091C52.2574 98.2058 52.3946 98.3535 52.4969 98.5246C52.5992 98.6957 52.6645 98.8864 52.6886 99.0843C52.7126 99.2823 52.6948 99.483 52.6364 99.6737C52.578 99.8643 52.4802 100.041 52.3494 100.191C51.8124 100.845 50.7864 101.031 49.9884 101.004C49.1904 100.977 47.7024 100.275 47.2884 100.071C47.1084 100.728 46.9134 101.376 46.6884 102.006C46.5864 102.276 46.5024 102.558 46.3884 102.81C46.3314 102.945 46.2774 103.08 46.2204 103.212L46.4514 103.191C46.4514 103.191 46.4664 103.566 46.4304 104.175C47.3124 103.548 48.5844 103.008 49.4124 103.386C49.5912 103.474 49.7495 103.6 49.8768 103.753C50.0041 103.907 50.0977 104.085 50.1514 104.277C50.2052 104.47 50.2179 104.671 50.1888 104.868C50.1597 105.066 50.0894 105.255 49.9824 105.423C49.9283 105.513 49.866 105.597 49.7964 105.675C49.6405 106.605 49.2491 107.48 48.6594 108.216C48.6144 108.267 48.0144 108.816 47.7024 109.095C48.0024 108.933 48.3024 108.771 48.6024 108.594C49.0524 108.345 49.5204 108.066 49.9764 107.799L50.6754 107.355C50.9154 107.208 51.1254 107.037 51.3564 106.881C51.6894 106.641 52.0194 106.374 52.3524 106.113C52.0704 105.669 51.2664 104.355 51.1524 103.59C51.0384 102.825 51.0984 101.757 51.6894 101.148C51.8238 101.001 51.9877 100.883 52.1705 100.803C52.3533 100.723 52.5508 100.683 52.7503 100.684C52.9497 100.686 53.1467 100.729 53.3283 100.811C53.5099 100.894 53.6721 101.014 53.8044 101.163C54.5754 102.084 54.0054 104.163 53.4324 105.063C53.4144 105.093 53.2734 105.273 53.1054 105.483C53.4204 105.216 53.7354 104.952 54.0474 104.67C54.9294 103.875 55.8024 103.035 56.6784 102.198L57.2304 101.679C56.9934 101.307 56.1084 99.879 55.9884 99.09C55.8684 98.301 55.9344 97.257 56.5254 96.648C56.6584 96.5017 56.8205 96.3848 57.0013 96.3048C57.1822 96.2248 57.3777 96.1835 57.5754 96.1835C57.7731 96.1835 57.9687 96.2248 58.1495 96.3048C58.3303 96.3848 58.4924 96.5017 58.6254 96.648C59.3964 97.569 58.8264 99.648 58.2564 100.563C58.2354 100.596 58.0674 100.809 57.8754 101.046C58.3614 100.599 58.8474 100.146 59.3454 99.738C60.1941 99.0082 61.0911 98.3367 62.0304 97.728C61.9464 97.596 60.8754 95.958 60.7404 95.064C60.6204 94.275 60.6864 93.231 61.2774 92.625C61.4118 92.4776 61.5757 92.3601 61.7585 92.2802C61.9413 92.2003 62.1388 92.1597 62.3383 92.1612C62.5377 92.1626 62.7347 92.2059 62.9163 92.2884C63.0979 92.3709 63.2601 92.4907 63.3924 92.64C64.1634 93.561 63.5934 95.64 63.0204 96.555C62.9814 96.618 62.3664 97.386 62.1384 97.653L62.1684 97.632C63.1058 97.0562 64.0927 96.5652 65.1174 96.165C66.0293 95.8012 66.962 95.4917 67.9104 95.238C68.7894 94.995 69.6084 94.824 70.3314 94.68C70.7244 94.605 71.0874 94.542 71.4234 94.488L71.4054 94.473C71.3874 94.473 72.6054 93.666 72.6924 93.624C73.6524 93.147 75.7884 92.79 76.6254 93.651C76.7601 93.7974 76.8625 93.9704 76.926 94.1589C76.9895 94.3474 77.0127 94.5471 76.994 94.7451C76.9753 94.9431 76.9152 95.135 76.8176 95.3083C76.72 95.4816 76.5871 95.6324 76.4274 95.751C75.7644 96.279 74.7204 96.24 73.9464 96.051C73.1724 95.862 71.8104 94.803 71.4804 94.551C71.1324 94.614 70.7574 94.686 70.3494 94.773C69.6264 94.935 68.8164 95.121 67.9494 95.373C67.7184 95.442 67.4724 95.526 67.2324 95.604C67.6644 95.556 68.2584 95.502 68.3154 95.502C69.3864 95.523 71.4474 96.189 71.7954 97.338C71.8476 97.5304 71.8587 97.7315 71.8281 97.9285C71.7975 98.1254 71.7259 98.3137 71.6178 98.4811C71.5098 98.6486 71.3677 98.7915 71.2009 98.9005C71.0341 99.0095 70.8462 99.0823 70.6494 99.114C69.8154 99.276 68.9094 98.76 68.3124 98.214C67.7154 97.668 66.9684 96.072 66.8124 95.724C66.2814 95.904 65.7414 96.102 65.1924 96.324C64.1902 96.7384 63.2265 97.2404 62.3124 97.824C62.2614 97.857 62.2104 97.899 62.1594 97.935C62.3694 97.875 63.5394 97.635 63.6234 97.635C64.6914 97.536 66.8124 97.971 67.2834 99.075C67.3562 99.2607 67.3892 99.4596 67.3803 99.6588C67.3714 99.858 67.3208 100.053 67.2317 100.232C67.1426 100.41 67.0171 100.568 66.8632 100.695C66.7093 100.821 66.5306 100.915 66.3384 100.968C65.5314 101.22 64.5714 100.806 63.9204 100.341C63.1704 99.804 62.1594 98.04 62.1204 97.974C61.2268 98.5848 60.374 99.2532 59.5674 99.975C58.9674 100.506 58.3824 101.07 57.8004 101.64C58.0734 101.568 59.1624 101.34 59.2434 101.34C60.3114 101.241 62.4294 101.676 62.9034 102.78C62.9767 102.965 63.01 103.164 63.0013 103.363C62.9926 103.563 62.942 103.758 62.8529 103.936C62.7637 104.114 62.638 104.272 62.4839 104.398C62.3297 104.525 62.1507 104.617 61.9584 104.67C61.1484 104.925 60.1914 104.511 59.5404 104.046C58.8084 103.524 57.8334 101.835 57.7404 101.691L56.9454 102.471C56.0874 103.326 55.2294 104.184 54.3594 105.009C54.0594 105.294 53.7594 105.564 53.4414 105.834C53.8554 105.741 54.6144 105.585 54.6804 105.579C55.7484 105.48 57.8664 105.915 58.3374 107.019C58.4112 107.204 58.4451 107.403 58.4368 107.603C58.4286 107.802 58.3783 107.997 58.2894 108.176C58.2005 108.355 58.075 108.513 57.9209 108.639C57.7669 108.766 57.5878 108.859 57.3954 108.912C56.5854 109.164 55.6284 108.75 54.9774 108.285C54.3264 107.82 53.4774 106.416 53.2374 106.017C52.7244 106.467 52.2024 106.899 51.6684 107.301C51.4344 107.472 51.2094 107.658 50.9754 107.808L50.2854 108.267C49.8054 108.567 49.3584 108.843 48.9024 109.11C48.6744 109.245 48.4554 109.368 48.2304 109.497C48.6354 109.341 49.2834 109.101 49.3434 109.083C50.3844 108.825 52.5444 108.936 53.1774 109.956C53.2778 110.128 53.3408 110.319 53.3624 110.517C53.3841 110.715 53.3638 110.915 53.303 111.105C53.2421 111.294 53.1421 111.469 53.0093 111.617C52.8766 111.766 52.7141 111.885 52.5324 111.966C51.7704 112.338 50.7594 112.077 50.0454 111.717C49.2594 111.318 48.0744 109.851 47.9304 109.671C47.3814 109.971 46.8414 110.286 46.3314 110.556C44.9724 111.285 43.7844 111.864 42.8634 112.296C39.8634 114.885 35.6634 115.17 35.6634 115.17C35.6634 115.17 35.4414 110.124 38.4114 106.806C39.4635 105.703 40.746 104.846 42.1674 104.295ZM47.5104 109.215C47.4174 109.008 46.7004 107.415 46.6494 106.515C46.4814 106.482 46.3164 106.449 46.1544 106.41C45.8493 108.004 45.2159 109.517 44.2944 110.853C44.8404 110.595 45.4284 110.307 46.0524 109.989C46.5204 109.74 47.0094 109.5 47.5104 109.215Z" fill="white"/>
<path opacity="0.5" d="M20.0996 103.332C20.0996 103.332 25.1456 103.485 28.2356 106.695C31.3256 109.905 31.2866 114.954 31.2866 114.954C31.2866 114.954 26.2346 114.798 23.1476 111.6C20.0606 108.402 20.0996 103.332 20.0996 103.332Z" fill="white"/>
</g>
<path d="M33.2788 106.581L28.3198 102.126L28.5328 101.889L33.2818 106.158L33.3058 100.317L33.2788 100.332L29.0878 94.203L29.3488 94.023L33.3088 99.81L33.3688 85.755L33.6868 85.758L33.6448 95.298L36.8008 92.565L37.0078 92.805L33.6418 95.718L33.6148 102.54L38.3968 98.307L38.6068 98.547L33.6118 102.966L33.5848 109.176L37.1818 106.356L37.3768 106.605L33.5848 109.581L33.5668 113.58H33.2488L33.2788 106.581Z" fill="white"/>
<path d="M37.8453 108.303L38.1603 108.267L38.5623 111.795L40.6893 109.416H40.6863L41.2263 105.144L41.5413 105.186L41.0583 109.005L46.3473 103.092L46.5843 103.302L42.9963 107.316L45.2673 107.343L45.2643 107.661L42.7143 107.631L40.1973 110.445L43.7523 110.448V110.766L39.9123 110.763L37.6233 113.322L40.1313 113.472L40.1133 113.79L37.3533 113.622L35.8293 115.326L35.5923 115.113L38.2773 112.113L37.8453 108.303Z" fill="white"/>
<path d="M25.8659 109.56L21.6479 108.705L21.7109 108.393L25.4849 109.158L19.9829 103.44L20.2109 103.221L23.9429 107.1L24.1409 104.835L24.4589 104.862L24.2369 107.403L26.8559 110.124L27.1259 106.581L27.4409 106.605L27.1499 110.43L29.5319 112.905L29.8679 110.415L30.1829 110.46L29.8139 113.196L31.3979 114.843L31.1699 115.065L28.3769 112.164L24.5429 112.311L24.5309 111.993L28.0799 111.858L25.8659 109.557V109.56Z" fill="white"/>
<path d="M67.7996 122.157C67.7996 124.125 60.4616 125.718 51.4106 125.718C42.3596 125.718 35.0186 124.125 35.0186 122.157C35.0186 120.189 42.3566 118.599 51.4106 118.599C60.4646 118.599 67.7996 120.192 67.7996 122.157Z" fill="#455A64"/>
<path opacity="0.5" d="M67.7996 122.157C67.7996 124.125 60.4616 125.718 51.4106 125.718C42.3596 125.718 35.0186 124.125 35.0186 122.157C35.0186 120.189 42.3566 118.599 51.4106 118.599C60.4646 118.599 67.7996 120.192 67.7996 122.157Z" fill="white"/>
<path d="M123 122.355C123 124.212 115.662 125.718 106.608 125.718C97.5537 125.718 90.2188 124.218 90.2188 122.355C90.2188 120.492 97.5567 118.992 106.608 118.992C115.659 118.992 123 120.498 123 122.355Z" fill="#455A64"/>
<path opacity="0.5" d="M123 122.355C123 124.212 115.662 125.718 106.608 125.718C97.5537 125.718 90.2188 124.218 90.2188 122.355C90.2188 120.492 97.5567 118.992 106.608 118.992C115.659 118.992 123 120.498 123 122.355Z" fill="white"/>
<path d="M52.1997 116.676C52.1997 116.676 51.9387 117.561 52.8777 118.551C53.8167 119.541 55.2237 120.273 54.9627 120.741C54.7017 121.209 53.1387 120.741 52.0947 120.273C51.0507 119.805 50.5947 118.812 49.8537 118.344C49.1127 117.876 49.4907 117.771 49.8027 116.937C49.9556 116.504 50.1473 116.085 50.3757 115.686L52.1997 116.676Z" fill="white" stroke="#263238" stroke-linecap="round" stroke-linejoin="round"/>
<path d="M49.7995 116.937C49.8385 116.829 49.8744 116.751 49.9104 116.658C50.4324 117.204 51.3625 118.134 51.3625 118.134C51.4633 117.871 51.6039 117.625 51.7795 117.405C51.8203 117.335 51.8779 117.276 51.947 117.234C52.016 117.191 52.0945 117.167 52.1754 117.162C52.2463 117.69 52.4924 118.179 52.8745 118.551C53.8135 119.541 55.2204 120.273 54.9594 120.741C54.6984 121.209 53.1355 120.741 52.0915 120.273C51.0475 119.805 50.5914 118.812 49.8504 118.344C49.1094 117.876 49.4995 117.771 49.7995 116.937Z" fill="#455A64" stroke="#263238" stroke-linecap="round" stroke-linejoin="round"/>
<path d="M48.5065 119.28C48.8768 120.024 49.3307 120.724 49.8595 121.365C50.6995 122.358 52.1995 123.087 52.1995 123.6C52.1995 124.113 50.7415 124.434 49.2295 123.858C47.7175 123.282 46.7275 122.4 46.5715 121.41C46.4736 120.736 46.4215 120.057 46.4155 119.376C46.4155 119.376 48.1915 119.49 48.5065 119.28Z" fill="white" stroke="#263238" stroke-linecap="round" stroke-linejoin="round"/>
<path d="M57.8995 79.146C57.8995 79.146 59.5675 88.893 60.2995 93.897C61.0315 98.901 60.9265 98.997 60.5095 100.569C60.0925 102.141 52.3765 116.469 52.2205 116.676C52.0645 116.883 50.7205 116.622 50.5525 116.154L50.3965 115.686C50.3965 115.686 53.7835 103.332 54.7735 101.142C55.7635 98.952 55.7665 98.277 54.8275 95.775C53.8885 93.273 52.1995 88.8 52.1995 88.8C52.1995 88.8 51.2995 97.92 49.8535 104.748C48.4075 111.576 48.8635 119.031 48.5005 119.289C48.1375 119.547 46.6735 119.76 46.4665 119.187C46.2595 118.614 43.5985 109.23 44.3815 103.029C45.1645 96.828 45.9985 94.896 45.1645 91.143C44.3305 87.39 43.3375 82.074 43.5475 79.143C43.7575 76.212 55.6975 75.864 57.8995 79.146Z" fill="#263238" stroke="#263238" stroke-linecap="round" stroke-linejoin="round"/>
<path d="M46.5777 121.419C46.5267 121.095 46.4937 120.771 46.4697 120.474C46.9437 120.81 47.5677 121.209 47.5677 121.209C47.6911 120.818 47.9049 120.461 48.1917 120.168C48.2945 120.086 48.4172 120.032 48.5473 120.013C48.6774 119.993 48.8104 120.009 48.9327 120.057C49.2082 120.516 49.5181 120.953 49.8597 121.365C50.6997 122.358 52.1997 123.087 52.1997 123.6C52.1997 124.113 50.7417 124.434 49.2297 123.858C47.7177 123.282 46.7337 122.4 46.5777 121.419Z" fill="#455A64" stroke="#263238" stroke-linecap="round" stroke-linejoin="round"/>
<path d="M75.8218 65.448H72.7198C72.4198 65.448 70.0048 66.69 70.0048 66.69L64.6558 68.319L65.2768 70.491L70.3948 67.929L72.1768 67.776C72.7365 67.727 73.2602 67.479 73.6528 67.077C73.6528 67.077 75.4348 66.612 75.8218 66.303C76.2088 65.994 75.8218 65.448 75.8218 65.448Z" fill="white" stroke="#263238" stroke-linecap="round" stroke-linejoin="round"/>
<path d="M114.3 41.889C114.3 41.889 113.379 38.91 109.404 38.343C105.429 37.776 101.604 39.195 100.323 42.315C99.0417 45.435 101.943 47.028 101.091 49.44C100.239 51.852 95.3427 49.722 92.6487 53.058C89.9547 56.394 90.3057 59.016 91.8657 61.359C93.4257 63.702 95.4147 64.059 93.4977 66.255C91.5807 68.451 89.5257 69.66 90.4467 73.278C91.3677 76.896 95.2737 79.947 103.347 80.088C111.42 80.229 112.428 73.137 111.861 67.389C111.294 61.641 113.136 60.366 116.061 57.387C118.986 54.408 118.695 46.857 114.3 41.889Z" fill="#263238" stroke="#263238" stroke-linecap="round" stroke-linejoin="round"/>
<path d="M95.2588 77.295C95.9758 77.895 96.8368 78.096 97.5568 77.76" stroke="white" stroke-linecap="round" stroke-linejoin="round"/>
<path d="M94.7277 56.4C94.0227 56.9558 93.5535 57.7572 93.4137 58.644C92.8377 62.211 96.6357 63.708 97.3137 65.778C97.9917 67.848 94.4367 69.576 93.8607 72.915C93.6153 74.1603 93.8662 75.4521 94.5597 76.515" stroke="white" stroke-linecap="round" stroke-linejoin="round"/>
<path d="M103.2 47.379C103.2 47.379 102.855 51.636 100.899 53.364C99.9539 54.198 98.3099 54.627 96.7979 55.254" stroke="white" stroke-linecap="round" stroke-linejoin="round"/>
<path d="M108.881 46.482C109.417 48.0945 110.397 49.5226 111.71 50.601C115.163 53.364 116.888 53.823 116.888 53.823" stroke="white" stroke-linecap="round" stroke-linejoin="round"/>
<path d="M108.258 43.236C108.268 43.6543 108.308 44.0714 108.378 44.484" stroke="white" stroke-linecap="round" stroke-linejoin="round"/>
<path d="M112.977 41.4C111.125 41.1794 109.25 41.4992 107.577 42.321C104.7 43.701 102.63 45.774 101.247 44.853" stroke="white" stroke-linecap="round" stroke-linejoin="round"/>
<path d="M115.413 51.6C115.766 51.9074 116.145 52.1853 116.544 52.431" stroke="white" stroke-linecap="round" stroke-linejoin="round"/>
<path d="M112.056 41.739C112.056 41.739 111.384 47.103 114.549 50.739" stroke="white" stroke-linecap="round" stroke-linejoin="round"/>
<path d="M101.237 42.432C101.237 42.432 101.813 43.35 104.921 41.511C108.029 39.672 110.444 40.473 111.71 40.935" stroke="white" stroke-linecap="round" stroke-linejoin="round"/>
<path d="M107.012 93.426C107.012 93.426 106.727 99.387 106.727 102.225C106.727 105.063 106.229 115.278 106.586 118.683C106.943 122.088 108.986 123.723 109.637 123.579C110.288 123.435 109.991 121.179 109.211 119.322C108.431 117.465 108.431 113.859 108.713 113.022C108.995 112.185 111.551 107.133 111.551 104.295C111.551 101.457 111.056 99.399 111.41 97.056C111.764 94.713 111.977 93.723 111.977 93.723L107.012 93.426Z" fill="white" stroke="#263238" stroke-miterlimit="10"/>
<path d="M109.637 123.579C110.201 123.453 110.042 121.659 109.457 119.979C109.292 120.918 109.019 121.371 108.107 121.068C107.802 120.941 107.524 120.753 107.291 120.517C107.058 120.282 106.875 120.002 106.751 119.694C107.357 122.4 109.064 123.708 109.637 123.579Z" fill="#455A64" stroke="#263238" stroke-linecap="round" stroke-linejoin="round"/>
<path d="M105.816 93.426C105.816 93.426 106.098 99.387 106.098 102.225C106.098 105.063 106.596 115.278 106.242 118.683C105.888 122.088 103.842 123.723 103.191 123.579C102.54 123.435 102.837 121.179 103.617 119.322C104.397 117.465 104.397 113.859 104.112 113.022C103.827 112.185 101.274 107.133 101.274 104.295C101.274 101.457 101.772 99.399 101.418 97.056C101.064 94.713 100.848 93.723 100.848 93.723L105.816 93.426Z" fill="white" stroke="#263238" stroke-miterlimit="10"/>
<path d="M103.944 121.356C103.044 121.257 103.617 119.322 103.617 119.322C102.837 121.167 102.552 123.438 103.191 123.579C103.83 123.72 105.624 122.295 106.149 119.328C105.573 120.138 104.556 121.425 103.944 121.356Z" fill="#455A64" stroke="#263238" stroke-linecap="round" stroke-linejoin="round"/>
<path d="M105.269 52.917L98.4595 55.47L101.651 69.729C101.651 69.729 99.3115 72.78 98.3185 75.975C97.3255 79.17 97.7485 84.558 98.6005 87.894C99.4525 91.23 100.772 94.845 100.772 94.845H112.376C112.376 94.845 115.343 84.771 114.776 78.741C114.453 75.1591 113.338 71.6938 111.512 68.595L114.422 55.185L107.822 52.704L105.269 52.917Z" fill="#455A64" stroke="#263238" stroke-linecap="round" stroke-linejoin="round"/>
<path d="M104.34 82.248C104.34 82.248 106.548 87.684 106.38 92.1" stroke="#263238" stroke-linecap="round" stroke-linejoin="round"/>
<path d="M109.098 83.268C108.576 84.5934 107.891 85.8482 107.058 87.003" stroke="#263238" stroke-linecap="round" stroke-linejoin="round"/>
<path d="M104.775 51.789C104.914 53.2768 105.175 54.7507 105.555 56.196C106.122 58.164 107.256 58.821 108.036 56.478C108.816 54.135 108.534 50.292 108.534 50.292C108.534 50.292 106.689 52.914 104.775 51.789Z" fill="white" stroke="#263238" stroke-linecap="round" stroke-linejoin="round"/>
<path d="M114.423 55.2L120.387 67.755C120.711 68.457 120.57 70.047 119.976 70.542C119.78 70.7061 119.551 70.8245 119.304 70.8887C119.057 70.9528 118.798 70.961 118.548 70.9128C118.297 70.8645 118.06 70.7609 117.855 70.6096C117.649 70.4583 117.48 70.263 117.36 70.038L113.076 61.587L114.423 55.2Z" fill="#455A64" stroke="#263238" stroke-linecap="round" stroke-linejoin="round"/>
<path d="M114.776 79.1264C117.616 76.2866 117.616 71.6822 114.776 68.8423C111.936 66.0024 107.332 66.0024 104.492 68.8423C101.652 71.6822 101.652 76.2866 104.492 79.1265C107.332 81.9664 111.936 81.9663 114.776 79.1264Z" fill="#263238" stroke="#263238" stroke-linecap="round" stroke-linejoin="round"/>
<path d="M114.281 72.924H110.696V69.339H108.569V72.924H104.987V75.051H108.569V78.636H110.696V75.051H114.281V72.924Z" fill="#455A64"/>
<path d="M118.041 67.389L111.657 76.824L112.857 78.102C112.857 78.102 120.588 70.725 120.873 69.729C121.158 68.733 120.306 67.602 119.808 66.822" fill="#455A64"/>
<path d="M118.041 67.389L111.657 76.824L112.857 78.102C112.857 78.102 120.588 70.725 120.873 69.729C121.158 68.733 120.306 67.602 119.808 66.822" stroke="#263238" stroke-linecap="round" stroke-linejoin="round"/>
<path d="M111.657 76.824C111.657 76.824 109.812 77.535 109.599 77.676C109.17 78.1518 108.769 78.6527 108.399 79.176C108.399 79.176 108.042 80.028 108.399 80.028C108.756 80.028 109.038 79.458 109.251 79.317C109.464 79.176 109.533 79.884 109.251 80.169C108.969 80.454 108.186 81.669 108.753 81.942C109.32 82.215 109.818 81.447 110.031 81.447C110.244 81.447 111.378 81.588 112.017 80.877C112.656 80.166 112.869 78.111 112.869 78.111L111.657 76.824Z" fill="white" stroke="#263238" stroke-linecap="round" stroke-linejoin="round"/>
<path d="M98.4596 55.47L95.3996 67.611C95.2406 68.247 94.6286 69.696 95.1656 70.074L95.5226 70.431C96.3236 70.995 97.8776 70.86 98.3066 69.984L100.455 64.41L98.4596 55.47Z" fill="#455A64" stroke="#263238" stroke-linecap="round" stroke-linejoin="round"/>
<path d="M96.9689 67.176L88.2419 65.976L88.1729 67.536C88.1729 67.536 92.9249 70.056 94.4729 70.767C96.0209 71.478 97.7878 71.124 98.2828 69.99C98.7778 68.856 99.2999 66.483 99.2999 66.483" fill="#455A64"/>
<path d="M96.9689 67.176L88.2419 65.976L88.1729 67.536C88.1729 67.536 92.9249 70.056 94.4729 70.767C96.0209 71.478 97.7878 71.124 98.2828 69.99C98.7778 68.856 99.2999 66.483 99.2999 66.483" stroke="#263238" stroke-linecap="round" stroke-linejoin="round"/>
<path d="M87.0833 66.555C86.7935 66.4492 86.4908 66.3827 86.1833 66.357L85.6254 64.905C85.6254 64.905 84.1613 64.587 83.3033 64.737C82.4454 64.887 83.5044 66.153 83.7084 66.456C83.7834 66.57 84.1973 66.678 84.6803 66.756L84.4134 67.656C84.4134 67.656 85.2743 68.16 85.8803 68.16C86.4863 68.16 88.1813 67.518 88.1813 67.518C87.9163 67.0975 87.5348 66.763 87.0833 66.555Z" fill="white" stroke="#263238" stroke-linecap="round" stroke-linejoin="round"/>
<path d="M78.3028 75.402C82.319 75.402 85.5748 72.1462 85.5748 68.13C85.5748 64.1138 82.319 60.858 78.3028 60.858C74.2866 60.858 71.0308 64.1138 71.0308 68.13C71.0308 72.1462 74.2866 75.402 78.3028 75.402Z" fill="#263238" stroke="#263238" stroke-linecap="round" stroke-linejoin="round"/>
<path d="M82.9497 67.068H79.3678V63.483H77.2378V67.068H73.6558V69.195H77.2378V72.777H79.3678V69.195H82.9497V67.068Z" fill="#455A64"/>
<path d="M88.2417 65.97C88.2417 65.97 86.0427 64.905 85.6167 64.905C85.1907 64.905 84.1977 66.681 83.8437 66.894C83.4897 67.107 82.8507 67.461 83.4897 67.602C84.0352 67.6728 84.5881 67.5473 85.0497 67.248C85.2499 67.0952 85.4393 66.9288 85.6167 66.75C85.6167 66.75 86.1147 67.035 86.6097 67.248C87.1173 67.4052 87.6421 67.4999 88.1727 67.53L88.2417 65.97Z" fill="white" stroke="#263238" stroke-linecap="round" stroke-linejoin="round"/>
<path d="M44.4567 41.574C44.4567 41.574 43.1067 40.224 39.3567 40.224C35.6067 40.224 33.2067 44.874 33.2067 48.174C33.2067 51.474 35.1567 56.124 35.9067 59.274C36.6567 62.424 36.0567 64.974 33.2067 65.274C30.3567 65.574 28.9047 68.214 31.7547 71.364C34.6047 74.514 42.2067 72.474 44.6067 68.124C47.0067 63.774 47.9067 61.074 46.8567 53.424C45.8067 45.774 44.4567 41.574 44.4567 41.574Z" fill="#263238" stroke="#263238" stroke-linecap="round" stroke-linejoin="round"/>
<path d="M42.1856 42.675C42.1856 42.675 37.6856 42.531 36.1016 47.457C34.5176 52.383 37.6946 55.716 38.2736 61.221C38.8526 66.726 37.5506 69.48 34.0736 69.192C30.5966 68.904 32.3336 66 33.6386 66C34.9436 66 34.9406 67.305 34.9406 67.305" stroke="white" stroke-linecap="round" stroke-linejoin="round"/>
<path d="M41.7507 44.7C40.1577 47.148 39.0117 50.169 40.2507 53.001C41.2857 55.383 43.2507 57.075 42.4827 59.901" stroke="white" stroke-linecap="round" stroke-linejoin="round"/>
<path d="M52.3467 42.672C52.3467 42.672 54.1467 43.818 53.7567 45.141C53.3667 46.464 51.7737 46.941 51.5517 46.464C51.3297 45.987 50.3517 43.599 50.7147 42.891C51.0777 42.183 52.3467 42.672 52.3467 42.672Z" fill="#263238" stroke="#263238" stroke-linecap="round" stroke-linejoin="round"/>
<path d="M48.8188 53.4C48.8638 53.532 48.8188 53.796 49.7188 55.536C50.3008 56.682 53.0188 58.086 53.0188 58.086C53.0188 58.086 49.1398 58.737 48.1258 58.956C47.1118 59.175 42.9688 57.486 42.9688 57.486C42.9688 57.486 45.2188 56.664 45.2188 53.886C45.2188 51.108 45.5998 50.61 45.5998 50.61C46.0085 50.5844 46.4166 50.6691 46.7814 50.8555C47.1461 51.0418 47.454 51.3228 47.6728 51.669C48.0846 52.2257 48.4671 52.8035 48.8188 53.4Z" fill="white" stroke="#263238" stroke-linecap="round" stroke-linejoin="round"/>
<path d="M53.6065 55.974C53.6065 55.974 55.5565 56.574 56.3065 57.774C57.0565 58.974 59.4565 69.174 59.4565 69.174C59.4565 69.174 59.7565 69.174 61.4065 68.724C63.0565 68.274 62.3215 68.532 62.3215 68.532L63.3715 68.832L65.2555 68.073L66.1285 70.566L64.5715 71.232C64.5715 71.232 63.8215 72.882 62.9215 73.332C61.5471 73.9643 60.0668 74.3347 58.5565 74.424C56.6065 74.574 55.1065 73.374 55.1065 71.874C55.1065 70.374 53.4565 58.674 53.4565 58.674" fill="#455A64"/>
<path d="M53.6065 55.974C53.6065 55.974 55.5565 56.574 56.3065 57.774C57.0565 58.974 59.4565 69.174 59.4565 69.174C59.4565 69.174 59.7565 69.174 61.4065 68.724C63.0565 68.274 62.3215 68.532 62.3215 68.532L63.3715 68.832L65.2555 68.073L66.1285 70.566L64.5715 71.232C64.5715 71.232 63.8215 72.882 62.9215 73.332C61.5471 73.9643 60.0668 74.3347 58.5565 74.424C56.6065 74.574 55.1065 73.374 55.1065 71.874C55.1065 70.374 53.4565 58.674 53.4565 58.674" stroke="#263238" stroke-linecap="round" stroke-linejoin="round"/>
<path d="M50.7476 83.055C47.3366 83.463 45.1016 83.292 43.7336 83.034C43.5594 81.7418 43.4992 80.4368 43.5536 79.134C43.7606 76.215 55.6976 75.852 57.8876 79.134C57.8876 79.134 58.0076 79.848 58.1876 80.967C57.9266 81.249 56.4896 82.371 50.7476 83.055Z" fill="white" stroke="#263238" stroke-linecap="round" stroke-linejoin="round"/>
<path d="M57.3474 74.607C57.1074 68.67 58.3434 66.243 53.6064 55.974C51.7494 55.503 51.1914 55.812 50.6064 54.984C49.7155 55.8303 48.5965 56.3976 47.3874 56.616C45.3144 57.012 44.1684 55.998 44.1684 55.998C44.1684 55.998 38.2584 56.616 38.8764 59.613C39.4944 62.61 42.7554 71.034 42.8874 74.034C43.0194 77.034 41.8734 80.208 42.8874 80.868C43.9014 81.528 48.8874 82.104 52.6794 81.444C56.4714 80.784 59.0994 79.8 58.8894 78.84C58.6794 77.88 57.4284 76.593 57.3474 74.607Z" fill="#455A64" stroke="#263238" stroke-linecap="round" stroke-linejoin="round"/>
<path d="M56.7895 68.019C56.7895 68.019 53.6485 73.419 51.2095 75.69" stroke="#263238" stroke-linecap="round" stroke-linejoin="round"/>
<path d="M52.0797 72.9C50.8154 74.186 49.3413 75.2471 47.7207 76.038" stroke="#263238" stroke-linecap="round" stroke-linejoin="round"/>
<path d="M44.6066 54.924C44.6066 54.924 45.3086 57.024 47.3816 56.616C48.5908 56.3976 49.7097 55.8303 50.6006 54.984C50.8436 55.323 51.4226 55.584 52.1396 55.812C51.6566 58.812 47.9396 59.754 45.6566 59.112C44.2616 58.731 43.5566 57.036 42.9956 56.181C43.6706 56.052 44.6066 54.924 44.6066 54.924Z" fill="white" stroke="#263238" stroke-linecap="round" stroke-linejoin="round"/>
<path d="M41.9339 78C41.9339 78 43.7339 82.995 44.3819 85.761C45.0299 88.527 44.5259 89.541 44.5709 91.053C44.6159 92.565 44.5709 94.305 44.2949 94.224C44.0189 94.143 43.8869 93.57 43.8899 92.979C43.8929 92.388 43.8569 90.768 43.8569 90.768C43.8569 90.768 43.1219 93.033 43.0349 93.228C42.9479 93.423 42.5489 93.504 42.6599 92.865C42.7709 92.226 43.1969 90.18 43.1969 90.18C43.1969 90.18 42.0419 92.235 41.9459 92.358C41.8499 92.481 41.3699 92.496 41.5049 92.076C41.6399 91.656 42.6269 89.397 42.6269 89.397C42.6269 89.397 41.2259 90.999 41.0699 90.945C40.9139 90.891 40.9229 90.63 41.0699 90.345C41.2169 90.06 42.0929 88.971 42.2219 88.809C42.3509 88.647 42.3179 88.686 42.4679 88.077C42.6179 87.468 43.0679 86.901 43.1579 86.706C43.2479 86.511 38.9219 77.859 38.9219 77.859L41.9339 78Z" fill="white" stroke="#263238" stroke-linecap="round" stroke-linejoin="round"/>
<path d="M41.1449 56.91C41.1449 56.91 37.9439 57.492 37.2149 59.094C36.4859 60.696 37.5149 63.75 37.5149 65.643C37.5149 67.536 36.4979 72.774 36.9329 74.085C37.3679 75.396 37.6619 77.142 37.8059 77.724C37.9499 78.306 39.2609 78.741 39.2609 78.741L39.6659 80.505L42.9659 79.884L42.5999 78.3C42.5999 78.3 43.3289 78.444 43.0379 76.698C42.7469 74.952 42.1649 73.932 42.1649 72.477C42.1649 71.022 42.0179 66.075 42.7469 63.018" fill="#455A64"/>
<path d="M41.1449 56.91C41.1449 56.91 37.9439 57.492 37.2149 59.094C36.4859 60.696 37.5149 63.75 37.5149 65.643C37.5149 67.536 36.4979 72.774 36.9329 74.085C37.3679 75.396 37.6619 77.142 37.8059 77.724C37.9499 78.306 39.2609 78.741 39.2609 78.741L39.6659 80.505L42.9659 79.884L42.5999 78.3C42.5999 78.3 43.3289 78.444 43.0379 76.698C42.7469 74.952 42.1649 73.932 42.1649 72.477C42.1649 71.022 42.0179 66.075 42.7469 63.018" stroke="#263238" stroke-linecap="round" stroke-linejoin="round"/>
<path d="M69.981 66.777L71.238 65.025L73.215 64.596C73.215 64.596 74.031 64.353 73.92 64.791C73.809 65.229 73.659 65.274 73.14 65.43L72.24 65.694C72.0879 66.165 71.7813 66.5709 71.37 66.846C71.2379 66.9169 71.0931 66.9608 70.944 66.975" fill="white"/>
<path d="M69.981 66.777L71.238 65.025L73.215 64.596C73.215 64.596 74.031 64.353 73.92 64.791C73.809 65.229 73.659 65.274 73.14 65.43L72.24 65.694C72.0879 66.165 71.7813 66.5709 71.37 66.846C71.2379 66.9169 71.0931 66.9608 70.944 66.975" stroke="#263238" stroke-linecap="round" stroke-linejoin="round"/>
<path d="M51.9928 43.245C51.9928 43.245 52.7878 48.405 52.3468 50.301C51.9058 52.197 50.3998 54 48.8188 53.784C47.2378 53.568 46.0408 51.402 46.0408 51.402C46.0408 51.402 45.5548 51.702 45.3358 51.36C45.1168 51.018 45.0718 50.124 45.3358 49.197C45.5998 48.27 49.7458 42.186 51.9928 43.245Z" fill="white" stroke="#263238" stroke-linecap="round" stroke-linejoin="round"/>
<path d="M48.8638 46.857C48.9386 46.6635 49.0693 46.4967 49.2391 46.3775C49.409 46.2584 49.6104 46.1925 49.8178 46.188" stroke="#263238" stroke-linecap="round" stroke-linejoin="round"/>
<path d="M51.1943 46.011C51.3345 45.9525 51.4899 45.9417 51.6368 45.9802C51.7837 46.0187 51.9139 46.1044 52.0073 46.224" stroke="#263238" stroke-linecap="round" stroke-linejoin="round"/>
<path d="M51.1138 47.523C51.1138 47.523 50.8618 48.363 51.3658 48.618C51.8698 48.873 51.3658 49.29 51.1978 49.542" stroke="#263238" stroke-linecap="round" stroke-linejoin="round"/>
<path d="M50.6995 50.889C50.4576 50.9304 50.2092 50.9136 49.975 50.84C49.7408 50.7665 49.5274 50.6383 49.3525 50.466" stroke="#263238" stroke-linecap="round" stroke-linejoin="round"/>
<path d="M49.9586 47.811C49.9586 48.066 49.8626 48.27 49.7456 48.27C49.6286 48.27 49.5356 48.066 49.5356 47.811C49.5356 47.556 49.6286 47.352 49.7456 47.352C49.8626 47.352 49.9586 47.559 49.9586 47.811Z" fill="#263238"/>
<path d="M51.8669 47.7C51.8669 47.952 51.7709 48.159 51.6539 48.159C51.5369 48.159 51.4409 47.952 51.4409 47.7C51.4409 47.448 51.5369 47.241 51.6539 47.241C51.7709 47.241 51.8669 47.451 51.8669 47.7Z" fill="#263238"/>
<path d="M46.257 40.824C46.257 40.824 52.656 40.29 52.92 41.613C53.184 42.936 48.024 47.4 46.482 49.374C44.94 51.348 44.364 51.843 43.572 51.534C42.78 51.225 40.425 46.992 41.307 44.124C42.189 41.256 46.257 40.824 46.257 40.824Z" fill="#263238" stroke="#263238" stroke-linecap="round" stroke-linejoin="round"/>
<path d="M50.4445 41.082C50.4445 41.082 49.2865 45.864 46.3885 48.036C43.4905 50.208 42.3325 49.2 42.3325 49.2" stroke="white" stroke-linecap="round" stroke-linejoin="round"/>
<path d="M46.2566 40.824C46.2566 40.824 47.1116 44.559 45.6566 46.299C44.2016 48.039 41.6006 47.892 41.6006 47.892" stroke="white" stroke-linecap="round" stroke-linejoin="round"/>
<path d="M107.567 44.079C107.48 44.04 107.471 43.98 107.522 43.902C107.492 43.764 107.471 43.668 107.459 43.62C106.92 43.9715 106.354 44.2805 105.767 44.544C104.69 45.0336 103.54 45.3447 102.362 45.465C102.362 45.465 102.929 49.365 104.063 51.354C104.888 52.797 105.695 53.553 107.825 52.206C108.318 51.8844 108.742 51.4682 109.072 50.9815C109.403 50.4949 109.634 49.9475 109.751 49.371C108.548 47.727 107.828 45.15 107.567 44.079Z" fill="white" stroke="#263238" stroke-linecap="round" stroke-linejoin="round"/>
<path d="M106.59 46.425C106.516 46.2313 106.386 46.0641 106.217 45.9449C106.047 45.8256 105.846 45.7599 105.639 45.756" stroke="#263238" stroke-linecap="round" stroke-linejoin="round"/>
<path d="M104.262 45.579C104.122 45.5207 103.967 45.5097 103.82 45.5476C103.673 45.5855 103.543 45.6703 103.449 45.789" stroke="#263238" stroke-linecap="round" stroke-linejoin="round"/>
<path d="M104.339 47.1C104.339 47.1 104.591 47.94 104.087 48.192C103.583 48.444 104.087 48.867 104.255 49.119" stroke="#263238" stroke-linecap="round" stroke-linejoin="round"/>
<path d="M104.76 50.454C105.002 50.4955 105.25 50.479 105.484 50.406C105.718 50.333 105.931 50.2055 106.107 50.034" stroke="#263238" stroke-linecap="round" stroke-linejoin="round"/>
<path d="M105.495 47.379C105.495 47.631 105.591 47.838 105.708 47.838C105.825 47.838 105.921 47.631 105.921 47.379C105.921 47.127 105.825 46.92 105.708 46.92C105.591 46.92 105.495 47.124 105.495 47.379Z" fill="#263238"/>
<path d="M103.59 47.274C103.59 47.526 103.683 47.733 103.8 47.733C103.917 47.733 104.013 47.526 104.013 47.274C104.013 47.022 103.92 46.815 103.8 46.815C103.68 46.815 103.59 47.019 103.59 47.274Z" fill="#263238"/>
</svg>
