<svg width="100" height="100" viewBox="0 0 100 100" fill="none" xmlns="http://www.w3.org/2000/svg">
<g clip-path="url(#clip0)">
<rect x="1" y="1" width="98" height="98" rx="49" fill="#FFBD12"/>
<path fill-rule="evenodd" clip-rule="evenodd" d="M89.8802 144.986C89.5787 142.185 89.3929 139.364 89.2863 136.549C89.1798 133.737 89.3191 130.89 89.3802 128.077C89.5049 122.355 89.7074 116.619 89.252 110.905C88.8216 105.505 87.8335 100.143 86.2742 94.9542C85.5149 92.4273 84.7147 89.7988 83.4658 87.464C82.21 85.1165 80.2209 83.5532 78.0359 82.1197C75.7096 80.5934 73.4019 79.0382 71.0847 77.4977C69.1395 76.2046 65.6391 74.6996 64.0431 72.9709C62.3638 71.1519 62.0481 66.643 60.9298 64.4883C59.8406 62.3894 56.7576 61.0203 54.3838 61.0203C50.4545 61.0203 47.4774 60.8194 44.2465 64.4555C42.6345 66.2698 43.9171 68.1038 42.2274 69.8451C40.674 71.446 36.7013 73.0913 34.6991 74.0202C32.301 75.1328 29.8425 76.1151 27.3483 76.9901C24.804 77.8827 22.1956 78.548 19.637 79.3904C17.1846 80.1979 13.9822 83.5261 12.0784 85.2872C10.3083 86.9245 9.86902 86.7412 8.52337 88.7302C5.5701 93.0953 2.6136 97.5106 0.261816 102.237C-0.909601 104.591 -2.04386 107.067 -2.46888 109.682C-2.92224 112.47 -2.47273 115.165 -1.73752 117.865C-0.989137 120.613 1.38737 123.229 2.16161 125.97C2.5184 127.233 1.29367 128.611 1.85701 129.801C2.13837 130.396 2.49268 130.925 2.89607 131.443C3.20689 131.842 4.41898 131.753 4.57582 132.242C4.73427 132.735 3.85734 133.759 3.84429 134.27C3.82578 135 3.7967 135.731 3.77271 136.462L3.63104 140.781C3.53796 143.62 3.44487 146.458 3.35179 149.297C3.32134 150.224 3.27698 151.129 3.49906 152.008C3.4189 151.934 3.34272 151.853 3.27313 151.762C3.06944 151.496 2.63746 151.721 2.81033 152.033C3.09889 152.552 3.51385 152.917 4.00138 153.18C4.56795 154.016 90.3704 155.882 90.7926 153.439C91.0295 152.068 90.5984 150.601 90.426 149.239C90.2465 147.821 90.0333 146.408 89.8802 144.986Z" fill="white"/>
<path fill-rule="evenodd" clip-rule="evenodd" d="M2.72112 109.687C2.93102 109.085 3.89117 109.345 3.67978 109.951C2.59311 113.065 3.36399 116.453 4.53876 119.426C4.77451 120.022 3.81263 120.278 3.58011 119.69C2.34432 116.563 1.57978 112.957 2.72112 109.687ZM10.0073 127.473C13.072 127.904 16.1391 128.17 19.2248 128.385C19.3628 128.395 19.4821 128.374 19.5852 128.329C19.4933 129.743 19.4187 131.157 19.3603 132.572C18.5189 132.549 17.6602 132.605 16.8263 132.582C15.7364 132.552 14.6478 132.498 13.5604 132.414C11.4551 132.255 9.35366 132.002 7.27205 131.651C6.49409 131.52 5.5061 131.441 4.62002 131.182C3.78241 130.937 3.03676 130.532 2.64529 129.769C2.31223 129.122 2.25134 128.33 2.25134 127.616C2.25134 127.123 2.33584 126.623 2.3868 126.127C2.45018 126.083 2.50734 126.029 2.55333 125.969C3.47793 126.262 4.43734 126.467 5.37686 126.666C6.90668 126.991 8.45888 127.255 10.0073 127.473ZM8.27881 115.977C8.29572 116.927 8.55856 117.791 9.06995 118.591C9.41593 119.132 8.55508 119.63 8.21146 119.093C7.60947 118.151 7.3045 117.093 7.28461 115.977C7.27318 115.336 8.26738 115.338 8.27881 115.977ZM86.8365 126.344C87.2515 126.367 87.669 126.381 88.0852 126.403C88.4523 126.717 88.9606 126.878 89.4248 126.778C89.4408 126.818 89.4554 126.863 89.4687 126.915C89.5507 127.235 89.5917 127.578 89.6389 127.904C89.6861 128.225 89.7222 128.548 89.747 128.871C89.7595 129.034 89.8378 129.402 89.7383 129.544C89.6489 129.672 89.4513 129.661 89.3146 129.677C88.9467 129.716 88.5739 129.735 88.2035 129.766C87.5039 129.827 86.8042 129.888 86.1058 129.949C85.421 130.009 84.6692 129.99 83.9993 130.17C83.885 128.826 83.7806 127.483 83.6837 126.137C84.7214 126.29 85.8063 126.286 86.8365 126.344ZM-0.170875 124.115C0.246689 124.921 0.631942 125.714 1.43103 126.199C1.53542 126.262 1.65224 126.295 1.77154 126.304C1.68207 126.688 1.62614 127.081 1.57643 127.444C1.46707 128.243 1.44346 129.07 1.64354 129.858C1.83865 130.625 2.16177 131.31 2.79557 131.801C3.0901 132.03 3.41198 132.204 3.75 132.342C3.69284 132.503 3.65928 132.662 3.67668 132.837C3.5959 133.244 3.54246 133.658 3.48406 134.054C3.35605 134.934 3.22805 135.816 3.12739 136.701C2.92606 138.461 2.76823 140.222 2.63526 141.988C2.50228 143.75 2.40659 145.514 2.32705 147.28C2.28604 148.182 2.25 149.085 2.21645 149.989C2.1829 150.918 2.03252 151.867 2.44263 152.729C2.7732 153.425 3.89043 153.385 4.23343 152.729C4.6684 151.895 4.54039 150.904 4.55158 149.989C4.56276 149.127 4.57768 148.264 4.59632 147.403C4.6336 145.639 4.68828 143.876 4.73178 142.112C4.77403 140.39 4.82623 138.669 4.86102 136.947C4.87842 136.046 4.87966 135.144 4.88463 134.243C4.88712 133.743 4.90825 133.21 4.87097 132.689C5.18165 132.762 5.49483 132.825 5.80427 132.888C8.16674 133.373 10.5541 133.726 12.9563 133.945C14.163 134.054 15.3735 134.131 16.5839 134.175C17.4737 134.207 18.3958 134.269 19.2993 134.236C19.2285 136.394 19.1962 138.553 19.1999 140.713C19.2024 142.271 19.2235 143.828 19.262 145.386C19.2831 146.206 19.3005 147.025 19.3254 147.844C19.3366 148.212 19.3366 148.584 19.3614 148.951C19.3689 149.065 19.385 149.176 19.4062 149.285C19.3242 149.518 19.2558 149.747 19.1999 149.963C18.9265 151.007 18.9265 152.01 19.0483 153.074C19.1527 153.977 19.912 154.814 20.9149 154.497C21.0777 154.446 21.2405 154.392 21.402 154.338C22.8784 154.505 24.3635 154.544 25.861 154.572C28.0495 154.615 30.2392 154.628 32.429 154.64C36.7239 154.662 41.0201 154.673 45.3163 154.686C53.9497 154.71 62.5831 154.734 71.2165 154.759C73.6125 154.767 76.0085 154.773 78.4045 154.78C79.6448 154.784 80.8826 154.785 82.1216 154.832C82.6995 154.855 83.2786 154.886 83.8565 154.895C84.5263 154.906 85.1191 154.713 85.7591 154.538C86.1208 154.437 86.2637 154.074 86.1866 153.767C86.7657 153.905 87.4679 153.612 87.6655 152.959C87.8097 152.485 87.7562 151.972 87.5412 151.533V151.532C87.1262 148.91 86.5992 146.3 86.1854 143.677C85.7318 140.804 85.2956 137.924 84.9116 135.04C84.6232 132.862 84.3859 134.406 84.1808 132.218C85.0744 132.287 86.0847 132.015 86.9696 131.9C87.6046 131.818 88.2446 131.752 88.8809 131.665C88.8337 132.306 88.8474 132.96 88.83 133.575C88.7964 134.798 88.8113 136.015 88.8424 137.237C88.902 139.595 89.035 138.223 89.2475 140.571C89.4625 142.937 89.726 145.294 90.0454 147.649C90.2094 148.861 90.3846 150.072 90.5698 151.282C90.6556 151.846 90.7438 152.409 90.8345 152.974C90.9426 153.639 90.9774 154.269 91.4758 154.769C91.8548 155.148 92.629 155.116 92.8801 154.587C93.1982 153.92 93.0541 153.348 92.936 152.647C92.8403 152.084 92.7484 151.52 92.6576 150.957C92.4638 149.75 92.2798 148.542 92.1071 147.332C91.774 145.001 91.4596 142.666 91.1788 140.329C90.8954 137.973 90.6021 139.349 90.3238 136.993C90.1833 135.805 90.0429 134.619 89.8788 133.434C89.7956 132.825 89.7434 132.176 89.634 131.548C89.6688 131.543 89.7036 131.537 89.7384 131.53C90.494 131.392 91.139 130.966 91.3291 130.188C91.5106 129.443 91.2943 128.586 91.1415 127.855C91.011 127.233 90.8931 126.438 90.4924 125.905C91.9042 124.106 92.8224 121.842 93.4081 119.666C94.0462 117.295 94.3132 114.82 94.3698 112.37C94.4354 109.531 94.2215 106.709 93.7352 103.933C93.7238 103.345 93.6967 102.757 93.6531 102.17C93.2256 96.4065 91.431 89.5849 85.7417 86.8919C85.7194 86.8809 85.6957 86.8708 85.6721 86.8609C85.226 86.3275 84.6692 85.8476 84.2194 85.3989C83.4228 84.6031 82.5901 83.8423 81.7078 83.1411C79.9604 81.7525 78.0441 80.6435 76.052 79.6451C74.0375 78.6344 71.9932 77.6859 70.0247 76.583C68.3097 75.6207 66.7662 74.462 65.301 73.1542C63.6543 71.6834 62.4824 69.7005 62.0226 67.536C61.999 67.423 61.8312 67.454 61.8287 67.5621C61.7082 71.5293 64.385 75.0352 67.4658 77.2531C71.1493 79.9026 75.5972 81.1569 79.3329 83.7255C80.2612 84.3633 81.1299 85.0831 81.9563 85.8476C80.6899 85.7183 79.4012 85.8004 78.2144 86.151C77.7471 86.1224 77.2774 86.1138 76.8088 86.0913C75.7376 86.0378 74.6651 85.9882 73.5926 85.9409C71.4066 85.844 69.2194 85.7557 67.0321 85.6787C62.7409 85.5269 58.4484 85.4125 54.156 85.3368C45.53 85.1837 36.8929 85.1539 28.2682 85.4039C25.9294 85.471 13.6311 85.0048 12.4928 85.1365C14.1667 83.6869 16.0035 82.5034 18.023 81.5299C20.5495 80.3152 23.1605 79.5046 25.8585 78.7636C31.4149 77.2382 37.185 75.7674 41.6315 71.8923C42.7363 70.9288 43.7181 69.8212 44.5222 68.5941C45.2902 67.423 46.144 65.9235 46.1651 64.495C46.18 63.4807 44.7682 63.1113 44.2662 63.9803C43.9542 64.5186 43.8001 65.1092 43.5454 65.6736C43.2918 66.2331 42.9911 66.7726 42.6568 67.2887C41.9994 68.3032 41.1841 69.2081 40.2968 70.0249C38.4053 71.768 36.1137 73.0448 33.7425 74.0108C28.359 76.2026 22.4708 77.1275 17.3693 80.017C15.1373 81.2812 13.001 83.0256 11.6601 85.2509C11.4439 85.2845 11.2289 85.3242 11.0139 85.369C11.1742 85.1663 11.3358 84.9638 11.4986 84.7623C11.6054 84.6305 11.4401 84.4566 11.3097 84.5733C8.7732 86.831 6.43683 89.269 4.31918 91.927C2.2935 94.4707 0.404519 97.1363 -0.932681 100.115C-3.33616 105.466 -3.86557 111.586 -2.62406 117.308C-2.28604 118.867 -1.80882 120.393 -1.20112 121.869C-0.887942 122.631 -0.548671 123.382 -0.170875 124.115Z" fill="black"/>
<path fill-rule="evenodd" clip-rule="evenodd" d="M54.587 12.5183C61.6434 12.5183 70.4813 20.5708 73.0679 23.9975C75.2426 26.8785 74.9349 41.7204 74.9349 50.5246C74.9349 52.366 74.1029 55.8509 73.8008 57.6123C72.694 64.0665 67.8718 69.4794 58.3277 69.4794C50.5565 69.4794 44.5761 67.017 38.7929 60.7189C37.4735 59.2821 31.03 64.4259 29.7123 62.5735C26.2703 62.5735 23.3922 30.4013 30.1501 20.7515C36.908 11.1017 47.5305 12.5183 54.587 12.5183Z" fill="white"/>
<path fill-rule="evenodd" clip-rule="evenodd" d="M33.3785 14.7842C37.4559 11.0731 42.888 9.28785 48.3685 9.41964C51.207 9.48801 54.0355 10.0288 56.7161 10.955C58.057 11.42 59.3557 12.0267 60.5972 12.713C61.0446 12.9597 61.457 13.2488 61.8541 13.5558L61.953 13.633H61.9543C63.0193 14.0159 63.97 14.7034 64.8325 15.5078C66.5611 15.3698 68.3035 15.5252 69.975 16.0585C72.3014 16.802 74.4551 18.1633 75.9675 20.0966C77.7292 22.3472 78.3149 25.0772 78.1059 27.8954L78.0673 28.3742C77.8607 30.8637 77.4905 34.0659 75.448 35.7017C75.2927 35.826 75.1212 35.9205 74.9435 35.9777C76.2596 38.2329 77.3395 40.7368 77.9857 43.2655C80.4526 52.9242 78.5562 62.9969 75.5897 72.3063C75.3461 73.0734 74.1867 73.5831 73.5963 72.8334C72.5425 71.4932 71.0114 70.4713 69.289 70.2798C68.2264 70.1617 67.1688 70.3755 66.1647 69.8932C65.7707 69.7029 65.3905 69.3921 65.1171 69.0142C63.422 69.6569 61.5963 69.9603 59.7857 69.8857C56.8142 69.7639 53.6378 68.7345 51.5935 66.4767C51.2654 66.1143 51.1822 65.7074 51.2578 65.3407C51.5142 65.2492 51.7774 65.181 52.0485 65.1384C54.6409 66.6668 57.4985 67.6882 60.5696 67.7523C62.3441 67.7894 64.075 67.5411 65.5139 66.4326C65.8252 66.1927 66.1115 65.927 66.3762 65.6415C69.3845 63.7056 71.5055 60.4173 72.5139 56.8951C73.4534 53.6105 73.3379 50.1903 73.0147 46.8212L72.8443 45.0433C72.5958 42.4338 72.3653 39.8166 72.3007 37.196L72.3202 37.195C72.9555 37.154 72.9601 36.159 72.3202 36.2004C70.6649 36.3076 69.0223 36.036 67.3722 36.1543C67.3584 35.3739 67.3022 34.597 67.0729 33.8444C66.942 33.4144 66.1935 33.3296 66.1142 33.8444C66.0081 34.5331 65.9693 35.218 65.9578 35.9099C63.4883 35.8771 61.0212 35.6692 58.5514 35.7546C58.0958 35.2685 57.9507 34.4066 57.7376 33.807C57.7065 33.7187 57.6755 33.6317 57.6432 33.5434C57.4559 34.4002 57.1904 35.2383 56.8412 36.0587L56.2355 36.0608C52.7987 36.0769 49.2919 36.1797 45.936 36.8937C45.7027 36.7145 45.5639 36.402 45.5263 36.1181C45.2829 34.2712 44.9355 32.4734 44.3197 30.7133L44.2317 30.465C44.2245 30.4444 44.2169 30.4225 44.2089 30.3995C43.7552 31.1321 43.2138 31.8151 42.6234 32.451C42.2754 32.8258 41.9106 33.1842 41.5361 33.5325C41.1724 33.9365 40.7964 34.3345 40.4321 34.7398C40.4464 34.8135 40.4588 34.8883 40.4688 34.9645C40.5803 35.8056 40.5919 36.6586 40.5102 37.5029C40.3626 39.0292 39.9319 40.4999 39.2399 41.8605L39.218 41.9968C39.1129 42.6344 38.9634 43.2933 38.6143 43.7735C39.05 44.2618 39.3857 44.8452 39.5803 45.4933C39.7535 46.0703 38.9555 46.5703 38.5417 46.0981C38.213 45.723 37.8478 45.4126 37.4466 45.1649C37.4213 45.1994 37.3755 45.2163 37.3242 45.1876C36.207 44.5672 34.3093 44.7549 33.1933 45.3392C31.8051 46.0653 31.2633 47.5559 31.4174 49.0665C31.5653 50.5099 32.1966 52.1969 33.4207 52.9367C33.9824 53.2761 34.4199 53.3047 35.0164 53.1418C35.2071 53.09 35.4436 52.931 35.5451 52.8521L35.645 52.772C36.036 52.4628 36.4002 52.251 36.8619 52.2429C37.334 52.0956 37.8086 52.3 37.9891 52.7952L38.0002 52.8272C38.0848 53.0796 38.2389 53.3967 38.2053 53.7821C38.1705 54.1948 37.9816 54.5703 37.6995 54.8724C37.651 54.9246 37.5988 54.9768 37.5454 55.0253C42.4046 60.2879 43.0284 68.4883 40.5367 75.0625C40.4286 75.351 40.313 75.6357 40.1925 75.9179C39.7761 76.8851 38.173 76.5855 37.9692 75.627C37.9083 75.3398 37.8412 75.0538 37.7679 74.7704C37.6331 74.2466 37.4787 73.7277 37.3046 73.2163L37.2384 73.0249C37.0906 72.6022 36.9526 72.1757 36.8035 71.753L36.7886 71.7047C36.783 71.6856 36.7768 71.6635 36.7699 71.6387L36.5176 72.1894L35.7509 73.8516C35.3921 74.6273 34.252 74.2057 34.2096 73.4583L34.2086 73.4327C34.2049 73.2947 34.1999 73.1579 34.1912 73.0224C34.1365 72.0067 33.9613 71.0195 33.6829 70.0535L33.5825 70.1784C32.087 72.0281 30.3318 73.7618 27.924 74.1885C27.3201 74.2955 26.6365 73.6639 27.0516 73.0535C27.2231 72.8011 27.3884 72.5425 27.545 72.2802C27.4095 72.2168 27.2815 72.1509 27.1635 72.0837C26.25 71.5703 25.4895 70.8393 24.8606 70.01C23.5272 68.2521 23.05 66.0391 22.9331 63.8734C22.8089 61.5846 23.0102 59.1715 23.6353 56.9635C23.9062 56.0087 24.2728 55.0924 24.6966 54.2035C24.6668 54.1239 24.6382 54.0444 24.6096 53.9648C24.1523 52.6893 23.777 51.3851 23.465 50.066C22.8362 47.403 22.4982 44.6555 22.4572 41.9191C22.3826 37.017 23.2277 32.0366 25.0085 27.4652C26.8478 22.7509 29.6142 18.2093 33.3785 14.7842ZM31.0882 57.6435C30.7505 57.1115 29.9055 57.591 30.2191 58.1267L30.2307 58.1458C30.7664 58.99 31.0174 59.9498 31.3256 60.8909C31.5232 61.4963 32.4839 61.2378 32.2838 60.6261L32.2175 60.4219C31.9108 59.4675 31.6311 58.4976 31.0882 57.6435ZM34.0296 47.4888L34.254 47.3801C34.9617 47.0423 35.5819 46.8121 36.4181 47.1071C37.5379 47.5012 38.7371 48.7556 37.9803 49.9728C37.7019 50.4216 37.2073 50.6006 36.6978 50.4949C35.8388 50.3167 35.6171 49.5429 35.1812 48.9076L35.1062 48.8001C34.8404 48.4157 34.5043 47.8843 34.0619 47.7337C33.9612 47.6989 33.919 47.5422 34.0296 47.4888ZM34.661 21.647L34.7332 21.5822C35.2142 21.157 34.5083 20.4559 34.0298 20.8786C31.8401 22.8143 31.0795 25.8441 29.9437 28.4263C29.6889 29.0069 30.5452 29.5141 30.8024 28.9285C31.8859 26.4645 32.6051 23.5169 34.661 21.647ZM60.975 20.8002C60.4029 20.5423 59.9023 21.3753 60.4524 21.6495L60.473 21.6593C62.4067 22.5333 63.2294 24.5126 64.0173 26.3501C64.2683 26.9369 65.1246 26.4309 64.876 25.849L64.7338 25.5193C63.9117 23.6257 62.9528 21.6955 60.975 20.8002ZM64.0058 19.6042C63.3993 19.3941 63.1396 20.3539 63.7411 20.564C65.3803 21.1347 66.5049 22.3655 67.4532 23.7728C67.8086 24.2999 68.6698 23.8026 68.3107 23.2705C67.2096 21.6369 65.9022 20.2656 64.0058 19.6042Z" fill="black"/>
<path fill-rule="evenodd" clip-rule="evenodd" d="M60.6774 60.7497C59.842 60.4088 59.0966 59.8401 58.5516 59.1136C58.3622 58.861 58.3131 58.5943 58.3528 58.3504C58.3975 58.0761 58.5597 57.8275 58.7809 57.6608C59.0028 57.4935 59.2804 57.4111 59.5487 57.4531C59.7819 57.4896 60.014 57.6174 60.1977 57.8823L60.2361 57.9352C60.5601 58.3737 60.9823 58.7335 61.4633 58.9654C61.927 59.1889 62.4455 59.2932 62.9821 59.2325C64.0041 59.117 64.7086 58.5641 65.4573 57.8132C65.5501 57.7184 65.643 57.6207 65.7363 57.5213C65.7952 57.4313 65.877 57.3734 65.9678 57.343C66.0686 57.3093 66.1827 57.3112 66.2871 57.3477C66.3879 57.3828 66.4779 57.4495 66.5383 57.5382C66.5957 57.6225 66.6283 57.7267 66.6177 57.8465C66.5492 58.6246 66.1425 59.3191 65.5649 59.8644C64.9233 60.4701 64.0728 60.889 63.2722 61.036C62.3901 61.1979 61.4913 61.0819 60.6774 60.7497ZM63.6883 48.7451C64.6267 49.3158 66.0566 50.6464 65.0471 52.0611C63.8587 53.3085 62.1478 51.8783 61.3047 51.2315C60.5229 50.7301 59.6445 52.0195 60.3698 52.6048C66.4623 57.1172 68.9347 48.8943 64.1629 48.0742C63.6375 47.9838 63.4424 48.5686 63.6883 48.7451ZM52.7706 43.4961C52.8743 42.2085 54.8344 41.9162 55.0294 43.1902C55.204 44.3315 54.9985 45.3799 54.4846 46.4075C53.9936 47.3891 52.7595 46.9311 52.6661 46.0373C52.541 44.839 52.7061 44.297 52.7706 43.4961ZM67.6915 42.9261C67.9648 42.568 68.3594 42.3236 68.8321 42.4617C70.3091 42.8935 69.8738 44.9912 69.355 46.0123C69.0732 46.5667 68.1621 46.7074 67.7504 46.2191C67.0793 45.423 66.7579 43.833 67.6111 43.0488C67.6342 43.0082 67.6599 42.9673 67.6915 42.9261ZM54.4638 37.8622L54.6971 37.8214C55.4189 37.6965 56.3163 37.5765 56.8269 38.157C57.0977 38.4648 57.1909 39.037 56.8269 39.3316C56.1866 39.85 55.4787 39.6491 54.7115 39.693C54.0792 39.7293 53.4715 39.834 52.8624 40.0082C51.5262 40.3902 50.4374 41.0877 49.2962 41.8535C49.1464 41.954 48.9936 41.7624 49.065 41.6223C49.7238 40.3314 51.0005 39.2711 52.2793 38.6247C52.9618 38.2797 53.7087 37.9935 54.4638 37.8622ZM66.3451 37.284L66.5237 37.3205C68.467 37.7269 70.9918 38.5387 71.9121 40.4482C71.9471 40.7182 71.9101 40.7761 71.88 40.8139L71.8699 40.8265C71.8451 40.8588 71.8253 40.9033 71.7083 40.94C71.6758 40.9323 71.6431 40.9241 71.6099 40.9154C71.1881 40.8048 70.8543 40.6525 70.5312 40.4944L70.1809 40.3217C69.7745 40.1223 69.3644 39.9302 68.9299 39.7884C68.0025 39.4858 67.0487 39.2727 66.08 39.1588C65.8701 39.1342 65.6679 39.0633 65.5084 38.9418C65.357 38.8265 65.2414 38.6668 65.1886 38.4546C65.1203 38.18 65.1399 37.9721 65.2872 37.7243C65.398 37.5382 65.5565 37.4093 65.7385 37.3352C65.924 37.2597 66.1352 37.2419 66.3451 37.284Z" fill="black"/>
<path fill-rule="evenodd" clip-rule="evenodd" d="M74.1676 49.8579C73.3309 50.9824 71.7797 51.3405 70.3489 51.2168C67.263 50.9197 66.2918 47.4137 66.1907 44.6886C68.26 45.2709 66.0157 41.1466 73.0893 40.6931C75.5829 40.4852 74.8954 41.9918 75.9971 43.0925C75.9745 45.4027 75.5901 47.9129 74.1676 49.8579ZM59.4695 47.2033C57.6477 55.7385 47.6711 53.7083 46.6231 46.0144C47.5908 45.3311 47.3359 43.6439 48.5382 43.0326C50.4436 41.8148 52.8254 41.8668 54.9892 41.8954C57.7549 42.0855 58.5431 43.2317 59.9638 44.4821C59.8954 45.3173 59.6983 46.3072 59.4695 47.2033ZM78.1197 39.2795C78.0174 39.2625 77.915 39.2465 77.8126 39.2314C77.7327 39.186 77.6389 39.1511 77.5298 39.1301C77.2806 39.0668 77.0332 39.0242 76.7861 39.0012C73.2403 38.2029 65.0373 39.3363 64.6987 42.3634C63.5696 42.7405 62.5925 42.4028 61.2838 42.4364C60.2876 38.2709 43.0652 38.8588 42.2369 41.3702C42.2338 41.3693 42.2307 41.3685 42.2274 41.3675C41.4316 41.1211 40.2583 41.1806 39.3474 41.1415C37.4023 41.1007 35.4551 41.2742 33.552 41.6846C29.9884 42.2511 25.1249 42.9144 27.6034 47.3662C27.6039 47.3669 27.6042 47.3678 27.6048 47.3685L27.6052 47.3682C28.0324 47.8062 28.7573 47.4534 28.7842 46.8605C27.951 44.7515 29.833 44.4983 31.281 43.8922C34.8841 42.5972 38.5525 42.4177 42.279 42.8183C42.5594 43.1485 42.9848 43.4364 43.4344 43.5871C45.926 44.0008 44.6129 45.8498 46.1878 46.1187C45.8985 52.5639 53.7205 56.082 58.2527 51.8452C60.0623 50.0753 60.4936 47.4534 60.9132 45.0902C61.135 45.0403 61.2761 44.919 61.3585 44.7584C61.892 44.2255 62.2271 43.7334 63.2821 43.5871C64.3371 43.4409 65.1492 43.7344 65.2591 43.8243C65.2868 43.8801 65.3165 43.9361 65.3511 43.992C65.3993 44.0754 65.4649 44.142 65.5395 44.1943C64.4977 50.6124 69.4782 54.6713 74.5063 51.3425C76.691 49.2866 77.1527 46.139 77.2439 43.3295C77.5401 43.1507 77.7276 42.8042 77.6251 42.3686C77.4838 41.7681 77.8151 41.2482 78.3428 40.9871C79.0284 40.6481 78.9071 39.4099 78.1197 39.2795Z" fill="black"/>
</g>
<rect x="1" y="1" width="98" height="98" rx="49" stroke="#18191F" stroke-width="2"/>
<defs>
<clipPath id="clip0">
</clipPath>
</defs>
</svg>
