<svg width="150" height="150" viewBox="0 0 150 150" fill="none" xmlns="http://www.w3.org/2000/svg">
<path d="M135.582 86.934C135.974 84.9812 136.617 83.0875 137.496 81.3C139.896 76.386 141.621 72.087 140.094 66.6C136.353 53.199 121.137 51.633 113.631 41.526C102.027 25.908 73.5149 24.552 59.8949 38.049C55.7189 42.186 53.7629 48.03 49.5419 52.122C43.3229 58.155 34.0889 58.932 27.7019 64.947C17.2889 74.76 16.2779 91.389 25.5209 102.423C35.2829 114.075 49.0619 112.164 62.4449 109.686C69.0299 108.468 75.8759 107.148 82.5869 108.084C96.8999 110.1 113.883 117.963 127.755 110.136C135.144 105.966 135.333 99.462 135.162 91.875C135.12 90.2176 135.261 88.5606 135.582 86.934Z" fill="#C7C7C7"/>
<path opacity="0.6" d="M135.582 86.934C135.974 84.9812 136.617 83.0875 137.496 81.3C139.896 76.386 141.621 72.087 140.094 66.6C136.353 53.199 121.137 51.633 113.631 41.526C102.027 25.908 73.5149 24.552 59.8949 38.049C55.7189 42.186 53.7629 48.03 49.5419 52.122C43.3229 58.155 34.0889 58.932 27.7019 64.947C17.2889 74.76 16.2779 91.389 25.5209 102.423C35.2829 114.075 49.0619 112.164 62.4449 109.686C69.0299 108.468 75.8759 107.148 82.5869 108.084C96.8999 110.1 113.883 117.963 127.755 110.136C135.144 105.966 135.333 99.462 135.162 91.875C135.12 90.2176 135.261 88.5606 135.582 86.934Z" fill="white"/>
<path d="M77.2498 127.8C108.979 127.8 134.7 122.36 134.7 115.65C134.7 108.94 108.979 103.5 77.2498 103.5C45.521 103.5 19.7998 108.94 19.7998 115.65C19.7998 122.36 45.521 127.8 77.2498 127.8Z" fill="#C7C7C7"/>
<path opacity="0.3" d="M77.2498 127.8C108.979 127.8 134.7 122.36 134.7 115.65C134.7 108.94 108.979 103.5 77.2498 103.5C45.521 103.5 19.7998 108.94 19.7998 115.65C19.7998 122.36 45.521 127.8 77.2498 127.8Z" fill="white"/>
<path d="M11.7152 34.242C11.6452 33.9889 11.6292 33.7239 11.6684 33.4642C11.7075 33.2045 11.8008 32.9559 11.9423 32.7347C12.0838 32.5134 12.2702 32.3244 12.4895 32.1799C12.7088 32.0354 12.956 31.9387 13.2152 31.896C14.7842 31.683 16.7102 33.789 17.3222 35.064C17.3732 35.175 18.0002 36.993 17.9702 36.993C17.9402 36.993 15.1892 37.056 14.0702 36.558C13.0892 36.135 11.9762 35.328 11.7152 34.242ZM52.0112 29.4C51.7802 30.492 50.6882 31.329 49.7342 31.779C48.7802 32.229 46.5152 32.307 45.9602 32.316C45.6602 32.673 45.3392 33.06 44.9942 33.492C44.3942 34.26 43.7282 35.133 43.0682 36.129C42.8912 36.396 42.7112 36.687 42.5312 36.969C42.9332 36.558 43.4882 36.003 43.5482 35.955C44.6552 35.076 47.3072 34.023 48.6242 34.899C48.8391 35.0502 49.0198 35.2449 49.1545 35.4705C49.2892 35.6961 49.3749 35.9475 49.406 36.2084C49.4371 36.4693 49.413 36.7338 49.3351 36.9848C49.2573 37.2358 49.1275 37.4675 48.9542 37.665C48.2432 38.529 46.8902 38.769 45.8342 38.727C44.7782 38.685 42.6692 37.68 42.2192 37.455C41.8322 38.082 41.4482 38.736 41.0882 39.441C40.4179 40.7119 39.8627 42.0402 39.4292 43.41L39.5102 43.449C39.8312 43.026 40.5302 42.153 40.5962 42.09C41.5982 41.091 44.1212 39.756 45.5282 40.479C45.7557 40.6065 45.9542 40.7802 46.1109 40.9888C46.2675 41.1974 46.3789 41.4364 46.4379 41.6905C46.4969 41.9447 46.5023 42.2083 46.4536 42.4646C46.4049 42.7209 46.3033 42.9642 46.1552 43.179C45.5552 44.118 44.2262 44.505 43.1732 44.577C41.9732 44.664 39.4502 43.716 39.3542 43.677C38.9648 45.0492 38.6642 46.4451 38.4542 47.856C38.2922 48.9 38.1692 49.956 38.0552 51.033C38.2742 50.733 39.1922 49.584 39.2552 49.509C40.2572 48.513 42.7802 47.175 44.1842 47.901C44.4145 48.0278 44.6156 48.2017 44.7743 48.4113C44.933 48.621 45.0457 48.8617 45.1051 49.1179C45.1646 49.374 45.1694 49.6398 45.1192 49.8979C45.0691 50.1561 44.9652 50.4007 44.8142 50.616C44.2142 51.552 42.8852 51.939 41.8322 52.011C40.6472 52.095 38.2322 51.198 38.0342 51.111C37.9832 51.597 37.9322 52.08 37.8842 52.569C37.7282 54.156 37.5842 55.752 37.3862 57.321C37.3172 57.864 37.2332 58.398 37.1492 58.932C37.4912 58.488 38.1272 57.693 38.1902 57.63C39.1922 56.634 41.7152 55.296 43.1222 56.022C43.3501 56.1492 43.5489 56.3227 43.7058 56.5313C43.8627 56.7398 43.9743 56.9789 44.0333 57.2332C44.0924 57.4875 44.0976 57.7513 44.0487 58.0076C43.9997 58.264 43.8977 58.5074 43.7492 58.722C43.1492 59.658 41.8202 60.045 40.7672 60.12C39.7142 60.195 37.6682 59.484 37.0952 59.274C36.9482 60.174 36.7952 61.041 36.5792 61.896C36.4832 62.265 36.4112 62.646 36.2972 62.994L35.9972 64.041C35.7572 64.749 35.5382 65.406 35.2982 66.06C35.1782 66.39 35.0612 66.699 34.9412 67.02C35.2202 66.516 35.6762 65.73 35.7242 65.661C36.5642 64.524 38.8532 62.823 40.3532 63.327C40.6002 63.417 40.8254 63.558 41.0142 63.741C41.203 63.9239 41.351 64.1446 41.4487 64.3886C41.5464 64.6327 41.5915 64.8946 41.581 65.1573C41.5706 65.4199 41.5049 65.6775 41.3882 65.913C40.9262 66.933 39.6812 67.515 38.6492 67.746C37.5152 68.004 35.0792 67.509 34.7822 67.446C34.4822 68.229 34.1822 68.985 33.9002 69.69C33.0002 71.919 32.1452 73.743 31.5362 75.012L31.4372 75.216H35.8742L34.3412 105.096C34.2992 106.201 33.83 107.246 33.0326 108.011C32.2351 108.777 31.1716 109.203 30.0662 109.2C28.9714 109.201 27.9182 108.781 27.1243 108.027C26.3304 107.273 25.8563 106.243 25.8002 105.15L24.2672 75.27H29.0312C29.0072 75.063 28.9832 74.844 28.9562 74.598C28.7972 73.218 28.5392 71.244 28.1252 68.898C28.0082 68.22 27.8732 67.503 27.7232 66.768C27.4232 66.807 24.9572 67.119 23.8442 66.768C22.8362 66.468 21.6362 65.784 21.2522 64.734C21.1537 64.4904 21.1077 64.2288 21.117 63.9663C21.1263 63.7037 21.1908 63.4461 21.3063 63.2101C21.4217 62.9741 21.5856 62.765 21.7871 62.5965C21.9887 62.428 22.2234 62.3038 22.4762 62.232C24.0092 61.839 26.1662 63.711 26.9192 64.905C26.9672 64.983 27.4322 65.952 27.6602 66.453C27.5702 66.009 27.4832 65.568 27.3812 65.106C27.2372 64.443 27.0812 63.747 26.9042 63.069C26.8082 62.721 26.7092 62.37 26.6042 62.016C26.4992 61.662 26.3792 61.326 26.2682 60.972C26.0942 60.462 25.8872 59.943 25.6682 59.424C25.0022 59.61 23.0342 60.117 22.0232 59.97C21.0122 59.823 19.6892 59.334 19.1522 58.356C19.0176 58.13 18.9321 57.8782 18.9013 57.617C18.8705 57.3558 18.8952 57.091 18.9736 56.84C19.052 56.5889 19.1824 56.3572 19.3564 56.1599C19.5303 55.9626 19.7439 55.8042 19.9832 55.695C21.4382 55.074 23.8532 56.595 24.7832 57.666C24.8132 57.699 24.9872 57.945 25.1882 58.239C24.9722 57.741 24.7592 57.24 24.5252 56.739C23.8592 55.323 23.1362 53.898 22.4252 52.47C22.2752 52.17 22.1252 51.87 21.9812 51.57C21.4202 51.729 19.2812 52.299 18.2342 52.146C17.1872 51.993 15.9002 51.51 15.3632 50.529C15.2308 50.3031 15.1473 50.052 15.118 49.7918C15.0888 49.5316 15.1144 49.2682 15.1933 49.0186C15.2722 48.769 15.4025 48.5386 15.576 48.3425C15.7494 48.1464 15.962 47.9888 16.2002 47.88C17.6552 47.262 20.0702 48.78 21.0002 49.854C21.0332 49.89 21.2402 50.184 21.4652 50.517C21.0872 49.734 20.7182 48.951 20.3762 48.159C19.7855 46.8074 19.2845 45.4184 18.8762 44.001C18.6812 44.058 16.2002 44.778 15.0212 44.601C13.9772 44.451 12.6902 43.965 12.1532 42.987C12.0185 42.7612 11.9328 42.5096 11.9019 42.2485C11.8709 41.9874 11.8952 41.7228 11.9734 41.4717C12.0515 41.2207 12.1816 40.9889 12.3552 40.7915C12.5289 40.5941 12.7421 40.4355 12.9812 40.326C14.4392 39.708 16.8542 41.226 17.7812 42.297C17.8472 42.375 18.5792 43.443 18.8282 43.836C18.8268 43.819 18.8268 43.802 18.8282 43.785C18.4612 42.3823 18.2203 40.9496 18.1082 39.504C17.9979 38.2141 17.9618 36.919 18.0002 35.625C18.0302 34.425 18.1292 33.327 18.2252 32.358C18.2822 31.833 18.3422 31.353 18.4052 30.906L18.3782 30.924C18.3512 30.942 17.8232 29.094 17.8022 28.974C17.5682 27.579 17.9402 24.75 19.3442 24.021C19.5811 23.9068 19.8394 23.8437 20.1023 23.8359C20.3652 23.8281 20.6269 23.8756 20.8702 23.9755C21.1135 24.0754 21.3331 24.2253 21.5147 24.4156C21.6963 24.6059 21.8358 24.8323 21.9242 25.08C22.3322 26.121 21.8822 27.42 21.3242 28.323C20.7662 29.226 18.9242 30.537 18.4742 30.852C18.4202 31.317 18.3662 31.815 18.3182 32.352C18.2432 33.321 18.1682 34.416 18.1652 35.613C18.1652 35.934 18.1652 36.276 18.1802 36.609C18.2882 36.045 18.4472 35.277 18.4802 35.202C18.9152 33.858 20.5472 31.518 22.1312 31.521C22.3939 31.5286 22.6521 31.5915 22.8889 31.7056C23.1257 31.8196 23.3359 31.9823 23.5057 32.1829C23.6755 32.3836 23.8011 32.6177 23.8745 32.8701C23.9478 33.1226 23.9671 33.3876 23.9312 33.648C23.8172 34.761 22.8182 35.706 21.9152 36.255C21.0122 36.804 18.6872 37.143 18.1892 37.2C18.2132 37.938 18.2522 38.7 18.3422 39.48C18.4845 40.909 18.7535 42.3226 19.1462 43.704H19.2362C19.2722 43.173 19.3742 42.06 19.3922 41.967C19.6922 40.584 21.0422 38.067 22.6172 37.908C22.8791 37.8868 23.1427 37.9211 23.3905 38.0085C23.6384 38.0959 23.8651 38.2346 24.0558 38.4154C24.2466 38.5963 24.3971 38.8152 24.4976 39.0581C24.5981 39.301 24.6463 39.5623 24.6392 39.825C24.6392 40.941 23.7602 41.994 22.9232 42.636C21.9572 43.377 19.3412 43.971 19.2422 43.992C19.6695 45.3543 20.1856 46.6872 20.7872 47.982C21.2282 48.942 21.7112 49.899 22.2062 50.853C22.2242 50.478 22.3562 49.017 22.3772 48.912C22.6772 47.529 24.0272 45.012 25.6022 44.85C25.864 44.8293 26.1273 44.8639 26.375 44.9515C26.6227 45.0391 26.8492 45.1778 27.0398 45.3585C27.2304 45.5392 27.381 45.758 27.4816 46.0007C27.5823 46.2433 27.6309 46.5044 27.6242 46.767C27.6242 47.886 26.7422 48.936 25.9052 49.578C24.9632 50.301 22.4612 50.883 22.2482 50.931C22.4732 51.363 22.6982 51.798 22.9262 52.23C23.6732 53.643 24.4262 55.053 25.1342 56.469C25.3772 56.961 25.5992 57.453 25.8242 57.945C25.8632 57.384 25.9592 56.37 25.9742 56.283C26.2742 54.9 27.6272 52.383 29.1992 52.221C29.4612 52.1998 29.7247 52.2341 29.9725 52.3215C30.2204 52.4089 30.4471 52.5476 30.6378 52.7284C30.8286 52.9093 30.9791 53.1282 31.0796 53.3711C31.1801 53.614 31.2283 53.8753 31.2212 54.138C31.2212 55.257 30.3422 56.307 29.5052 56.949C28.6682 57.591 26.5682 58.128 25.9772 58.272C26.3462 59.1 26.7002 59.91 27.0002 60.738C27.1232 61.098 27.2702 61.455 27.3692 61.806L27.6872 62.853C27.8762 63.576 28.0562 64.245 28.2182 64.923C28.3022 65.265 28.3712 65.589 28.4492 65.919C28.4042 65.349 28.3502 64.44 28.3532 64.356C28.4282 62.946 29.3972 60.261 30.9272 59.856C31.183 59.7954 31.4488 59.7894 31.7071 59.8383C31.9654 59.8873 32.2106 59.9901 32.4265 60.1401C32.6425 60.2901 32.8244 60.484 32.9604 60.709C33.0965 60.9339 33.1836 61.1851 33.2162 61.446C33.2373 61.5829 33.2463 61.7215 33.2432 61.86C33.8592 62.9389 34.1887 64.1576 34.2002 65.4C34.2002 65.49 34.0532 66.555 33.9662 67.098C34.1372 66.678 34.3052 66.261 34.4732 65.823C34.7222 65.19 34.9622 64.515 35.2022 63.861L35.5382 62.82C35.6582 62.469 35.7302 62.121 35.8382 61.764C35.9762 61.242 36.0902 60.693 36.2042 60.15C35.5472 59.934 33.6242 59.274 32.8622 58.593C32.1002 57.912 31.2692 56.775 31.3622 55.662C31.375 55.3995 31.4429 55.1427 31.5615 54.9082C31.68 54.6737 31.8465 54.4667 32.0501 54.3006C32.2538 54.1346 32.4901 54.0132 32.7437 53.9444C32.9973 53.8755 33.2625 53.8607 33.5222 53.901C35.0792 54.201 36.2552 56.79 36.4352 58.191C36.4352 58.236 36.4502 58.536 36.4562 58.893C36.5522 58.359 36.6512 57.822 36.7292 57.276C36.9572 55.728 37.1372 54.141 37.3292 52.554C37.3682 52.221 37.4132 51.891 37.4522 51.561C36.8972 51.384 34.8092 50.688 34.0112 49.974C33.2132 49.26 32.4182 48.156 32.5112 47.043C32.5231 46.7802 32.5904 46.5229 32.7086 46.2879C32.8269 46.0529 32.9934 45.8455 33.1972 45.6793C33.4011 45.5131 33.6378 45.3918 33.8918 45.3233C34.1458 45.2549 34.4114 45.2408 34.6712 45.282C36.2282 45.582 37.4012 48.171 37.5842 49.572C37.5842 49.62 37.5842 49.98 37.6052 50.382C37.7192 49.518 37.8452 48.663 37.9982 47.814C38.2471 46.3541 38.5949 44.9128 39.0392 43.5C38.8412 43.44 36.3782 42.672 35.4902 41.88C34.7012 41.175 33.8942 40.062 33.9902 38.949C34.0021 38.6862 34.0694 38.4289 34.1876 38.1939C34.3059 37.9589 34.4724 37.7515 34.6762 37.5853C34.8801 37.4191 35.1168 37.2978 35.3708 37.2293C35.6248 37.1608 35.8904 37.1468 36.1502 37.188C37.7042 37.488 38.8802 40.077 39.0632 41.478C39.0632 41.577 39.0962 42.873 39.0872 43.338C39.0872 43.32 39.0872 43.302 39.1022 43.287C39.5709 41.9146 40.1602 40.5864 40.8632 39.318C41.4874 38.1794 42.1765 37.0775 42.9272 36.018C43.6142 35.031 44.3012 34.173 44.9192 33.417C45.2552 33.009 45.5702 32.643 45.8672 32.304H45.8342C45.8042 32.304 46.3832 30.468 46.4342 30.357C47.0102 29.067 48.8792 26.91 50.4512 27.078C50.713 27.1137 50.9643 27.2044 51.1885 27.3441C51.4128 27.4839 51.6049 27.6696 51.7523 27.8889C51.8996 28.1082 51.9989 28.3563 52.0435 28.6167C52.0881 28.8772 52.0771 29.1441 52.0112 29.4ZM33.8642 67.38C33.5942 67.251 31.5212 66.225 30.7112 65.346C30.0101 65.7279 29.2868 66.0675 28.5452 66.363C28.7282 67.179 28.9022 67.974 29.0492 68.721C29.5172 71.085 29.8202 73.071 30.0122 74.466C30.0512 74.766 30.0872 75.027 30.1172 75.27H30.2222L30.5702 74.595C31.1972 73.356 32.0702 71.568 33.0242 69.378C33.3002 68.748 33.5822 68.076 33.8642 67.38ZM42.1562 37.17C42.1802 37.17 42.6602 35.325 42.6782 35.202C42.8732 33.804 42.4262 30.984 41.0012 30.294C40.7611 30.1864 40.501 30.1305 40.2379 30.13C39.9748 30.1295 39.7145 30.1843 39.474 30.291C39.2335 30.3977 39.0181 30.5538 38.8419 30.7491C38.6657 30.9445 38.5325 31.1748 38.4512 31.425C38.0702 32.475 38.5562 33.762 39.1292 34.647C39.8012 35.7 42.1532 37.17 42.1562 37.17Z" fill="#C7C7C7"/>
<path opacity="0.3" d="M11.7152 34.242C11.6452 33.9889 11.6292 33.7239 11.6684 33.4642C11.7075 33.2045 11.8008 32.9559 11.9423 32.7347C12.0838 32.5134 12.2702 32.3244 12.4895 32.1799C12.7088 32.0354 12.956 31.9387 13.2152 31.896C14.7842 31.683 16.7102 33.789 17.3222 35.064C17.3732 35.175 18.0002 36.993 17.9702 36.993C17.9402 36.993 15.1892 37.056 14.0702 36.558C13.0892 36.135 11.9762 35.328 11.7152 34.242ZM52.0112 29.4C51.7802 30.492 50.6882 31.329 49.7342 31.779C48.7802 32.229 46.5152 32.307 45.9602 32.316C45.6602 32.673 45.3392 33.06 44.9942 33.492C44.3942 34.26 43.7282 35.133 43.0682 36.129C42.8912 36.396 42.7112 36.687 42.5312 36.969C42.9332 36.558 43.4882 36.003 43.5482 35.955C44.6552 35.076 47.3072 34.023 48.6242 34.899C48.8391 35.0502 49.0198 35.2449 49.1545 35.4705C49.2892 35.6961 49.3749 35.9475 49.406 36.2084C49.4371 36.4693 49.413 36.7338 49.3351 36.9848C49.2573 37.2358 49.1275 37.4675 48.9542 37.665C48.2432 38.529 46.8902 38.769 45.8342 38.727C44.7782 38.685 42.6692 37.68 42.2192 37.455C41.8322 38.082 41.4482 38.736 41.0882 39.441C40.4179 40.7119 39.8627 42.0402 39.4292 43.41L39.5102 43.449C39.8312 43.026 40.5302 42.153 40.5962 42.09C41.5982 41.091 44.1212 39.756 45.5282 40.479C45.7557 40.6065 45.9542 40.7802 46.1109 40.9888C46.2675 41.1974 46.3789 41.4364 46.4379 41.6905C46.4969 41.9447 46.5023 42.2083 46.4536 42.4646C46.4049 42.7209 46.3033 42.9642 46.1552 43.179C45.5552 44.118 44.2262 44.505 43.1732 44.577C41.9732 44.664 39.4502 43.716 39.3542 43.677C38.9648 45.0492 38.6642 46.4451 38.4542 47.856C38.2922 48.9 38.1692 49.956 38.0552 51.033C38.2742 50.733 39.1922 49.584 39.2552 49.509C40.2572 48.513 42.7802 47.175 44.1842 47.901C44.4145 48.0278 44.6156 48.2017 44.7743 48.4113C44.933 48.621 45.0457 48.8617 45.1051 49.1179C45.1646 49.374 45.1694 49.6398 45.1192 49.8979C45.0691 50.1561 44.9652 50.4007 44.8142 50.616C44.2142 51.552 42.8852 51.939 41.8322 52.011C40.6472 52.095 38.2322 51.198 38.0342 51.111C37.9832 51.597 37.9322 52.08 37.8842 52.569C37.7282 54.156 37.5842 55.752 37.3862 57.321C37.3172 57.864 37.2332 58.398 37.1492 58.932C37.4912 58.488 38.1272 57.693 38.1902 57.63C39.1922 56.634 41.7152 55.296 43.1222 56.022C43.3501 56.1492 43.5489 56.3227 43.7058 56.5313C43.8627 56.7398 43.9743 56.9789 44.0333 57.2332C44.0924 57.4875 44.0976 57.7513 44.0487 58.0076C43.9997 58.264 43.8977 58.5074 43.7492 58.722C43.1492 59.658 41.8202 60.045 40.7672 60.12C39.7142 60.195 37.6682 59.484 37.0952 59.274C36.9482 60.174 36.7952 61.041 36.5792 61.896C36.4832 62.265 36.4112 62.646 36.2972 62.994L35.9972 64.041C35.7572 64.749 35.5382 65.406 35.2982 66.06C35.1782 66.39 35.0612 66.699 34.9412 67.02C35.2202 66.516 35.6762 65.73 35.7242 65.661C36.5642 64.524 38.8532 62.823 40.3532 63.327C40.6002 63.417 40.8254 63.558 41.0142 63.741C41.203 63.9239 41.351 64.1446 41.4487 64.3886C41.5464 64.6327 41.5915 64.8946 41.581 65.1573C41.5706 65.4199 41.5049 65.6775 41.3882 65.913C40.9262 66.933 39.6812 67.515 38.6492 67.746C37.5152 68.004 35.0792 67.509 34.7822 67.446C34.4822 68.229 34.1822 68.985 33.9002 69.69C33.0002 71.919 32.1452 73.743 31.5362 75.012L31.4372 75.216H35.8742L34.3412 105.096C34.2992 106.201 33.83 107.246 33.0326 108.011C32.2351 108.777 31.1716 109.203 30.0662 109.2C28.9714 109.201 27.9182 108.781 27.1243 108.027C26.3304 107.273 25.8563 106.243 25.8002 105.15L24.2672 75.27H29.0312C29.0072 75.063 28.9832 74.844 28.9562 74.598C28.7972 73.218 28.5392 71.244 28.1252 68.898C28.0082 68.22 27.8732 67.503 27.7232 66.768C27.4232 66.807 24.9572 67.119 23.8442 66.768C22.8362 66.468 21.6362 65.784 21.2522 64.734C21.1537 64.4904 21.1077 64.2288 21.117 63.9663C21.1263 63.7037 21.1908 63.4461 21.3063 63.2101C21.4217 62.9741 21.5856 62.765 21.7871 62.5965C21.9887 62.428 22.2234 62.3038 22.4762 62.232C24.0092 61.839 26.1662 63.711 26.9192 64.905C26.9672 64.983 27.4322 65.952 27.6602 66.453C27.5702 66.009 27.4832 65.568 27.3812 65.106C27.2372 64.443 27.0812 63.747 26.9042 63.069C26.8082 62.721 26.7092 62.37 26.6042 62.016C26.4992 61.662 26.3792 61.326 26.2682 60.972C26.0942 60.462 25.8872 59.943 25.6682 59.424C25.0022 59.61 23.0342 60.117 22.0232 59.97C21.0122 59.823 19.6892 59.334 19.1522 58.356C19.0176 58.13 18.9321 57.8782 18.9013 57.617C18.8705 57.3558 18.8952 57.091 18.9736 56.84C19.052 56.5889 19.1824 56.3572 19.3564 56.1599C19.5303 55.9626 19.7439 55.8042 19.9832 55.695C21.4382 55.074 23.8532 56.595 24.7832 57.666C24.8132 57.699 24.9872 57.945 25.1882 58.239C24.9722 57.741 24.7592 57.24 24.5252 56.739C23.8592 55.323 23.1362 53.898 22.4252 52.47C22.2752 52.17 22.1252 51.87 21.9812 51.57C21.4202 51.729 19.2812 52.299 18.2342 52.146C17.1872 51.993 15.9002 51.51 15.3632 50.529C15.2308 50.3031 15.1473 50.052 15.118 49.7918C15.0888 49.5316 15.1144 49.2682 15.1933 49.0186C15.2722 48.769 15.4025 48.5386 15.576 48.3425C15.7494 48.1464 15.962 47.9888 16.2002 47.88C17.6552 47.262 20.0702 48.78 21.0002 49.854C21.0332 49.89 21.2402 50.184 21.4652 50.517C21.0872 49.734 20.7182 48.951 20.3762 48.159C19.7855 46.8074 19.2845 45.4184 18.8762 44.001C18.6812 44.058 16.2002 44.778 15.0212 44.601C13.9772 44.451 12.6902 43.965 12.1532 42.987C12.0185 42.7612 11.9328 42.5096 11.9019 42.2485C11.8709 41.9874 11.8952 41.7228 11.9734 41.4717C12.0515 41.2207 12.1816 40.9889 12.3552 40.7915C12.5289 40.5941 12.7421 40.4355 12.9812 40.326C14.4392 39.708 16.8542 41.226 17.7812 42.297C17.8472 42.375 18.5792 43.443 18.8282 43.836C18.8268 43.819 18.8268 43.802 18.8282 43.785C18.4612 42.3823 18.2203 40.9496 18.1082 39.504C17.9979 38.2141 17.9618 36.919 18.0002 35.625C18.0302 34.425 18.1292 33.327 18.2252 32.358C18.2822 31.833 18.3422 31.353 18.4052 30.906L18.3782 30.924C18.3512 30.942 17.8232 29.094 17.8022 28.974C17.5682 27.579 17.9402 24.75 19.3442 24.021C19.5811 23.9068 19.8394 23.8437 20.1023 23.8359C20.3652 23.8281 20.6269 23.8756 20.8702 23.9755C21.1135 24.0754 21.3331 24.2253 21.5147 24.4156C21.6963 24.6059 21.8358 24.8323 21.9242 25.08C22.3322 26.121 21.8822 27.42 21.3242 28.323C20.7662 29.226 18.9242 30.537 18.4742 30.852C18.4202 31.317 18.3662 31.815 18.3182 32.352C18.2432 33.321 18.1682 34.416 18.1652 35.613C18.1652 35.934 18.1652 36.276 18.1802 36.609C18.2882 36.045 18.4472 35.277 18.4802 35.202C18.9152 33.858 20.5472 31.518 22.1312 31.521C22.3939 31.5286 22.6521 31.5915 22.8889 31.7056C23.1257 31.8196 23.3359 31.9823 23.5057 32.1829C23.6755 32.3836 23.8011 32.6177 23.8745 32.8701C23.9478 33.1226 23.9671 33.3876 23.9312 33.648C23.8172 34.761 22.8182 35.706 21.9152 36.255C21.0122 36.804 18.6872 37.143 18.1892 37.2C18.2132 37.938 18.2522 38.7 18.3422 39.48C18.4845 40.909 18.7535 42.3226 19.1462 43.704H19.2362C19.2722 43.173 19.3742 42.06 19.3922 41.967C19.6922 40.584 21.0422 38.067 22.6172 37.908C22.8791 37.8868 23.1427 37.9211 23.3905 38.0085C23.6384 38.0959 23.8651 38.2346 24.0558 38.4154C24.2466 38.5963 24.3971 38.8152 24.4976 39.0581C24.5981 39.301 24.6463 39.5623 24.6392 39.825C24.6392 40.941 23.7602 41.994 22.9232 42.636C21.9572 43.377 19.3412 43.971 19.2422 43.992C19.6695 45.3543 20.1856 46.6872 20.7872 47.982C21.2282 48.942 21.7112 49.899 22.2062 50.853C22.2242 50.478 22.3562 49.017 22.3772 48.912C22.6772 47.529 24.0272 45.012 25.6022 44.85C25.864 44.8293 26.1273 44.8639 26.375 44.9515C26.6227 45.0391 26.8492 45.1778 27.0398 45.3585C27.2304 45.5392 27.381 45.758 27.4816 46.0007C27.5823 46.2433 27.6309 46.5044 27.6242 46.767C27.6242 47.886 26.7422 48.936 25.9052 49.578C24.9632 50.301 22.4612 50.883 22.2482 50.931C22.4732 51.363 22.6982 51.798 22.9262 52.23C23.6732 53.643 24.4262 55.053 25.1342 56.469C25.3772 56.961 25.5992 57.453 25.8242 57.945C25.8632 57.384 25.9592 56.37 25.9742 56.283C26.2742 54.9 27.6272 52.383 29.1992 52.221C29.4612 52.1998 29.7247 52.2341 29.9725 52.3215C30.2204 52.4089 30.4471 52.5476 30.6378 52.7284C30.8286 52.9093 30.9791 53.1282 31.0796 53.3711C31.1801 53.614 31.2283 53.8753 31.2212 54.138C31.2212 55.257 30.3422 56.307 29.5052 56.949C28.6682 57.591 26.5682 58.128 25.9772 58.272C26.3462 59.1 26.7002 59.91 27.0002 60.738C27.1232 61.098 27.2702 61.455 27.3692 61.806L27.6872 62.853C27.8762 63.576 28.0562 64.245 28.2182 64.923C28.3022 65.265 28.3712 65.589 28.4492 65.919C28.4042 65.349 28.3502 64.44 28.3532 64.356C28.4282 62.946 29.3972 60.261 30.9272 59.856C31.183 59.7954 31.4488 59.7894 31.7071 59.8383C31.9654 59.8873 32.2106 59.9901 32.4265 60.1401C32.6425 60.2901 32.8244 60.484 32.9604 60.709C33.0965 60.9339 33.1836 61.1851 33.2162 61.446C33.2373 61.5829 33.2463 61.7215 33.2432 61.86C33.8592 62.9389 34.1887 64.1576 34.2002 65.4C34.2002 65.49 34.0532 66.555 33.9662 67.098C34.1372 66.678 34.3052 66.261 34.4732 65.823C34.7222 65.19 34.9622 64.515 35.2022 63.861L35.5382 62.82C35.6582 62.469 35.7302 62.121 35.8382 61.764C35.9762 61.242 36.0902 60.693 36.2042 60.15C35.5472 59.934 33.6242 59.274 32.8622 58.593C32.1002 57.912 31.2692 56.775 31.3622 55.662C31.375 55.3995 31.4429 55.1427 31.5615 54.9082C31.68 54.6737 31.8465 54.4667 32.0501 54.3006C32.2538 54.1346 32.4901 54.0132 32.7437 53.9444C32.9973 53.8755 33.2625 53.8607 33.5222 53.901C35.0792 54.201 36.2552 56.79 36.4352 58.191C36.4352 58.236 36.4502 58.536 36.4562 58.893C36.5522 58.359 36.6512 57.822 36.7292 57.276C36.9572 55.728 37.1372 54.141 37.3292 52.554C37.3682 52.221 37.4132 51.891 37.4522 51.561C36.8972 51.384 34.8092 50.688 34.0112 49.974C33.2132 49.26 32.4182 48.156 32.5112 47.043C32.5231 46.7802 32.5904 46.5229 32.7086 46.2879C32.8269 46.0529 32.9934 45.8455 33.1972 45.6793C33.4011 45.5131 33.6378 45.3918 33.8918 45.3233C34.1458 45.2549 34.4114 45.2408 34.6712 45.282C36.2282 45.582 37.4012 48.171 37.5842 49.572C37.5842 49.62 37.5842 49.98 37.6052 50.382C37.7192 49.518 37.8452 48.663 37.9982 47.814C38.2471 46.3541 38.5949 44.9128 39.0392 43.5C38.8412 43.44 36.3782 42.672 35.4902 41.88C34.7012 41.175 33.8942 40.062 33.9902 38.949C34.0021 38.6862 34.0694 38.4289 34.1876 38.1939C34.3059 37.9589 34.4724 37.7515 34.6762 37.5853C34.8801 37.4191 35.1168 37.2978 35.3708 37.2293C35.6248 37.1608 35.8904 37.1468 36.1502 37.188C37.7042 37.488 38.8802 40.077 39.0632 41.478C39.0632 41.577 39.0962 42.873 39.0872 43.338C39.0872 43.32 39.0872 43.302 39.1022 43.287C39.5709 41.9146 40.1602 40.5864 40.8632 39.318C41.4874 38.1794 42.1765 37.0775 42.9272 36.018C43.6142 35.031 44.3012 34.173 44.9192 33.417C45.2552 33.009 45.5702 32.643 45.8672 32.304H45.8342C45.8042 32.304 46.3832 30.468 46.4342 30.357C47.0102 29.067 48.8792 26.91 50.4512 27.078C50.713 27.1137 50.9643 27.2044 51.1885 27.3441C51.4128 27.4839 51.6049 27.6696 51.7523 27.8889C51.8996 28.1082 51.9989 28.3563 52.0435 28.6167C52.0881 28.8772 52.0771 29.1441 52.0112 29.4ZM33.8642 67.38C33.5942 67.251 31.5212 66.225 30.7112 65.346C30.0101 65.7279 29.2868 66.0675 28.5452 66.363C28.7282 67.179 28.9022 67.974 29.0492 68.721C29.5172 71.085 29.8202 73.071 30.0122 74.466C30.0512 74.766 30.0872 75.027 30.1172 75.27H30.2222L30.5702 74.595C31.1972 73.356 32.0702 71.568 33.0242 69.378C33.3002 68.748 33.5822 68.076 33.8642 67.38ZM42.1562 37.17C42.1802 37.17 42.6602 35.325 42.6782 35.202C42.8732 33.804 42.4262 30.984 41.0012 30.294C40.7611 30.1864 40.501 30.1305 40.2379 30.13C39.9748 30.1295 39.7145 30.1843 39.474 30.291C39.2335 30.3977 39.0181 30.5538 38.8419 30.7491C38.6657 30.9445 38.5325 31.1748 38.4512 31.425C38.0702 32.475 38.5562 33.762 39.1292 34.647C39.8012 35.7 42.1532 37.17 42.1562 37.17Z" fill="white"/>
<path d="M127.083 47.778C127.083 47.778 124.149 50.022 123.744 51.75C123.339 53.478 123.861 55.317 124.206 56.412C124.551 57.507 124.608 62.802 121.386 65.16C118.164 67.518 116.724 69.879 117.069 72.816C117.414 75.753 121.788 78.975 125.415 79.716C129.042 80.457 134.163 78.795 136.176 74.478C138.189 70.161 135.486 65.4 133.989 62.7C132.492 60 132.609 57.462 134.289 57.348C135.969 57.234 136.821 57.648 136.881 55.275C136.941 52.902 136.362 49.233 133.311 47.391C130.26 45.549 127.083 47.778 127.083 47.778Z" fill="#2E353A" stroke="#2E353A" stroke-linecap="round" stroke-linejoin="round"/>
<path d="M119.859 76.728C120.159 76.929 122.859 78.03 124.857 74.928C126.855 71.826 124.134 68.967 124.659 66.228" stroke="white" stroke-width="0.5" stroke-miterlimit="10"/>
<path d="M130.365 51.348C130.365 51.348 129.429 48.324 131.457 49.305C133.632 50.355 135.357 55.305 134.607 56.43" stroke="white" stroke-width="0.5" stroke-miterlimit="10"/>
<path d="M129.807 50.955C129.807 50.955 128.682 48.78 129.432 47.805C130.182 46.83 131.907 47.955 132.807 48.63" stroke="white" stroke-width="0.5" stroke-miterlimit="10"/>
<path d="M132.357 56.88C132.357 56.88 132.657 58.23 131.757 60.93C130.857 63.63 129.207 66.705 130.857 69.555C132.507 72.405 133.782 74.355 131.907 77.205" stroke="white" stroke-width="0.5" stroke-miterlimit="10"/>
<path d="M132.357 58.455C132.422 60.2134 132.296 61.9737 131.982 63.705C131.457 66.705 133.107 68.655 134.832 70.53C136.557 72.405 136.107 73.98 135.507 75.705" stroke="white" stroke-width="0.5" stroke-miterlimit="10"/>
<path d="M129.732 51.405C129.732 51.405 126.207 51.705 125.157 51.255C124.107 50.805 124.332 50.43 124.332 50.43" stroke="white" stroke-width="0.5" stroke-miterlimit="10"/>
<path d="M130.2 63.387C130.2 63.387 130.659 68.049 131.247 70.746C131.835 73.443 132.771 76.848 132.537 77.787C132.303 78.726 127.137 86.703 127.137 86.703L125.613 85.647L128.781 76.143L126.114 67.233C126.114 67.233 128.556 63.654 130.2 63.387Z" fill="white" stroke="#2E353A" stroke-linecap="round" stroke-linejoin="round"/>
<path d="M129.789 62.628C129.039 61.764 127.428 59.52 127.428 59.52L124.896 56.52L121.386 51.687C120.924 51.054 119.37 51.282 114.882 51.342C110.394 51.402 96.771 48.81 96.771 48.81L96.312 51.81C96.312 51.81 108.78 54.51 111.945 54.81C115.11 55.11 118.047 55.5 118.047 55.5C117.615 56.3612 117.23 57.2455 116.895 58.149C116.55 59.184 112.521 64.71 112.521 64.71C112.521 64.71 112.422 64.77 112.251 64.884C112.206 65.886 112.302 68.013 113.799 69.135C114.957 70.002 116.652 70.368 117.876 70.521C117.897 70.452 117.915 70.392 117.93 70.35C118.104 69.888 119.37 69.198 120.06 69.15C120.75 69.102 122.88 69.207 124.149 69.093C125.418 68.979 126.105 67.251 126.105 67.251C126.105 67.251 128.901 64.521 130.188 63.405C130.108 63.122 129.973 62.8578 129.789 62.628Z" fill="white" stroke="#2E353A" stroke-linecap="round" stroke-linejoin="round"/>
<path d="M119.64 56.196L118.047 55.491L119.205 57.333" stroke="#2E353A" stroke-width="0.75" stroke-linecap="round" stroke-linejoin="round"/>
<path d="M115.623 66.678C116.822 67.4218 118.24 67.7301 119.64 67.551" stroke="#2E353A" stroke-width="0.75" stroke-linecap="round" stroke-linejoin="round"/>
<path d="M114.3 64.581C114.3 64.581 114.561 65.631 116.223 66.33" stroke="#2E353A" stroke-width="0.75" stroke-linecap="round" stroke-linejoin="round"/>
<path d="M128.771 76.143C128.771 76.143 129.86 75.675 130.733 76.899" stroke="#2E353A" stroke-width="0.75" stroke-linecap="round" stroke-linejoin="round"/>
<path d="M129.075 67.989L126.105 67.233L128.724 69.3" stroke="#2E353A" stroke-width="0.75" stroke-linecap="round" stroke-linejoin="round"/>
<path d="M120.951 52.8C120.951 52.8 119.466 55.419 117.72 55.332C115.347 55.212 108.633 53.232 108.633 52.536C108.633 51.84 110.469 51.576 110.469 51.576" stroke="#2E353A" stroke-width="0.75" stroke-linecap="round" stroke-linejoin="round"/>
<path d="M126.105 54.972C126.105 54.972 124.905 54.672 124.032 55.203C123.159 55.734 120.867 60.729 120.867 60.729C120.867 60.729 121.038 60.96 121.731 60.96C122.424 60.96 122.595 61.881 122.595 62.742C122.595 63.603 122.535 64.008 122.823 63.942C123.111 63.876 124.839 63.252 125.184 63.483C125.529 63.714 124.722 64.863 124.884 64.983C125.046 65.103 126.495 63.657 126.957 62.103C127.419 60.549 127.878 58.248 127.761 57.327C127.644 56.406 126.9 55.2 126.105 54.972Z" fill="#C7C7C7" stroke="#2E353A" stroke-linecap="round" stroke-linejoin="round"/>
<path d="M127.083 59.751C126.449 60.4581 125.777 61.1301 125.07 61.764C123.744 62.964 122.652 63.837 122.709 63.264C122.766 62.691 124.089 59.58 124.434 57.864C124.779 56.148 125.415 54.984 126.105 54.984C126.795 54.984 128.292 58.5 127.083 59.751Z" fill="white" stroke="#2E353A" stroke-linecap="round" stroke-linejoin="round"/>
<path d="M126.393 52.326C126.439 52.4661 126.514 52.595 126.613 52.704C126.713 52.8131 126.834 52.9 126.969 52.959C127.371 53.073 130.365 51.348 130.365 51.348C130.365 51.348 132.495 55.893 132.147 56.583C131.799 57.273 130.767 58.14 129.615 58.944C128.463 59.748 126.336 60.384 125.529 59.922C124.722 59.46 125.298 54.744 125.298 54.744C125.298 54.744 124.665 53.994 125.355 52.785C126.045 51.576 126.393 52.326 126.393 52.326Z" fill="white" stroke="#2E353A" stroke-linecap="round" stroke-linejoin="round"/>
<path d="M131.214 57.021C131.214 57.021 131.265 56.664 130.599 56.664C129.933 56.664 128.763 57.888 128.763 57.888" stroke="#2E353A" stroke-width="0.75" stroke-linecap="round" stroke-linejoin="round"/>
<path d="M128.304 57.99L127.947 57.633" stroke="#2E353A" stroke-width="0.75" stroke-linecap="round" stroke-linejoin="round"/>
<path d="M127.8 58.656C127.8 58.656 126.882 58.503 126.729 57.327" stroke="#2E353A" stroke-width="0.75" stroke-linecap="round" stroke-linejoin="round"/>
<path d="M129.924 55.167C129.924 55.167 129.696 54.048 128.724 53.832" stroke="#2E353A" stroke-width="0.75" stroke-linecap="round" stroke-linejoin="round"/>
<path d="M128.769 55.767C128.535 55.95 128.277 56.01 128.19 55.899C128.103 55.788 128.22 55.551 128.451 55.368C128.682 55.185 128.943 55.125 129.03 55.236C129.117 55.347 129 55.584 128.769 55.767Z" fill="#2E353A"/>
<path d="M130.215 57.657C130.023 57.807 129.81 57.858 129.738 57.765C129.666 57.672 129.762 57.465 129.954 57.324C130.146 57.183 130.359 57.126 130.431 57.216C130.503 57.306 130.407 57.504 130.215 57.657Z" fill="#2E353A"/>
<path d="M124.613 106.641L127.556 110.73C127.556 110.73 127.556 111.48 126.506 111.48C125.456 111.48 124.856 111.48 124.256 110.73C123.656 109.98 123.656 109.53 123.056 109.23C122.456 108.93 121.856 108.93 122.156 107.28C122.456 105.63 124.613 106.641 124.613 106.641Z" fill="white" stroke="#2E353A" stroke-linecap="round" stroke-linejoin="round"/>
<path d="M127.545 110.823C127.079 111.047 126.556 111.124 126.045 111.045C124.983 110.853 124.338 109.791 123.945 109.335C123.552 108.879 123.072 108.882 122.619 108.501C122.403 108.317 122.215 108.103 122.061 107.865C121.998 108.933 122.517 108.969 123.033 109.23C123.633 109.53 123.633 109.98 124.233 110.73C124.833 111.48 125.433 111.48 126.483 111.48C127.326 111.48 127.5 111.024 127.545 110.823Z" fill="white" stroke="#2E353A" stroke-linecap="round" stroke-linejoin="round"/>
<path d="M124.446 106.122C123.846 104.322 122.991 93.546 122.547 90.135C121.647 83.199 117.645 74.196 117.645 74.196L117.876 70.512C116.652 70.359 114.957 69.993 113.799 69.126C112.299 68.004 112.206 65.877 112.251 64.875C111.492 65.364 109.251 66.837 107.34 68.385C104.982 70.284 103.368 77.019 102.909 79.146C102.45 81.273 101.931 87.546 101.931 87.546C101.931 87.546 97.7848 89.157 96.1168 91.446C94.4488 93.735 89.3818 98.928 89.3818 98.928L89.8438 100.656C89.8438 100.656 91.3978 99.564 92.7208 98.526C94.0438 97.488 104.349 91.734 105.039 91.326C105.729 90.918 106.539 90.126 107.457 87.816C107.793 86.973 108.267 85.593 108.735 84.18L110.334 79.2L111.873 77.889C113.391 81.993 116.919 89.904 117.42 91.035C118.02 92.391 118.476 98.421 120.135 102.192C121.794 105.963 122.235 107.772 122.235 107.772C122.235 107.772 125.049 107.931 124.446 106.122Z" fill="#2E353A" stroke="#2E353A" stroke-linecap="round" stroke-linejoin="round"/>
<path d="M117.777 71.223L118.35 74.568" stroke="white" stroke-width="0.5" stroke-miterlimit="10"/>
<path d="M36.6538 45.387L27.9898 118.977C27.9781 119.083 27.9963 119.19 28.0424 119.286C28.0885 119.382 28.1606 119.464 28.2506 119.521C28.3406 119.578 28.4449 119.609 28.5515 119.61C28.6581 119.611 28.7628 119.582 28.8538 119.526L34.4218 116.1C34.7523 115.895 35.1494 115.827 35.5294 115.909C35.9094 115.991 36.2426 116.218 36.4588 116.541L43.4548 126.942L46.3738 83.19L36.6538 45.387Z" fill="#C7C7C7" stroke="#2E353A" stroke-linecap="round" stroke-linejoin="round"/>
<path d="M36.6 47.238L28.77 117.138C28.7531 117.289 28.7806 117.441 28.8491 117.577C28.9176 117.712 29.0241 117.825 29.1557 117.901C29.2872 117.977 29.438 118.012 29.5896 118.004C29.7412 117.995 29.8869 117.942 30.009 117.852L34.08 114.852C34.2917 114.695 34.5332 114.584 34.7896 114.524C35.046 114.464 35.3119 114.457 35.5711 114.503C35.8304 114.549 36.0774 114.648 36.2971 114.793C36.5169 114.938 36.7046 115.127 36.849 115.347L41.613 122.619C41.6646 122.7 41.7418 122.761 41.8323 122.793C41.9227 122.825 42.0212 122.825 42.112 122.794C42.2028 122.764 42.2807 122.703 42.3333 122.623C42.3859 122.543 42.41 122.448 42.402 122.352L36.84 47.241C36.8342 47.2137 36.8193 47.1891 36.7977 47.1714C36.7761 47.1537 36.7491 47.1438 36.7212 47.1435C36.6933 47.1431 36.666 47.1523 36.644 47.1695C36.622 47.1866 36.6065 47.2108 36.6 47.238Z" fill="#C7C7C7" stroke="#2E353A" stroke-linecap="round" stroke-linejoin="round"/>
<path opacity="0.6" d="M36.7081 46.224L28.7641 117.132C28.7472 117.283 28.7747 117.435 28.8432 117.571C28.9117 117.706 29.0183 117.819 29.1498 117.895C29.2814 117.971 29.4322 118.006 29.5837 117.998C29.7353 117.989 29.8811 117.936 30.0031 117.846L34.0741 114.846C34.2859 114.689 34.5273 114.578 34.7837 114.518C35.0401 114.458 35.3061 114.451 35.5653 114.497C35.8245 114.543 36.0715 114.642 36.2913 114.787C36.511 114.932 36.6988 115.121 36.8431 115.341L41.6071 122.613C41.6588 122.694 41.7359 122.755 41.8264 122.787C41.9169 122.819 42.0154 122.819 42.1062 122.788C42.197 122.758 42.2749 122.697 42.3274 122.617C42.38 122.537 42.4042 122.442 42.3961 122.346L36.7651 46.224C36.7632 46.218 36.7593 46.2128 36.7542 46.2091C36.7491 46.2054 36.743 46.2034 36.7366 46.2034C36.7303 46.2034 36.7242 46.2054 36.719 46.2091C36.7139 46.2128 36.7101 46.218 36.7081 46.224Z" fill="black"/>
<path d="M35.2587 114.462C35.5739 114.467 35.883 114.55 36.159 114.702C36.4351 114.854 36.6698 115.071 36.8427 115.335L41.6067 122.607C41.6584 122.688 41.7355 122.749 41.826 122.781C41.9165 122.813 42.015 122.813 42.1058 122.782C42.1966 122.752 42.2745 122.691 42.327 122.611C42.3796 122.531 42.4038 122.436 42.3957 122.34L41.7147 113.148L35.1567 114.432C35.1916 114.439 35.2257 114.449 35.2587 114.462Z" fill="#C7C7C7" stroke="#2E353A" stroke-linecap="round" stroke-linejoin="round"/>
<path opacity="0.3" d="M35.2587 114.462C35.5739 114.467 35.883 114.55 36.159 114.702C36.4351 114.854 36.6698 115.071 36.8427 115.335L41.6067 122.607C41.6584 122.688 41.7355 122.749 41.826 122.781C41.9165 122.813 42.015 122.813 42.1058 122.782C42.1966 122.752 42.2745 122.691 42.327 122.611C42.3796 122.531 42.4038 122.436 42.3957 122.34L41.7147 113.148L35.1567 114.432C35.1916 114.439 35.2257 114.449 35.2587 114.462Z" fill="black"/>
<path d="M36.8311 45.342L43.4521 126.942L120.657 112.23L102.513 48.591L36.8311 45.342Z" fill="#2E353A" stroke="#2E353A" stroke-linecap="round" stroke-linejoin="round"/>
<path d="M40.4097 47.103L44.9577 122.628L117.558 109.428L102.255 50.751L40.4097 47.103Z" fill="#C7C7C7" stroke="#2E353A" stroke-linecap="round" stroke-linejoin="round"/>
<path d="M44.8467 84.27L48.2997 120.069L114.264 108.075L108.135 81.168L44.8467 84.27Z" fill="white" stroke="#2E353A" stroke-linecap="round" stroke-linejoin="round"/>
<path d="M57.5789 118.287L56.4839 106.788" stroke="#2E353A" stroke-linecap="round" stroke-linejoin="round"/>
<path d="M67.6737 116.508L66.6177 106.923" stroke="#2E353A" stroke-linecap="round" stroke-linejoin="round"/>
<path d="M77.5709 114.591L76.3379 106.923" stroke="#2E353A" stroke-linecap="round" stroke-linejoin="round"/>
<path d="M87.7678 112.842L86.3008 103.701" stroke="#2E353A" stroke-linecap="round" stroke-linejoin="round"/>
<path d="M96.75 111.222L95.499 102.3" stroke="#2E353A" stroke-linecap="round" stroke-linejoin="round"/>
<path d="M105.363 109.629L103.5 98.901" stroke="#2E353A" stroke-linecap="round" stroke-linejoin="round"/>
<path d="M125.604 85.647C125.604 85.647 124.686 86.571 124.626 87.051C124.566 87.531 125.046 88.977 125.046 88.977L126.492 89.217L127.128 86.703L125.604 85.647Z" fill="white" stroke="#2E353A" stroke-linecap="round" stroke-linejoin="round"/>
<g style="mix-blend-mode:multiply" opacity="0.49">
<path d="M40.7759 67.968C40.7759 67.968 42.2999 89.901 43.7009 97.899C45.1019 105.897 47.6999 117.867 47.6999 117.867C47.6999 117.867 92.6999 110.901 114.9 101.499L113.1 92.901L40.7759 67.968Z" fill="#C7C7C7"/>
</g>
<path d="M38.7417 46.281L101.943 49.686C101.943 49.686 108.096 68.121 114.219 78.531C120.342 88.941 130.44 88.263 130.44 88.263C130.44 88.263 107.28 100.926 89.2407 107.667C70.4667 114.678 54.1857 115.938 54.1857 115.938C54.1857 115.938 39.3567 95.682 38.7417 46.281Z" fill="#C7C7C7" stroke="#2E353A" stroke-linecap="round" stroke-linejoin="round"/>
<path d="M45.9775 42.999C44.8045 42.999 43.9555 44.04 43.6885 45.672L44.8885 45.738C45.0745 44.796 45.4435 44.199 45.9745 44.199C46.5925 44.199 47.2795 45.192 47.2795 46.62C47.2795 48.048 46.5925 49.044 45.9745 49.044C45.8153 49.044 45.6627 49.1072 45.5502 49.2197C45.4377 49.3323 45.3745 49.4849 45.3745 49.644C45.3745 49.8031 45.4377 49.9557 45.5502 50.0683C45.6627 50.1808 45.8153 50.244 45.9745 50.244C47.3785 50.244 48.4795 48.651 48.4795 46.62C48.4795 44.589 47.3815 42.999 45.9775 42.999Z" fill="white" stroke="#2E353A" stroke-miterlimit="10"/>
<path d="M47.6995 47.592C47.6421 47.8036 47.5678 48.0102 47.4775 48.21" stroke="#2E353A" stroke-width="0.75" stroke-linecap="round" stroke-linejoin="round"/>
<path d="M44.2827 45.132C44.2827 45.132 44.7327 43.506 46.0617 43.596C47.1057 43.668 47.9667 45.219 47.8227 46.878" stroke="#2E353A" stroke-width="0.75" stroke-linecap="round" stroke-linejoin="round"/>
<path d="M56.3998 43.524C55.2268 43.524 54.3778 44.565 54.1108 46.197L55.3108 46.263C55.4968 45.321 55.8658 44.724 56.3968 44.724C57.0148 44.724 57.7018 45.717 57.7018 47.145C57.7018 48.573 57.0148 49.569 56.3968 49.569C56.2377 49.569 56.0851 49.6322 55.9726 49.7447C55.8601 49.8573 55.7968 50.0099 55.7968 50.169C55.7968 50.3281 55.8601 50.4807 55.9726 50.5933C56.0851 50.7058 56.2377 50.769 56.3968 50.769C57.8008 50.769 58.9018 49.176 58.9018 47.145C58.9018 45.114 57.8068 43.524 56.3998 43.524Z" fill="white" stroke="#2E353A" stroke-miterlimit="10"/>
<path d="M58.1248 48.117C58.0674 48.3286 57.9931 48.5352 57.9028 48.735" stroke="#2E353A" stroke-width="0.75" stroke-linecap="round" stroke-linejoin="round"/>
<path d="M54.7075 45.657C54.7075 45.657 55.1575 44.031 56.4865 44.121C57.5305 44.193 58.3915 45.744 58.2475 47.403" stroke="#2E353A" stroke-width="0.75" stroke-linecap="round" stroke-linejoin="round"/>
<path d="M66.8276 44.049C65.6546 44.049 64.8056 45.09 64.5386 46.722L65.7386 46.788C65.9246 45.846 66.2936 45.249 66.8246 45.249C67.4426 45.249 68.1296 46.242 68.1296 47.67C68.1296 49.098 67.4426 50.094 66.8246 50.094C66.6654 50.094 66.5128 50.1572 66.4003 50.2697C66.2878 50.3823 66.2246 50.5349 66.2246 50.694C66.2246 50.8531 66.2878 51.0057 66.4003 51.1183C66.5128 51.2308 66.6654 51.294 66.8246 51.294C68.2286 51.294 69.3296 49.701 69.3296 47.67C69.3296 45.639 68.2316 44.049 66.8276 44.049Z" fill="white" stroke="#2E353A" stroke-miterlimit="10"/>
<path d="M68.5496 48.642C68.4922 48.8536 68.4179 49.0602 68.3276 49.26" stroke="#2E353A" stroke-width="0.75" stroke-linecap="round" stroke-linejoin="round"/>
<path d="M65.1328 46.182C65.1328 46.182 65.5828 44.556 66.9118 44.646C67.9558 44.718 68.8168 46.269 68.6728 47.928" stroke="#2E353A" stroke-width="0.75" stroke-linecap="round" stroke-linejoin="round"/>
<path d="M77.2529 44.574C76.0799 44.574 75.2309 45.615 74.9639 47.247L76.1639 47.313C76.3499 46.371 76.7189 45.774 77.2499 45.774C77.8679 45.774 78.5549 46.767 78.5549 48.195C78.5549 49.623 77.8679 50.619 77.2499 50.619C77.0907 50.619 76.9381 50.6822 76.8256 50.7947C76.7131 50.9073 76.6499 51.0599 76.6499 51.219C76.6499 51.3781 76.7131 51.5307 76.8256 51.6433C76.9381 51.7558 77.0907 51.819 77.2499 51.819C78.6539 51.819 79.7549 50.226 79.7549 48.195C79.7549 46.164 78.6569 44.574 77.2529 44.574Z" fill="white" stroke="#2E353A" stroke-miterlimit="10"/>
<path d="M78.9749 49.167C78.9175 49.3786 78.8432 49.5852 78.7529 49.785" stroke="#2E353A" stroke-width="0.75" stroke-linecap="round" stroke-linejoin="round"/>
<path d="M75.5576 46.707C75.5576 46.707 76.0076 45.081 77.3366 45.171C78.3806 45.243 79.2416 46.794 79.0976 48.453" stroke="#2E353A" stroke-width="0.75" stroke-linecap="round" stroke-linejoin="round"/>
<path d="M87.8671 45.039C86.6941 45.039 85.8451 46.08 85.5811 47.715L86.7811 47.781C86.9701 46.839 87.3391 46.239 87.8671 46.239C88.4851 46.239 89.1751 47.235 89.1751 48.663C89.1751 50.091 88.4851 51.084 87.8671 51.084C87.7079 51.084 87.5553 51.1472 87.4428 51.2597C87.3303 51.3723 87.2671 51.5249 87.2671 51.684C87.2671 51.8431 87.3303 51.9957 87.4428 52.1083C87.5553 52.2208 87.7079 52.284 87.8671 52.284C89.2741 52.284 90.3751 50.694 90.3751 48.663C90.3751 46.632 89.2741 45.039 87.8671 45.039Z" fill="white" stroke="#2E353A" stroke-miterlimit="10"/>
<path d="M89.5887 49.635C89.5317 49.8457 89.4575 50.0514 89.3667 50.25" stroke="#2E353A" stroke-width="0.75" stroke-linecap="round" stroke-linejoin="round"/>
<path d="M86.1719 47.175C86.1719 47.175 86.6249 45.546 87.9509 45.636C88.9979 45.708 89.8559 47.262 89.7149 48.921" stroke="#2E353A" stroke-width="0.75" stroke-linecap="round" stroke-linejoin="round"/>
<path d="M98.0638 45.6C96.8908 45.6 96.0418 46.641 95.7778 48.273L96.9778 48.342C97.1668 47.4 97.5358 46.8 98.0638 46.8C98.6818 46.8 99.3718 47.796 99.3718 49.221C99.3718 50.646 98.6818 51.645 98.0638 51.645C97.9047 51.645 97.7521 51.7082 97.6396 51.8207C97.527 51.9333 97.4638 52.0859 97.4638 52.245C97.4638 52.4041 97.527 52.5567 97.6396 52.6693C97.7521 52.7818 97.9047 52.845 98.0638 52.845C99.4708 52.845 100.572 51.252 100.572 49.221C100.572 47.19 99.4708 45.6 98.0638 45.6Z" fill="white" stroke="#2E353A" stroke-miterlimit="10"/>
<path d="M99.786 50.178C99.7295 50.3899 99.6552 50.5966 99.564 50.796" stroke="#2E353A" stroke-width="0.75" stroke-linecap="round" stroke-linejoin="round"/>
<path d="M96.3691 47.721C96.3691 47.721 96.8221 46.092 98.1481 46.182C99.1951 46.254 100.053 47.805 99.9121 49.464" stroke="#2E353A" stroke-width="0.75" stroke-linecap="round" stroke-linejoin="round"/>
<path d="M127.127 86.7C127.127 86.7 127.727 87.522 127.727 87.873C127.727 88.224 126.905 88.812 126.905 89.631C126.905 90.45 125.849 90.231 125.732 89.631C125.615 89.031 125.966 88.224 125.966 88.224C125.966 88.224 125.477 87.924 125.366 86.868C125.255 85.812 126.206 86.112 126.206 86.112L127.127 86.7Z" fill="white" stroke="#2E353A" stroke-linecap="round" stroke-linejoin="round"/>
<path d="M112.128 78.579C107.781 71.187 103.215 59.514 101.592 55.218L45.1109 52.929C45.0749 94.674 57.7109 111.921 57.7109 111.921C57.7109 111.921 72.0959 110.808 88.6859 104.61C104.628 98.655 123.642 88.659 123.642 88.659C123.642 88.659 117.537 87.78 112.128 78.579Z" fill="white" stroke="#2E353A" stroke-linecap="round" stroke-linejoin="round"/>
<path d="M101.592 55.218L45.1108 52.929C45.1108 57.036 45.2278 60.9 45.4438 64.539L105.09 63.981C103.545 60.3 102.3 57.075 101.592 55.218Z" fill="#2E353A" stroke="#2E353A" stroke-linecap="round" stroke-linejoin="round"/>
<path d="M102.591 67.662L105.261 67.569" stroke="#2E353A" stroke-width="3" stroke-linecap="round" stroke-linejoin="round"/>
<path d="M94.7427 67.929L100.59 67.728" stroke="#2E353A" stroke-width="3" stroke-linecap="round" stroke-linejoin="round"/>
<path d="M85.2417 68.25L92.7567 67.995" stroke="#2E353A" stroke-width="3" stroke-linecap="round" stroke-linejoin="round"/>
<path d="M75.5762 68.577L83.5832 68.307" stroke="#2E353A" stroke-width="3" stroke-linecap="round" stroke-linejoin="round"/>
<path d="M66.231 68.895L73.572 68.646" stroke="#2E353A" stroke-width="3" stroke-linecap="round" stroke-linejoin="round"/>
<path d="M56.3848 69.231L63.7318 68.979" stroke="#2E353A" stroke-width="3" stroke-linecap="round" stroke-linejoin="round"/>
<path d="M47.7178 69.525L54.5548 69.291" stroke="#2E353A" stroke-width="3" stroke-linecap="round" stroke-linejoin="round"/>
<path d="M46.605 75.96L108.744 72.174" stroke="#2E353A" stroke-linecap="round" stroke-linejoin="round"/>
<path d="M56.4238 75.426C56.4238 75.426 57.4438 91.95 68.3368 110.292" stroke="#2E353A" stroke-linecap="round" stroke-linejoin="round"/>
<path d="M66.4497 74.763C66.4497 74.763 67.5987 93.663 79.5417 107.502" stroke="#2E353A" stroke-linecap="round" stroke-linejoin="round"/>
<path d="M75.5278 74.205C75.5278 74.205 76.1278 91.605 89.5528 104.109" stroke="#2E353A" stroke-linecap="round" stroke-linejoin="round"/>
<path d="M84.939 73.8C84.939 73.8 86.421 93.144 99.414 99.957" stroke="#2E353A" stroke-linecap="round" stroke-linejoin="round"/>
<path d="M94.7998 73.023C94.7998 73.023 95.8438 87.654 109.134 95.667" stroke="#2E353A" stroke-linecap="round" stroke-linejoin="round"/>
<path d="M102.564 72.549C102.564 72.549 106.14 87.549 116.145 92.406" stroke="#2E353A" stroke-linecap="round" stroke-linejoin="round"/>
<path d="M47.9668 84.483L111.435 77.502" stroke="#2E353A" stroke-linecap="round" stroke-linejoin="round"/>
<path d="M49.6226 91.95C49.6226 91.95 63.1736 91.419 114.387 81.981" stroke="#2E353A" stroke-linecap="round" stroke-linejoin="round"/>
<path d="M52.0137 99.855C52.0137 99.855 65.2137 101.355 116.928 84.888" stroke="#2E353A" stroke-linecap="round" stroke-linejoin="round"/>
<path d="M54.8701 106.752C54.8701 106.752 65.8741 110.397 119.928 87.252" stroke="#2E353A" stroke-linecap="round" stroke-linejoin="round"/>
<path d="M69.5068 61.095L49.1608 60.822C48.9959 60.8195 48.8376 60.7574 48.7151 60.647C48.5927 60.5367 48.5144 60.3857 48.4948 60.222L48.3208 58.578C48.3106 58.4834 48.3206 58.3877 48.3501 58.2972C48.3797 58.2068 48.4281 58.1236 48.4922 58.0533C48.5563 57.983 48.6346 57.927 48.7219 57.8892C48.8093 57.8514 48.9036 57.8326 48.9988 57.834L69.0988 58.182C69.2473 58.1846 69.3909 58.2359 69.5074 58.3281C69.6239 58.4202 69.707 58.5481 69.7438 58.692L70.1518 60.255C70.1773 60.3538 70.18 60.4572 70.1596 60.5572C70.1392 60.6573 70.0963 60.7513 70.0341 60.8323C69.9719 60.9133 69.8921 60.979 69.8008 61.0245C69.7094 61.07 69.6088 61.0941 69.5068 61.095Z" fill="white"/>
</svg>
