<svg width="150" height="150" viewBox="0 0 150 150" fill="none" xmlns="http://www.w3.org/2000/svg">
<path d="M114.783 37.593C114.897 36.771 113.739 36.093 112.869 36.027C112.454 36.0438 112.039 36.0085 111.633 35.922C110.781 35.622 110.433 34.524 109.611 34.173C108.99 33.912 108.276 34.146 107.673 34.449C107.07 34.752 106.473 35.133 105.804 35.175C105.219 35.214 104.583 34.995 104.073 35.283C103.692 35.496 103.491 35.934 103.14 36.183C102.775 36.4094 102.351 36.5251 101.922 36.516C101.494 36.5041 101.067 36.5733 100.665 36.72C100.465 36.7972 100.295 36.9372 100.182 37.1189C100.068 37.3007 100.017 37.5144 100.035 37.728L114.783 37.593Z" fill="#EBEBEB"/>
<path d="M96.9388 16.884C97.1128 15.603 95.3038 14.547 93.9388 14.436C93.2908 14.385 92.6158 14.484 92.0008 14.268C90.6688 13.806 90.1378 12.084 88.8388 11.535C87.8668 11.127 86.7388 11.49 85.8058 11.964C84.8728 12.438 83.9308 13.035 82.8808 13.104C81.9628 13.161 80.9698 12.822 80.1808 13.269C79.5808 13.602 79.2808 14.289 78.7228 14.697C78.1648 15.105 77.4808 15.177 76.8148 15.213C76.1488 15.249 75.4558 15.255 74.8468 15.534C74.2378 15.813 73.7368 16.455 73.8628 17.112L96.9388 16.884Z" fill="#EBEBEB"/>
<path d="M138.9 23.442C139.092 22.035 137.1 20.874 135.6 20.742C134.886 20.685 134.148 20.793 133.47 20.559C132.009 20.049 131.424 18.159 129.996 17.559C128.928 17.109 127.701 17.508 126.666 18.03C125.631 18.552 124.608 19.206 123.453 19.281C122.445 19.344 121.353 18.981 120.474 19.464C119.82 19.83 119.475 20.583 118.872 21.03C118.269 21.477 117.51 21.558 116.772 21.597C116.034 21.636 115.272 21.645 114.612 21.951C113.952 22.257 113.4 22.971 113.538 23.7L138.9 23.442Z" fill="#F5F5F5"/>
<path d="M128.556 98.019C126.863 97.5844 125.273 96.8198 123.876 95.7691C122.479 94.7183 121.304 93.4021 120.417 91.896C119.588 90.4295 119.083 88.8022 118.936 87.1239C118.789 85.4456 119.003 83.7553 119.565 82.167C120.465 79.692 122.166 77.514 122.901 74.997C123.735 72.138 123.237 69.105 122.724 66.183C122.211 63.261 121.683 60.237 122.466 57.363C123.249 54.489 125.7 51.798 128.871 51.6C131.805 51.408 134.517 53.442 135.741 55.938C136.965 58.434 136.974 61.302 136.689 64.038C136.404 66.774 135.846 69.504 136.02 72.246C136.374 77.799 139.704 83.028 139.32 88.578C139.116 91.467 137.919 93.318 135.87 95.493C134.1 97.365 131.163 98.598 128.562 98.025" fill="#F5F5F5"/>
<path d="M129.6 125.532C129.57 125.532 129.543 113.232 129.543 98.061C129.543 82.89 129.57 70.584 129.6 70.584C129.63 70.584 129.657 82.884 129.657 98.061C129.657 113.238 129.624 125.532 129.6 125.532Z" fill="#E0E0E0"/>
<path d="M129.435 88.419C129.254 88.2835 129.085 88.1341 128.928 87.972C128.628 87.672 128.214 87.282 127.782 86.82C127.35 86.358 126.951 85.95 126.663 85.65C126.5 85.496 126.35 85.3295 126.213 85.152C126.394 85.2865 126.564 85.436 126.72 85.599C127.02 85.884 127.434 86.289 127.866 86.751C128.298 87.213 128.697 87.621 128.985 87.921C129.149 88.0741 129.299 88.2407 129.435 88.419Z" fill="#E0E0E0"/>
<path d="M138.936 123.252H120.561V125.496H138.936V123.252Z" fill="#E0E0E0"/>
<path d="M129.765 76.908C130.163 76.8155 130.542 76.6573 130.887 76.44C131.282 76.1818 131.613 75.8368 131.854 75.4312C132.095 75.0257 132.241 74.5703 132.279 74.1V74.052L132.345 74.106C131.825 74.1974 131.349 74.4578 130.992 74.847C130.7 75.1534 130.446 75.4938 130.236 75.861C130.056 76.161 129.936 76.431 129.843 76.611C129.806 76.7086 129.759 76.8022 129.702 76.89C129.725 76.7867 129.76 76.6861 129.804 76.59C129.91 76.326 130.031 76.0685 130.167 75.819C130.37 75.4406 130.623 75.0906 130.917 74.778C131.287 74.3674 131.783 74.0919 132.327 73.995H132.396V74.058V74.1C132.357 74.5861 132.205 75.0563 131.952 75.4731C131.699 75.8899 131.352 76.2416 130.938 76.5C130.68 76.6611 130.399 76.7806 130.104 76.854C130.023 76.8735 129.941 76.8886 129.858 76.899C129.828 76.9059 129.796 76.9089 129.765 76.908Z" fill="#E0E0E0"/>
<path d="M129.765 76.908C129.996 76.5684 130.253 76.2483 130.536 75.951C130.794 75.6263 131.08 75.3251 131.391 75.051C131.164 75.3918 130.907 75.712 130.623 76.008C130.364 76.3323 130.077 76.6334 129.765 76.908Z" fill="#E0E0E0"/>
<path d="M141.933 125.451C141.933 125.496 111.405 125.529 73.7519 125.529C36.0989 125.529 5.56494 125.496 5.56494 125.451C5.56494 125.406 36.0869 125.373 73.7519 125.373C111.417 125.373 141.933 125.4 141.933 125.451Z" fill="#E0E0E0"/>
<path d="M120.021 112.137L123.735 112.746V118.737L120.021 119.457V112.137Z" fill="#F5F5F5"/>
<path d="M123.957 112.029H124.2C124.294 112.029 124.384 112.066 124.45 112.133C124.517 112.199 124.554 112.289 124.554 112.383V118.983C124.554 119.076 124.517 119.165 124.451 119.231C124.385 119.297 124.296 119.334 124.203 119.334H123.966C123.872 119.334 123.782 119.297 123.716 119.23C123.649 119.164 123.612 119.074 123.612 118.98V112.38C123.612 112.334 123.621 112.288 123.639 112.246C123.656 112.203 123.682 112.164 123.715 112.132C123.747 112.099 123.786 112.073 123.828 112.056C123.871 112.038 123.917 112.029 123.963 112.029H123.957Z" fill="#F5F5F5"/>
<path d="M124.356 114H124.863C125.143 114 125.412 114.111 125.61 114.309C125.808 114.507 125.919 114.776 125.919 115.056V115.77C125.919 116.05 125.808 116.319 125.61 116.517C125.412 116.715 125.143 116.826 124.863 116.826H124.356V114Z" fill="#F5F5F5"/>
<path d="M123.576 118.761C123.525 118.761 123.483 117.417 123.483 115.761C123.483 114.105 123.525 112.761 123.576 112.761C123.627 112.761 123.669 114.102 123.669 115.761C123.669 117.42 123.627 118.761 123.576 118.761Z" fill="#E0E0E0"/>
<path d="M124.5 118.8C124.449 118.8 124.407 117.456 124.407 115.8C124.407 114.144 124.449 112.8 124.5 112.8C124.551 112.8 124.59 114.144 124.59 115.8C124.59 117.456 124.548 118.8 124.5 118.8Z" fill="#E0E0E0"/>
<path d="M106.686 135.51V105.105C106.686 103.337 107.388 101.642 108.638 100.391C109.889 99.1413 111.584 98.439 113.352 98.439C114.228 98.4386 115.095 98.6107 115.904 98.9455C116.713 99.2804 117.448 99.7713 118.068 100.39C118.687 101.009 119.178 101.744 119.513 102.553C119.849 103.362 120.021 104.229 120.021 105.105V135.51H106.686Z" fill="#F5F5F5"/>
<path d="M120.879 105.831H105.963C105.202 105.831 104.586 106.447 104.586 107.208V108.141C104.586 108.901 105.202 109.518 105.963 109.518H120.879C121.639 109.518 122.256 108.901 122.256 108.141V107.208C122.256 106.447 121.639 105.831 120.879 105.831Z" fill="#F5F5F5"/>
<path d="M111.3 98.919V98.655C111.285 98.4042 111.32 98.153 111.403 97.9157C111.485 97.6784 111.614 97.4598 111.781 97.2723C111.948 97.0847 112.151 96.932 112.377 96.8228C112.603 96.7137 112.849 96.6502 113.1 96.636L113.619 96.612C114.125 96.5909 114.618 96.7714 114.991 97.114C115.364 97.4565 115.586 97.9331 115.608 98.439L115.632 98.895L111.3 98.919Z" fill="#F5F5F5"/>
<path d="M113.241 95.871H113.646C113.76 95.871 113.87 95.9165 113.951 95.9975C114.032 96.0785 114.078 96.1884 114.078 96.303V96.939H112.8V96.3C112.8 96.2427 112.812 96.1862 112.834 96.1335C112.857 96.0808 112.89 96.0332 112.931 95.9932C112.972 95.9533 113.02 95.922 113.073 95.901C113.127 95.88 113.184 95.8698 113.241 95.871Z" fill="#F5F5F5"/>
<path d="M120.021 105.774C120.021 105.825 117.042 105.867 113.367 105.867C109.692 105.867 106.713 105.825 106.713 105.774C106.713 105.723 109.692 105.681 113.367 105.681C117.042 105.681 120.021 105.723 120.021 105.774Z" fill="#E0E0E0"/>
<path d="M111.48 99.168C111.48 99.195 111.096 99.354 110.499 99.678C109.715 100.089 109.019 100.65 108.45 101.328C107.912 102.029 107.538 102.842 107.358 103.707C107.214 104.37 107.244 104.799 107.211 104.799C107.18 104.702 107.167 104.601 107.172 104.499C107.161 104.225 107.18 103.95 107.229 103.68C107.379 102.781 107.749 101.933 108.306 101.211C108.887 100.511 109.615 99.9478 110.439 99.561C110.683 99.4412 110.935 99.336 111.192 99.246C111.283 99.2041 111.38 99.1778 111.48 99.168Z" fill="#FAFAFA"/>
<path d="M115.608 98.781C115.59 98.847 114.645 98.481 113.43 98.445C112.215 98.409 111.27 98.829 111.252 98.763C111.434 98.6396 111.638 98.5502 111.852 98.499C112.361 98.3359 112.893 98.2559 113.427 98.262C113.961 98.2706 114.49 98.3575 114.999 98.52C115.215 98.5718 115.421 98.6601 115.608 98.781Z" fill="#E0E0E0"/>
<path d="M114.21 96.729C113.97 96.7302 113.731 96.7142 113.493 96.681C113.106 96.681 112.794 96.744 112.776 96.681C112.758 96.618 113.076 96.471 113.499 96.483C113.922 96.495 114.231 96.684 114.21 96.729Z" fill="#E0E0E0"/>
<path d="M118.08 116.595C118.08 117.507 117.811 118.398 117.304 119.156C116.798 119.914 116.079 120.506 115.237 120.855C114.394 121.204 113.468 121.295 112.574 121.118C111.679 120.94 110.858 120.501 110.213 119.856C109.569 119.212 109.13 118.39 108.952 117.496C108.774 116.602 108.866 115.675 109.215 114.833C109.564 113.991 110.155 113.271 110.914 112.765C111.672 112.259 112.563 111.989 113.475 111.99C114.696 111.99 115.867 112.475 116.731 113.339C117.595 114.202 118.08 115.374 118.08 116.595Z" fill="#E0E0E0"/>
<path d="M118.055 116.245C118.306 113.713 116.457 111.456 113.925 111.204C111.392 110.953 109.135 112.802 108.884 115.334C108.633 117.867 110.482 120.124 113.014 120.375C115.547 120.627 117.803 118.778 118.055 116.245Z" fill="#F5F5F5"/>
<path d="M118.08 115.8C118.047 115.424 117.988 115.051 117.903 114.684C117.637 113.689 117.045 112.811 116.223 112.191C115.66 111.765 115.004 111.477 114.309 111.351C113.513 111.206 112.693 111.275 111.933 111.552C111.093 111.86 110.362 112.409 109.833 113.13C109.263 113.903 108.955 114.839 108.955 115.8C108.955 116.761 109.263 117.697 109.833 118.47C110.098 118.839 110.42 119.163 110.787 119.43C111.135 119.692 111.52 119.901 111.93 120.048C112.69 120.325 113.51 120.394 114.306 120.249C115.001 120.123 115.657 119.835 116.22 119.409C117.043 118.789 117.634 117.911 117.9 116.916C117.985 116.549 118.044 116.176 118.077 115.8C118.086 115.9 118.086 116 118.077 116.1C118.077 116.22 118.067 116.339 118.047 116.457C118.032 116.62 118.004 116.782 117.963 116.94C117.719 117.967 117.129 118.878 116.292 119.52C115.673 120 114.942 120.315 114.168 120.436C113.395 120.557 112.603 120.48 111.867 120.213C110.993 119.897 110.232 119.331 109.68 118.584C109.085 117.78 108.763 116.806 108.763 115.806C108.763 114.806 109.085 113.832 109.68 113.028C110.23 112.281 110.991 111.714 111.864 111.399C112.653 111.115 113.503 111.048 114.327 111.207C115.201 111.375 116.009 111.791 116.653 112.405C117.297 113.019 117.751 113.806 117.96 114.672C118.001 114.83 118.029 114.992 118.044 115.155C118.064 115.273 118.074 115.392 118.074 115.512C118.084 115.608 118.086 115.704 118.08 115.8Z" fill="#E0E0E0"/>
<path d="M115.365 114.828C115.556 115.202 115.632 115.624 115.584 116.041C115.535 116.458 115.364 116.852 115.092 117.171C114.82 117.491 114.46 117.724 114.056 117.839C113.652 117.954 113.223 117.946 112.823 117.818C112.424 117.689 112.071 117.445 111.81 117.116C111.549 116.787 111.392 116.388 111.357 115.969C111.323 115.551 111.413 115.132 111.617 114.765C111.821 114.397 112.129 114.099 112.503 113.907C112.751 113.779 113.022 113.702 113.3 113.679C113.579 113.656 113.859 113.688 114.125 113.774C114.391 113.86 114.637 113.997 114.85 114.178C115.062 114.358 115.237 114.579 115.365 114.828Z" fill="#E0E0E0"/>
<path d="M114.927 115.8C114.927 116.087 114.842 116.368 114.682 116.607C114.523 116.845 114.296 117.032 114.031 117.141C113.765 117.251 113.473 117.28 113.192 117.224C112.91 117.168 112.651 117.03 112.448 116.827C112.245 116.624 112.107 116.365 112.051 116.083C111.995 115.802 112.024 115.51 112.133 115.244C112.243 114.979 112.429 114.752 112.668 114.593C112.907 114.433 113.188 114.348 113.475 114.348C113.86 114.348 114.229 114.501 114.502 114.773C114.774 115.046 114.927 115.415 114.927 115.8Z" fill="#F5F5F5"/>
<path d="M114.927 115.8C114.909 115.8 114.909 115.671 114.846 115.455C114.755 115.151 114.568 114.886 114.312 114.699C114.108 114.546 113.865 114.454 113.611 114.431C113.357 114.409 113.102 114.457 112.874 114.572C112.646 114.686 112.455 114.861 112.321 115.078C112.187 115.295 112.116 115.545 112.116 115.8C112.116 116.055 112.187 116.305 112.321 116.522C112.455 116.739 112.646 116.914 112.874 117.028C113.102 117.143 113.357 117.191 113.611 117.169C113.865 117.146 114.108 117.054 114.312 116.901C114.568 116.714 114.755 116.449 114.846 116.145C114.909 115.929 114.909 115.8 114.927 115.8C114.955 115.919 114.955 116.044 114.927 116.163C114.857 116.497 114.672 116.795 114.405 117.006C114.205 117.165 113.967 117.271 113.714 117.312C113.462 117.354 113.203 117.33 112.962 117.243C112.663 117.138 112.405 116.942 112.222 116.684C112.039 116.425 111.94 116.117 111.94 115.8C111.94 115.483 112.039 115.174 112.222 114.916C112.405 114.658 112.663 114.462 112.962 114.357C113.203 114.27 113.462 114.246 113.714 114.288C113.967 114.329 114.205 114.435 114.405 114.594C114.672 114.806 114.856 115.104 114.927 115.437C114.955 115.556 114.955 115.681 114.927 115.8Z" fill="#E0E0E0"/>
<path d="M120.021 109.566C120.021 109.617 117.021 109.659 113.298 109.659C109.575 109.659 106.575 109.617 106.575 109.566C106.575 109.515 109.575 109.473 113.298 109.473C117.021 109.473 120.021 109.515 120.021 109.566Z" fill="#E0E0E0"/>
<path d="M106.575 106.248C106.575 106.278 106.398 106.281 106.14 106.365C105.803 106.467 105.509 106.675 105.3 106.959C105.091 107.242 104.98 107.585 104.982 107.937C104.982 108.21 105.027 108.378 104.997 108.387C104.967 108.396 104.88 108.237 104.85 107.943C104.813 107.554 104.921 107.165 105.153 106.851C105.385 106.536 105.724 106.318 106.107 106.239C106.398 106.182 106.578 106.227 106.575 106.248Z" fill="#FAFAFA"/>
<path d="M111.342 112.311C111.357 112.338 111.042 112.497 110.622 112.875C110.075 113.363 109.674 113.993 109.467 114.696C109.259 115.399 109.252 116.146 109.446 116.853C109.587 117.396 109.77 117.702 109.746 117.717C109.722 117.732 109.68 117.654 109.599 117.516C109.485 117.317 109.394 117.107 109.326 116.889C109.09 116.161 109.079 115.378 109.296 114.644C109.513 113.91 109.947 113.259 110.541 112.776C110.717 112.631 110.908 112.505 111.111 112.401C111.252 112.329 111.336 112.299 111.342 112.311Z" fill="#FAFAFA"/>
<path d="M120.021 122.1C119.97 122.1 119.928 119.277 119.928 115.8C119.928 112.323 119.97 109.5 120.021 109.5C120.072 109.5 120.114 112.323 120.114 115.8C120.114 119.277 120.072 122.1 120.021 122.1Z" fill="#E0E0E0"/>
<path d="M102.357 139.239V137.763C102.358 137.47 102.475 137.189 102.682 136.982C102.89 136.775 103.171 136.659 103.464 136.659V136.2C103.464 135.643 103.685 135.109 104.079 134.715C104.473 134.321 105.007 134.1 105.564 134.1H120.51C121.671 134.1 122.61 135.414 122.61 136.575H123.141C123.741 136.575 124.248 136.698 124.248 137.31V139.257L102.357 139.239Z" fill="#E0E0E0"/>
<path d="M123.132 136.557C123.132 136.608 118.716 136.65 113.271 136.65C107.826 136.65 103.41 136.608 103.41 136.557C103.41 136.506 107.823 136.464 113.271 136.464C118.719 136.464 123.132 136.5 123.132 136.557Z" fill="#F5F5F5"/>
<path d="M106.713 119.292L102.996 118.683V112.695L106.713 111.975V119.292Z" fill="#F5F5F5"/>
<path d="M102.777 119.403H102.54C102.447 119.403 102.358 119.366 102.292 119.3C102.226 119.234 102.189 119.145 102.189 119.052V112.452C102.189 112.359 102.226 112.27 102.292 112.204C102.358 112.138 102.447 112.101 102.54 112.101H102.777C102.87 112.101 102.959 112.138 103.025 112.204C103.091 112.27 103.128 112.359 103.128 112.452V119.052C103.127 119.145 103.09 119.234 103.024 119.299C102.959 119.365 102.87 119.402 102.777 119.403Z" fill="#F5F5F5"/>
<path d="M102.39 117.447H101.883C101.603 117.447 101.334 117.336 101.136 117.138C100.938 116.94 100.827 116.671 100.827 116.391V115.677C100.827 115.397 100.938 115.128 101.136 114.93C101.334 114.732 101.603 114.621 101.883 114.621H102.39V117.447Z" fill="#F5F5F5"/>
<path d="M103.158 112.671C103.209 112.671 103.251 114.012 103.251 115.671C103.251 117.33 103.209 118.671 103.158 118.671C103.107 118.671 103.065 117.327 103.065 115.671C103.065 114.015 103.107 112.671 103.158 112.671Z" fill="#E0E0E0"/>
<path d="M102.237 112.629C102.288 112.629 102.33 113.973 102.33 115.629C102.33 117.285 102.288 118.629 102.237 118.629C102.186 118.629 102.144 117.288 102.144 115.629C102.144 113.97 102.186 112.629 102.237 112.629Z" fill="#E0E0E0"/>
<path d="M106.713 125.829C106.662 125.829 106.62 122.259 106.62 117.855C106.62 113.451 106.662 109.878 106.713 109.878C106.764 109.878 106.806 113.448 106.806 117.855C106.806 122.262 106.764 125.829 106.713 125.829Z" fill="#E0E0E0"/>
<path d="M55.7427 28.551H29.9697V110.229H55.7427V28.551Z" fill="#F5F5F5"/>
<path d="M55.74 28.551H42.855V110.004H55.74V28.551Z" fill="#EBEBEB"/>
<path d="M42.0151 20.532H32.9131V28.551H42.0151V20.532Z" fill="#F5F5F5"/>
<path d="M42.0147 20.532H39.8457V28.551H42.0147V20.532Z" fill="#EBEBEB"/>
<path d="M27.8218 28.551V28.083H56.4958V28.551" fill="#E0E0E0"/>
<path d="M37.2391 32.049H35.0581V36.648H37.2391V32.049Z" fill="#FAFAFA"/>
<path d="M42.8547 38.454C42.8547 38.502 39.9717 38.541 36.4137 38.541C32.8557 38.541 29.9697 38.502 29.9697 38.454C29.9697 38.406 32.8557 38.367 36.4137 38.367C39.9717 38.367 42.8547 38.4 42.8547 38.454Z" fill="#E0E0E0"/>
<path d="M50.2381 32.049H48.0571V36.648H50.2381V32.049Z" fill="#E0E0E0"/>
<path d="M55.8537 38.454C55.8537 38.502 52.9708 38.541 49.4128 38.541C45.8548 38.541 42.9688 38.502 42.9688 38.454C42.9688 38.406 45.8518 38.367 49.4128 38.367C52.9738 38.367 55.8537 38.4 55.8537 38.454Z" fill="#E0E0E0"/>
<path d="M50.2381 41.181H48.0571V45.78H50.2381V41.181Z" fill="#E0E0E0"/>
<path d="M55.8537 47.586C55.8537 47.634 52.9708 47.673 49.4128 47.673C45.8548 47.673 42.9688 47.634 42.9688 47.586C42.9688 47.538 45.8518 47.499 49.4128 47.499C52.9738 47.499 55.8537 47.538 55.8537 47.586Z" fill="#E0E0E0"/>
<path d="M50.2381 50.589H48.0571V55.188H50.2381V50.589Z" fill="#E0E0E0"/>
<path d="M55.8537 57C55.8537 57.048 52.9708 57.087 49.4128 57.087C45.8548 57.087 42.9688 57.048 42.9688 57C42.9688 56.952 45.8518 56.913 49.4128 56.913C52.9738 56.913 55.8537 56.946 55.8537 57Z" fill="#E0E0E0"/>
<path d="M50.2381 59.997H48.0571V64.596H50.2381V59.997Z" fill="#E0E0E0"/>
<path d="M55.8537 66.402C55.8537 66.45 52.9708 66.492 49.4128 66.492C45.8548 66.492 42.9688 66.45 42.9688 66.402C42.9688 66.354 45.8518 66.315 49.4128 66.315C52.9738 66.315 55.8537 66.354 55.8537 66.402Z" fill="#E0E0E0"/>
<path d="M50.2381 69.138H48.0571V73.737H50.2381V69.138Z" fill="#E0E0E0"/>
<path d="M55.8537 75.543C55.8537 75.591 52.9708 75.63 49.4128 75.63C45.8548 75.63 42.9688 75.591 42.9688 75.543C42.9688 75.495 45.8518 75.453 49.4128 75.453C52.9738 75.453 55.8537 75.492 55.8537 75.543Z" fill="#E0E0E0"/>
<path d="M50.2381 78.312H48.0571V82.911H50.2381V78.312Z" fill="#E0E0E0"/>
<path d="M50.2381 87.609H48.0571V92.208H50.2381V87.609Z" fill="#E0E0E0"/>
<path d="M55.8537 84.717C55.8537 84.765 52.9708 84.804 49.4128 84.804C45.8548 84.804 42.9688 84.765 42.9688 84.717C42.9688 84.669 45.8518 84.63 49.4128 84.63C52.9738 84.63 55.8537 84.669 55.8537 84.717Z" fill="#E0E0E0"/>
<path d="M37.2391 41.322H35.0581V45.921H37.2391V41.322Z" fill="#FAFAFA"/>
<path d="M42.8547 47.727C42.8547 47.775 39.9717 47.814 36.4137 47.814C32.8557 47.814 29.9697 47.775 29.9697 47.727C29.9697 47.679 32.8557 47.637 36.4137 47.637C39.9717 47.637 42.8547 47.676 42.8547 47.727Z" fill="#E0E0E0"/>
<path d="M37.2391 50.592H35.0581V55.191H37.2391V50.592Z" fill="#FAFAFA"/>
<path d="M42.8547 57C42.8547 57.048 39.9717 57.09 36.4137 57.09C32.8557 57.09 29.9697 57.048 29.9697 57C29.9697 56.952 32.8557 56.913 36.4137 56.913C39.9717 56.913 42.8547 56.949 42.8547 57Z" fill="#E0E0E0"/>
<path d="M37.2391 59.865H35.0581V64.464H37.2391V59.865Z" fill="#FAFAFA"/>
<path d="M42.8547 66.27C42.8547 66.318 39.9717 66.357 36.4137 66.357C32.8557 66.357 29.9697 66.318 29.9697 66.27C29.9697 66.222 32.8557 66.183 36.4137 66.183C39.9717 66.183 42.8547 66.222 42.8547 66.27Z" fill="#E0E0E0"/>
<path d="M37.2391 69.138H35.0581V73.737H37.2391V69.138Z" fill="#FAFAFA"/>
<path d="M42.8547 75.543C42.8547 75.591 39.9717 75.63 36.4137 75.63C32.8557 75.63 29.9697 75.6 29.9697 75.543C29.9697 75.486 32.8557 75.453 36.4137 75.453C39.9717 75.453 42.8547 75.492 42.8547 75.543Z" fill="#E0E0E0"/>
<path d="M37.2391 78.408H35.0581V83.007H37.2391V78.408Z" fill="#FAFAFA"/>
<path d="M42.8547 84.813C42.8547 84.861 39.9717 84.9 36.4137 84.9C32.8557 84.9 29.9697 84.861 29.9697 84.813C29.9697 84.765 32.8557 84.726 36.4137 84.726C39.9717 84.726 42.8547 84.765 42.8547 84.813Z" fill="#E0E0E0"/>
<path d="M37.2391 87.681H35.0581V92.28H37.2391V87.681Z" fill="#FAFAFA"/>
<path d="M88.5058 75.909H50.8828V125.535H88.5058V75.909Z" fill="#EBEBEB"/>
<path d="M88.5062 75.909H70.8662V125.535H88.5062V75.909Z" fill="#E0E0E0"/>
<path d="M62.1569 82.626H58.7729V90.846H62.1569V82.626Z" fill="#F5F5F5"/>
<path d="M62.1569 114.795H58.7729V123.015H62.1569V114.795Z" fill="#F5F5F5"/>
<path d="M70.8658 94.071C70.8658 94.164 66.3928 94.239 60.8758 94.239C55.3588 94.239 50.8828 94.164 50.8828 94.071C50.8828 93.978 55.3558 93.903 60.8758 93.903C66.3958 93.903 70.8658 93.978 70.8658 94.071Z" fill="#F5F5F5"/>
<path d="M62.1569 98.832H58.7729V107.052H62.1569V98.832Z" fill="#F5F5F5"/>
<path d="M70.8658 110.277C70.8658 110.37 66.3928 110.445 60.8758 110.445C55.3588 110.445 50.8828 110.37 50.8828 110.277C50.8828 110.184 55.3558 110.109 60.8758 110.109C66.3958 110.109 70.8658 110.184 70.8658 110.277Z" fill="#F5F5F5"/>
<path d="M77.9968 82.626H74.6128V90.846H77.9968V82.626Z" fill="#F5F5F5"/>
<path d="M85.3381 82.626H81.9541V90.846H85.3381V82.626Z" fill="#F5F5F5"/>
<path d="M77.9968 98.223H74.6128V106.443H77.9968V98.223Z" fill="#F5F5F5"/>
<path d="M85.3381 98.223H81.9541V106.443H85.3381V98.223Z" fill="#F5F5F5"/>
<path d="M77.9968 113.817H74.6128V122.037H77.9968V113.817Z" fill="#F5F5F5"/>
<path d="M85.3381 113.817H81.9541V122.037H85.3381V113.817Z" fill="#F5F5F5"/>
<path d="M91.3381 74.181H48.0571V75.969H91.3381V74.181Z" fill="#E0E0E0"/>
<path d="M88.77 76.137C88.77 76.23 80.37 76.305 69.99 76.305C59.61 76.305 51.207 76.23 51.207 76.137C51.207 76.044 59.607 75.972 69.99 75.972C80.373 75.972 88.77 76.047 88.77 76.137Z" fill="#EBEBEB"/>
<path d="M51.816 125.403H13.893L13.728 65.466H51.651L51.816 125.403Z" fill="#EBEBEB"/>
<path d="M51.651 65.466H32.688V125.403H51.651V65.466Z" fill="#E0E0E0"/>
<path d="M31.4491 53.667H18.0571V65.466H31.4491V53.667Z" fill="#EBEBEB"/>
<path d="M31.4488 53.667H28.2568V65.466H31.4488V53.667Z" fill="#E0E0E0"/>
<path d="M52.7609 64.779H10.5659V65.466H52.7609V64.779Z" fill="#E0E0E0"/>
<path d="M24.4229 70.614H21.2129V77.382H24.4229V70.614Z" fill="white"/>
<path d="M32.6997 80.04C32.6997 80.109 28.4547 80.169 23.2197 80.169C17.9847 80.169 13.7397 80.109 13.7397 80.04C13.7397 79.971 17.9817 79.911 23.2197 79.911C28.4577 79.911 32.6997 79.968 32.6997 80.04Z" fill="#E0E0E0"/>
<path d="M43.5508 70.614H40.3408V77.382H43.5508V70.614Z" fill="#F5F5F5"/>
<path d="M51.816 80.04C51.816 80.109 47.571 80.169 42.336 80.169C37.101 80.169 32.853 80.109 32.853 80.04C32.853 79.971 37.098 79.911 42.336 79.911C47.574 79.911 51.816 79.968 51.816 80.04Z" fill="#EBEBEB"/>
<path d="M43.5508 84.051H40.3408V90.819H43.5508V84.051Z" fill="#F5F5F5"/>
<path d="M51.816 93.477C51.816 93.549 47.571 93.606 42.336 93.606C37.101 93.606 32.853 93.549 32.853 93.477C32.853 93.405 37.098 93.348 42.336 93.348C47.574 93.348 51.816 93.405 51.816 93.477Z" fill="#EBEBEB"/>
<path d="M43.5508 97.896H40.3408V104.664H43.5508V97.896Z" fill="#F5F5F5"/>
<path d="M51.816 107.322C51.816 107.394 47.571 107.451 42.336 107.451C37.101 107.451 32.853 107.394 32.853 107.322C32.853 107.25 37.098 107.193 42.336 107.193C47.574 107.193 51.816 107.25 51.816 107.322Z" fill="#EBEBEB"/>
<path d="M43.5508 111.741H40.3408V118.509H43.5508V111.741Z" fill="#F5F5F5"/>
<path d="M51.816 121.167C51.816 121.236 47.571 121.296 42.336 121.296C37.101 121.296 32.853 121.236 32.853 121.167C32.853 121.098 37.098 121.038 42.336 121.038C47.574 121.038 51.816 121.095 51.816 121.167Z" fill="#EBEBEB"/>
<path d="M24.4229 84.258H21.2129V91.026H24.4229V84.258Z" fill="white"/>
<path d="M32.6997 93.684C32.6997 93.753 28.4547 93.813 23.2197 93.813C17.9847 93.813 13.7397 93.753 13.7397 93.684C13.7397 93.615 17.9817 93.552 23.2197 93.552C28.4577 93.552 32.6997 93.6 32.6997 93.684Z" fill="#E0E0E0"/>
<path d="M24.4229 97.902H21.2129V104.67H24.4229V97.902Z" fill="white"/>
<path d="M32.6997 107.328C32.6997 107.397 28.4547 107.457 23.2197 107.457C17.9847 107.457 13.7397 107.397 13.7397 107.328C13.7397 107.259 17.9817 107.196 23.2197 107.196C28.4577 107.196 32.6997 107.256 32.6997 107.328Z" fill="#E0E0E0"/>
<path d="M24.4229 111.546H21.2129V118.314H24.4229V111.546Z" fill="white"/>
<path d="M32.6997 120.969C32.6997 121.041 28.4547 121.101 23.2197 121.101C17.9847 121.101 13.7397 121.041 13.7397 120.969C13.7397 120.897 17.9817 120.84 23.2197 120.84C28.4577 120.84 32.6997 120.9 32.6997 120.969Z" fill="#E0E0E0"/>
<path d="M79.7823 25.2C79.1557 25.1289 78.5216 25.1655 77.9073 25.308C77.3062 25.4983 76.7413 25.7884 76.2363 26.166C76.3395 26.0054 76.4755 25.8684 76.6353 25.764C77.0048 25.488 77.4232 25.2845 77.8683 25.164C78.3124 25.0419 78.776 25.0073 79.2333 25.062C79.4241 25.0679 79.6114 25.1149 79.7823 25.2Z" fill="#455A64"/>
<path d="M43.7431 55.545C43.7431 55.545 42.2851 54.12 41.9731 53.145C41.7287 53.3784 41.582 53.6959 41.5625 54.0333C41.543 54.3707 41.6522 54.7029 41.8681 54.963C42.1916 55.4424 42.5495 55.8976 42.9391 56.325L42.0391 56.415C42.0391 56.415 41.0071 56.166 40.8391 57.087L40.9771 57.387C40.9771 57.387 40.4941 57.753 40.4941 57.987C40.4941 58.221 40.8391 58.614 40.8391 58.614C40.8391 58.614 40.3081 59.04 40.3081 59.286C40.3366 59.4832 40.4221 59.6677 40.5541 59.817C40.5541 59.817 40.3771 60.525 40.6981 60.807C41.0566 61.0445 41.4505 61.2237 41.8651 61.338L46.9651 61.551L46.8241 58.119L46.3651 58.014C46.3651 58.014 46.0831 57.519 45.8701 57.237C45.6571 56.955 43.7491 55.515 43.7491 55.515" fill="#B25F57"/>
<path d="M40.98 57.402C41.0733 57.3856 41.1687 57.3856 41.262 57.402C41.5176 57.4242 41.7719 57.4592 42.024 57.507C42.3984 57.5781 42.7682 57.6723 43.131 57.789C43.335 57.855 43.548 57.93 43.767 58.017C43.986 58.104 44.214 58.218 44.391 58.131C44.568 58.044 44.562 57.765 44.442 57.615C44.3005 57.457 44.1223 57.3365 43.923 57.264C43.539 57.081 43.185 56.94 42.882 56.829C42.282 56.607 41.889 56.508 41.895 56.484C41.9894 56.4838 42.0833 56.497 42.174 56.523C42.351 56.562 42.606 56.625 42.918 56.724C43.2806 56.8393 43.6362 56.9755 43.983 57.132C44.2064 57.2115 44.4065 57.3456 44.565 57.522C44.6469 57.6328 44.6882 57.7684 44.682 57.906C44.6813 57.9806 44.6606 58.0536 44.6221 58.1174C44.5835 58.1812 44.5286 58.2336 44.463 58.269C44.3321 58.3267 44.1844 58.3331 44.049 58.287C43.9335 58.251 43.8202 58.2079 43.71 58.158C43.497 58.071 43.287 57.993 43.086 57.924C42.684 57.789 42.315 57.687 42 57.624C41.373 57.474 40.977 57.426 40.98 57.402Z" fill="#884540"/>
<path d="M43.8483 58.284C43.8483 58.284 43.9233 58.284 44.0523 58.32C44.2422 58.3652 44.4151 58.4642 44.5503 58.605C44.6436 58.7139 44.6966 58.8516 44.7003 58.995C44.7033 59.083 44.6793 59.1698 44.6316 59.2438C44.5839 59.3178 44.5147 59.3754 44.4333 59.409C44.2622 59.4612 44.0794 59.4612 43.9083 59.409L43.3983 59.289C42.6963 59.124 42.0663 58.962 41.6133 58.839C41.3628 58.7878 41.1185 58.7104 40.8843 58.608C41.1386 58.6247 41.3908 58.6659 41.6373 58.731C42.0993 58.827 42.7353 58.971 43.4373 59.139C43.7823 59.205 44.1303 59.358 44.3823 59.268C44.4387 59.2462 44.4872 59.208 44.5214 59.1582C44.5557 59.1084 44.5741 59.0494 44.5743 58.989C44.5758 58.8733 44.5389 58.7604 44.4693 58.668C44.351 58.5339 44.2017 58.4309 44.0343 58.368C43.9113 58.323 43.8423 58.293 43.8483 58.284Z" fill="#884540"/>
<path d="M43.8391 59.445C43.8391 59.445 43.8991 59.394 44.0101 59.445C44.0733 59.4788 44.1222 59.5342 44.1481 59.601C44.1648 59.647 44.1711 59.6962 44.1664 59.745C44.1617 59.7938 44.1463 59.8409 44.1211 59.883C44.0612 59.9803 43.9719 60.0559 43.8661 60.099C43.7487 60.1402 43.6243 60.1576 43.5001 60.15C43.2511 60.15 42.9871 60.123 42.7051 60.105C42.0264 60.0848 41.3504 60.0116 40.6831 59.886C41.3617 59.8555 42.0417 59.8766 42.7171 59.949C43.2631 59.949 43.8361 60.132 44.0281 59.826C44.0634 59.7749 44.0777 59.7122 44.0683 59.6508C44.0588 59.5895 44.0262 59.5341 43.9771 59.496C43.9021 59.442 43.8421 59.46 43.8391 59.445Z" fill="#884540"/>
<path d="M42.9541 60.054C42.9541 60.054 42.9811 60.015 43.0531 60.024C43.1031 60.0356 43.1476 60.064 43.1792 60.1043C43.2109 60.1447 43.2278 60.1947 43.2271 60.246C43.2222 60.3183 43.1975 60.3879 43.1557 60.4472C43.1139 60.5064 43.0566 60.5531 42.9901 60.582C42.851 60.6465 42.7077 60.7016 42.5611 60.747C42.3047 60.8429 42.0292 60.8768 41.7571 60.846L41.8081 60.759C41.8345 60.8046 41.8483 60.8563 41.8483 60.909C41.8483 60.9617 41.8345 61.0134 41.8081 61.059C41.7691 61.119 41.7301 61.131 41.7241 61.125C41.7181 61.119 41.7241 61.086 41.7511 61.035C41.76 60.9999 41.7614 60.9633 41.7552 60.9277C41.749 60.892 41.7353 60.858 41.7151 60.828L41.6401 60.735H41.7661C42.0211 60.731 42.2736 60.6844 42.5131 60.597C42.6601 60.549 42.8131 60.504 42.9241 60.456C42.9714 60.4393 43.0137 60.4111 43.0472 60.3739C43.0808 60.3367 43.1045 60.2917 43.1161 60.243C43.1197 60.2115 43.1139 60.1796 43.0995 60.1513C43.0851 60.1231 43.0627 60.0997 43.0351 60.084C42.9931 60.06 42.9601 60.066 42.9541 60.054Z" fill="#884540"/>
<path d="M76.908 42.387L76.659 42.573C75.4129 43.4969 74.3881 44.6867 73.659 46.056L73.395 46.557C73.395 46.557 71.73 48.408 71.37 48.813C71.01 49.218 71.469 66.936 71.469 66.936C71.469 66.936 70.08 79.875 70.515 86.634C71.145 96.3 74.7 115.848 74.7 115.848L77.676 115.686H83.511L77.142 44.943L76.908 42.387Z" fill="#37474F"/>
<g opacity="0.3">
<path opacity="0.3" d="M71.628 61.2C71.832 64.3145 71.838 67.4388 71.646 70.554C71.457 73.626 71.076 76.686 71.013 79.764C70.95 82.842 74.496 112.8 75.558 115.677H82.638L76.971 65.1L75.942 60.282L76.452 45.843L76.77 43.392L75.6 45.045L71.958 54.153C71.6869 55.3122 71.5262 56.4945 71.478 57.684C71.481 59.16 71.628 61.2 71.628 61.2Z" fill="black"/>
</g>
<path d="M46.7251 55.911C46.4701 56.049 46.7251 63.843 46.7251 63.843C46.7251 63.843 48.0031 64.401 48.2851 63.843C48.2851 63.843 58.5872 64.533 61.1132 64.092C63.9692 63.591 71.9582 60.582 71.9582 60.582L71.3792 48.813L69.9782 50.82C68.9132 51.885 64.5782 55.344 62.0342 55.77C59.4902 56.196 52.4672 56.478 52.4672 56.478L49.2781 56.265C49.2781 56.265 47.6461 55.416 46.7251 55.911Z" fill="#37474F"/>
<path d="M71.2109 52.065C71.2188 52.1157 71.2188 52.1673 71.2109 52.218V52.65C71.2109 53.025 71.2109 53.571 71.2109 54.243C71.2109 55.587 71.2739 57.444 71.3429 59.496C71.4119 61.548 71.4779 63.396 71.5019 64.755C71.5019 65.427 71.5019 65.973 71.5019 66.351C71.5019 66.522 71.5019 66.666 71.5019 66.783C71.5032 66.8344 71.4981 66.8858 71.4869 66.936C71.4735 66.8862 71.4674 66.8346 71.4689 66.783C71.4689 66.666 71.4689 66.525 71.4509 66.351C71.4509 65.952 71.4179 65.412 71.3939 64.758C71.3399 63.39 71.2679 61.545 71.1899 59.502C71.1119 57.459 71.0789 55.602 71.1029 54.243C71.1029 53.568 71.1359 53.022 71.1599 52.647L71.1959 52.215C71.1946 52.1646 71.1996 52.1142 71.2109 52.065Z" fill="#263238"/>
<path d="M49.2779 56.265C49.2904 56.3646 49.2904 56.4654 49.2779 56.565C49.2779 56.757 49.2479 57.039 49.2149 57.381C49.1489 58.071 49.0169 59.019 48.8549 60.063C48.6929 61.107 48.5549 62.049 48.4499 62.733C48.4136 63.1047 48.3575 63.4743 48.2819 63.84C48.2674 63.7405 48.2674 63.6395 48.2819 63.54C48.2819 63.345 48.3119 63.066 48.3449 62.721C48.4109 62.031 48.5399 61.083 48.7049 60.042C48.8699 59.001 49.0049 58.056 49.1069 57.372C49.143 57.0001 49.2001 56.6305 49.2779 56.265Z" fill="#263238"/>
<path d="M63.2793 55.974C63.0715 56.1484 62.8509 56.3069 62.6193 56.448C62.2083 56.73 61.6383 57.123 61.0233 57.573C60.4083 58.023 59.8653 58.446 59.4723 58.773C59.2698 58.9528 59.052 59.1144 58.8213 59.256C58.9944 59.0458 59.1895 58.8547 59.4033 58.686C59.7783 58.356 60.3033 57.915 60.9333 57.462C61.5633 57.009 62.1333 56.628 62.5593 56.37C62.7838 56.2115 63.0253 56.0787 63.2793 55.974Z" fill="#263238"/>
<path d="M71.565 55.401C71.562 55.2804 71.571 55.1598 71.592 55.041C71.628 54.78 71.673 54.441 71.724 54.069C71.841 53.247 72.024 52.116 72.213 50.868C72.3556 49.7951 72.5853 48.7356 72.9 47.7C73.0011 47.3874 73.1223 47.0818 73.263 46.785C73.3091 46.6732 73.3686 46.5675 73.44 46.47C73.467 46.47 73.239 46.941 73.005 47.733C72.721 48.7715 72.5065 49.8279 72.363 50.895C72.162 52.143 71.973 53.274 71.826 54.09C71.757 54.471 71.694 54.795 71.646 55.056C71.6335 55.1739 71.6063 55.2898 71.565 55.401Z" fill="#263238"/>
<g opacity="0.3">
<path opacity="0.3" d="M71.2112 53.442C70.8481 54.6523 70.6039 55.8952 70.4822 57.153C70.3602 58.4184 70.6115 59.6918 71.2052 60.816C71.2052 58.372 71.2052 55.927 71.2052 53.481" fill="black"/>
</g>
<g opacity="0.3">
<path opacity="0.3" d="M60.6962 57.735C59.5979 58.3771 58.4431 58.9174 57.2462 59.349C56.0441 59.7856 54.7464 59.8892 53.4902 59.649C56.3912 58.836 59.3192 58.011 61.9622 56.571C61.5188 57.3543 60.8054 57.9493 59.9552 58.245" fill="black"/>
</g>
<path d="M117.795 114.804L110.772 110.685L106.089 116.634L114.282 120.672L116.928 119.556L117.795 114.804Z" fill="#B25F57"/>
<path d="M113.481 120.27L113.841 120.531C113.841 120.531 111.927 128.421 113.043 129.318L121.674 117.096L117.489 114.396C117.048 116.802 115.8 118.77 113.481 120.27Z" fill="#37474F"/>
<g opacity="0.6">
<path opacity="0.6" d="M117.915 116.544C118.033 116.449 118.182 116.403 118.332 116.413C118.483 116.424 118.624 116.491 118.728 116.601C118.822 116.717 118.869 116.865 118.86 117.014C118.851 117.163 118.787 117.304 118.68 117.408C118.554 117.506 118.396 117.553 118.237 117.542C118.078 117.53 117.929 117.46 117.819 117.345C117.728 117.215 117.692 117.055 117.719 116.898C117.746 116.742 117.833 116.603 117.963 116.511" fill="white"/>
</g>
<g opacity="0.6">
<path opacity="0.6" d="M121.674 117.096L120.669 116.445L112.764 128.4C112.764 128.4 112.617 129.111 113.043 129.321L121.674 117.096Z" fill="white"/>
</g>
<path d="M113.844 120.6C113.907 120.639 114.144 120.36 114.543 120.204C114.942 120.048 115.305 120.066 115.32 119.994C115.335 119.922 114.927 119.769 114.447 119.967C113.967 120.165 113.781 120.57 113.844 120.6Z" fill="#263238"/>
<path d="M113.469 122.253C113.517 122.307 113.802 122.121 114.198 122.097C114.594 122.073 114.903 122.202 114.942 122.142C114.981 122.082 114.669 121.803 114.177 121.842C113.685 121.881 113.415 122.211 113.469 122.253Z" fill="#263238"/>
<path d="M114.489 124.065C114.54 124.02 114.303 123.726 113.868 123.648C113.433 123.57 113.103 123.759 113.136 123.819C113.169 123.879 113.466 123.819 113.82 123.9C114.174 123.981 114.444 124.119 114.489 124.065Z" fill="#263238"/>
<path d="M91.7458 134.466L90.6388 126.399H83.0698L84.9628 135.333L87.4738 136.722L91.7458 134.466Z" fill="#B25F57"/>
<path d="M84.7833 134.457L84.8043 134.901C84.8043 134.901 77.4183 138.276 77.4062 139.701L92.3463 138.921L91.8843 133.959C89.7183 135.114 87.3993 135.351 84.7833 134.457Z" fill="#37474F"/>
<g opacity="0.6">
<path opacity="0.6" d="M90.4532 135.636C90.6007 135.67 90.73 135.758 90.8151 135.883C90.9003 136.009 90.9349 136.161 90.9122 136.311C90.8823 136.458 90.7966 136.588 90.673 136.674C90.5495 136.759 90.3976 136.794 90.2492 136.77C90.0944 136.732 89.9593 136.638 89.87 136.506C89.7807 136.374 89.7437 136.214 89.7662 136.056C89.812 135.904 89.9159 135.777 90.0553 135.702C90.1947 135.626 90.3582 135.609 90.5102 135.654" fill="white"/>
</g>
<g opacity="0.6">
<path opacity="0.6" d="M92.3459 138.93L92.2349 137.73L77.9549 138.915C77.9549 138.915 77.3039 139.239 77.4059 139.704L92.3459 138.93Z" fill="white"/>
</g>
<path d="M84.7532 134.946C84.7532 135.018 85.1252 135.033 85.4972 135.246C85.8692 135.459 86.0762 135.756 86.1422 135.726C86.2082 135.696 86.0762 135.276 85.6232 135.024C85.1702 134.772 84.7322 134.88 84.7532 134.946Z" fill="#263238"/>
<path d="M83.2202 135.675C83.2202 135.747 83.5202 135.855 83.7932 136.149C84.0662 136.443 84.1442 136.767 84.2162 136.749C84.2882 136.731 84.3152 136.326 83.9792 135.966C83.6432 135.606 83.2172 135.6 83.2202 135.675Z" fill="#263238"/>
<path d="M82.428 137.598C82.494 137.598 82.575 137.238 82.368 136.848C82.161 136.458 81.81 136.317 81.783 136.38C81.756 136.443 81.978 136.644 82.143 136.98C82.308 137.316 82.353 137.592 82.428 137.598Z" fill="#263238"/>
<path d="M75.0569 66.636C75.0569 66.636 72.3149 71.922 71.4779 77.106C69.9779 86.46 81.5549 128.577 81.5549 128.577L92.6099 127.176L86.2289 83.652L82.0439 65.835L75.0569 66.636Z" fill="#263238"/>
<path d="M77.3999 68.1C77.3999 68.589 86.5259 98.265 88.9799 102.357C91.4339 106.449 107.331 119.718 107.331 119.718L113.889 111.846C113.889 111.846 100.962 97.878 99.3269 94.605C97.6919 91.332 94.7999 69.927 88.4069 62.727L77.3999 68.1Z" fill="#263238"/>
<path d="M91.746 105.66C91.746 105.66 91.725 105.645 91.692 105.609L91.545 105.444L90.984 104.802L88.932 102.402C87.93 99.747 86.595 95.904 85.332 91.575C84.132 87.405 83.181 83.589 82.536 80.817C82.215 79.434 81.966 78.309 81.798 77.532C81.717 77.154 81.654 76.854 81.609 76.632L81.564 76.398C81.5601 76.3712 81.5601 76.3439 81.564 76.317C81.564 76.317 81.564 76.341 81.588 76.392L81.648 76.623C81.702 76.839 81.774 77.136 81.867 77.523C82.056 78.306 82.323 79.422 82.653 80.796C83.325 83.559 84.279 87.369 85.491 91.533C86.745 95.859 88.062 99.705 89.034 102.369V102.351L91.047 104.784L91.587 105.447L91.722 105.618C91.731 105.631 91.739 105.645 91.746 105.66Z" fill="#455A64"/>
<path d="M83.6792 71.811C83.561 72.0599 83.4277 72.3013 83.2802 72.534C82.9533 73.1103 82.6627 73.7064 82.4102 74.319C82.1607 74.9324 81.9493 75.5606 81.7772 76.2C81.7207 76.4706 81.6465 76.7371 81.5552 76.998C81.5597 76.7202 81.599 76.444 81.6722 76.176C81.952 74.8648 82.4597 73.6128 83.1722 72.477C83.3132 72.235 83.4835 72.0113 83.6792 71.811Z" fill="#455A64"/>
<path d="M75.1291 69.501C75.1096 69.7608 75.0562 70.017 74.9701 70.263C74.8011 70.8678 74.5855 71.4586 74.3251 72.03C74.0668 72.6008 73.7659 73.1513 73.4251 73.677C73.2937 73.9022 73.1356 74.1107 72.9541 74.298C73.0601 74.062 73.1855 73.8352 73.3291 73.62C73.5691 73.206 73.8871 72.627 74.1871 71.964C74.4443 71.3979 74.6726 70.8192 74.8711 70.23C74.9402 69.9813 75.0264 69.7377 75.1291 69.501Z" fill="#455A64"/>
<path d="M80.7271 75.186C80.6713 75.0924 80.6289 74.9914 80.6011 74.886C80.5291 74.697 80.4391 74.418 80.3431 74.067C79.8422 72.2399 79.7218 70.3295 79.9891 68.454C80.0431 68.094 80.0971 67.806 80.1451 67.611C80.1594 67.5073 80.1887 67.4062 80.2321 67.311C80.2561 67.311 80.1751 67.755 80.1001 68.469C80.001 69.3996 79.9789 70.3368 80.0341 71.271C80.0967 72.2047 80.2352 73.1317 80.4481 74.043C80.6161 74.751 80.7511 75.177 80.7271 75.186Z" fill="#455A64"/>
<path d="M74.9404 63.6C74.9404 63.6 71.0134 62.286 71.5654 57.375C72.0334 53.223 74.1454 49.476 74.1454 49.476L75.6634 45.489L76.7704 43.389C76.7524 43.389 76.8994 49.002 76.8994 49.002L79.5994 53.817L81.8344 48.237L83.8354 43.248V41.088L84.8824 42.924V49.572C84.8824 49.572 87.8254 56.22 88.1104 58.593C88.3954 60.966 74.9404 63.6 74.9404 63.6Z" fill="white"/>
<path d="M84.3 44.883C84.2937 44.9768 84.2807 45.0701 84.261 45.162L84.117 45.954C83.982 46.659 83.79 47.637 83.559 48.825V48.855L83.532 48.87L82.005 49.59L82.047 49.527C82.047 50.163 82.047 50.85 82.047 51.57V51.6L82.02 51.624L80.256 53.145C80.085 53.292 79.914 53.445 79.758 53.574L79.782 53.529C79.506 54.822 79.182 56.019 78.942 57.129C78.8231 57.6451 78.7449 58.1697 78.708 58.698C78.6928 59.1561 78.7547 59.6134 78.891 60.051C79.0943 60.6826 79.4172 61.2693 79.842 61.779C79.989 61.962 80.112 62.094 80.196 62.184C80.2419 62.2284 80.284 62.2766 80.322 62.328C80.2686 62.2925 80.2193 62.2513 80.175 62.205C80.0417 62.0779 79.9165 61.9426 79.8 61.8C79.3499 61.2963 79.007 60.7064 78.792 60.066C78.6423 59.6197 78.5722 59.1506 78.585 58.68C78.6148 58.1438 78.6891 57.611 78.807 57.087C79.026 55.977 79.359 54.771 79.632 53.487V53.46L79.653 53.442L80.151 53.013L81.918 51.513L81.891 51.57C81.891 50.85 81.891 50.163 81.891 49.527V49.482L81.93 49.461L83.463 48.756L83.43 48.801C83.682 47.616 83.889 46.641 84.03 45.942C84.105 45.615 84.162 45.342 84.207 45.156C84.229 45.0622 84.2601 44.9707 84.3 44.883Z" fill="#455A64"/>
<path d="M79.2418 53.871C79.1329 53.7857 79.0325 53.6903 78.9418 53.586L78.1228 52.761L76.9078 51.513C76.6798 51.273 76.4398 51.024 76.1878 50.766C76.0398 50.635 75.9256 50.4704 75.8548 50.286C75.8249 50.1765 75.8334 50.06 75.8788 49.956C75.902 49.899 75.9391 49.8488 75.9869 49.81C76.0346 49.7712 76.0913 49.7451 76.1518 49.734V49.89L75.5008 49.923H75.4048V49.827V49.764C75.6898 48.075 75.9538 46.545 76.1548 45.441C76.2538 44.91 76.3378 44.469 76.3978 44.133C76.4234 43.9725 76.4605 43.8141 76.5088 43.659C76.5075 43.8222 76.4904 43.985 76.4578 44.145C76.4098 44.481 76.3438 44.925 76.2628 45.459C76.0918 46.569 75.8428 48.099 75.5608 49.791V49.851L75.4798 49.761L76.1308 49.728L76.1458 49.884C76.0138 49.884 75.9298 50.097 75.9748 50.238C76.0407 50.3986 76.1435 50.5414 76.2748 50.655L76.9888 51.411L78.1888 52.683L78.9748 53.541C79.0719 53.6441 79.1612 53.7544 79.2418 53.871Z" fill="#455A64"/>
<path d="M78.4352 59.637C78.0921 59.8013 77.709 59.8637 77.3315 59.8169C76.954 59.7701 76.5978 59.6161 76.3052 59.373C76.6464 59.4982 76.9964 59.5985 77.3522 59.673C77.7136 59.6883 78.0756 59.6762 78.4352 59.637Z" fill="#263238"/>
<path d="M78.426 59.331C78.426 59.37 78.156 59.445 77.826 59.331C77.496 59.217 77.343 58.983 77.376 58.959C77.409 58.935 77.601 59.085 77.88 59.184C78.159 59.283 78.42 59.286 78.426 59.331Z" fill="#263238"/>
<path d="M85.5842 28.074C84.0362 26.184 81.6002 25.173 79.1822 24.9C78.1622 24.78 77.5082 24.954 76.5152 25.224C75.5207 25.4617 74.6421 26.0429 74.0342 26.865C73.3322 27.861 72.7412 28.965 72.6092 30.195C72.4339 31.4378 72.3736 32.6941 72.4292 33.948C72.4882 35.2081 72.8929 36.4277 73.5992 37.473L76.7822 38.025C78.5402 38.085 80.3222 38.142 82.0352 37.743C83.7482 37.344 85.4102 36.42 86.3282 34.92C87.6002 32.823 87.1292 29.967 85.5842 28.074Z" fill="#263238"/>
<path d="M74.562 39.252C74.562 39.252 74.511 39.33 74.373 39.42C74.1728 39.5411 73.9486 39.6169 73.716 39.642C73.3657 39.679 73.0126 39.6067 72.705 39.435C72.332 39.2079 72.0613 38.8453 71.9495 38.4232C71.8377 38.001 71.8934 37.552 72.105 37.17C72.2843 36.8664 72.5538 36.6262 72.876 36.483C73.0887 36.3863 73.3205 36.3392 73.554 36.345C73.6388 36.3386 73.7238 36.3552 73.8 36.393C73.5001 36.4084 73.2059 36.4806 72.933 36.606C72.6488 36.7519 72.414 36.9783 72.258 37.257C72.0753 37.6007 72.0333 38.002 72.141 38.376C72.2397 38.7493 72.4768 39.071 72.804 39.276C73.081 39.4371 73.3989 39.5143 73.719 39.498C74.0128 39.4691 74.2987 39.3857 74.562 39.252Z" fill="#E0E0E0"/>
<path d="M88.6113 36.939C88.5812 36.5763 88.4681 36.2254 88.2809 35.9133C88.0936 35.6012 87.8371 35.3363 87.5313 35.139C87.2217 34.9509 86.8602 34.8664 86.4993 34.8977C86.1384 34.9289 85.7969 35.0744 85.5243 35.313L85.0233 35.913C84.6356 36.0924 84.3133 36.3881 84.1015 36.7591C83.8897 37.1301 83.7987 37.5579 83.8413 37.983C83.9002 38.4063 84.078 38.8041 84.3542 39.1302C84.6304 39.4563 84.9935 39.6972 85.4013 39.825C85.8127 39.9416 86.2473 39.9501 86.6629 39.8497C87.0786 39.7493 87.4614 39.5435 87.7743 39.252C88.0809 38.9558 88.3157 38.5934 88.4608 38.1925C88.6059 37.7916 88.6574 37.3628 88.6113 36.939Z" fill="#263238"/>
<path d="M87.978 39.084C88.1017 38.8969 88.1617 38.6749 88.149 38.451C88.0464 37.9152 87.7948 37.4193 87.423 37.02C87.0673 36.6003 86.6332 36.2538 86.145 36C85.773 35.799 85.518 35.724 85.524 35.7C85.7595 35.7198 85.9884 35.7882 86.196 35.901C86.7154 36.135 87.175 36.4837 87.54 36.921C87.7448 37.1589 87.9182 37.422 88.056 37.704C88.1791 37.9335 88.2489 38.1878 88.26 38.448C88.264 38.6263 88.2149 38.8017 88.119 38.952C88.047 39.057 87.984 39.093 87.978 39.084Z" fill="#455A64"/>
<path d="M86.4389 40.026C86.4988 39.3229 86.4512 38.6148 86.2979 37.926C86.0944 37.2507 85.7911 36.6096 85.3979 36.024C85.566 36.1547 85.7084 36.3154 85.8179 36.498C86.4044 37.3502 86.674 38.3808 86.5799 39.411C86.5723 39.6231 86.5244 39.8318 86.4389 40.026Z" fill="#455A64"/>
<path d="M76.7822 43.176C76.8032 42.06 76.8272 41.145 76.8272 41.151C76.8272 41.157 74.2322 40.866 73.5272 37.551C73.1732 35.898 73.1042 33.156 73.1222 30.912C73.1402 28.893 74.8592 26.142 77.3552 26.133L78.4622 26.004L82.7042 27.69C82.9987 27.7088 83.2759 27.8355 83.4829 28.0458C83.6898 28.2561 83.8121 28.5353 83.8262 28.83L83.8412 43.251L79.6052 53.82L76.9052 49.005L76.7822 43.176Z" fill="#B25F57"/>
<path d="M78.5041 36.762C78.4803 36.5909 78.3937 36.4348 78.2611 36.324C78.1404 36.2204 77.989 36.1592 77.8302 36.15C77.6714 36.1408 77.514 36.184 77.3821 36.273C77.2477 36.378 77.1429 36.5162 77.0782 36.674C77.0135 36.8319 76.9911 37.0038 77.0131 37.173C77.0866 37.2751 77.1811 37.3604 77.2903 37.423C77.3995 37.4856 77.5208 37.5241 77.6461 37.536C77.6851 37.539 77.7242 37.539 77.7631 37.536C77.9613 37.5335 78.1516 37.4576 78.2971 37.323C78.3713 37.2509 78.4284 37.163 78.4642 37.066C78.5001 36.9689 78.5137 36.865 78.5041 36.762Z" fill="#884540"/>
<path d="M74.3999 33.108C74.4053 33.2199 74.4541 33.3254 74.5358 33.4021C74.6175 33.4788 74.7258 33.5207 74.8379 33.519C74.8931 33.5206 74.9481 33.5111 74.9996 33.4909C75.051 33.4708 75.0979 33.4405 75.1374 33.4019C75.1769 33.3632 75.2082 33.317 75.2294 33.266C75.2506 33.215 75.2613 33.1602 75.2609 33.105C75.2562 32.9928 75.2077 32.8869 75.1258 32.81C75.0439 32.7332 74.9352 32.6915 74.8229 32.694C74.7678 32.6928 74.713 32.7026 74.6617 32.7229C74.6104 32.7431 74.5637 32.7735 74.5243 32.812C74.4849 32.8506 74.4536 32.8966 74.4323 32.9475C74.4109 32.9983 74.3999 33.0529 74.3999 33.108Z" fill="#263238"/>
<path d="M73.9379 32.145C73.9949 32.199 74.3069 31.941 74.7689 31.917C75.2309 31.893 75.5849 32.103 75.6329 32.046C75.6809 31.989 75.5939 31.92 75.4409 31.821C75.233 31.694 74.9912 31.6333 74.7479 31.647C74.5065 31.6603 74.2755 31.7495 74.0879 31.902C73.9529 32.019 73.9109 32.121 73.9379 32.145Z" fill="#263238"/>
<path d="M76.8483 35.655C76.6002 35.5919 76.3453 35.5597 76.0893 35.559C75.9693 35.559 75.8553 35.535 75.8313 35.457C75.8168 35.3337 75.8409 35.209 75.9003 35.1L76.2003 34.179C76.6173 32.871 76.9083 31.797 76.8573 31.779C76.8063 31.761 76.4253 32.808 76.0083 34.119L75.7083 35.043C75.6429 35.1902 75.6302 35.3555 75.6723 35.511C75.6929 35.5508 75.7218 35.5859 75.7569 35.6138C75.7921 35.6417 75.8328 35.6619 75.8763 35.673C75.944 35.6813 76.0125 35.6813 76.0803 35.673C76.3361 35.6979 76.5939 35.6918 76.8483 35.655Z" fill="#263238"/>
<path d="M76.827 41.151C78.4084 41.0882 79.9414 40.5877 81.255 39.705C81.255 39.705 80.187 42.105 76.812 41.967L76.827 41.151Z" fill="#884540"/>
<path d="M78.2279 35.898C78.1529 35.898 78.1799 36.402 77.7689 36.798C77.3579 37.194 76.8209 37.152 76.8179 37.221C76.8149 37.29 76.9439 37.314 77.1719 37.308C77.4658 37.2939 77.7457 37.1783 77.9639 36.981C78.1734 36.7904 78.3004 36.5257 78.3179 36.243C78.3239 36.015 78.2609 35.895 78.2279 35.898Z" fill="#263238"/>
<path d="M74.0491 30.48C74.1361 30.582 74.4511 30.456 74.8321 30.429C75.2131 30.402 75.5461 30.462 75.6151 30.348C75.6451 30.291 75.5881 30.189 75.4411 30.096C75.2443 29.985 75.0179 29.9379 74.7931 29.961C74.5672 29.9755 74.3517 30.0617 74.1781 30.207C74.0491 30.321 74.0101 30.432 74.0491 30.48Z" fill="#263238"/>
<path d="M79.8001 32.865C79.8026 32.9771 79.7614 33.0857 79.6853 33.168C79.6091 33.2503 79.504 33.2998 79.3921 33.306C79.3374 33.3113 79.2821 33.3057 79.2296 33.2893C79.1772 33.2729 79.1285 33.2461 79.0865 33.2106C79.0446 33.1751 79.0102 33.1315 78.9854 33.0825C78.9605 33.0334 78.9458 32.9799 78.9421 32.925C78.9388 32.8127 78.9797 32.7036 79.056 32.6212C79.1323 32.5387 79.2379 32.4895 79.3501 32.484C79.4048 32.4787 79.46 32.4843 79.5125 32.5007C79.565 32.5171 79.6137 32.5439 79.6556 32.5794C79.6976 32.6149 79.732 32.6585 79.7568 32.7076C79.7816 32.7566 79.7963 32.8102 79.8001 32.865Z" fill="#263238"/>
<path d="M80.2829 31.98C80.2319 32.037 79.8989 31.8 79.437 31.809C78.975 31.818 78.636 32.058 78.585 32.001C78.534 31.944 78.612 31.875 78.759 31.764C78.9571 31.6204 79.1953 31.5428 79.4399 31.542C79.6808 31.5376 79.9169 31.6089 80.1149 31.746C80.2589 31.854 80.3099 31.953 80.2829 31.98Z" fill="#263238"/>
<path d="M79.9501 31.059C79.8721 31.167 79.5511 31.059 79.1641 31.059C78.7771 31.059 78.4561 31.14 78.3811 31.032C78.3481 30.978 78.3961 30.873 78.5371 30.771C78.7263 30.6485 78.9475 30.5849 79.1728 30.5881C79.3981 30.5913 79.6175 30.6612 79.8031 30.789C79.9381 30.9 79.9861 31.008 79.9501 31.059Z" fill="#263238"/>
<path d="M82.9771 34.524C82.9771 34.275 83.2201 33.669 83.4661 33.624C84.1171 33.483 85.3081 33.471 85.4131 35.145C85.5541 37.431 83.2291 37.101 83.2201 37.035C83.2111 36.969 83.0221 35.4 82.9771 34.524Z" fill="#B25F57"/>
<path d="M84.0603 36.087C84.0603 36.087 84.1023 36.114 84.1713 36.141C84.2677 36.1788 84.3748 36.1788 84.4713 36.141C84.6134 36.0379 84.7256 35.8987 84.7962 35.738C84.8668 35.5772 84.8934 35.4005 84.8733 35.226C84.8669 35.0307 84.8177 34.8392 84.7293 34.665C84.7046 34.5924 84.6624 34.527 84.6064 34.4747C84.5504 34.4224 84.4824 34.3847 84.4083 34.365C84.3619 34.3553 84.3135 34.3624 84.2718 34.3849C84.2301 34.4074 84.1977 34.4439 84.1803 34.488C84.1533 34.554 84.1803 34.599 84.1593 34.602C84.1383 34.605 84.1083 34.569 84.1203 34.473C84.1295 34.4153 84.1581 34.3624 84.2013 34.323C84.261 34.2716 84.3386 34.2457 84.4173 34.251C84.5124 34.2639 84.6027 34.3011 84.6793 34.3588C84.756 34.4166 84.8166 34.4931 84.8553 34.581C84.9654 34.7733 85.0272 34.9895 85.0353 35.211C85.0353 35.673 84.8373 36.111 84.5133 36.234C84.4528 36.2555 84.3882 36.2632 84.3243 36.2565C84.2605 36.2497 84.1989 36.2287 84.1443 36.195C84.0693 36.144 84.0543 36.093 84.0603 36.087Z" fill="#884540"/>
<path d="M83.82 33.555L83.238 34.155C80.73 31.755 75.825 25.755 76.101 26.1C77.2436 25.6723 78.4752 25.5382 79.683 25.71C81.549 26.028 85.083 26.961 85.035 29.163C84.987 31.365 83.82 33.555 83.82 33.555Z" fill="#263238"/>
<path d="M83.7661 39.252C83.7661 39.252 83.8171 39.33 83.9551 39.42C84.1555 39.5406 84.3796 39.6164 84.6121 39.642C84.9624 39.679 85.3156 39.6067 85.6231 39.435C85.9961 39.2079 86.2668 38.8453 86.3786 38.4232C86.4905 38.001 86.4347 37.552 86.2231 37.17C86.0438 36.8664 85.7743 36.6262 85.4521 36.483C85.2404 36.3867 85.0096 36.3395 84.7771 36.345C84.6913 36.3385 84.6054 36.3551 84.5281 36.393C84.828 36.4084 85.1222 36.4806 85.3951 36.606C85.6793 36.7519 85.9141 36.9783 86.0701 37.257C86.2538 37.6003 86.2969 38.0016 86.1901 38.376C86.0893 38.7491 85.8514 39.0705 85.5241 39.276C85.2471 39.4371 84.9292 39.5143 84.6091 39.498C84.3153 39.4691 84.0294 39.3857 83.7661 39.252Z" fill="#E0E0E0"/>
<path d="M85.5002 35.457C85.5002 35.457 85.5002 35.268 85.4792 34.926C85.4582 34.4462 85.3939 33.9693 85.2872 33.501C84.9179 31.9524 84.1753 30.5177 83.1242 29.322C82.0624 28.1408 80.8261 27.1291 79.4582 26.322C78.9362 26.001 78.5042 25.761 78.2042 25.596C78.045 25.5164 77.8907 25.4272 77.7422 25.329C77.7422 25.329 77.7902 25.329 77.8742 25.377C77.9582 25.425 78.0782 25.467 78.2312 25.542C78.5312 25.692 78.9842 25.917 79.5152 26.226C80.9137 27.0156 82.1734 28.029 83.2442 29.226C84.3107 30.4395 85.0509 31.9045 85.3952 33.483C85.4936 33.9597 85.5418 34.4453 85.5392 34.932C85.5392 35.103 85.5242 35.232 85.5212 35.328C85.5182 35.424 85.5002 35.46 85.5002 35.457Z" fill="#455A64"/>
<path d="M79.1792 25.2C79.2267 25.2062 79.2725 25.2214 79.3142 25.245C79.4012 25.278 79.5242 25.329 79.6832 25.401C80.0012 25.542 80.4572 25.761 81.0032 26.067C81.6414 26.4218 82.2585 26.8135 82.8512 27.24C83.5937 27.7469 84.2726 28.3411 84.8732 29.01C85.1795 29.3661 85.4368 29.7616 85.6382 30.186C85.8199 30.5849 85.946 31.0068 86.0132 31.44C86.1205 32.1681 86.1205 32.9079 86.0132 33.636C85.9459 34.1234 85.8538 34.607 85.7372 35.085C85.6982 35.256 85.6622 35.385 85.6382 35.475C85.6142 35.565 85.5962 35.61 85.5902 35.607C85.6086 35.4274 85.6376 35.2491 85.6772 35.073C85.7402 34.731 85.8332 34.236 85.9052 33.621C85.9962 32.9042 85.9871 32.1783 85.8782 31.464C85.8076 31.0494 85.6825 30.6459 85.5062 30.264C85.3088 29.8533 85.0587 29.47 84.7622 29.124C84.17 28.4633 83.5025 27.8743 82.7732 27.369C82.1883 26.9364 81.5804 26.5359 80.9522 26.169C80.4182 25.869 79.9712 25.62 79.6622 25.461C79.4958 25.3843 79.3345 25.2972 79.1792 25.2Z" fill="#455A64"/>
<path d="M83.8651 33.6C83.7547 33.511 83.6541 33.4104 83.5651 33.3C83.3641 33.081 83.1031 32.805 82.7941 32.472C82.1491 31.77 81.2641 30.792 80.2921 29.706C79.3201 28.62 78.4501 27.63 77.8261 26.91L77.1001 26.073C77.0051 25.9729 76.9207 25.8633 76.8481 25.746C76.9592 25.8343 77.0598 25.935 77.1481 26.046L77.9191 26.871C78.5671 27.573 79.4521 28.551 80.4211 29.64C81.3901 30.729 82.2631 31.716 82.8901 32.436L83.6251 33.297C83.7136 33.391 83.7939 33.4923 83.8651 33.6Z" fill="#455A64"/>
<path d="M75.0569 66.636L74.9399 63.6C80.2199 62.445 84.9689 61.365 88.0019 59.034L89.4329 63.264C89.4329 63.264 79.0859 68.175 75.0569 66.636Z" fill="#455A64"/>
<path d="M83.0614 66.393L83.0434 66.285C82.7134 64.485 82.3954 62.814 82.1224 61.422L82.0984 61.29H81.9664C80.9592 61.4195 79.9654 61.6374 78.9964 61.941C78.6241 62.0353 78.2652 62.1765 77.9284 62.361C78.3041 62.2989 78.675 62.2106 79.0384 62.097C79.9695 61.8668 80.9145 61.6964 81.8674 61.587C82.1014 62.943 82.3864 64.548 82.7014 66.267C81.5284 66.441 80.4154 66.612 79.4014 66.771L79.0054 66.834C78.8932 66.8587 78.7782 66.8688 78.6634 66.864C78.6229 66.8596 78.5843 66.8449 78.5512 66.8212C78.5181 66.7976 78.4917 66.7658 78.4744 66.729C78.4267 66.6322 78.3866 66.5319 78.3544 66.429C78.2153 66.0128 78.1041 65.5879 78.0214 65.157C77.9023 64.5308 77.838 63.8954 77.8294 63.258C77.8426 63.0218 77.8356 62.785 77.8084 62.55C77.7354 62.7768 77.6989 63.0137 77.7004 63.252C77.6566 63.9012 77.6858 64.5533 77.7874 65.196C77.8564 65.6415 77.9567 66.0816 78.0874 66.513C78.1204 66.6396 78.1646 66.7631 78.2194 66.882C78.2583 66.9556 78.3125 67.0201 78.3784 67.071C78.4491 67.123 78.5315 67.157 78.6184 67.17C78.7617 67.1836 78.9061 67.1765 79.0474 67.149L79.4434 67.092C80.5114 66.942 81.6874 66.774 82.9204 66.588L83.0944 66.564L83.0614 66.393Z" fill="#455A64"/>
<path d="M83.0612 66.393C83.0787 66.4479 83.0917 66.504 83.1002 66.561C82.9052 66.6 82.2782 66.702 81.3002 66.861L79.5812 67.122L79.0742 67.197C78.8915 67.2376 78.702 67.2376 78.5192 67.197C78.4223 67.1631 78.335 67.1064 78.2645 67.0318C78.1941 66.9571 78.1425 66.8667 78.1142 66.768C78.0482 66.579 77.9942 66.393 77.9372 66.195C77.7087 65.3463 77.6006 64.4697 77.6162 63.591C77.6162 63.357 77.6372 63.12 77.6672 62.877L77.6942 62.697L77.7122 62.604L77.7272 62.553C77.7298 62.5401 77.7349 62.5279 77.7422 62.517V62.502C77.7511 62.4922 77.7626 62.4851 77.7753 62.4814C77.788 62.4777 77.8015 62.4775 77.8142 62.481C77.8742 62.511 77.8592 62.526 77.8682 62.532C77.8798 62.6003 77.8848 62.6697 77.8832 62.739V62.925C77.8806 63.4262 77.9087 63.9272 77.9672 64.425C78.0323 64.9473 78.1376 65.4638 78.2822 65.97C78.3182 66.1 78.3572 66.229 78.3992 66.357C78.4341 66.4828 78.4824 66.6045 78.5432 66.72C78.5912 66.813 78.7082 66.804 78.8432 66.786L79.2572 66.723L82.6802 66.195L82.6142 66.288V66.249C82.3292 64.641 82.0502 63.081 81.7892 61.605L81.8732 61.668C81.0968 61.7553 80.3257 61.8845 79.5632 62.055C79.1912 62.136 78.8312 62.226 78.4772 62.319L78.2132 62.385L78.0812 62.418C78.0296 62.4331 77.976 62.4402 77.9222 62.439C77.9222 62.439 77.8712 62.439 77.8652 62.4C77.8572 62.3874 77.853 62.3729 77.853 62.358C77.853 62.3431 77.8572 62.3285 77.8652 62.316C77.8716 62.3073 77.8798 62.3002 77.8892 62.295L77.9252 62.274L77.9882 62.241L78.1112 62.187L78.3602 62.088C79.5611 61.6595 80.8073 61.3706 82.0742 61.227H82.1252V61.275C82.4252 62.853 82.6472 64.125 82.8092 65.019C82.8872 65.451 82.9442 65.793 82.9862 66.033C83.0042 66.144 83.0192 66.231 83.0282 66.297C83.0322 66.3279 83.0322 66.3591 83.0282 66.39C83.0282 66.39 83.0282 66.36 83.0042 66.3L82.9472 66.039L82.7432 65.028C82.5692 64.128 82.3202 62.868 82.0112 61.296L82.0712 61.341C80.8151 61.495 79.5804 61.7899 78.3902 62.22L78.1472 62.319L78.0272 62.37L77.9732 62.4H77.9492L77.9222 62.376C77.9222 62.361 77.8982 62.358 77.9042 62.358C77.9102 62.358 77.9042 62.358 77.9042 62.328C77.9042 62.298 77.9042 62.304 77.9042 62.298H78.0002L78.0632 62.283L78.1922 62.253L78.4562 62.184C78.8102 62.091 79.1702 61.998 79.5422 61.914C80.3096 61.7407 81.0857 61.6085 81.8672 61.518H81.9392V61.59C82.2032 63.063 82.4792 64.623 82.7672 66.228V66.267L82.7822 66.348H82.7012L79.2812 66.87L78.8642 66.936C78.7886 66.9467 78.7118 66.9467 78.6362 66.936C78.5915 66.9304 78.5485 66.9149 78.5106 66.8905C78.4727 66.8661 78.4408 66.8334 78.4172 66.795C78.3488 66.6686 78.2955 66.5347 78.2582 66.396C78.2132 66.264 78.1742 66.132 78.1352 66.003C77.997 65.488 77.8968 64.9636 77.8352 64.434C77.7769 63.9281 77.7509 63.4191 77.7572 62.91C77.7494 62.7941 77.7494 62.6778 77.7572 62.562C77.7739 62.5576 77.7893 62.5494 77.8022 62.538C77.8022 62.538 77.8022 62.538 77.8382 62.568C77.8742 62.598 77.8382 62.568 77.8382 62.568V62.604L77.8202 62.691L77.7932 62.865C77.7632 63.101 77.7452 63.335 77.7392 63.567C77.7174 64.4329 77.8184 65.2974 78.0392 66.135C78.0872 66.327 78.1472 66.522 78.2042 66.699C78.2259 66.7832 78.2679 66.8608 78.3265 66.9251C78.385 66.9895 78.4584 67.0385 78.5402 67.068C78.7083 67.104 78.8821 67.104 79.0502 67.068L79.5542 66.999L81.2762 66.759C82.2572 66.627 82.8872 66.546 83.0762 66.525C83.0694 66.4812 83.0644 66.4372 83.0612 66.393Z" fill="#263238"/>
<path d="M84.15 63.756C83.4359 63.7945 82.7259 63.8878 82.026 64.035C81.3384 64.2345 80.6674 64.4872 80.019 64.791C80.1743 64.6432 80.3539 64.5235 80.55 64.437C81.0043 64.1935 81.487 64.0071 81.987 63.882C82.4866 63.7579 82.9993 63.6944 83.514 63.693C83.728 63.6798 83.9428 63.7011 84.15 63.756Z" fill="#263238"/>
<path d="M84.0303 63C83.3162 63.0365 82.6061 63.1288 81.9063 63.276C81.2198 63.4758 80.5498 63.7285 79.9023 64.032C80.0587 63.8857 80.2381 63.7661 80.4333 63.678C81.3461 63.1928 82.3637 62.9384 83.3973 62.937C83.6104 62.9233 83.8242 62.9446 84.0303 63Z" fill="#263238"/>
<path d="M83.8291 41.079C83.8291 41.079 84.7651 44.058 84.1051 45.705C83.4451 47.352 87.4051 82.548 88.7431 89.469C90.0811 96.39 92.6101 113.193 92.6101 113.193C92.6101 113.193 106.41 111.36 108.858 109.074C111.306 106.788 111.33 106.11 111.33 106.11L101.115 82.053C101.115 82.053 96.2581 70.353 95.6371 64.92C95.0161 59.487 92.6101 44.655 92.6101 44.655L86.2201 42.942L85.6651 42.246C85.3473 41.8497 84.9345 41.5401 84.4651 41.346L83.8291 41.079Z" fill="#37474F"/>
<path d="M89.9131 85.134C89.9004 85.099 89.8913 85.0628 89.8861 85.026C89.8711 84.945 89.8501 84.84 89.8231 84.705C89.7691 84.405 89.6911 84.003 89.5951 83.475C89.4181 82.404 89.1571 80.853 88.9321 78.921C88.7071 76.989 88.5001 74.7 88.3621 72.12C88.2241 69.54 88.2151 66.72 88.3261 63.762C88.3891 62.28 88.4701 60.834 88.5931 59.442C88.7161 58.05 88.8931 56.709 88.8541 55.431C88.8486 54.8102 88.7772 54.1917 88.6411 53.586C88.4923 53.0176 88.3069 52.4595 88.0861 51.915C87.878 51.396 87.7613 50.8448 87.7411 50.286C87.7411 49.746 87.8551 49.245 87.8791 48.765C87.9197 47.8955 87.8091 47.0256 87.5521 46.194C87.3577 45.5652 87.1222 44.9499 86.8471 44.352C86.6221 43.86 86.4331 43.482 86.3071 43.227L86.1661 42.927C86.1467 42.8951 86.1315 42.8608 86.1211 42.825C86.1422 42.8557 86.1612 42.8878 86.1781 42.921L86.3371 43.206C86.4721 43.458 86.6701 43.83 86.9041 44.322C87.191 44.9177 87.4346 45.5333 87.6331 46.164C87.9053 47.0029 88.0252 47.8838 87.9871 48.765C87.9691 49.254 87.8581 49.758 87.8611 50.28C87.8805 50.8257 87.9953 51.3638 88.2001 51.87C88.4248 52.418 88.6132 52.9802 88.7641 53.553C88.9053 54.1683 88.9807 54.7968 88.9891 55.428C89.0221 56.721 88.8421 58.065 88.7371 59.454C88.6321 60.843 88.5361 62.289 88.4731 63.768C88.3621 66.729 88.3771 69.552 88.4971 72.114C88.6171 74.676 88.8151 76.98 89.0341 78.909C89.2531 80.838 89.4871 82.392 89.6341 83.466C89.7181 83.994 89.7871 84.408 89.8321 84.699C89.8531 84.837 89.8681 84.942 89.8801 85.023C89.896 85.0584 89.9071 85.0957 89.9131 85.134Z" fill="#263238"/>
<g opacity="0.3">
<path opacity="0.3" d="M89.907 85.134C88.3127 76.3853 87.9191 67.4601 88.737 58.605C88.905 56.772 89.121 54.888 88.587 53.127C88.311 52.227 87.843 51.363 87.801 50.427C87.8107 49.911 87.8518 49.396 87.924 48.885C88.089 46.761 87.108 44.73 86.124 42.84C86.124 42.84 88.422 45.093 88.887 46.608C89.352 48.123 88.287 49.515 88.587 50.592C88.887 51.669 90.033 53.19 89.91 54.582C89.787 55.974 88.785 66.912 88.881 72.822C88.9791 76.9427 89.3217 81.0539 89.907 85.134Z" fill="black"/>
</g>
<path d="M92.667 45.567C92.715 45.567 92.475 46.539 92.427 47.748C92.379 48.957 92.529 49.935 92.481 49.941C92.4024 49.7383 92.3548 49.5249 92.34 49.308C92.2699 48.7891 92.2468 48.265 92.271 47.742C92.2929 47.219 92.3612 46.6989 92.475 46.188C92.5088 45.9728 92.5735 45.7637 92.667 45.567Z" fill="#263238"/>
<g opacity="0.3">
<path opacity="0.3" d="M93.0002 58.2C92.4393 63.2353 93.1468 68.3309 95.0582 73.023L93.0002 58.2Z" fill="black"/>
</g>
<path d="M101.886 80.187L102.099 82.635C102.103 82.6914 102.098 82.7482 102.084 82.803L101.451 85.386C101.429 85.4756 101.383 85.5578 101.319 85.6241C101.255 85.6905 101.174 85.7387 101.085 85.764L99.4442 86.22C99.329 86.2529 99.2059 86.2444 99.0962 86.196C98.5922 85.974 97.1702 85.296 97.2392 84.756C97.3202 84.099 97.5392 84.228 97.5392 84.228C97.6266 84.2652 97.7225 84.2777 97.8165 84.2641C97.9105 84.2506 97.9989 84.2115 98.0722 84.1512C98.1456 84.0909 98.2009 84.0116 98.2323 83.922C98.2637 83.8324 98.2699 83.7359 98.2502 83.643L98.0702 82.788C98.0702 82.761 98.0552 82.731 98.0462 82.704C97.9352 82.428 97.3052 80.82 97.3952 80.388C97.4672 80.043 98.0132 79.404 98.2952 79.089C98.348 79.0311 98.4132 78.9859 98.486 78.9568C98.5587 78.9277 98.6371 78.9155 98.7152 78.921L101.34 79.098C101.464 79.1068 101.58 79.1593 101.669 79.2461C101.757 79.333 101.812 79.4485 101.823 79.572L101.886 80.187Z" fill="#B25F57"/>
<path d="M104.172 80.463C104.237 80.6099 104.264 80.7703 104.253 80.9304C104.242 81.0905 104.191 81.2453 104.106 81.3815C104.022 81.5178 103.905 81.6312 103.766 81.7122C103.628 81.7931 103.472 81.839 103.311 81.846C102.411 81.882 101.139 81.846 99.9362 81.891C98.1362 81.948 96.5012 82.086 96.4352 81.675C96.3387 81.0301 96.2826 80.3798 96.2672 79.728L93.8882 65.028L92.6162 44.67C92.6162 44.67 94.5422 45.834 95.5592 49.008C96.4952 51.933 101.739 66.777 102.174 68.613C102.609 70.449 103.539 79.596 103.539 79.596C103.82 79.8266 104.038 80.125 104.172 80.463Z" fill="#37474F"/>
<path d="M103.539 79.455C103.448 79.4875 103.353 79.5067 103.257 79.512C103.077 79.539 102.813 79.572 102.489 79.608C101.835 79.674 100.932 79.749 99.9329 79.791C98.9339 79.833 98.0279 79.836 97.3739 79.812C97.0439 79.812 96.7739 79.785 96.5969 79.77C96.5014 79.7695 96.4065 79.7554 96.3149 79.728C96.6671 79.6989 97.0207 79.6899 97.3739 79.701C98.0279 79.701 98.9309 79.677 99.9269 79.635C100.923 79.593 101.826 79.536 102.48 79.497C102.832 79.4594 103.185 79.4454 103.539 79.455Z" fill="#263238"/>
<path d="M99.9363 81.9C100.056 82.6477 100.101 83.4054 100.071 84.162C100.063 84.3749 100.015 84.5844 99.9303 84.78C99.8872 84.8768 99.8218 84.9621 99.7394 85.0289C99.657 85.0956 99.56 85.1419 99.4563 85.164C99.353 85.1822 99.2466 85.1617 99.1574 85.1064C99.0683 85.051 99.0027 84.9647 98.9733 84.864L98.4663 81.951L99.9363 81.9Z" fill="#B25F57"/>
<path d="M99.9358 81.9C99.8124 81.9252 99.6868 81.9383 99.5608 81.939C99.3088 81.939 98.9338 81.981 98.4688 81.999L98.5228 81.93C98.6638 82.662 98.8408 83.64 99.0268 84.714C99.0337 84.7796 99.0489 84.8441 99.0718 84.906C99.0984 84.958 99.1389 85.0016 99.1888 85.032C99.2394 85.0637 99.2966 85.0831 99.3559 85.0889C99.4153 85.0946 99.4752 85.0864 99.5308 85.065C99.6418 85.0127 99.7381 84.9339 99.8113 84.8355C99.8846 84.7371 99.9325 84.6223 99.9508 84.501C100.02 84.0566 100.041 83.6059 100.014 83.157C99.9988 82.77 99.9718 82.455 99.9538 82.239C99.9378 82.1267 99.9317 82.0133 99.9358 81.9C99.9779 82.0066 100.004 82.1188 100.014 82.233C100.05 82.446 100.095 82.761 100.125 83.151C100.17 83.6106 100.158 84.074 100.092 84.531C100.07 84.6738 100.013 84.8092 99.9276 84.9256C99.842 85.0421 99.7295 85.1362 99.5998 85.2C99.5223 85.2299 99.4388 85.2414 99.356 85.2336C99.2733 85.2258 99.1934 85.1989 99.1228 85.155C99.0472 85.1099 98.9859 85.0444 98.9458 84.966C98.9162 84.891 98.897 84.8122 98.8888 84.732C98.7028 83.658 98.5378 82.68 98.4238 81.942V81.873H98.4928C98.9308 81.873 99.2908 81.873 99.5488 81.873C99.8068 81.873 99.9268 81.9 99.9358 81.9Z" fill="#884540"/>
<path d="M102.6 81.864H102.444L102 81.9L100.266 81.951L97.5658 82.02H97.1668C97.0266 82.0288 96.8858 82.0228 96.7468 82.002C96.5978 81.9768 96.4552 81.9221 96.3275 81.8412C96.1998 81.7604 96.0894 81.6549 96.0028 81.531C95.8349 81.2621 95.7552 80.9474 95.7748 80.631C95.7815 80.2977 95.8963 79.9755 96.1018 79.713L96.0868 79.767L94.4998 69.945C94.2568 68.421 94.0198 66.945 93.8008 65.544C93.5008 61.512 93.0808 58.02 92.7508 55.536C92.5828 54.306 92.4508 53.316 92.3518 52.626C92.3068 52.293 92.2678 52.026 92.2438 51.846L92.2168 51.645C92.2142 51.6221 92.2142 51.5989 92.2168 51.576C92.2266 51.5968 92.2327 51.6191 92.2348 51.642L92.2738 51.843C92.3038 52.029 92.3488 52.287 92.4058 52.62C92.5198 53.295 92.6758 54.285 92.8528 55.524C93.2068 58.005 93.6358 61.497 93.9568 65.532L94.6588 69.933L96.2128 79.761V79.791L96.1888 79.818C96.0024 80.0569 95.8972 80.3491 95.8888 80.652C95.8687 80.9412 95.9389 81.2295 96.0898 81.477C96.1668 81.5889 96.2654 81.6842 96.3797 81.7574C96.4941 81.8305 96.622 81.8801 96.7558 81.903C96.8864 81.9267 97.0195 81.9337 97.1518 81.924H97.5508L100.251 81.888H101.988H102.444L102.6 81.864Z" fill="#263238"/>
<path d="M99.2758 105.942L96.8428 86.976H106.293L112.74 104.994L99.2758 105.942Z" fill="#455A64"/>
<path d="M99.2761 105.942H95.1001C95.1001 105.942 94.9771 86.97 95.2351 86.976C95.4931 86.982 98.4451 86.976 98.4451 86.976L99.2761 105.942Z" fill="#E0E0E0"/>
<path d="M92.6162 87.369L92.8802 100.839L111.168 100.641L107.565 87.912L93.7682 87.333L92.6162 87.369Z" fill="#455A64"/>
<path d="M93.7681 87.333L95.7421 100.83L113.31 100.641L109.707 87.912L93.7681 87.333Z" fill="#263238"/>
<path d="M97.554 87.531C97.554 87.531 97.506 84.993 98.454 84.612L98.34 84.066C98.34 84.066 96.684 84.855 96.54 87.75L97.554 87.531Z" fill="#263238"/>
<path d="M101.661 84.525C101.661 84.525 103.797 84.723 104.466 87.825H103.329C103.329 87.825 103.074 85.467 101.544 84.993L101.661 84.525Z" fill="#263238"/>
<path d="M98.304 83.787C98.304 83.811 98.091 83.892 97.794 84.12C97.4136 84.4253 97.1061 84.8117 96.894 85.251C96.686 85.6959 96.5222 86.1601 96.405 86.637C96.3663 86.8435 96.3039 87.0448 96.219 87.237C96.2161 87.0294 96.2424 86.8223 96.297 86.622C96.3862 86.1272 96.5395 85.6462 96.753 85.191C96.9731 84.7293 97.309 84.3324 97.728 84.039C97.8942 83.9053 98.093 83.8183 98.304 83.787Z" fill="#455A64"/>
<path d="M104.598 86.976C104.484 86.7925 104.391 86.5974 104.319 86.394C104.115 85.9244 103.853 85.482 103.539 85.077C103.228 84.6733 102.829 84.3459 102.372 84.12C102.018 83.955 101.772 83.925 101.772 83.898C101.992 83.8817 102.212 83.923 102.411 84.018C102.903 84.2231 103.332 84.5542 103.656 84.978C103.981 85.393 104.238 85.8567 104.418 86.352C104.508 86.5502 104.568 86.7604 104.598 86.976Z" fill="#455A64"/>
<path d="M110.913 92.169C110.913 92.214 107.208 92.235 102.642 92.223C98.076 92.211 94.374 92.16 94.374 92.118C94.374 92.076 98.076 92.052 102.645 92.067C107.214 92.082 110.913 92.127 110.913 92.169Z" fill="#455A64"/>
<path d="M28.107 127.2C28.5164 127.282 28.905 127.446 29.2494 127.682C29.5938 127.918 29.8869 128.222 30.111 128.574C30.5563 129.281 30.8334 130.08 30.921 130.911C31.137 132.507 30.651 134.295 30.021 135.777C28.428 134.964 27.621 133.05 27.279 132.054C26.724 130.5 26.7 127.311 28.107 127.2Z" fill="#37474F"/>
<path d="M32.1782 137.964C31.9772 137.543 31.891 137.076 31.9284 136.611C31.9658 136.146 32.1255 135.699 32.3912 135.315C32.6639 134.937 33.0092 134.617 33.4067 134.373C33.8043 134.129 34.2464 133.967 34.7072 133.896C34.9151 133.841 35.1326 133.832 35.3445 133.869C35.5564 133.906 35.7576 133.989 35.9342 134.112C36.0791 134.253 36.1834 134.431 36.2362 134.626C36.289 134.821 36.2883 135.027 36.2342 135.222C36.1217 135.61 35.9085 135.961 35.6162 136.239C34.6622 137.235 33.5582 138.024 32.1812 137.964" fill="#37474F"/>
<path d="M31.7044 143.145C31.6815 143.035 31.6695 142.924 31.6684 142.812C31.6684 142.578 31.6324 142.275 31.6084 141.912C31.5137 140.915 31.5795 139.909 31.8034 138.933C32.0475 137.955 32.5476 137.059 33.2524 136.338C33.4669 136.123 33.7067 135.935 33.9664 135.777C34.0564 135.72 34.1344 135.687 34.1824 135.66C34.2076 135.645 34.2349 135.634 34.2634 135.627C33.92 135.85 33.6004 136.107 33.3094 136.395C32.6364 137.121 32.1577 138.006 31.9174 138.966C31.697 139.93 31.6212 140.922 31.6924 141.909C31.6924 142.29 31.7134 142.599 31.7134 142.809C31.72 142.921 31.717 143.033 31.7044 143.145Z" fill="#263238"/>
<path d="M28.3472 129.627C28.3682 129.67 28.3852 129.716 28.3982 129.762C28.4282 129.864 28.4702 129.996 28.5212 130.158C28.6292 130.5 28.7762 130.998 28.9532 131.613C29.3072 132.846 29.7722 134.559 30.2402 136.458C30.7082 138.357 31.0982 140.088 31.3622 141.345C31.4942 141.972 31.5962 142.482 31.6622 142.845C31.6922 143.011 31.7162 143.146 31.7342 143.25C31.7443 143.297 31.7503 143.346 31.7522 143.394C31.7344 143.349 31.7204 143.303 31.7102 143.256C31.6862 143.151 31.6562 143.019 31.6172 142.854C31.5332 142.488 31.4192 141.987 31.2812 141.372C30.9992 140.121 30.5972 138.396 30.1292 136.494C29.6612 134.592 29.2052 132.894 28.8722 131.646C28.7102 131.046 28.5722 130.539 28.4792 130.179C28.4342 130.014 28.4012 129.879 28.3742 129.777C28.358 129.729 28.3489 129.678 28.3472 129.627Z" fill="#263238"/>
<path d="M30.1562 139.479C29.7625 138.577 29.1592 137.781 28.3964 137.159C27.6336 136.536 26.7333 136.105 25.7702 135.9C25.2812 135.801 24.6752 135.807 24.3992 136.224C24.1232 136.641 24.3482 137.202 24.6392 137.61C25.2595 138.45 26.1143 139.087 27.096 139.442C28.0777 139.797 29.1424 139.854 30.1562 139.605" fill="#37474F"/>
<path d="M26.3526 137.328C26.4542 137.334 26.5548 137.351 26.6526 137.379C26.7726 137.399 26.8909 137.428 27.0066 137.466C27.1636 137.506 27.3179 137.556 27.4686 137.616C27.6538 137.682 27.8351 137.758 28.0116 137.844C28.2179 137.938 28.4183 138.044 28.6116 138.162C29.0541 138.433 29.4647 138.753 29.8356 139.116C30.1998 139.485 30.5199 139.894 30.7896 140.337C30.9005 140.531 31.0007 140.732 31.0896 140.937C31.1737 141.114 31.2468 141.297 31.3086 141.483C31.3652 141.635 31.4122 141.79 31.4496 141.948C31.4841 142.065 31.5112 142.184 31.5306 142.305C31.5519 142.404 31.5659 142.504 31.5726 142.605C31.5456 142.605 31.4826 142.17 31.2336 141.501C31.1657 141.319 31.0875 141.14 30.9996 140.967C30.9044 140.766 30.7983 140.571 30.6816 140.382C30.4107 139.949 30.0939 139.547 29.7366 139.182C29.3724 138.825 28.9699 138.509 28.5366 138.24C28.3476 138.121 28.1523 138.013 27.9516 137.916C27.7788 137.827 27.6016 137.747 27.4206 137.676C26.7846 137.43 26.3466 137.352 26.3526 137.328Z" fill="#263238"/>
<path d="M141.933 139.164H67.9316V143.421H141.933" fill="#F5F5F5"/>
<path d="M141.933 143.421H141.555H140.439L136.149 143.436L120.339 143.46L67.932 143.484H67.854V139.086H67.932L120.345 139.11L136.149 139.134L140.439 139.149H141.555H141.933C141.933 139.149 141.807 139.149 141.555 139.149H140.439L136.149 139.164L120.345 139.188L67.932 139.212L68.01 139.134V143.391L67.932 143.313L120.339 143.337L136.149 143.361H140.439H141.555C141.807 143.415 141.933 143.421 141.933 143.421Z" fill="#263238"/>
<path d="M83.9995 143.592C83.8915 142.143 83.8915 140.688 83.9995 139.239C84.1035 140.688 84.1035 142.143 83.9995 143.592Z" fill="#263238"/>
<path d="M102.12 143.592C102.016 142.143 102.016 140.688 102.12 139.239C102.224 140.688 102.224 142.143 102.12 143.592Z" fill="#263238"/>
<path d="M120.231 143.592C120.127 142.143 120.127 140.688 120.231 139.239C120.335 140.688 120.335 142.143 120.231 143.592Z" fill="#263238"/>
<path d="M138.342 143.592C138.238 142.143 138.238 140.688 138.342 139.239C138.446 140.688 138.446 142.143 138.342 143.592Z" fill="#263238"/>
<path d="M10.8657 143.421C10.8657 143.379 23.7657 143.343 39.6657 143.343C55.5657 143.343 68.4657 143.379 68.4657 143.421C68.4657 143.463 55.5657 143.499 39.6657 143.499C23.7657 143.499 10.8657 143.466 10.8657 143.421Z" fill="#263238"/>
</svg>
