<svg width="29" height="30" viewBox="0 0 29 30" fill="none" xmlns="http://www.w3.org/2000/svg">
<g clip-path="url(#clip0)">
<path d="M28.5751 15.0589C28.5744 14.0773 28.4777 13.08 28.2756 12.0784C26.7253 4.38923 19.4748 -0.662668 12.0023 0.730046C4.37638 2.1513 -0.708642 9.68651 0.638046 17.5874C1.7213 23.9427 6.6368 28.6031 12.4925 29.4743C13.2649 29.5892 14.0467 29.3393 14.6303 28.8033L27.8983 16.6179C28.329 16.2222 28.5756 15.6548 28.5751 15.0589Z" fill="#F8E47C"/>
<path d="M28.5751 15.0589C28.5744 14.0773 28.4777 13.08 28.2756 12.0784C26.7253 4.38923 19.4748 -0.662668 12.0023 0.730046C4.37638 2.1513 -0.708642 9.68651 0.638046 17.5874C1.7213 23.9427 6.6368 28.6031 12.4925 29.4743C13.2649 29.5892 14.0467 29.3393 14.6303 28.8033L27.8983 16.6179C28.329 16.2222 28.5756 15.6548 28.5751 15.0589Z" fill="#F8E47C"/>
<path d="M8.05935 14.8376C7.89577 13.8776 6.81841 13.2717 5.65301 13.4842C4.48761 13.6967 3.67548 14.6472 3.83906 15.6072C4.00264 16.5672 5.08 17.1731 6.2454 16.9606C7.4108 16.7481 8.22293 15.7976 8.05935 14.8376Z" fill="#E38892"/>
<path d="M20.4773 12.5707C20.6409 13.5307 21.7182 14.1366 22.8836 13.9241C24.049 13.7116 24.8611 12.7611 24.6976 11.8011C24.534 10.8411 23.4566 10.2352 22.2912 10.4477C21.1258 10.6603 20.3137 11.6107 20.4773 12.5707Z" fill="#E38892"/>
<path d="M7.44026 17.5451C6.91577 17.5416 6.54573 18.0727 6.70965 18.5882C7.92017 22.3946 11.869 24.7781 16.0262 24.0197C20.1834 23.2615 23.1061 19.6246 22.9852 15.6194C22.9688 15.077 22.4455 14.7088 21.9537 14.8977C20.7075 15.3763 18.2383 16.2113 14.8021 16.8381C11.3659 17.4649 8.76967 17.5538 7.44026 17.5451Z" fill="white"/>
<path opacity="0.2" d="M18.245 21.5997C4.5402 24.5693 2.56446 10.5901 6.93111 2.7796C2.27837 5.85097 -0.380059 11.6142 0.638 17.5874C1.72125 23.9427 6.63675 28.6031 12.4925 29.4742C13.2649 29.5891 14.0466 29.3392 14.6302 28.8033L22.1242 21.9207L18.245 21.5997Z" fill="#C97B00"/>
<path d="M16.0264 24.0197C17.7453 23.7061 19.2528 22.9002 20.4217 21.7799L18.2452 21.5998C12.4444 22.8567 8.74518 21.077 6.73858 18.014C6.66375 18.1865 6.64631 18.3883 6.70986 18.5881C7.92027 22.3946 11.8691 24.778 16.0264 24.0197Z" fill="#F0F2FF"/>
<path d="M14.6309 28.803L27.9091 16.6081C28.3322 16.2196 28.5743 15.6623 28.5744 15.0771V15.0675C28.5719 15.6403 28.0127 16.0175 27.4666 16.0114L27.4661 16.0124C26.7714 16.0307 26.0695 16.1015 25.3643 16.2301C19.2158 17.3517 14.71 22.4443 13.8733 28.5086C13.7258 29.3211 12.7788 29.5028 12.4883 29.473C12.4925 29.4736 12.4967 29.4742 12.5009 29.4748C13.2707 29.5889 14.0494 29.3371 14.6309 28.803Z" fill="#F0F2FF"/>
<path d="M23.0203 21.0977C21.2952 21.4037 19.9426 19.4147 20.8385 17.9151C17.0753 20.1338 14.4866 24.0597 13.8728 28.5086C13.7253 29.321 12.7784 29.5028 12.4878 29.4729C12.492 29.4735 12.4962 29.4741 12.5004 29.4748C13.2702 29.5889 14.0489 29.3371 14.6305 28.803L23.0203 21.0977Z" fill="#DBE1FF"/>
<path d="M19.7531 9.43697C20.4646 9.30701 21.1458 9.80054 21.2713 10.5367C21.312 10.7757 21.5323 10.936 21.7635 10.8932C21.9945 10.8511 22.1488 10.6231 22.1081 10.3841C21.9013 9.17066 20.7785 8.35697 19.6057 8.57142C18.4327 8.78535 17.6467 9.94674 17.8534 11.1602C17.8898 11.3734 18.069 11.5234 18.2714 11.5234C18.2959 11.5234 18.3207 11.5212 18.3457 11.5166C18.5767 11.4745 18.731 11.2466 18.6903 11.0075C18.5646 10.2714 19.0415 9.56687 19.7531 9.43697ZM7.703 11.6351C8.04765 11.5722 8.39543 11.6519 8.6822 11.8596C8.96897 12.0673 9.1603 12.3781 9.22108 12.7346C9.2618 12.9737 9.48225 13.1335 9.71323 13.0912C9.94427 13.049 10.0986 12.8212 10.0579 12.582C9.95775 11.9942 9.6422 11.482 9.16954 11.1396C8.69681 10.7972 8.12361 10.6657 7.55539 10.7695C6.98717 10.873 6.49196 11.1995 6.16101 11.6884C5.83006 12.1774 5.70296 12.7704 5.80316 13.3582C5.83952 13.5715 6.01873 13.7215 6.22105 13.7215C6.24552 13.7215 6.27038 13.7193 6.29531 13.7147C6.52634 13.6726 6.68069 13.4447 6.63997 13.2056C6.57919 12.849 6.65628 12.4892 6.85701 12.1926C7.05786 11.896 7.35822 11.6979 7.703 11.6351ZM28.6916 11.9886C27.9192 8.15757 25.7548 4.83549 22.5972 2.63406C19.4405 0.43322 15.651 -0.396526 11.927 0.297517C8.43185 0.948903 5.29883 2.89679 3.10497 5.78242C2.95991 5.9732 2.9918 6.24959 3.17622 6.39959C3.3607 6.54965 3.62776 6.51654 3.77282 6.32582C5.83799 3.60947 8.78738 1.77578 12.0777 1.16254C15.583 0.50945 19.1501 1.29074 22.1225 3.36297C25.0953 5.4356 27.1329 8.56263 27.8599 12.1681C28.0512 13.117 28.1488 14.086 28.1503 15.0486C28.15 15.0543 28.1494 15.0599 28.1494 15.0657C28.1489 15.1735 28.1059 15.2718 28.0217 15.3576C27.8897 15.4922 27.6808 15.5749 27.471 15.572C27.4568 15.5721 27.4424 15.5725 27.4283 15.5737C26.7118 15.594 25.9925 15.6692 25.2903 15.7972C24.6465 15.9146 24.0167 16.0751 23.4032 16.2761C23.4144 16.0524 23.4167 15.8284 23.41 15.6055C23.398 15.2085 23.2009 14.8394 22.8827 14.6179C22.5615 14.3945 22.1691 14.3462 21.8061 14.4856C20.6414 14.9328 18.1732 15.7768 14.7286 16.4052C11.2836 17.0335 8.68486 17.1135 7.44313 17.1054H7.43526C7.05123 17.1054 6.70165 17.2894 6.47514 17.6109C6.24943 17.9315 6.18622 18.3481 6.30629 18.7254C6.5665 19.5435 6.95494 20.3142 7.45055 21.0109C7.46567 21.0378 7.48363 21.0627 7.50379 21.0855C8.09903 21.9034 8.84363 22.6165 9.70405 23.1804C11.1157 24.1055 12.7934 24.5985 14.4953 24.5985C14.4977 24.5985 14.5 24.5984 14.5024 24.5984C13.9927 25.8134 13.6392 27.1004 13.454 28.4354C13.3556 28.9393 12.6705 29.0503 12.5301 29.0355C9.71685 28.612 7.13727 27.3101 5.06898 25.2693C2.95334 23.1817 1.56593 20.499 1.05662 17.511C0.500971 14.2514 1.07315 10.8795 2.66781 8.01636C2.78495 7.80607 2.71511 7.5373 2.51183 7.41613C2.3086 7.29496 2.04879 7.36726 1.9316 7.57756C0.237479 10.6193 -0.370445 14.2013 0.21975 17.6638C0.760725 20.8376 2.2348 23.6876 4.48241 25.9055C6.68499 28.0789 9.43399 29.4633 12.4321 29.9093C12.5418 29.9256 12.6517 29.9356 12.7614 29.9395C12.7974 29.9409 12.8335 29.9415 12.8695 29.9415C13.5638 29.9414 14.2425 29.6939 14.7951 29.2342C14.7978 29.2319 14.8006 29.2299 14.8034 29.2276C14.8403 29.1966 14.8768 29.1646 14.9126 29.1317L25.2273 19.6586C25.4027 19.4975 25.4187 19.2197 25.2629 19.0382C25.1072 18.8567 24.8387 18.8401 24.6632 19.0013L14.3488 28.4742C14.3486 28.4744 14.3484 28.4745 14.3482 28.4747C14.3329 28.4888 14.3169 28.5019 14.3013 28.5155C14.5069 27.0657 14.9233 25.6759 15.5338 24.3818C15.5573 24.3471 15.5759 24.3088 15.5889 24.2679C16.1932 23.0162 16.9797 21.8555 17.9342 20.819C18.1918 20.5393 18.4589 20.2719 18.7348 20.0171C18.7399 20.0128 18.7446 20.0081 18.7496 20.0036C20.0116 18.841 21.4574 17.942 23.0312 17.3375C23.0541 17.331 23.0762 17.3223 23.0975 17.3121C23.8506 17.0275 24.6326 16.8098 25.4377 16.663C26.0947 16.5432 26.7674 16.4726 27.438 16.4529L26.1599 17.6267C25.9845 17.7879 25.9685 18.0657 26.1243 18.2472C26.28 18.4286 26.5486 18.4452 26.7241 18.284L28.1909 16.937C28.673 16.4941 28.962 15.8695 28.9955 15.2067C28.9983 15.1575 28.9999 15.1082 28.9999 15.0586C28.9992 14.0325 28.8954 12.9996 28.6916 11.9886ZM14.91 23.7085C13.2276 23.7964 11.5491 23.3492 10.1587 22.438C9.65563 22.1083 9.19689 21.7221 8.79072 21.2907C9.21519 21.3095 9.64441 21.3199 10.0774 21.3199C11.8834 21.3199 13.7429 21.1568 15.4842 20.8391C16.0041 20.7443 16.5296 20.6329 17.0566 20.5062C16.2018 21.4839 15.4826 22.5588 14.91 23.7085ZM22.5269 16.5951C20.9661 17.223 19.5279 18.1267 18.2608 19.2779C17.2833 19.5635 16.3001 19.7978 15.3366 19.9735C12.9789 20.4036 10.3995 20.5414 8.04833 20.3663C7.64681 19.7771 7.33002 19.1322 7.11325 18.4509C7.07797 18.34 7.0957 18.2226 7.1618 18.1287C7.22631 18.0371 7.32594 17.9847 7.43531 17.9847H7.43758C8.70854 17.9925 11.3649 17.9115 14.876 17.271C18.3867 16.6306 20.91 15.7674 22.1017 15.3099C22.2051 15.2702 22.3169 15.284 22.4085 15.3476C22.5017 15.4124 22.5571 15.5165 22.5606 15.6331C22.5703 15.9529 22.5585 16.2753 22.5269 16.5951Z" fill="black"/>
</g>
<defs>
<clipPath id="clip0">
<rect width="29" height="30" fill="white"/>
</clipPath>
</defs>
</svg>
