<svg width="150" height="150" viewBox="0 0 150 150" fill="none" xmlns="http://www.w3.org/2000/svg">
<path d="M75 144.63C113.096 144.63 143.979 126.8 143.979 104.805C143.979 82.8103 113.096 64.98 75 64.98C36.9039 64.98 6.021 82.8103 6.021 104.805C6.021 126.8 36.9039 144.63 75 144.63Z" fill="#F0F0F0"/>
<path d="M94.7971 137.043C107.585 137.043 117.951 131.058 117.951 123.675C117.951 116.292 107.585 110.307 94.7971 110.307C82.0095 110.307 71.6431 116.292 71.6431 123.675C71.6431 131.058 82.0095 137.043 94.7971 137.043Z" fill="#E0E0E0"/>
<path d="M125.88 19.638L128.343 21.06C128.33 20.9515 128.323 20.8423 128.322 20.733V20.022C128.322 18.75 129.222 18.237 130.311 18.87C130.789 19.1597 131.198 19.5497 131.511 20.013C131.691 18.417 132.945 17.82 134.466 18.699C136.11 19.65 137.445 21.96 137.445 23.859V24.927C137.455 25.3531 137.368 25.7758 137.19 26.163L139.236 27.345C139.558 27.5538 139.825 27.8358 140.017 28.1679C140.209 28.5001 140.32 28.8729 140.34 29.256C140.34 29.961 139.848 30.246 139.236 29.895L125.88 22.2C125.558 21.991 125.291 21.709 125.099 21.3769C124.907 21.0448 124.796 20.672 124.776 20.289C124.776 19.572 125.268 19.287 125.88 19.638Z" fill="#EBEBEB"/>
<path d="M115.338 26.814L117.198 27.888C117.188 27.8063 117.183 27.7242 117.183 27.642V27.102C117.183 26.145 117.855 25.755 118.683 26.235C119.042 26.4534 119.349 26.7472 119.583 27.096C119.721 25.896 120.666 25.443 121.812 26.106C122.467 26.5331 123.013 27.109 123.404 27.7867C123.795 28.4643 124.02 29.2247 124.062 30.006V30.81C124.07 31.1316 124.004 31.4508 123.87 31.743L125.415 32.643C125.657 32.802 125.859 33.0157 126.004 33.2668C126.149 33.518 126.233 33.7995 126.249 34.089C126.249 34.62 125.874 34.836 125.415 34.569L115.338 28.74C115.096 28.5817 114.895 28.369 114.751 28.1189C114.607 27.8688 114.523 27.5883 114.507 27.3C114.507 26.763 114.879 26.547 115.338 26.814Z" fill="#EBEBEB"/>
<path d="M23.3671 94.893L25.8841 93.453C25.8841 93.453 27.0841 86.796 26.1841 81.075C24.9121 73.032 19.4341 70.257 17.4451 71.055C15.4561 71.853 15.0001 74.238 18.6001 78.9C20.7001 81.63 23.4331 87.426 23.3671 94.893Z" fill="#37474F"/>
<path d="M24.2786 91.698H24.2546C24.2313 91.6951 24.2088 91.6875 24.1884 91.6758C24.1681 91.664 24.1502 91.6483 24.136 91.6296C24.1217 91.6109 24.1114 91.5895 24.1055 91.5668C24.0996 91.544 24.0983 91.5203 24.1016 91.497C25.1396 83.964 22.1127 75.714 18.7017 72.387C18.6678 72.354 18.6485 72.3089 18.648 72.2616C18.6474 72.2144 18.6656 72.1688 18.6987 72.135C18.7317 72.1012 18.7768 72.0819 18.824 72.0813C18.8713 72.0807 18.9168 72.099 18.9507 72.132C22.4247 75.513 25.4996 83.901 24.4556 91.542C24.4499 91.585 24.4288 91.6244 24.3963 91.653C24.3638 91.6817 24.322 91.6977 24.2786 91.698Z" fill="white"/>
<path d="M16.3799 98.928C15.9809 99.156 15.1619 98.658 14.8469 98.445C14.308 98.079 13.8729 97.5798 13.5839 96.996C13.259 96.3342 13.1489 95.5874 13.2689 94.86C13.3318 94.4751 13.4221 94.0951 13.5389 93.723L13.8389 92.619C13.9681 92.2629 14.0232 91.8842 14.0009 91.506C13.9049 90.753 13.2359 90.225 12.6269 89.769C11.9549 89.265 11.2529 88.599 11.2559 87.69C11.3126 86.9874 11.5994 86.3231 12.0719 85.8C12.5069 85.251 13.0199 84.765 13.4129 84.183C13.7217 83.7788 13.8835 83.2815 13.8719 82.773C13.8318 82.4619 13.7298 82.162 13.5719 81.891C13.2509 81.291 12.8279 80.757 12.6089 80.124C12.3899 79.491 12.4169 78.696 12.9089 78.243C13.3139 77.868 13.9199 77.817 14.4719 77.853C14.9874 77.9165 15.4829 78.0916 15.9239 78.366C17.3669 79.167 18.1889 80.874 19.7189 81.492C20.3259 81.681 20.9441 81.8323 21.5699 81.945C22.1699 82.107 22.8149 82.422 23.0999 82.989C23.6609 84.111 22.6169 85.494 23.0129 86.685C23.3609 87.741 24.3869 88.143 24.9599 89.085C25.1956 89.503 25.2902 89.9859 25.2299 90.462C25.1795 91.2689 24.9822 92.0599 24.6479 92.796C24.2739 93.5264 23.8467 94.2283 23.3699 94.896C23.3429 94.914 16.4399 98.892 16.3799 98.928Z" fill="#455A64"/>
<path d="M20.466 96.75C20.4423 96.7496 20.4188 96.7445 20.3971 96.7348C20.3754 96.7252 20.3558 96.7113 20.3396 96.6939C20.3233 96.6766 20.3107 96.6561 20.3026 96.6338C20.2944 96.6115 20.2908 96.5877 20.292 96.564C20.592 89.436 17.229 81.564 14.787 79.278C14.7675 79.2625 14.7514 79.2431 14.7397 79.2211C14.728 79.1991 14.721 79.1748 14.7192 79.1499C14.7174 79.1251 14.7208 79.1001 14.7291 79.0766C14.7375 79.0531 14.7507 79.0316 14.7678 79.0134C14.7849 78.9953 14.8056 78.9809 14.8285 78.9711C14.8515 78.9614 14.8763 78.9565 14.9012 78.9569C14.9261 78.9572 14.9507 78.9627 14.9734 78.9731C14.9961 78.9834 15.0164 78.9984 15.033 79.017C17.523 81.348 20.949 89.349 20.649 96.579C20.6467 96.6257 20.6263 96.6696 20.5922 96.7016C20.558 96.7335 20.5128 96.7508 20.466 96.75Z" fill="white"/>
<path d="M19.3977 88.329C19.3809 88.3321 19.3636 88.3321 19.3467 88.329C17.6573 87.8633 15.922 87.5836 14.1717 87.495C14.1482 87.4942 14.1251 87.4888 14.1037 87.479C14.0823 87.4692 14.0631 87.4552 14.0472 87.4379C14.0313 87.4206 14.019 87.4003 14.011 87.3781C14.003 87.356 13.9995 87.3325 14.0007 87.309C14.0007 87.2851 14.0055 87.2615 14.015 87.2395C14.0245 87.2176 14.0384 87.1979 14.0559 87.1815C14.0733 87.1652 14.0939 87.1526 14.1164 87.1446C14.139 87.1366 14.1629 87.1334 14.1867 87.135C15.9674 87.2278 17.7327 87.5134 19.4517 87.987C19.4922 88.0003 19.5267 88.0275 19.549 88.0639C19.5713 88.1002 19.5799 88.1433 19.5735 88.1854C19.567 88.2275 19.5458 88.266 19.5136 88.2939C19.4814 88.3219 19.4403 88.3375 19.3977 88.338V88.329Z" fill="white"/>
<path d="M111.417 126.522C111.438 127.422 111.312 128.403 110.547 129.051C108.963 130.401 105.945 129.786 104.487 129.009C102.72 128.07 101.931 126.624 100.587 125.799C99.7845 125.362 98.949 124.989 98.088 124.683C97.413 124.404 96.696 124.155 96.555 123.324C96.522 123.075 96.522 122.823 96.555 122.574C96.5597 122.472 96.5789 122.371 96.612 122.274C96.6719 122.146 96.7626 122.035 96.876 121.95C97.407 121.521 98.13 121.431 98.808 121.35C99.2742 121.285 99.7464 121.275 100.215 121.32C100.737 121.404 101.242 121.567 101.715 121.803L103.425 122.631L106.845 124.293L111.417 126.522Z" fill="#37474F"/>
<path d="M97.722 116.835C98.124 116.235 99.0301 116.484 99.6781 116.535C100.545 116.613 101.405 116.76 102.249 116.973C102.75 117.102 103.413 117.312 103.668 117.801C103.968 118.401 104.136 119.061 104.439 119.658C104.933 120.528 105.62 121.274 106.446 121.839C107.247 122.439 108.105 122.952 108.861 123.6C109.31 123.981 109.721 124.405 110.088 124.866C110.477 125.319 110.768 125.847 110.943 126.417C111.108 127.017 111.078 127.872 110.607 128.328C110.095 128.763 109.457 129.024 108.786 129.072C107.512 129.141 106.243 128.881 105.099 128.316C104.046 127.794 103.233 126.927 102.423 126.099C102.076 125.696 101.683 125.337 101.25 125.028C100.791 124.757 100.31 124.524 99.8131 124.332C98.8951 123.942 97.9531 123.564 97.1641 122.94C96.9887 122.815 96.8423 122.653 96.7351 122.466C96.6386 122.231 96.6025 121.975 96.6301 121.722C96.7118 120.93 96.8963 120.153 97.179 119.409C97.3049 119.026 97.3923 118.631 97.44 118.23C97.4472 117.824 97.5077 117.42 97.6201 117.03C97.6471 116.962 97.6813 116.896 97.722 116.835Z" fill="#455A64"/>
<path d="M105.093 128.433C104.754 128.299 104.447 128.094 104.193 127.833C104.193 126.792 104.328 125.94 104.946 125.043C105.699 123.951 106.953 123.375 108.279 123.147C109.179 123.348 109.59 123.432 110.304 124.077C110.924 124.632 111.356 125.366 111.54 126.177C111.618 126.601 111.573 127.039 111.41 127.439C111.247 127.839 110.974 128.183 110.622 128.433C110.054 128.844 109.391 129.104 108.696 129.189C107.379 129.3 106.518 129.096 105.093 128.433Z" fill="#FAFAFA"/>
<path d="M98.0998 120.324C98.0998 120.324 97.3288 120.087 96.4858 118.17C96.1803 117.438 96.0489 116.645 96.1018 115.854C96.1339 114.926 95.9538 114.004 95.5753 113.156C95.1968 112.309 94.6299 111.559 93.9178 110.964C91.4737 108.893 89.3895 106.432 87.7498 103.68C85.6258 100.2 85.2838 106.332 90.6628 112.326C90.6628 112.326 90.1498 112.266 88.6978 111.297C87.8548 110.736 87.0508 109.947 86.2978 109.395C84.7588 108.267 85.9798 113.157 90.8278 116.058C90.8278 116.058 88.9378 115.848 87.7498 115.314C86.5618 114.78 87.0838 116.787 89.9158 118.284C91.4776 119.073 93.1284 119.671 94.8328 120.066C95.6784 120.267 96.464 120.666 97.1248 121.23L97.7428 121.758L98.0998 120.324Z" fill="#455A64"/>
<path opacity="0.6" d="M98.0998 120.324C98.0998 120.324 97.3288 120.087 96.4858 118.17C96.1803 117.438 96.0489 116.645 96.1018 115.854C96.1339 114.926 95.9538 114.004 95.5753 113.156C95.1968 112.309 94.6299 111.559 93.9178 110.964C91.4737 108.893 89.3895 106.432 87.7498 103.68C85.6258 100.2 85.2838 106.332 90.6628 112.326C90.6628 112.326 90.1498 112.266 88.6978 111.297C87.8548 110.736 87.0508 109.947 86.2978 109.395C84.7588 108.267 85.9798 113.157 90.8278 116.058C90.8278 116.058 88.9378 115.848 87.7498 115.314C86.5618 114.78 87.0838 116.787 89.9158 118.284C91.4776 119.073 93.1284 119.671 94.8328 120.066C95.6784 120.267 96.464 120.666 97.1248 121.23L97.7428 121.758L98.0998 120.324Z" fill="white"/>
<path opacity="0.1" d="M90.6629 112.326C87.4889 108.261 86.4329 102.864 87.0449 102.804C85.6289 101.736 85.9559 107.082 90.6629 112.326Z" fill="black"/>
<path opacity="0.1" d="M86.2978 109.395C84.7588 108.267 85.9798 113.157 90.8279 116.058C87.1858 113.334 85.8958 109.563 86.2978 109.395Z" fill="black"/>
<path opacity="0.1" d="M94.0168 119.853C92.6488 119.184 90.9508 118.455 89.7388 117.636C88.2028 116.598 87.3118 115.512 87.3928 115.236C87.3778 115.234 87.3627 115.234 87.3478 115.236C87.3238 115.239 87.3005 115.246 87.2788 115.257L87.2398 115.287C87.2253 115.3 87.2122 115.314 87.2008 115.329C87.192 115.344 87.1849 115.36 87.1798 115.377L87.1618 115.437C87.1603 115.458 87.1603 115.479 87.1618 115.5C87.1618 115.527 87.1618 115.554 87.1618 115.584C87.1618 115.614 87.1618 115.629 87.1618 115.656C87.1694 115.692 87.1794 115.727 87.1918 115.761L87.2188 115.839C87.2373 115.885 87.2583 115.93 87.2818 115.974L87.3178 116.049C87.3598 116.121 87.4048 116.199 87.4588 116.277L87.4798 116.304C87.5306 116.381 87.5857 116.455 87.6448 116.526L87.7198 116.613L87.8728 116.787L87.9748 116.892C88.0288 116.946 88.0858 117.003 88.1488 117.06L88.2718 117.171C88.3348 117.228 88.4008 117.282 88.4698 117.339L88.6108 117.453L88.8418 117.627C88.8928 117.663 88.9408 117.699 88.9948 117.732C89.0488 117.765 89.1838 117.858 89.2948 117.921L89.4358 118.011C89.5858 118.101 89.7358 118.194 89.9128 118.281C91.2202 118.951 92.5962 119.478 94.0168 119.853Z" fill="black"/>
<path d="M91.9982 66.366L101.187 66.666C101.187 66.666 106.095 86.142 105.741 92.811C105.369 99.771 103.071 117.687 103.071 117.687C103.014 118.749 97.9712 118.482 98.0372 117.423C98.0372 117.423 97.7372 114.54 97.6382 113.253C97.2422 108.276 96.9272 106.614 96.5252 102.375C95.9912 96.753 96.5252 95.193 96.6272 93.012C96.6272 93.012 91.5422 80.529 89.4572 73.596C88.2332 69.537 91.2572 67.854 91.9982 66.366Z" fill="#FFA8A7"/>
<path d="M97.9743 119.922C98.2854 120.124 98.5444 120.397 98.73 120.718C98.9156 121.039 99.0226 121.4 99.0423 121.77C99.0423 122.448 98.5653 122.724 97.9743 122.385C97.664 122.182 97.4059 121.909 97.2209 121.588C97.0359 121.267 96.9291 120.907 96.9093 120.537C96.9003 119.859 97.3863 119.583 97.9743 119.922Z" fill="#455A64"/>
<path d="M97.974 120.6C98.1103 120.689 98.2238 120.809 98.3051 120.951C98.3864 121.092 98.4333 121.25 98.442 121.413C98.442 121.713 98.232 121.833 97.974 121.683C97.8376 121.594 97.7242 121.474 97.6429 121.332C97.5616 121.191 97.5147 121.033 97.506 120.87C97.5 120.6 97.716 120.465 97.974 120.6Z" fill="#37474F"/>
<path d="M45.657 98.811C45.2118 98.7244 44.8066 98.496 44.502 98.16C44.127 97.767 44.064 95.598 45.561 93.441C46.7175 91.8206 48.284 90.5367 50.1 89.721C51.228 89.175 51.882 88.266 52.611 87.192C53.34 86.118 54.765 84.996 55.479 85.035C56.193 85.074 57.192 85.935 57.192 85.935L45.657 98.811Z" fill="#37474F"/>
<path d="M58.9947 93.618L58.9767 93.747C58.9619 93.8884 58.9157 94.0247 58.8417 94.146C58.7414 94.2528 58.62 94.3375 58.4852 94.3948C58.3504 94.4522 58.2051 94.4808 58.0587 94.479C56.7867 94.632 55.5897 94.779 54.4287 95.346C53.3577 95.8883 52.3908 96.6155 51.5727 97.494C51.253 97.8536 50.9145 98.1961 50.5587 98.52C50.1597 98.856 49.7187 98.967 49.2777 99.216C48.9647 99.3838 48.6278 99.5022 48.2787 99.567C47.9901 99.6294 47.6943 99.6516 47.3997 99.633C46.7333 99.5975 46.107 99.3037 45.6537 98.814C45.4083 98.5481 45.2658 98.2035 45.2517 97.842C45.2097 96.705 45.9597 94.134 48.1197 92.121C49.2957 91.023 51.0147 91.032 52.5537 89.052C53.3337 88.05 55.1247 85.785 56.4537 85.533C57.0537 85.419 58.0557 86.379 58.4127 86.772C58.9497 87.372 59.5047 88.101 60.1467 88.572C60.3729 88.7114 60.5823 88.8765 60.7707 89.064C61.3707 89.778 60.1437 90.192 59.7777 90.621C59.0997 91.425 59.1327 92.631 58.9947 93.618Z" fill="#455A64"/>
<path d="M60.3958 89.4C65.5408 88.314 72.5578 85.659 77.7718 86.805C79.2718 78.681 81.1018 70.818 83.5978 63.264C86.9788 62.514 90.3328 61.824 93.7438 61.08C94.9438 66.003 95.6578 69.972 93.8458 75.057C91.9018 80.502 88.9228 86.967 86.4838 92.181C84.6358 96.132 82.2628 95.709 77.9428 95.574C72.8818 95.415 63.5758 94.557 59.2138 94.254C56.8288 94.419 57.7528 89.727 60.3958 89.4Z" fill="#FFA8A7"/>
<path opacity="0.2" d="M77.763 86.793C75.303 86.253 72.441 86.559 69.564 87.147C72.864 86.76 76.62 86.958 76.89 88.317C77.301 90.396 78.39 91.107 78.39 91.107C77.268 89.733 77.7 87.126 77.763 86.793Z" fill="black"/>
<path d="M47.28 93C47.28 93 48.648 93.321 50.259 94.701C50.716 95.057 51.0648 95.5333 51.2661 96.0765C51.4675 96.6196 51.5135 97.2081 51.399 97.776C51.399 97.776 50.199 99.951 47.841 99.774C45.921 99.63 45.252 98.691 45.252 98.691C45.252 98.691 44.748 97.566 45.456 95.814C45.8758 94.7666 46.4953 93.8108 47.28 93Z" fill="#FAFAFA"/>
<path d="M56.5079 90.474C56.5079 90.474 56.6669 89.682 58.4909 88.656C59.1905 88.2837 59.9667 88.0783 60.7589 88.056C61.6851 87.996 62.5854 87.7254 63.3913 87.2648C64.1971 86.8041 64.8871 86.1657 65.4089 85.398C67.2292 82.7654 69.4737 80.453 72.0509 78.555C75.3029 76.095 69.1679 76.359 63.7319 82.305C63.7319 82.305 63.7319 81.789 64.5629 80.247C65.0369 79.347 65.7449 78.474 66.2189 77.673C67.1879 76.029 62.4449 77.727 60.0359 82.839C60.0359 82.839 60.0599 80.937 60.4709 79.701C60.8819 78.465 58.9409 79.182 57.7319 82.149C57.0997 83.7808 56.6676 85.4832 56.4449 87.219C56.3266 88.0817 56.0059 88.9041 55.5089 89.619L55.0469 90.282L56.5079 90.474Z" fill="#455A64"/>
<path opacity="0.6" d="M56.5079 90.474C56.5079 90.474 56.6669 89.682 58.4909 88.656C59.1905 88.2837 59.9667 88.0783 60.7589 88.056C61.6851 87.996 62.5854 87.7254 63.3913 87.2648C64.1971 86.8041 64.8871 86.1657 65.4089 85.398C67.2292 82.7654 69.4737 80.453 72.0509 78.555C75.3029 76.095 69.1679 76.359 63.7319 82.305C63.7319 82.305 63.7319 81.789 64.5629 80.247C65.0369 79.347 65.7449 78.474 66.2189 77.673C67.1879 76.029 62.4449 77.727 60.0359 82.839C60.0359 82.839 60.0599 80.937 60.4709 79.701C60.8819 78.465 58.9409 79.182 57.7319 82.149C57.0997 83.7808 56.6676 85.4832 56.4449 87.219C56.3266 88.0817 56.0059 88.9041 55.5089 89.619L55.0469 90.282L56.5079 90.474Z" fill="white"/>
<path opacity="0.1" d="M63.7319 82.296C67.4639 78.735 72.7319 77.154 72.8519 77.754C73.7759 76.242 68.4869 77.1 63.7319 82.296Z" fill="black"/>
<path opacity="0.1" d="M66.2186 77.664C67.1876 76.02 62.4446 77.718 60.0356 82.83C62.3996 78.936 65.9996 77.28 66.2186 77.664Z" fill="black"/>
<path opacity="0.1" d="M56.5737 86.376C57.1047 84.951 57.6627 83.187 58.3587 81.9C59.2407 80.268 60.2337 79.278 60.5217 79.326C60.5186 79.3124 60.5135 79.2992 60.5067 79.287C60.502 79.2626 60.4928 79.2392 60.4797 79.218C60.4711 79.2048 60.4599 79.1936 60.4467 79.185C60.4339 79.1705 60.4187 79.1584 60.4017 79.149C60.3854 79.1412 60.3683 79.1352 60.3507 79.131C60.3299 79.1276 60.3086 79.1276 60.2877 79.131H60.2247L60.1437 79.146L60.0717 79.164L59.9727 79.206L59.8947 79.242L59.7687 79.317L59.6967 79.359C59.6277 79.407 59.5587 79.461 59.4837 79.521C59.475 79.5282 59.467 79.5363 59.4597 79.545C59.3937 79.602 59.3247 79.662 59.2557 79.731L59.1747 79.812C59.1237 79.869 59.0697 79.923 59.0157 79.986C58.9617 80.049 58.9557 80.058 58.9257 80.097L58.7727 80.286L58.6737 80.418L58.5267 80.631L58.4277 80.784C58.3767 80.862 58.3287 80.946 58.2777 81.033L58.1877 81.192C58.1337 81.291 58.0797 81.393 58.0287 81.492C58.0017 81.543 57.9777 81.591 57.9537 81.642C57.8757 81.801 57.8007 81.969 57.7317 82.143C57.1952 83.5084 56.8069 84.9276 56.5737 86.376Z" fill="black"/>
<path d="M54.8281 89.955C55.0145 89.6322 55.2749 89.3584 55.5878 89.156C55.9008 88.9536 56.2573 88.8285 56.6281 88.791C57.3091 88.755 57.6091 89.217 57.3001 89.823C57.1134 90.1454 56.8529 90.419 56.5401 90.6214C56.2272 90.8237 55.8708 90.949 55.5001 90.987C54.8191 91.023 54.5191 90.561 54.8281 89.955Z" fill="#455A64"/>
<path d="M55.5147 89.916C55.5974 89.7761 55.7115 89.6572 55.8478 89.5688C55.9842 89.4803 56.1392 89.4246 56.3007 89.406C56.6007 89.406 56.7327 89.595 56.6007 89.859C56.5194 89.9999 56.4063 90.1197 56.2703 90.2088C56.1343 90.2979 55.9792 90.3538 55.8177 90.372C55.4997 90.387 55.3797 90.183 55.5147 89.916Z" fill="#37474F"/>
<path d="M81.8997 65.676C80.8906 68.6403 80.0493 71.6591 79.3797 74.718C78.4107 79.323 77.2617 85.272 77.2617 85.272C77.2617 85.272 79.5747 89.859 87.9087 89.754L92.2317 81.987L95.4627 90.525C95.4627 90.525 101.994 91.275 105.759 87.378C105.699 86.886 102.585 70.923 101.445 66.441L81.8997 65.676Z" fill="#455A64"/>
<path opacity="0.15" d="M92.2319 81.987L95.0009 76.887C96.1028 76.6616 97.1534 76.2344 98.0999 75.627C98.0999 75.627 97.5659 76.845 95.7749 77.811C95.6129 78.084 93.4829 82.341 93.4829 82.341L95.4749 90.525L92.2319 81.987Z" fill="#263238"/>
<path d="M80.8081 57.615C80.8081 57.615 86.0731 54.729 88.2001 51.6L89.8921 53.457C89.8921 53.457 85.8931 58.185 81.5101 59.874L80.8081 57.615Z" fill="#455A64"/>
<path opacity="0.3" d="M80.8081 57.615C80.8081 57.615 86.0731 54.729 88.2001 51.6L89.8921 53.457C89.8921 53.457 85.8931 58.185 81.5101 59.874L80.8081 57.615Z" fill="black"/>
<path d="M55.3892 68.055C55.6532 66.255 56.8892 65.355 60.4892 61.8C64.0892 58.245 66.9392 55.923 70.2932 55.878C73.6472 55.833 80.2952 56.502 80.8082 57.615C81.3212 58.728 70.2932 69.807 70.2932 69.807L55.3892 68.055Z" fill="#455A64"/>
<path opacity="0.2" d="M55.3892 68.055C55.6532 66.255 56.8892 65.355 60.4892 61.8C64.0892 58.245 66.9392 55.923 70.2932 55.878C73.6472 55.833 80.2952 56.502 80.8082 57.615C81.3212 58.728 70.2932 69.807 70.2932 69.807L55.3892 68.055Z" fill="black"/>
<path d="M70.293 69.807L81.501 59.859L80.808 57.615L69.459 67.893L70.293 69.807Z" fill="#455A64"/>
<path opacity="0.4" d="M70.293 69.807L81.501 59.859L80.808 57.615L69.459 67.893L70.293 69.807Z" fill="black"/>
<path d="M81.5007 59.859C81.5967 59.772 81.6597 58.908 81.6897 58.758C81.8474 57.992 81.8738 57.2048 81.7677 56.43C81.66 55.6104 81.3006 54.8444 80.7391 54.2377C80.1776 53.631 79.4416 53.2136 78.6327 53.043C78.4105 52.9727 78.1756 52.9519 77.9445 52.982C77.7133 53.012 77.4916 53.0922 77.2947 53.217C76.8507 53.565 76.8027 54.204 76.6707 54.753C76.3257 56.175 75.2157 57.294 73.9917 58.092C72.7677 58.89 71.3967 59.439 70.1427 60.192C69.3687 60.6649 68.6307 61.1943 67.9347 61.776C67.6026 62.0173 67.323 62.3235 67.1127 62.676C67.0094 62.8524 66.9569 63.054 66.9612 63.2584C66.9654 63.4628 67.0262 63.662 67.1367 63.834C67.3018 64.0144 67.4979 64.1638 67.7157 64.275C68.8917 65.007 70.0377 66.501 69.4587 67.899L70.2927 69.813L81.5007 59.859Z" fill="#455A64"/>
<path opacity="0.4" d="M81.5007 59.859C81.5967 59.772 81.6597 58.908 81.6897 58.758C81.8474 57.992 81.8738 57.2048 81.7677 56.43C81.66 55.6104 81.3006 54.8444 80.7391 54.2377C80.1776 53.631 79.4416 53.2136 78.6327 53.043C78.4105 52.9727 78.1756 52.9519 77.9445 52.982C77.7133 53.012 77.4916 53.0922 77.2947 53.217C76.8507 53.565 76.8027 54.204 76.6707 54.753C76.3257 56.175 75.2157 57.294 73.9917 58.092C72.7677 58.89 71.3967 59.439 70.1427 60.192C69.3687 60.6649 68.6307 61.1943 67.9347 61.776C67.6026 62.0173 67.323 62.3235 67.1127 62.676C67.0094 62.8524 66.9569 63.054 66.9612 63.2584C66.9654 63.4628 67.0262 63.662 67.1367 63.834C67.3018 64.0144 67.4979 64.1638 67.7157 64.275C68.8917 65.007 70.0377 66.501 69.4587 67.899L70.2927 69.813L81.5007 59.859Z" fill="black"/>
<path d="M70.2933 69.807C67.4463 71.445 64.2693 73.929 61.5933 73.464C58.9173 72.999 53.8443 68.382 55.8093 67.53C57.7743 66.678 69.4473 67.893 69.4473 67.893L70.2933 69.807Z" fill="#455A64"/>
<path opacity="0.4" d="M70.2933 69.807C67.4463 71.445 64.2693 73.929 61.5933 73.464C58.9173 72.999 53.8443 68.382 55.8093 67.53C57.7743 66.678 69.4473 67.893 69.4473 67.893L70.2933 69.807Z" fill="black"/>
<path d="M106.2 64.245C107.91 64.752 110.451 65.355 112.368 65.745C117.15 66.738 119.268 66.567 120.516 64.89C122.523 62.211 121.488 61.512 118.866 61.59C117.768 61.6369 116.67 61.5299 115.602 61.272C116.13 61.1206 116.635 60.8964 117.102 60.606C117.828 60.084 117.747 59.406 117.582 59.121C117.453 58.908 116.946 59.268 115.944 59.379C114.663 59.52 113.895 59.214 112.59 59.706C112.104 59.886 111.165 60.099 109.506 59.679C107.565 59.184 100.752 55.683 100.752 55.683L98.4058 61.983C98.4058 61.983 103.638 63.483 106.2 64.245Z" fill="#FFA8A7"/>
<path d="M98.1001 39.738C100.326 39.603 103.26 40.737 103.986 43.389C104.82 46.431 102.357 53.916 102.357 53.916L98.1001 39.738Z" fill="#FFA8A7"/>
<path d="M99.0601 39.726C99.7874 39.6448 100.524 39.7309 101.213 39.9779C101.902 40.2249 102.525 40.6261 103.035 41.151C104.907 42.969 104.271 45.789 104.145 47.364C104.019 48.939 102.513 54.231 102.513 54.231L99.0601 39.726Z" fill="#E0E0E0"/>
<path d="M85.4998 39.651C84.2098 40.071 82.8808 41.364 83.1478 46.035C83.4298 51 83.5228 59.358 83.5228 59.358C83.4598 60.885 82.6408 62.826 81.9028 65.676C84.4108 69.03 98.2228 69.693 101.448 66.441C101.448 66.441 103.38 54.687 103.041 47.661C102.831 43.392 102.141 40.242 98.0908 39.738L90.9988 39.27C90.9988 39.27 86.8048 39.228 85.4998 39.651Z" fill="#F0F0F0"/>
<path d="M89.1001 30.669C89.1001 30.669 89.9281 34.968 90.2791 35.679C90.5144 36.1183 90.9097 36.4502 91.3831 36.606V33.606L89.1001 30.669Z" fill="#263238"/>
<path d="M90.3629 24.558C90.0451 24.5138 89.7214 24.543 89.4166 24.6434C89.1119 24.7437 88.8342 24.9126 88.6049 25.137C87.8399 25.89 88.1999 28.299 89.0999 30.669L90.8129 30.9L90.3629 24.558Z" fill="#263238"/>
<path d="M91.3288 30.9C90.9808 31.098 90.5039 30.426 90.0869 29.976C89.6699 29.526 88.2868 28.89 87.5788 30.333C86.8708 31.776 88.1219 33.789 89.2049 34.155C91.0739 34.779 91.3799 33.579 91.3799 33.579V40.365C92.1749 41.286 95.3189 44.502 96.7799 44.454C98.2409 44.406 98.0128 41.091 97.5058 40.302L97.5389 38.238C97.5389 38.238 99.2369 38.538 100.071 38.418C101.457 38.232 102.348 37.158 102.798 35.667C103.518 33.267 103.812 31.341 103.332 26.601C102.804 21.408 96.7768 21.237 93.4828 23.223C90.1888 25.209 91.3288 30.9 91.3288 30.9Z" fill="#FFA8A7"/>
<path d="M91.3197 31.5C91.1457 31.5 90.5067 30.393 90.0867 30C89.5077 29.451 90.3507 24.645 90.3627 24.57C90.3747 24.495 90.2697 24.213 90.2697 24.078C90.272 23.8113 90.3218 23.5472 90.4167 23.298C90.612 22.7879 90.9429 22.3408 91.3737 22.005C92.1186 21.4744 92.9776 21.1261 93.8817 20.988C94.8357 20.8101 95.7994 20.6889 96.7677 20.625C97.9805 20.4863 99.2066 20.5115 100.413 20.7C100.796 20.7669 101.169 20.8818 101.523 21.042C101.869 21.214 102.193 21.4265 102.489 21.675C103.071 22.1514 103.481 22.8059 103.656 23.538C103.851 24.246 103.26 24.582 102.645 24.768C102.645 24.768 102 25.32 99.7917 25.545C97.5837 25.77 94.1607 25.383 93.6927 25.311C93.0567 25.212 92.9067 25.827 92.5317 27.513C92.1987 28.98 91.9017 31.5 91.3197 31.5Z" fill="#263238"/>
<path d="M97.5479 38.25C97.5479 38.25 94.4729 37.569 93.4049 36.975C92.7778 36.6328 92.2678 36.1102 91.9409 35.475C92.0925 36.1097 92.37 36.7075 92.7569 37.233C93.5249 38.259 97.5389 38.814 97.5389 38.814L97.5479 38.25Z" fill="#F28F8F"/>
<path d="M96.96 30.249C96.9604 30.3317 96.9443 30.4137 96.9128 30.4901C96.8812 30.5666 96.8348 30.636 96.7762 30.6943C96.7175 30.7527 96.6479 30.7988 96.5713 30.83C96.4947 30.8611 96.4127 30.8768 96.33 30.876C96.1637 30.8674 96.0074 30.7937 95.8951 30.6707C95.7828 30.5477 95.7234 30.3854 95.73 30.219C95.7319 30.1378 95.7499 30.0579 95.7828 29.9836C95.8156 29.9094 95.8628 29.8424 95.9216 29.7864C95.9804 29.7304 96.0496 29.6865 96.1253 29.6573C96.2011 29.6281 96.2818 29.614 96.363 29.616C96.4441 29.618 96.5241 29.6359 96.5983 29.6688C96.6726 29.7017 96.7396 29.7488 96.7956 29.8076C96.8516 29.8664 96.8954 29.9356 96.9247 30.0114C96.9539 30.0871 96.968 30.1678 96.966 30.249H96.96Z" fill="#263238"/>
<path d="M95.8111 28.2L94.4731 28.905C94.3863 28.7232 94.3717 28.5151 94.4324 28.323C94.4931 28.1309 94.6245 27.969 94.8001 27.87C94.8876 27.8229 94.9838 27.7941 95.0829 27.7853C95.1819 27.7764 95.2817 27.7878 95.3762 27.8186C95.4707 27.8495 95.558 27.8992 95.6327 27.9647C95.7075 28.0303 95.7681 28.1103 95.8111 28.2Z" fill="#263238"/>
<path d="M97.3411 34.53L98.7421 35.088C98.7097 35.1823 98.6586 35.2691 98.5917 35.3432C98.5249 35.4172 98.4437 35.4769 98.3532 35.5187C98.2626 35.5604 98.1645 35.5834 98.0648 35.5862C97.9651 35.589 97.8659 35.5716 97.7731 35.535C97.5852 35.4558 97.4352 35.3069 97.3547 35.1195C97.2741 34.9322 97.2693 34.7209 97.3411 34.53Z" fill="#F28F8F"/>
<path d="M102.879 28.911L101.679 27.957C101.738 27.8768 101.812 27.8092 101.897 27.7584C101.982 27.7076 102.077 27.6747 102.176 27.6615C102.274 27.6483 102.374 27.6552 102.47 27.6818C102.565 27.7083 102.655 27.754 102.732 27.816C102.892 27.9452 102.996 28.1306 103.024 28.3342C103.051 28.5379 102.999 28.7443 102.879 28.911Z" fill="#263238"/>
<path d="M102.108 30.171C102.1 30.292 102.057 30.4081 101.984 30.5048C101.911 30.6015 101.811 30.6745 101.696 30.7147C101.582 30.755 101.458 30.7607 101.34 30.7311C101.223 30.7016 101.116 30.6381 101.035 30.5485C100.953 30.459 100.899 30.3473 100.881 30.2275C100.862 30.1077 100.879 29.985 100.929 29.8748C100.979 29.7645 101.061 29.6715 101.164 29.6073C101.267 29.5432 101.387 29.5107 101.508 29.514C101.674 29.5218 101.831 29.5953 101.944 29.7185C102.056 29.8416 102.115 30.0044 102.108 30.171Z" fill="#263238"/>
<path d="M99.0601 29.616V33.369L101.289 32.922L99.0601 29.616Z" fill="#F28F8F"/>
<path d="M97.878 39.723C97.878 39.723 101.961 44.997 97.608 54.93C93.255 64.863 79.662 68.13 69.459 67.893L70.293 69.807C70.293 69.807 86.427 70.452 94.593 62.844C101.493 56.427 104.028 46.71 100.197 39.966C100.2 39.966 99.342 39.45 97.878 39.723Z" fill="#455A64"/>
<path opacity="0.3" d="M97.878 39.723C97.878 39.723 101.961 44.997 97.608 54.93C93.255 64.863 79.662 68.13 69.459 67.893L70.293 69.807C70.293 69.807 86.427 70.452 94.593 62.844C101.493 56.427 104.028 46.71 100.197 39.966C100.2 39.966 99.342 39.45 97.878 39.723Z" fill="black"/>
<path d="M78.8698 69.099C78.1163 68.3001 77.4772 67.4006 76.9708 66.426C77.4304 66.7238 77.9292 66.9561 78.4529 67.116C79.3199 67.323 79.7879 66.816 79.8869 66.516C79.9649 66.279 79.3619 66.135 78.6209 65.448C77.6729 64.572 77.5679 63.87 76.5628 62.901C76.1878 62.538 75.6838 62.271 75.5668 61.764C74.8948 58.863 74.6188 55.308 74.3098 52.164L83.2858 49.116C83.2858 49.116 85.2538 48.546 87.1078 46.47C89.1748 44.157 89.8918 41.346 87.8788 39.342C86.9549 39.1565 85.9984 39.2197 85.1068 39.525C83.2288 40.218 81.7379 40.899 78.7709 42.294C76.1849 43.512 69.0868 46.578 67.7608 48.504C67.2178 49.299 67.4458 51.171 68.4028 55.227C68.8378 57.222 69.3898 59.457 69.9658 61.863C70.421 63.7533 70.9921 65.6139 71.6758 67.434C73.5388 71.934 75.3688 72.654 77.4628 72.507C80.8018 72.267 80.6518 71.025 78.8698 69.099Z" fill="#FFA8A7"/>
<path d="M89.1001 39.27C89.1001 39.27 86.2021 38.808 84.0811 39.726C80.7121 41.187 73.4551 44.55 73.4551 44.55C73.4551 44.55 73.0411 46.26 73.8691 48.687C74.6971 51.114 75.8221 52.047 75.8221 52.047C75.8221 52.047 83.6221 49.509 85.2991 48.687C86.9761 47.865 90.6331 44.1 89.1001 39.27Z" fill="#E0E0E0"/>
<path d="M92.8018 27.3C92.8018 27.3 97.3018 30.135 102.222 28.68C107.418 27.138 103.557 24.264 103.557 24.264L92.8018 27.3Z" fill="#37474F"/>
<path d="M105.162 20.604C103.59 18.96 97.9318 17.529 92.9458 19.137C87.9598 20.745 86.9458 22.842 86.9458 22.842C89.0922 23.9256 91.5197 24.3235 93.8998 23.982C97.9288 23.415 105.162 20.604 105.162 20.604Z" fill="#455A64"/>
<path opacity="0.4" d="M105.162 20.604C103.59 18.96 97.9318 17.529 92.9458 19.137C87.9598 20.745 86.9458 22.842 86.9458 22.842C89.0922 23.9256 91.5197 24.3235 93.8998 23.982C97.9288 23.415 105.162 20.604 105.162 20.604Z" fill="white"/>
<path d="M87.7168 24.384C87.3831 23.9121 87.1231 23.3921 86.9458 22.842C86.9458 22.842 87.5938 23.37 90.9898 22.542C94.2148 21.765 97.4578 19.578 101.07 19.113C104.682 18.648 105.162 20.595 105.162 20.595C105.162 20.595 105.273 22.014 103.839 23.49C103.839 23.49 102.417 25.818 98.1748 26.286C93.9328 26.754 87.7168 24.384 87.7168 24.384Z" fill="#455A64"/>
<path d="M99.5279 22.596C99.6119 23.586 100.347 24.222 101.169 24.018C101.991 23.814 102.588 22.848 102.504 21.858C102.42 20.868 101.685 20.232 100.863 20.436C100.041 20.64 99.4439 21.6 99.5279 22.596Z" fill="#F5F5F5"/>
<path d="M87.7173 24.384L87.8223 25.062C87.8853 25.479 87.9513 25.83 88.1823 26.028C91.3286 27.341 94.7772 27.7563 98.1453 27.228C101.145 26.748 102.567 26.028 103.17 25.488C103.773 24.948 103.851 24.57 103.848 24.153V23.496C103.848 23.496 102.771 24.72 97.8483 25.554C92.9253 26.388 87.7173 24.384 87.7173 24.384Z" fill="#455A64"/>
<path d="M89.4717 25.932C89.4717 25.932 88.9977 25.932 88.1697 25.032C87.8634 24.6873 87.6406 24.2767 87.5188 23.832C87.3601 23.312 87.085 22.8351 86.7144 22.4374C86.3437 22.0397 85.8873 21.7318 85.3798 21.537C83.632 20.8533 82.01 19.8841 80.5798 18.669C78.7438 17.145 79.7158 20.607 83.8348 22.908C83.8348 22.908 83.5348 22.971 82.5478 22.71C81.9748 22.56 81.3808 22.272 80.8588 22.11C79.7938 21.777 81.3957 24.255 84.6327 24.942C84.0263 25.0763 83.4056 25.1347 82.7848 25.116C82.0288 25.044 82.6947 26.058 84.5487 26.349C85.5629 26.489 86.5902 26.5071 87.6087 26.403C88.1183 26.3534 88.6324 26.4254 89.1087 26.613L89.5527 26.79L89.4717 25.932Z" fill="#455A64"/>
<path opacity="0.6" d="M89.4717 25.932C89.4717 25.932 88.9977 25.932 88.1697 25.032C87.8634 24.6873 87.6406 24.2767 87.5188 23.832C87.3601 23.312 87.085 22.8351 86.7144 22.4374C86.3437 22.0397 85.8873 21.7318 85.3798 21.537C83.632 20.8533 82.01 19.8841 80.5798 18.669C78.7438 17.145 79.7158 20.607 83.8348 22.908C83.8348 22.908 83.5348 22.971 82.5478 22.71C81.9748 22.56 81.3808 22.272 80.8588 22.11C79.7938 21.777 81.3957 24.255 84.6327 24.942C84.0263 25.0763 83.4056 25.1347 82.7848 25.116C82.0288 25.044 82.6947 26.058 84.5487 26.349C85.5629 26.489 86.5902 26.5071 87.6087 26.403C88.1183 26.3534 88.6324 26.4254 89.1087 26.613L89.5527 26.79L89.4717 25.932Z" fill="white"/>
<path opacity="0.1" d="M83.8442 22.911C81.3122 21.261 79.7042 18.471 80.0312 18.321C79.0442 18 80.2412 20.898 83.8442 22.911Z" fill="black"/>
<path opacity="0.1" d="M80.8677 22.113C79.8027 21.78 81.4047 24.258 84.6417 24.945C82.1067 24.126 80.6757 22.284 80.8677 22.113Z" fill="black"/>
<path opacity="0.1" d="M87.1291 26.445C86.1902 26.3636 85.2574 26.2234 84.3361 26.025C83.2891 25.743 82.5901 25.308 82.5811 25.125H82.5571L82.5241 25.149C82.5158 25.1545 82.5092 25.1621 82.505 25.1711C82.5007 25.1801 82.4991 25.1901 82.5001 25.2C82.4991 25.21 82.4991 25.22 82.5001 25.23C82.4987 25.2399 82.4987 25.2501 82.5001 25.26C82.4987 25.273 82.4987 25.286 82.5001 25.299V25.335C82.5072 25.3496 82.5132 25.3646 82.5181 25.38L82.5391 25.416L82.5751 25.47L82.6081 25.509L82.6681 25.569L82.7011 25.605C82.7393 25.6402 82.7793 25.6732 82.8211 25.704H82.8391C82.8781 25.734 82.9231 25.764 82.9711 25.794L83.0281 25.83L83.1481 25.896L83.2231 25.935L83.3521 25.995L83.4421 26.034L83.5831 26.091L83.6821 26.124L83.8441 26.178L83.9491 26.208L84.1441 26.259L84.2401 26.28C84.3391 26.304 84.4441 26.322 84.5551 26.34C85.407 26.4662 86.2698 26.5014 87.1291 26.445Z" fill="black"/>
<path d="M89.7481 25.125C90.0585 25.327 90.317 25.5994 90.5025 25.9199C90.6881 26.2405 90.7955 26.6002 90.8161 26.97C90.8161 27.651 90.3391 27.927 89.7481 27.588C89.438 27.3851 89.1801 27.1122 88.995 26.7911C88.81 26.4701 88.7032 26.11 88.6831 25.74C88.6831 25.059 89.1601 24.786 89.7481 25.125Z" fill="#455A64"/>
<path opacity="0.3" d="M89.7481 25.125C90.0585 25.327 90.317 25.5994 90.5025 25.9199C90.6881 26.2405 90.7955 26.6002 90.8161 26.97C90.8161 27.651 90.3391 27.927 89.7481 27.588C89.438 27.3851 89.1801 27.1122 88.995 26.7911C88.81 26.4701 88.7032 26.11 88.6831 25.74C88.6831 25.059 89.1601 24.786 89.7481 25.125Z" fill="black"/>
<path d="M89.7478 25.815C89.8837 25.904 89.9969 26.0236 90.0782 26.1643C90.1595 26.305 90.2066 26.4628 90.2158 26.625C90.2158 26.925 90.0058 27.045 89.7478 26.895C89.6133 26.808 89.5009 26.6909 89.4197 26.5529C89.3384 26.4149 89.2905 26.2598 89.2798 26.1C89.2798 25.8 89.4898 25.665 89.7478 25.815Z" fill="#263238"/>
</svg>
