<svg width="150" height="150" viewBox="0 0 150 150" fill="none" xmlns="http://www.w3.org/2000/svg">
<path d="M134.58 27.696C134.58 27.696 125.862 10.248 106.614 7.662C87.3661 5.076 73.9141 17.679 59.7631 24.144C52.3441 27.528 43.8631 26.214 35.9971 27.852C10.8181 33.09 1.33212 65.907 11.8201 84.573C20.9011 100.728 36.8821 109.131 61.2151 111.069C85.5481 113.007 102.615 115.269 124.41 99.438C146.205 83.607 144.747 50.64 134.58 27.696Z" fill="#A6A6A6"/>
<path opacity="0.7" d="M134.58 27.696C134.58 27.696 125.862 10.248 106.614 7.662C87.3661 5.076 73.9141 17.679 59.7631 24.144C52.3441 27.528 43.8631 26.214 35.9971 27.852C10.8181 33.09 1.33212 65.907 11.8201 84.573C20.9011 100.728 36.8821 109.131 61.2151 111.069C85.5481 113.007 102.615 115.269 124.41 99.438C146.205 83.607 144.747 50.64 134.58 27.696Z" fill="white"/>
<path d="M130.965 119.721C130.965 119.721 124.365 109.665 125.361 107.358C126.357 105.051 129.81 109.005 129.81 109.005C129.81 109.005 124.71 95.49 128.163 92.523C131.616 89.556 132.777 104.721 132.777 104.721C132.777 104.721 135.9 96 138.384 99.282C140.868 102.564 134.592 109.5 134.592 109.5C134.592 109.5 138.876 109.665 137.724 112.467C136.572 115.269 133.437 118.236 133.437 118.236L130.965 119.721Z" fill="#A6A6A6"/>
<path d="M129.153 117.411C129.153 117.411 125.196 111.807 127.173 110.655C129.15 109.503 130.14 112.962 130.14 112.962C130.14 112.962 130.305 97.797 133.44 98.952C136.575 100.107 135.42 109.335 135.42 109.335C135.42 109.335 139.374 106.698 139.209 110.49C139.044 114.282 133.77 117.576 133.77 117.576" stroke="#263238" stroke-linecap="round" stroke-linejoin="round"/>
<path d="M132.777 117.741L129.318 113.952" stroke="#263238" stroke-linecap="round" stroke-linejoin="round"/>
<path d="M132.942 119.556L132.777 110.16" stroke="#263238" stroke-linecap="round" stroke-linejoin="round"/>
<path d="M133.107 116.424L136.239 112.302" stroke="#263238" stroke-linecap="round" stroke-linejoin="round"/>
<path d="M135.909 116.754H127.173L128.049 124.5H135.036L135.909 116.754Z" fill="#263238" stroke="#263238" stroke-linecap="round" stroke-linejoin="round"/>
<path d="M110.484 29.661H85.4849V63.228H110.484V29.661Z" stroke="#263238" stroke-linecap="round" stroke-linejoin="round"/>
<path d="M108.086 32.874H87.8755V60.015H108.086V32.874Z" stroke="#263238" stroke-linecap="round" stroke-linejoin="round"/>
<path d="M132.225 48.333H112.869V74.322H132.225V48.333Z" stroke="#263238" stroke-linecap="round" stroke-linejoin="round"/>
<path d="M130.368 50.823H114.72V71.835H130.368V50.823Z" stroke="#263238" stroke-linecap="round" stroke-linejoin="round"/>
<path d="M123.654 94.737H87.042V97.86H123.654V94.737Z" stroke="#263238" stroke-linecap="round" stroke-linejoin="round"/>
<path d="M121.956 97.899H88.7397V124.5H121.956V97.899Z" stroke="#263238" stroke-linecap="round" stroke-linejoin="round"/>
<path d="M120.762 99.633H89.8979V107.721H120.762V99.633Z" stroke="#263238" stroke-linecap="round" stroke-linejoin="round"/>
<path d="M106.821 102.933H103.734V104.424H106.821V102.933Z" stroke="#263238" stroke-linecap="round" stroke-linejoin="round"/>
<path d="M120.762 109.851H89.8979V117.939H120.762V109.851Z" stroke="#263238" stroke-linecap="round" stroke-linejoin="round"/>
<path d="M106.821 113.148H103.734V114.639H106.821V113.148Z" stroke="#263238" stroke-linecap="round" stroke-linejoin="round"/>
<path d="M106.5 73.122H91.1763V88.164H106.5V73.122Z" fill="#263238" stroke="#263238" stroke-linecap="round" stroke-linejoin="round"/>
<path d="M99.8313 93.993V87.594H97.8453V93.993H95.0073V94.689H97.8453H99.8313H102.669V93.993H99.8313Z" stroke="#263238" stroke-linecap="round" stroke-linejoin="round"/>
<path d="M92.1328 73.665V87.288" stroke="#5C5C5C" stroke-linecap="round" stroke-linejoin="round"/>
<path d="M94.686 73.665V87.288" stroke="#5C5C5C" stroke-linecap="round" stroke-linejoin="round"/>
<path d="M98.8379 73.665V87.288" stroke="#5C5C5C" stroke-linecap="round" stroke-linejoin="round"/>
<path d="M103.734 73.665V87.288" stroke="#5C5C5C" stroke-linecap="round" stroke-linejoin="round"/>
<path d="M67.7821 22.359H18.9331V124.5H67.7821V22.359Z" stroke="#263238" stroke-linecap="round" stroke-linejoin="round"/>
<path d="M41.139 27.189H23.376V53.835H41.139V27.189Z" stroke="#263238" stroke-linecap="round" stroke-linejoin="round"/>
<path d="M38.5862 31.017H25.9292V50.004H38.5862V31.017Z" stroke="#263238" stroke-linecap="round" stroke-linejoin="round"/>
<path d="M25.929 31.017L23.376 27.189" stroke="#263238" stroke-linecap="round" stroke-linejoin="round"/>
<path d="M38.5864 31.017L41.1394 27.189" stroke="#263238" stroke-linecap="round" stroke-linejoin="round"/>
<path d="M38.5864 50.004L41.1394 53.832" stroke="#263238" stroke-linecap="round" stroke-linejoin="round"/>
<path d="M25.929 50.004L23.376 53.832" stroke="#263238" stroke-linecap="round" stroke-linejoin="round"/>
<path d="M62.4871 27.189H44.7241V53.835H62.4871V27.189Z" stroke="#263238" stroke-linecap="round" stroke-linejoin="round"/>
<path d="M59.9343 31.017H47.2773V50.004H59.9343V31.017Z" stroke="#263238" stroke-linecap="round" stroke-linejoin="round"/>
<path d="M47.2771 31.017L44.7241 27.189" stroke="#263238" stroke-linecap="round" stroke-linejoin="round"/>
<path d="M59.9341 31.017L62.4871 27.189" stroke="#263238" stroke-linecap="round" stroke-linejoin="round"/>
<path d="M59.9341 50.004L62.4871 53.832" stroke="#263238" stroke-linecap="round" stroke-linejoin="round"/>
<path d="M47.2771 50.004L44.7241 53.832" stroke="#263238" stroke-linecap="round" stroke-linejoin="round"/>
<path d="M41.139 60.702H23.376V87.348H41.139V60.702Z" stroke="#263238" stroke-linecap="round" stroke-linejoin="round"/>
<path d="M38.5862 64.533H25.9292V83.52H38.5862V64.533Z" stroke="#263238" stroke-linecap="round" stroke-linejoin="round"/>
<path d="M25.929 64.533L23.376 60.702" stroke="#263238" stroke-linecap="round" stroke-linejoin="round"/>
<path d="M38.5864 64.533L41.1394 60.702" stroke="#263238" stroke-linecap="round" stroke-linejoin="round"/>
<path d="M38.5864 83.52L41.1394 87.348" stroke="#263238" stroke-linecap="round" stroke-linejoin="round"/>
<path d="M25.929 83.52L23.376 87.348" stroke="#263238" stroke-linecap="round" stroke-linejoin="round"/>
<path d="M62.4871 60.702H44.7241V87.348H62.4871V60.702Z" stroke="#263238" stroke-linecap="round" stroke-linejoin="round"/>
<path d="M59.9343 64.533H47.2773V83.52H59.9343V64.533Z" stroke="#263238" stroke-linecap="round" stroke-linejoin="round"/>
<path d="M47.2771 64.533L44.7241 60.702" stroke="#263238" stroke-linecap="round" stroke-linejoin="round"/>
<path d="M59.9341 64.533L62.4871 60.702" stroke="#263238" stroke-linecap="round" stroke-linejoin="round"/>
<path d="M59.9341 83.52L62.4871 87.348" stroke="#263238" stroke-linecap="round" stroke-linejoin="round"/>
<path d="M47.2771 83.52L44.7241 87.348" stroke="#263238" stroke-linecap="round" stroke-linejoin="round"/>
<path d="M41.139 94.728H23.376V121.374H41.139V94.728Z" stroke="#263238" stroke-linecap="round" stroke-linejoin="round"/>
<path d="M38.5862 98.556H25.9292V117.543H38.5862V98.556Z" stroke="#263238" stroke-linecap="round" stroke-linejoin="round"/>
<path d="M25.929 98.556L23.376 94.728" stroke="#263238" stroke-linecap="round" stroke-linejoin="round"/>
<path d="M38.5864 98.556L41.1394 94.728" stroke="#263238" stroke-linecap="round" stroke-linejoin="round"/>
<path d="M38.5864 117.543L41.1394 121.374" stroke="#263238" stroke-linecap="round" stroke-linejoin="round"/>
<path d="M25.929 117.543L23.376 121.374" stroke="#263238" stroke-linecap="round" stroke-linejoin="round"/>
<path d="M62.4871 94.728H44.7241V121.374H62.4871V94.728Z" stroke="#263238" stroke-linecap="round" stroke-linejoin="round"/>
<path d="M59.9343 98.556H47.2773V117.543H59.9343V98.556Z" stroke="#263238" stroke-linecap="round" stroke-linejoin="round"/>
<path d="M47.2771 98.556L44.7241 94.728" stroke="#263238" stroke-linecap="round" stroke-linejoin="round"/>
<path d="M59.9341 98.556L62.4871 94.728" stroke="#263238" stroke-linecap="round" stroke-linejoin="round"/>
<path d="M59.9341 117.543L62.4871 121.374" stroke="#263238" stroke-linecap="round" stroke-linejoin="round"/>
<path d="M47.2771 117.543L44.7241 121.374" stroke="#263238" stroke-linecap="round" stroke-linejoin="round"/>
<path d="M66.3 74.61C66.3006 74.2628 66.1982 73.9232 66.0057 73.6341C65.8133 73.3451 65.5394 73.1197 65.2187 72.9864C64.8981 72.8532 64.5451 72.818 64.2045 72.8853C63.8639 72.9527 63.5509 73.1196 63.3051 73.365C63.0594 73.6103 62.8919 73.923 62.824 74.2635C62.756 74.604 62.7906 74.957 62.9233 75.2779C63.0561 75.5988 63.281 75.873 63.5697 76.066C63.8584 76.259 64.1978 76.362 64.545 76.362C65.01 76.362 65.4559 76.1775 65.785 75.849C66.114 75.5205 66.2993 75.0749 66.3 74.61V74.61Z" stroke="#263238" stroke-linecap="round" stroke-linejoin="round"/>
<path d="M140.262 124.5H141.9" stroke="#263238" stroke-linecap="round" stroke-linejoin="round"/>
<path d="M11.7002 124.5H139.092" stroke="#263238" stroke-linecap="round" stroke-linejoin="round"/>
<path d="M67.0198 141.9C81.3168 141.9 92.9068 139.234 92.9068 135.945C92.9068 132.656 81.3168 129.99 67.0198 129.99C52.7228 129.99 41.1328 132.656 41.1328 135.945C41.1328 139.234 52.7228 141.9 67.0198 141.9Z" fill="#A6A6A6"/>
<path opacity="0.5" d="M67.0198 141.9C81.3168 141.9 92.9068 139.234 92.9068 135.945C92.9068 132.656 81.3168 129.99 67.0198 129.99C52.7228 129.99 41.1328 132.656 41.1328 135.945C41.1328 139.234 52.7228 141.9 67.0198 141.9Z" fill="white"/>
<path d="M60.6691 80.754C60.6691 80.754 58.8991 82.908 56.9791 88.749C55.0591 94.59 55.9021 108.576 55.9801 109.497C56.0581 110.418 54.0601 112.11 54.2131 115.197C54.3661 118.284 54.1351 128.799 54.1351 129.03C54.1351 129.261 53.3671 130.104 52.9831 130.797C52.5991 131.49 49.9831 133.332 49.7551 135.255C49.5271 137.178 52.3681 137.559 53.7511 136.638C55.1341 135.717 55.6741 134.1 56.5171 133.794C57.3601 133.488 58.4401 132.564 58.5931 130.644C58.7461 128.724 58.7461 128.106 59.1301 127.185C59.5141 126.264 62.6671 117.039 64.2031 112.185C65.7391 107.331 67.5031 99.195 67.8031 98.274C68.1031 97.353 68.3401 96.507 68.3401 96.507L69.0331 96.738C69.0331 96.738 70.6471 108.648 71.1841 111.723C71.7211 114.798 73.5661 119.868 74.0281 123.789C74.4901 127.71 74.0281 131.319 74.3281 133.089C74.6281 134.859 75.3271 135.702 75.4051 136.089C75.4831 136.476 75.0211 138.702 76.6351 139.317C78.2491 139.932 80.6311 139.617 81.0931 138.471C81.5551 137.325 80.0941 135.09 79.2481 133.554C78.4021 132.018 80.2471 127.482 81.0151 124.41C81.7831 121.338 81.9361 118.953 81.4771 115.11C81.0181 111.267 80.4001 110.346 80.8771 108.732C81.3541 107.118 83.0281 102.66 83.1811 95.898C83.3341 89.136 79.8001 83.37 79.6471 82.998C79.4941 82.626 73.6801 84.687 69.0421 84.228C62.8201 83.598 60.6691 80.754 60.6691 80.754Z" fill="#263238" stroke="#263238" stroke-width="0.921729" stroke-linecap="round" stroke-linejoin="round"/>
<path d="M68.1988 86.52L67.9678 90.363" stroke="#666666" stroke-width="0.921729" stroke-linecap="round" stroke-linejoin="round"/>
<path d="M81.033 89.286C78.189 88.824 76.653 87.441 76.653 87.441L76.353 88.824C76.353 88.824 78.66 90.747 81.426 90.285" stroke="#666666" stroke-width="0.921729" stroke-linecap="round" stroke-linejoin="round"/>
<path d="M58.1997 87.6C59.493 87.679 60.7906 87.5493 62.0427 87.216L61.8867 85.833C60.778 86.1125 59.6465 86.2923 58.5057 86.37" stroke="#666666" stroke-width="0.921729" stroke-linecap="round" stroke-linejoin="round"/>
<path d="M81.1111 138.468C81.5701 137.316 80.1121 135.087 79.2661 133.551C78.8551 132.807 79.0771 131.358 79.5031 129.711C78.6449 129.999 77.7373 130.112 76.8347 130.041C75.9321 129.97 75.053 129.718 74.2501 129.3C74.2321 130.887 74.1961 132.21 74.3461 133.08C74.6461 134.847 75.3451 135.693 75.4231 136.08C75.5011 136.467 75.0391 138.693 76.6531 139.308C78.2671 139.923 80.6491 139.623 81.1111 138.468Z" fill="#7A7A7A" stroke="#263238" stroke-width="0.921729" stroke-linecap="round" stroke-linejoin="round"/>
<path d="M79.2662 133.551C79.0142 133.095 79.0022 132.375 79.1252 131.511C78.3382 131.843 77.483 131.981 76.6316 131.913C75.7802 131.846 74.9574 131.575 74.2322 131.124C74.2199 131.781 74.258 132.438 74.3462 133.089C74.6462 134.856 75.3452 135.702 75.4232 136.089C75.5012 136.476 75.0392 138.702 76.6532 139.317C78.2672 139.932 80.6492 139.617 81.1112 138.471C81.5732 137.325 80.1002 135.087 79.2662 133.551Z" fill="white" stroke="#263238" stroke-width="0.921729" stroke-linecap="round" stroke-linejoin="round"/>
<path d="M54.1741 126.849C54.1531 128.106 54.1351 128.949 54.1351 129.018C54.1351 129.246 53.3671 130.092 52.9831 130.785C52.5991 131.478 49.9831 133.32 49.7551 135.243C49.5271 137.166 52.3681 137.547 53.7511 136.626C55.1341 135.705 55.6741 134.088 56.5171 133.782C57.3601 133.476 58.4401 132.552 58.5931 130.632C58.7401 128.808 58.7461 128.16 59.0761 127.311C56.7001 127.893 55.0021 127.287 54.1741 126.849Z" fill="#7A7A7A" stroke="#263238" stroke-width="0.921729" stroke-linecap="round" stroke-linejoin="round"/>
<path d="M58.7641 128.613C56.5831 129.513 54.9991 128.817 54.1501 128.202C54.1501 128.685 54.1351 128.979 54.1351 129.018C54.1351 129.246 53.3671 130.092 52.9831 130.785C52.5991 131.478 49.9831 133.32 49.7551 135.243C49.5271 137.166 52.3681 137.547 53.7511 136.626C55.1341 135.705 55.6741 134.088 56.5171 133.782C57.3601 133.476 58.4401 132.552 58.5931 130.632C58.6651 129.723 58.7041 129.108 58.7641 128.613Z" fill="white" stroke="#263238" stroke-width="0.921729" stroke-linecap="round" stroke-linejoin="round"/>
<path d="M56.7481 131.553C56.7481 131.553 56.6731 130.476 55.8271 130.017C55.2271 129.681 54.0841 129.87 53.5021 130.002C53.3136 130.252 53.1403 130.514 52.9831 130.785C52.5991 131.475 49.9831 133.32 49.7551 135.243C49.5271 137.166 52.3681 137.547 53.7511 136.626C55.1341 135.705 55.6741 134.088 56.5171 133.782C57.3601 133.476 58.4401 132.552 58.5931 130.632C58.6141 130.38 58.6291 130.149 58.6471 129.939L56.7481 131.553Z" fill="#A6A6A6" stroke="#263238" stroke-width="0.921729" stroke-linecap="round" stroke-linejoin="round"/>
<path d="M77.2677 133.089C76.9138 133.237 76.5944 133.457 76.3295 133.735C76.0647 134.013 75.8601 134.342 75.7287 134.703L74.3457 133.089C74.6457 134.856 75.3447 135.702 75.4227 136.089C75.5007 136.476 75.0387 138.702 76.6527 139.317C78.2667 139.932 80.6487 139.617 81.1107 138.471C81.5727 137.325 80.1117 135.09 79.2657 133.554C79.0308 133.267 78.7074 133.065 78.3459 132.981C77.9845 132.897 77.6053 132.935 77.2677 133.089Z" fill="#A6A6A6" stroke="#263238" stroke-width="0.921729" stroke-linecap="round" stroke-linejoin="round"/>
<path d="M70.8536 34.779C70.8536 34.779 64.9316 37.533 64.4336 40.533C63.9356 43.533 67.1006 43.785 66.9356 46.038C66.7706 48.291 64.1816 49.038 64.6826 52.959C65.1836 56.88 71.0216 58.38 76.3586 58.215C81.6956 58.05 84.7796 54.879 85.8656 51.3C86.9516 47.721 87.7826 44.628 85.7816 40.8C83.7806 36.972 80.6816 33.876 76.7816 33.711C72.8816 33.546 70.8536 34.779 70.8536 34.779Z" fill="#263238" stroke="#263238" stroke-width="0.921729" stroke-linecap="round" stroke-linejoin="round"/>
<path d="M73.4698 39.33C73.4698 39.33 67.0918 39.33 66.4648 40.377C65.8378 41.424 68.4508 42.153 68.4508 42.153" stroke="#787878" stroke-width="0.921729" stroke-linecap="round" stroke-linejoin="round"/>
<path d="M80.3702 35.775C80.3702 35.775 76.0832 36.075 73.7852 38.391" stroke="#787878" stroke-width="0.921729" stroke-linecap="round" stroke-linejoin="round"/>
<path d="M76.5 37.659C76.5 37.659 78.066 42.363 80.262 43.515C82.458 44.667 85.8 45.3 86.436 45.081" stroke="#787878" stroke-width="0.921729" stroke-linecap="round" stroke-linejoin="round"/>
<path d="M75.561 38.913C75.561 38.913 76.71 49.368 86.121 48.213" stroke="#787878" stroke-width="0.921729" stroke-linecap="round" stroke-linejoin="round"/>
<path d="M71.5047 56.01C71.5047 56.01 66.8157 55.473 62.8947 58.008C60.5997 59.49 58.1997 66.3 57.8247 67.23C57.4497 68.16 54.8997 73.146 54.0597 74.145C53.2197 75.144 46.0647 82.14 45.5278 82.368C44.9908 82.596 45.5278 82.524 44.9908 82.599C44.4538 82.674 42.0688 81.216 40.9948 81.216C39.7872 81.2403 38.6237 81.674 37.6948 82.446C36.8488 83.214 35.9278 84.213 36.3898 84.444C36.8518 84.675 39.4618 83.751 39.4618 83.751C39.4618 83.751 42.5368 85.059 42.3058 85.059C42.0748 85.059 38.7058 85.443 39.3058 86.136C39.9058 86.829 42.6868 86.289 44.1478 86.289C45.6088 86.289 47.9997 84.9 48.9867 84.366C49.9737 83.832 56.2107 80.142 57.5937 79.065C58.9767 77.988 61.1937 76.143 61.1937 76.143C61.1937 76.143 60.5007 79.743 60.1947 81.294C59.8887 82.845 61.6557 84.366 64.7277 85.443C67.7997 86.52 75.3327 86.136 77.5617 85.365C79.7907 84.594 80.4057 83.907 80.4057 82.983C80.4057 82.059 80.2527 80.679 80.3277 79.983C80.4027 79.287 82.4817 76.755 82.9407 76.14C83.3997 75.525 86.0937 76.371 87.8607 71.76C89.6277 67.149 88.3977 63.078 86.8617 60.156C85.3257 57.234 78.6387 55.854 76.1037 55.698C74.5637 55.6095 73.0187 55.7143 71.5047 56.01Z" fill="#A6A6A6"/>
<path opacity="0.3" d="M76.1156 55.701C74.5721 55.6076 73.023 55.7084 71.5046 56.001C70.4959 55.9174 69.4812 55.9415 68.4776 56.073C68.5016 57.75 69.1076 61.353 73.6376 62.673C79.6376 64.419 82.9976 62.424 84.3686 64.668C85.7396 66.912 83.4956 72.906 81.7496 74.778C80.0036 76.65 77.8796 78.897 71.8886 76.527C65.8976 74.157 60.9056 73.407 63.2786 75.777C65.6516 78.147 72.5126 81.891 73.1366 82.89C73.7606 83.889 71.3006 84.594 68.0366 85.011C66.5546 85.2 65.3726 85.296 64.5146 85.341L64.7546 85.431C67.8296 86.508 75.3596 86.124 77.5886 85.353C79.8176 84.582 80.4326 83.895 80.4326 82.971C80.4326 82.047 80.2796 80.667 80.3546 79.971C80.4296 79.275 82.5086 76.743 82.9676 76.128C83.4266 75.513 86.1206 76.359 87.8876 71.748C89.6546 67.137 88.4246 63.066 86.8886 60.144C85.3526 57.222 78.6506 55.857 76.1156 55.701Z" fill="black"/>
<path opacity="0.3" d="M60.7828 68.301C60.7828 68.301 58.9108 70.671 58.6618 72.918C58.4128 75.165 57.6628 76.911 55.5418 79.908L51.4648 84.837L53.3098 87.573C53.7298 87.5731 54.1439 87.4753 54.5194 87.2873C54.8949 87.0993 55.2214 86.8263 55.4728 86.49C56.2978 85.347 57.9508 81.213 58.6528 79.815C59.3548 78.417 61.1308 76.698 61.1308 76.698C61.1308 76.698 60.6238 74.154 60.2308 72.756C59.8378 71.358 60.0508 69.504 60.7828 68.301Z" fill="black"/>
<path d="M71.5047 56.01C71.5047 56.01 66.8157 55.473 62.8947 58.008C60.5997 59.49 58.1997 66.3 57.8247 67.23C57.4497 68.16 54.8997 73.146 54.0597 74.145C53.2197 75.144 46.0648 82.14 45.5278 82.368C44.9908 82.596 45.5278 82.524 44.9908 82.599C44.4538 82.674 42.0688 81.216 40.9948 81.216C39.7872 81.2403 38.6237 81.674 37.6948 82.446C36.8488 83.214 35.9278 84.213 36.3898 84.444C36.8518 84.675 39.4618 83.751 39.4618 83.751C39.4618 83.751 42.5368 85.059 42.3058 85.059C42.0748 85.059 38.7058 85.443 39.3058 86.136C39.9058 86.829 42.6868 86.289 44.1478 86.289C45.6088 86.289 47.9997 84.9 48.9867 84.366C49.9737 83.832 56.2107 80.142 57.5937 79.065C58.9767 77.988 61.1937 76.143 61.1937 76.143C61.1937 76.143 60.5007 79.743 60.1947 81.294C59.8887 82.845 61.6557 84.366 64.7277 85.443C67.7997 86.52 75.3327 86.136 77.5617 85.365C79.7907 84.594 80.4057 83.907 80.4057 82.983C80.4057 82.059 80.2527 80.679 80.3277 79.983C80.4027 79.287 82.4817 76.755 82.9407 76.14C83.3997 75.525 86.0937 76.371 87.8607 71.76C89.6277 67.149 88.3977 63.078 86.8617 60.156C85.3257 57.234 78.6387 55.854 76.1037 55.698C74.5637 55.6095 73.0187 55.7143 71.5047 56.01V56.01Z" stroke="#263238" stroke-width="0.921729" stroke-linecap="round" stroke-linejoin="round"/>
<path d="M67.7788 75.654C67.7788 75.654 71.2258 78.24 75.2488 78.669" stroke="#263238" stroke-width="0.921729" stroke-linecap="round" stroke-linejoin="round"/>
<path d="M75.8608 80.262C76.1356 80.2784 76.4111 80.2784 76.6858 80.262" stroke="#263238" stroke-width="0.921729" stroke-linecap="round" stroke-linejoin="round"/>
<path d="M69.5039 77.808C71.035 78.9213 72.7794 79.7066 74.6279 80.115" stroke="#263238" stroke-width="0.921729" stroke-linecap="round" stroke-linejoin="round"/>
<path d="M62.5109 65.4C62.5109 65.4 60.3599 67.935 60.1289 70.395C60.0224 71.9765 60.3133 73.5596 60.9749 75L61.2059 76.152" stroke="#263238" stroke-width="0.921729" stroke-linecap="round" stroke-linejoin="round"/>
<path d="M70.1187 55.395C70.1187 55.395 70.2747 58.095 70.2747 58.623C70.2747 59.151 70.1187 60.621 73.5026 60.468C76.8866 60.315 77.2676 58.854 77.6516 58.086C78.0356 57.318 77.8826 53.781 77.8826 53.781C77.8826 53.781 74.3456 56.7 70.1187 55.395Z" fill="#C7C7C7" stroke="#263238" stroke-width="0.921729" stroke-linecap="round" stroke-linejoin="round"/>
<path d="M70.8896 61.698C70.8896 61.698 71.8886 62.388 73.5896 61.926C73.5896 61.926 74.2826 65.001 73.3586 66.078C72.4346 67.155 70.7456 66.846 70.2086 65.847C69.6716 64.848 70.4276 62.4 70.8896 61.698Z" fill="white" stroke="#263238" stroke-width="0.921729" stroke-linecap="round" stroke-linejoin="round"/>
<path d="M55.3769 80.499C54.7266 80.1168 54.1226 79.6608 53.5769 79.14C52.9409 78.504 52.3409 77.406 51.8549 76.341C49.4279 78.741 45.8339 82.209 45.4589 82.368C44.9219 82.599 45.4589 82.524 44.9219 82.599C44.3849 82.674 41.9999 81.216 40.9259 81.216C39.7183 81.2403 38.5548 81.674 37.6259 82.446C36.7799 83.214 35.8589 84.213 36.3209 84.444C36.7829 84.675 39.3929 83.751 39.3929 83.751C39.3929 83.751 42.4679 85.059 42.2369 85.059C42.0059 85.059 38.6369 85.443 39.2369 86.136C39.8369 86.829 42.6179 86.289 44.0789 86.289C45.5399 86.289 47.9219 84.906 48.9209 84.366C49.6289 84 52.9979 81.999 55.3769 80.499Z" fill="white" stroke="#263238" stroke-width="0.921729" stroke-linecap="round" stroke-linejoin="round"/>
<path d="M36.4199 83.859C36.4199 83.859 38.9279 82.743 39.4859 82.743C40.0439 82.743 42.2759 83.58 42.2759 83.58" stroke="#263238" stroke-width="0.921729" stroke-linecap="round" stroke-linejoin="round"/>
<path d="M37.395 82.743C37.395 82.743 39.495 81.978 40.044 81.978C40.593 81.978 42.483 82.536 42.483 82.536" stroke="#263238" stroke-width="0.921729" stroke-linecap="round" stroke-linejoin="round"/>
<path d="M73.8872 39.642C73.8872 39.642 68.3522 42.942 67.5872 44.097C66.8222 45.252 67.5092 47.25 67.4342 48.171C67.3592 49.092 66.6662 50.247 67.0502 51.63C67.4342 53.013 68.2802 55.473 70.4312 56.316C72.5822 57.159 75.0422 56.394 76.5032 55.473C77.6487 54.6851 78.5978 53.6444 79.2771 52.4314C79.9565 51.2183 80.3479 49.8654 80.4212 48.477C80.4212 48.477 77.2712 47.403 75.9632 45.327C74.6552 43.251 73.8872 39.642 73.8872 39.642Z" fill="white"/>
<path opacity="0.3" d="M75.9601 45.327C74.6551 43.254 73.8871 39.627 73.8871 39.627L73.5091 39.855C73.2097 40.3439 73.0147 40.8894 72.9362 41.4573C72.8577 42.0252 72.8975 42.6032 73.0531 43.155C73.7731 45.765 76.5631 46.845 77.0131 49.632C77.4631 52.419 76.1131 54.939 74.2231 55.932C73.7311 56.19 73.2841 56.433 72.8911 56.655C74.1695 56.5469 75.4036 56.1355 76.4911 55.455C77.6366 54.6671 78.5857 53.6264 79.265 52.4133C79.9443 51.2003 80.3358 49.8474 80.4091 48.459C80.4091 48.459 77.2681 47.4 75.9601 45.327Z" fill="black"/>
<path d="M73.8872 39.642C73.8872 39.642 68.3522 42.942 67.5872 44.097C66.8222 45.252 67.5092 47.25 67.4342 48.171C67.3592 49.092 66.6662 50.247 67.0502 51.63C67.4342 53.013 68.2802 55.473 70.4312 56.316C72.5822 57.159 75.0422 56.394 76.5032 55.473C77.6487 54.6851 78.5978 53.6444 79.2771 52.4314C79.9565 51.2183 80.3479 49.8654 80.4212 48.477C80.4212 48.477 77.2712 47.403 75.9632 45.327C74.6552 43.251 73.8872 39.642 73.8872 39.642Z" stroke="#263238" stroke-width="0.921729" stroke-linecap="round" stroke-linejoin="round"/>
<path d="M73.8872 39.642C73.8872 39.642 72.3602 45.942 78.6092 47.742" stroke="#263238" stroke-width="0.921729" stroke-linecap="round" stroke-linejoin="round"/>
<path d="M70.6589 47.172C70.6589 47.172 69.9659 48.477 69.4289 48.786C68.8919 49.095 68.9669 49.554 69.8129 50.016C70.6589 50.478 70.7339 50.016 70.7339 50.016" stroke="#263238" stroke-width="0.921729" stroke-linecap="round" stroke-linejoin="round"/>
<path d="M69.5039 51.63C69.5039 51.63 71.1959 53.166 73.2719 51.09" stroke="#263238" stroke-width="0.921729" stroke-linecap="round" stroke-linejoin="round"/>
<path d="M70.1996 46.98C70.1996 47.427 70.0286 47.787 69.8156 47.787C69.6026 47.787 69.4316 47.427 69.4316 46.98C69.4316 46.533 69.6026 46.173 69.8156 46.173C70.0286 46.173 70.1996 46.533 70.1996 46.98Z" fill="#263238"/>
<path d="M74.5771 47.787C74.5771 48.231 74.4061 48.594 74.1931 48.594C73.9801 48.594 73.8091 48.231 73.8091 47.787C73.8091 47.343 73.9801 46.98 74.1931 46.98C74.4061 46.98 74.5771 47.34 74.5771 47.787Z" fill="#263238"/>
<path d="M68.4297 45.558C68.4297 45.558 69.1977 44.712 70.6587 45.096" stroke="#263238" stroke-width="0.921729" stroke-linecap="round" stroke-linejoin="round"/>
<path d="M72.9629 45.48C72.9629 45.48 74.4239 44.712 75.8849 46.557" stroke="#263238" stroke-width="0.921729" stroke-linecap="round" stroke-linejoin="round"/>
<path d="M83.265 84.021C83.265 84.021 82.722 82.272 82.101 79.272C81.721 77.2636 81.571 75.2184 81.654 73.176C81.654 73.176 84.609 74.253 85.149 76.941C85.689 79.629 83.625 83.214 83.265 84.021Z" fill="#263238" stroke="#263238" stroke-width="0.921729" stroke-linecap="round" stroke-linejoin="round"/>
<path d="M78.0897 56.598C78.1107 58.554 78.0117 62.469 78.4047 65.667C78.8667 69.432 80.4027 73.965 81.4797 76.272C82.5567 78.579 88.2417 79.344 87.9327 74.733C87.6237 70.122 84.7827 66.204 83.2467 62.898C81.7107 59.592 81.1707 57.75 81.4797 57.057C81.7887 56.364 84.8607 53.907 85.7037 52.677C86.5467 51.447 86.2437 47.223 86.1657 46.299C86.0877 45.375 85.4757 45.531 85.4757 45.531C85.4757 45.531 84.8607 44.226 84.4767 44.532C84.4767 44.532 83.7837 44.532 83.4777 44.832C83.2088 44.9217 82.9644 45.0728 82.7639 45.2732C82.5635 45.4737 82.4124 45.7181 82.3227 45.987C82.0227 46.908 81.4797 48.906 81.4797 48.906C81.4797 48.906 80.7867 48.06 80.4807 48.675C80.1747 49.29 80.0187 50.289 79.6347 51.135C79.2507 51.981 78.4047 52.365 78.2517 54.054C78.2517 54.06 78.0807 55.905 78.0897 56.598Z" fill="white"/>
<path opacity="0.3" d="M87.9327 74.733C87.6327 70.122 84.7827 66.204 83.2467 62.898C81.7107 59.592 81.1707 57.75 81.4797 57.057C81.7887 56.364 84.8607 53.907 85.7037 52.677C86.3877 51.684 86.3187 48.729 86.2257 47.148C85.9917 48.969 85.4847 52.302 84.8367 52.884C83.9367 53.694 80.6097 55.041 80.2497 57.201C79.8897 59.361 83.8497 69.801 84.0267 72.762C84.1857 75.387 82.0947 74.424 80.4267 73.662C80.7897 74.676 81.1557 75.573 81.4797 76.266C82.5537 78.576 88.2417 79.344 87.9327 74.733Z" fill="black"/>
<path d="M78.0897 56.598C78.1107 58.554 78.0117 62.469 78.4047 65.667C78.8667 69.432 80.4027 73.965 81.4797 76.272C82.5567 78.579 88.2417 79.344 87.9327 74.733C87.6237 70.122 84.7827 66.204 83.2467 62.898C81.7107 59.592 81.1707 57.75 81.4797 57.057C81.7887 56.364 84.8607 53.907 85.7037 52.677C86.5467 51.447 86.2437 47.223 86.1657 46.299C86.0877 45.375 85.4757 45.531 85.4757 45.531C85.4757 45.531 84.8607 44.226 84.4767 44.532C84.4767 44.532 83.7837 44.532 83.4777 44.832C83.2088 44.9217 82.9644 45.0728 82.7639 45.2732C82.5635 45.4737 82.4124 45.7181 82.3227 45.987C82.0227 46.908 81.4797 48.906 81.4797 48.906C81.4797 48.906 80.7867 48.06 80.4807 48.675C80.1747 49.29 80.0187 50.289 79.6347 51.135C79.2507 51.981 78.4047 52.365 78.2517 54.054C78.2517 54.06 78.0807 55.905 78.0897 56.598Z" stroke="#263238" stroke-width="0.921729" stroke-linecap="round" stroke-linejoin="round"/>
<path d="M85.476 45.531C85.34 45.6401 85.2336 45.7816 85.1665 45.9425C85.0994 46.1034 85.0738 46.2786 85.092 46.452C85.092 47.145 85.245 49.836 84.936 50.679" stroke="#263238" stroke-width="0.921729" stroke-linecap="round" stroke-linejoin="round"/>
<path d="M84.4772 44.532C84.4772 44.532 83.8772 45.378 84.0152 45.915C84.1532 46.452 84.2462 49.215 83.7842 49.911" stroke="#263238" stroke-width="0.921729" stroke-linecap="round" stroke-linejoin="round"/>
<path d="M83.4778 44.838C83.2173 45.2802 83.0844 45.7859 83.0938 46.299C83.1027 47.2409 82.9463 48.1771 82.6318 49.065" stroke="#263238" stroke-width="0.921729" stroke-linecap="round" stroke-linejoin="round"/>
<path d="M80.1719 56.136C80.1719 56.136 80.1719 54.06 81.0179 53.37C81.8639 52.68 83.7839 52.218 83.7839 52.218" stroke="#263238" stroke-width="0.921729" stroke-linecap="round" stroke-linejoin="round"/>
<path d="M60.171 76.878C59.007 78.222 56.319 83.778 55.512 85.482C54.705 87.186 53.631 87.453 53.631 87.453C53.631 87.453 51.57 85.482 50.673 83.598C49.776 81.714 49.686 78.582 49.686 78.582L54.438 74.19" fill="#A6A6A6"/>
<path opacity="0.3" d="M60.7828 68.301C60.7828 68.301 58.9108 70.671 58.6618 72.918C58.4128 75.165 57.6628 76.911 55.5418 79.908L51.4648 84.837L53.3098 87.573C53.7298 87.5731 54.1439 87.4753 54.5194 87.2873C54.8949 87.0993 55.2214 86.8263 55.4728 86.49C56.2978 85.347 57.9508 81.213 58.6528 79.815C59.3548 78.417 61.1308 76.698 61.1308 76.698C61.1308 76.698 60.6238 74.154 60.2308 72.756C59.8378 71.358 60.0508 69.504 60.7828 68.301Z" fill="black"/>
<path d="M60.171 76.878C59.007 78.222 56.319 83.778 55.512 85.482C54.705 87.186 53.631 87.453 53.631 87.453C53.631 87.453 51.57 85.482 50.673 83.598C49.776 81.714 49.686 78.582 49.686 78.582L54.438 74.19" stroke="#263238" stroke-width="0.921729" stroke-linecap="round" stroke-linejoin="round"/>
<path d="M85.3262 67.173C85.3262 67.173 86.1332 72.102 85.2391 76.044C84.3451 79.986 83.2651 84.021 83.2651 84.021C83.2651 84.021 86.3132 81.69 87.2102 78.732C88.1072 75.774 88.1102 74.97 87.7472 72.819C87.3842 70.668 85.3262 67.173 85.3262 67.173Z" fill="#A6A6A6" stroke="#263238" stroke-width="0.921729" stroke-linecap="round" stroke-linejoin="round"/>
<path d="M78.5731 48.633C78.5731 48.633 80.3401 46.557 81.4951 47.556C82.6501 48.555 80.8021 51.399 80.1871 51.861C79.5721 52.323 78.4981 52.461 78.2671 51.783" fill="#B2B2B2"/>
<path d="M78.5731 48.633C78.5731 48.633 80.3401 46.557 81.4951 47.556C82.6501 48.555 80.8021 51.399 80.1871 51.861C79.5721 52.323 78.4981 52.461 78.2671 51.783" stroke="#263238" stroke-width="0.921729" stroke-linecap="round" stroke-linejoin="round"/>
<path d="M81.1739 48.9C81.1739 48.9 81.1559 48.261 80.4179 48.465C79.9962 48.573 79.6057 48.7785 79.2779 49.065C79.2779 49.065 80.0819 49.35 79.7939 49.812C79.7649 49.8731 79.7239 49.9277 79.6732 49.9725C79.6225 50.0173 79.5633 50.0514 79.4991 50.0727C79.4349 50.094 79.3671 50.1021 79.2997 50.0965C79.2323 50.0908 79.1667 50.0716 79.1069 50.04" stroke="#263238" stroke-width="0.921729" stroke-linecap="round" stroke-linejoin="round"/>
<path d="M79.2778 49.086C79.2778 49.086 80.4778 49.029 80.4778 50.004" stroke="#263238" stroke-width="0.921729" stroke-linecap="round" stroke-linejoin="round"/>
</svg>
