<svg width="375" height="388" viewBox="0 0 375 388" fill="none" xmlns="http://www.w3.org/2000/svg">
<path d="M388 296.742H-12V296.936H388V296.742Z" fill="#EBEBEB"/>
<path d="M336.536 309.228H321.424V309.422H336.536V309.228Z" fill="#EBEBEB"/>
<path d="M246.016 307.878H222.44V308.072H246.016V307.878Z" fill="#EBEBEB"/>
<path d="M320.624 302.027H282.936V302.221H320.624V302.027Z" fill="#EBEBEB"/>
<path d="M38.744 303.331H29.968V303.525H38.744V303.331Z" fill="#EBEBEB"/>
<path d="M76.712 303.331H45.864V303.525H76.712V303.331Z" fill="#EBEBEB"/>
<path d="M168.12 306.605H124.8V306.799H168.12V306.605Z" fill="#EBEBEB"/>
<path d="M177.6 262.133H23.136C21.9245 262.133 20.7626 261.666 19.9059 260.835C19.0493 260.004 18.568 258.877 18.568 257.702V47.0721C18.5785 45.9037 19.0645 44.7866 19.92 43.964C20.7755 43.1414 21.9314 42.6799 23.136 42.6799H177.6C178.811 42.6799 179.973 43.1468 180.83 43.9777C181.687 44.8087 182.168 45.9357 182.168 47.1109V257.702C182.168 258.877 181.687 260.004 180.83 260.835C179.973 261.666 178.811 262.133 177.6 262.133ZM23.136 42.8351C21.9782 42.8372 20.8684 43.2842 20.0497 44.0784C19.231 44.8725 18.7701 45.949 18.768 47.0721V257.702C18.7701 258.825 19.231 259.901 20.0497 260.695C20.8684 261.49 21.9782 261.937 23.136 261.939H177.6C178.758 261.937 179.868 261.49 180.686 260.695C181.505 259.901 181.966 258.825 181.968 257.702V47.0721C181.966 45.949 181.505 44.8725 180.686 44.0784C179.868 43.2842 178.758 42.8372 177.6 42.8351H23.136Z" fill="#EBEBEB"/>
<path d="M350.648 262.133H196.168C194.957 262.131 193.796 261.663 192.94 260.833C192.084 260.002 191.602 258.876 191.6 257.702V47.0721C191.613 45.9043 192.099 44.7884 192.954 43.9662C193.809 43.1441 194.964 42.6819 196.168 42.6799H350.648C351.85 42.684 353.002 43.1473 353.854 43.9694C354.706 44.7916 355.19 45.9063 355.2 47.0721V257.702C355.2 258.874 354.721 259.999 353.868 260.829C353.015 261.66 351.857 262.129 350.648 262.133ZM196.168 42.8351C195.01 42.8372 193.9 43.2842 193.082 44.0784C192.263 44.8725 191.802 45.949 191.8 47.0721V257.702C191.802 258.825 192.263 259.901 193.082 260.695C193.9 261.49 195.01 261.937 196.168 261.939H350.648C351.806 261.937 352.916 261.49 353.734 260.695C354.553 259.901 355.014 258.825 355.016 257.702V47.0721C355.014 45.949 354.553 44.8725 353.734 44.0784C352.916 43.2842 351.806 42.8372 350.648 42.8351H196.168Z" fill="#EBEBEB"/>
<path d="M336.536 309.228H321.424V309.422H336.536V309.228Z" fill="#EBEBEB"/>
<path d="M246.016 307.878H222.44V308.072H246.016V307.878Z" fill="#EBEBEB"/>
<path d="M320.624 302.027H282.936V302.221H320.624V302.027Z" fill="#EBEBEB"/>
<path d="M38.744 303.331H29.968V303.525H38.744V303.331Z" fill="#EBEBEB"/>
<path d="M76.712 303.331H45.864V303.525H76.712V303.331Z" fill="#EBEBEB"/>
<path d="M168.12 306.605H124.8V306.799H168.12V306.605Z" fill="#EBEBEB"/>
<path d="M145.552 66.4412H98.0479V171.232H145.552V66.4412Z" fill="#E6E6E6"/>
<path d="M148.456 66.4412H100.952V171.232H148.456V66.4412Z" fill="#F5F5F5"/>
<path d="M143.248 166.514V71.1592H106.16V166.514H143.248Z" fill="white"/>
<path d="M143.24 166.514V71.1592H141.048V166.514H143.24Z" fill="#E6E6E6"/>
<path d="M146.296 138.198H103.104V144.53H146.296V138.198Z" fill="#F5F5F5"/>
<path d="M146.296 79.4778H103.104V85.8099H146.296V79.4778Z" fill="#F5F5F5"/>
<path d="M209.6 66.4412H162.096V171.232H209.6V66.4412Z" fill="#E6E6E6"/>
<path d="M212.496 66.4412H164.992V171.232H212.496V66.4412Z" fill="#F5F5F5"/>
<path d="M207.288 166.514V71.1592H170.2V166.514H207.288Z" fill="white"/>
<path d="M207.288 166.514V71.1592H205.096V166.514H207.288Z" fill="#E6E6E6"/>
<path d="M210.344 138.198H167.152V144.53H210.344V138.198Z" fill="#F5F5F5"/>
<path d="M210.344 79.4778H167.152V85.8099H210.344V79.4778Z" fill="#F5F5F5"/>
<path d="M81.504 66.4412H34V171.232H81.504V66.4412Z" fill="#E6E6E6"/>
<path d="M84.4079 66.4412H36.9039V171.232H84.4079V66.4412Z" fill="#F5F5F5"/>
<path d="M79.2 166.514V71.1592H42.112L42.112 166.514H79.2Z" fill="white"/>
<path d="M79.192 166.506V71.1514H77V166.506H79.192Z" fill="#E6E6E6"/>
<path d="M82.248 138.198H39.056V144.53H82.248V138.198Z" fill="#F5F5F5"/>
<path d="M82.248 79.4778H39.056V85.8099H82.248V79.4778Z" fill="#F5F5F5"/>
<path d="M251.376 192.068H243.608V296.742H251.376V192.068Z" fill="#E6E6E6"/>
<path d="M253.456 192.068H248.88V296.742H253.456V192.068Z" fill="#F0F0F0"/>
<path d="M144.568 199.913H254.872V192.06H144.568V199.913Z" fill="#F0F0F0"/>
<path d="M40.0879 192.068H32.3199V296.742H40.0879V192.068Z" fill="#E6E6E6"/>
<path d="M41.544 192.068H36.968V296.742H41.544V192.068Z" fill="#F0F0F0"/>
<path d="M30.9359 199.913H141.24V192.06H30.9359V199.913Z" fill="#E6E6E6"/>
<path d="M143.904 192.068H136.136V296.742H143.904V192.068Z" fill="#E6E6E6"/>
<path d="M145.984 192.068H141.408V296.742H145.984V192.068Z" fill="#F0F0F0"/>
<path d="M124.136 157.249H181.736L186.256 190.236H128.664L124.136 157.249Z" fill="#E6E6E6"/>
<path d="M128.664 190.236L128.896 192.06H186.496L186.264 190.236H128.664Z" fill="#E6E6E6"/>
<path d="M125.912 157.249H183.504L188.032 190.236H130.432L125.912 157.249Z" fill="#F0F0F0"/>
<path d="M131.824 188.731L127.72 158.754H182.112L186.224 188.731H131.824Z" fill="white"/>
<path d="M145.44 190.236L145.672 192.06H209.104L208.864 190.236H145.44Z" fill="#F0F0F0"/>
<path d="M249.52 163.736H221.008C216.155 163.693 211.454 165.378 207.795 168.471C204.136 171.565 201.772 175.851 201.152 180.521L196.984 211.072L181.496 211.018H181.448C177.995 210.938 174.641 212.147 172.08 214.395C169.518 216.643 167.943 219.759 167.68 223.1L166.768 233.576C165.266 233.782 163.876 234.461 162.81 235.508C161.745 236.555 161.064 237.913 160.872 239.373H237.36C242.209 239.415 246.906 237.732 250.562 234.642C254.218 231.551 256.58 227.268 257.2 222.603L263.2 178.759C263.429 176.881 263.246 174.976 262.664 173.171C262.082 171.365 261.114 169.699 259.823 168.281C258.532 166.863 256.947 165.725 255.171 164.942C253.396 164.159 251.47 163.748 249.52 163.736ZM182.32 233.467H170.88L171.744 223.829C171.932 221.36 173.092 219.054 174.983 217.39C176.874 215.727 179.352 214.831 181.904 214.89H181.944L196.472 214.936L195.456 222.363C195.045 225.456 193.478 228.295 191.052 230.341C188.627 232.388 185.511 233.5 182.296 233.467H182.32Z" fill="#E0E0E0"/>
<path d="M178.536 239.342H174.568L165.272 296.742H169.24L178.536 239.342Z" fill="#F0F0F0"/>
<path d="M193.432 239.342H189.464L180.16 296.742H184.128L193.432 239.342Z" fill="#F0F0F0"/>
<path d="M228.376 239.342H232.344L241.648 296.742H237.68L228.376 239.342Z" fill="#F0F0F0"/>
<path d="M213.488 239.342H217.456L226.752 296.742H222.784L213.488 239.342Z" fill="#F0F0F0"/>
<path d="M339.688 68.2803H262.336V225.04H339.688V68.2803Z" fill="#E6E6E6"/>
<path d="M345.064 68.2803H263.768V225.04H345.064V68.2803Z" fill="#F0F0F0"/>
<path d="M338.248 218.436V74.8918H270.568V218.436H338.248Z" fill="#FAFAFA"/>
<path d="M294.568 218.436L302.952 74.884H314.264L305.88 218.436H294.568Z" fill="white"/>
<path d="M308.016 218.436L316.4 74.884H327.712L319.328 218.436H308.016Z" fill="white"/>
<path d="M188 331.786C273.666 331.786 343.112 327.854 343.112 323.002C343.112 318.151 273.666 314.218 188 314.218C102.334 314.218 32.8881 318.151 32.8881 323.002C32.8881 327.854 102.334 331.786 188 331.786Z" fill="#F5F5F5"/>
<path d="M180.648 94.3615L168.24 270.118H319.536L333.24 75.947H200.936L180.648 94.3615Z" fill="#FFC100"/>
<path opacity="0.8" d="M180.648 94.3615L168.24 270.118H319.536L333.24 75.947H200.936L180.648 94.3615Z" fill="white"/>
<path d="M307.155 135.285C317.347 125.731 318.153 110.5 308.954 101.267C299.756 92.034 284.036 92.294 273.844 101.848C263.652 111.402 262.846 126.632 272.045 135.865C281.243 145.099 296.963 144.839 307.155 135.285Z" fill="#FFC100"/>
<path d="M306.277 134.403C315.932 125.352 316.696 110.925 307.982 102.179C299.269 93.4324 284.378 93.6791 274.722 102.73C265.067 111.781 264.303 126.208 273.017 134.954C281.73 143.701 296.621 143.454 306.277 134.403Z" fill="white"/>
<path d="M284.328 126.488L279.704 126.193C279.704 126.193 277.552 136.933 276.176 137.833C274.296 139.098 270.576 142.155 268.104 143.265C267.849 143.991 267.797 144.77 267.952 145.523C271.792 145.523 278.896 141.814 280.12 140.2C282.928 136.576 284.328 126.488 284.328 126.488Z" fill="#FFC3BD"/>
<path d="M286.536 119.752C287.936 122.282 283.576 131.392 283.576 131.392L277.64 129.592C277.811 126.791 278.479 124.039 279.616 121.459C281.088 118.487 285 116.974 286.536 119.752Z" fill="#263238"/>
<path opacity="0.2" d="M282 124.408C282.8 126.24 281.752 130.663 280.928 133.464C278.92 130.127 278.64 127.023 282 124.408Z" fill="black"/>
<path d="M281.976 120.202C281.064 123.438 279.272 131.935 280.736 145.275H296.36C296.72 142.737 296.264 130.344 299.936 118.386C298.075 118.029 296.19 117.796 294.296 117.688C291.882 117.552 289.462 117.552 287.048 117.688C286.017 117.781 284.997 117.962 284 118.231C283.515 118.361 283.074 118.611 282.719 118.956C282.364 119.302 282.108 119.731 281.976 120.202Z" fill="#263238"/>
<path opacity="0.2" d="M295.952 121.335C295.48 123.306 295.664 128.017 297.08 133.464C297.5 128.772 298.338 124.125 299.584 119.574C298.472 119.442 296.4 119.504 295.952 121.335Z" fill="black"/>
<path d="M293.976 111.108C293.304 113.374 292.808 116.175 294.296 117.688C294.296 117.688 293.136 120.016 288.808 120.016C284.848 120.016 287.048 117.688 287.048 117.688C289.704 117.083 289.872 113.963 289.584 112.21L293.976 111.108Z" fill="#FFC3BD"/>
<path d="M288.8 119.977C289.204 120.635 289.419 121.385 289.424 122.15C289.424 122.15 295.024 120.295 295.024 117.572C295.024 117.572 294.296 117.129 293.84 116.796C293.856 116.772 293.48 118.891 288.8 119.977Z" fill="white"/>
<path d="M288.648 119.977C288.144 120.568 287.769 121.252 287.544 121.987C286.884 121.497 286.402 120.817 286.168 120.044C285.934 119.271 285.959 118.446 286.24 117.688C286.705 117.507 287.184 117.362 287.672 117.253C287.672 117.253 286.992 119.395 288.648 119.977Z" fill="white"/>
<path opacity="0.2" d="M289.6 112.21C289.83 113.456 289.7 114.74 289.224 115.919C289.636 115.862 290.038 115.747 290.416 115.577C291.952 114.902 292.776 113.847 293.68 112.287C293.768 111.884 293.88 111.511 293.992 111.108L289.6 112.21Z" fill="black"/>
<path d="M285.8 110.114C285.919 110.458 286.11 110.774 286.362 111.041C286.615 111.308 286.922 111.521 287.264 111.666C288.2 112.054 288.864 111.224 288.808 110.269C288.752 109.315 288.16 108.167 287.128 108.182C286.896 108.193 286.669 108.257 286.466 108.368C286.264 108.479 286.091 108.635 285.961 108.823C285.832 109.011 285.75 109.226 285.722 109.45C285.694 109.674 285.721 109.902 285.8 110.114Z" fill="#FFC3BD"/>
<path opacity="0.2" d="M285.8 110.114C285.919 110.458 286.11 110.774 286.362 111.041C286.615 111.308 286.922 111.521 287.264 111.666C288.2 112.054 288.864 111.224 288.808 110.269C288.752 109.315 288.16 108.167 287.128 108.182C286.896 108.193 286.669 108.257 286.466 108.368C286.264 108.479 286.091 108.635 285.961 108.823C285.832 109.011 285.75 109.226 285.722 109.45C285.694 109.674 285.721 109.902 285.8 110.114Z" fill="black"/>
<path d="M289.984 103.774C289.68 101.982 286.952 105.132 287.536 106.793C288.12 108.454 290.32 105.792 289.984 103.774Z" fill="#263238"/>
<path d="M295.824 108.322C294.824 111.325 294.392 113.117 292.432 114.405C291.839 114.845 291.128 115.111 290.384 115.17C289.64 115.229 288.895 115.08 288.235 114.74C287.576 114.4 287.032 113.883 286.667 113.252C286.302 112.62 286.131 111.9 286.176 111.177C286.256 108.337 287.88 103.906 291.192 103.208C294.504 102.509 296.8 105.318 295.824 108.322Z" fill="#FFC3BD"/>
<path d="M294.912 106.545C291.536 106.079 286.688 105.474 288.448 102.797C290.12 100.244 296.792 100.709 294.768 101.842C297.384 101.99 300.712 103.208 298.2 104.046C300.224 105.443 299.424 109.183 295.56 110.487C294.448 108.919 293.6 108.229 294.912 106.545Z" fill="#263238"/>
<path d="M296.304 111.899C295.734 112.466 294.967 112.809 294.152 112.861C293.096 112.916 292.896 111.938 293.464 111.092C294.032 110.246 295.136 109.385 296.064 109.734C296.992 110.083 297.016 111.185 296.304 111.899Z" fill="#FFC3BD"/>
<path d="M290.968 108.384C290.904 108.632 290.72 108.803 290.552 108.779C290.384 108.756 290.312 108.531 290.384 108.283C290.456 108.034 290.632 107.856 290.792 107.887C290.952 107.918 291.04 108.135 290.968 108.384Z" fill="#263238"/>
<path d="M288.16 107.903C288.096 108.151 287.912 108.329 287.752 108.298C287.592 108.267 287.512 108.05 287.576 107.802C287.64 107.553 287.824 107.383 287.992 107.406C288.16 107.429 288.232 107.654 288.16 107.903Z" fill="#263238"/>
<path d="M289.024 108.182C288.521 108.887 287.93 109.528 287.264 110.091C287.406 110.24 287.582 110.356 287.777 110.429C287.973 110.501 288.183 110.529 288.392 110.51L289.024 108.182Z" fill="#ED847E"/>
<path d="M288.936 111.317C288.926 111.315 288.917 111.311 288.909 111.306C288.901 111.301 288.894 111.294 288.889 111.286C288.884 111.278 288.88 111.269 288.879 111.26C288.877 111.25 288.878 111.241 288.88 111.232C288.887 111.213 288.9 111.196 288.917 111.185C288.935 111.174 288.955 111.168 288.976 111.17C289.296 111.224 289.624 111.209 289.937 111.124C290.25 111.039 290.539 110.888 290.784 110.681C290.791 110.674 290.799 110.668 290.808 110.665C290.817 110.661 290.826 110.659 290.836 110.659C290.846 110.659 290.855 110.661 290.864 110.665C290.873 110.668 290.881 110.674 290.888 110.681C290.903 110.695 290.911 110.715 290.911 110.735C290.911 110.755 290.903 110.775 290.888 110.789C290.626 111.016 290.313 111.181 289.975 111.273C289.637 111.364 289.281 111.379 288.936 111.317Z" fill="#263238"/>
<path d="M292.056 107.623C292.034 107.62 292.014 107.611 291.997 107.598C291.98 107.584 291.967 107.566 291.96 107.546C291.894 107.381 291.786 107.236 291.646 107.123C291.506 107.011 291.339 106.934 291.16 106.902C291.141 106.901 291.122 106.896 291.105 106.888C291.088 106.879 291.073 106.867 291.061 106.852C291.05 106.837 291.042 106.82 291.038 106.802C291.035 106.783 291.035 106.765 291.04 106.747C291.048 106.708 291.07 106.673 291.102 106.648C291.135 106.624 291.175 106.612 291.216 106.615C291.442 106.647 291.656 106.735 291.837 106.871C292.018 107.007 292.159 107.186 292.248 107.391C292.261 107.428 292.26 107.468 292.243 107.504C292.227 107.54 292.197 107.569 292.16 107.585C292.146 107.598 292.13 107.608 292.112 107.615C292.094 107.622 292.075 107.624 292.056 107.623Z" fill="#263238"/>
<path d="M287.2 106.7C287.182 106.706 287.162 106.706 287.144 106.7C287.13 106.687 287.119 106.671 287.111 106.654C287.104 106.636 287.1 106.618 287.1 106.599C287.1 106.58 287.104 106.561 287.111 106.544C287.119 106.527 287.13 106.511 287.144 106.498C287.304 106.315 287.504 106.169 287.73 106.071C287.955 105.973 288.201 105.926 288.448 105.932C288.467 105.934 288.485 105.941 288.502 105.951C288.518 105.961 288.532 105.973 288.544 105.989C288.555 106.004 288.563 106.021 288.567 106.039C288.571 106.057 288.571 106.076 288.568 106.095C288.56 106.135 288.537 106.171 288.503 106.196C288.469 106.22 288.426 106.231 288.384 106.227C288.189 106.224 287.996 106.264 287.819 106.343C287.642 106.422 287.485 106.539 287.36 106.684C287.338 106.702 287.311 106.713 287.282 106.716C287.254 106.719 287.225 106.713 287.2 106.7Z" fill="#263238"/>
<path d="M301.312 122.538L297.08 124.718C297.08 124.718 301.168 134.496 300.472 135.963C299.52 137.965 297.944 142.365 296.392 144.545C296.575 145.272 296.966 145.934 297.52 146.454C300.912 144.468 305.08 137.755 305.264 135.815C305.68 131.384 301.312 122.538 301.312 122.538Z" fill="#FFC3BD"/>
<path d="M299.936 118.387C302.896 118.891 305.072 129.119 305.072 129.119L297.776 131.144C296.739 128.792 295.881 126.37 295.208 123.896C294.24 120.109 296.8 117.836 299.936 118.387Z" fill="#263238"/>
<path d="M297.928 144.181L294.912 143.971L296.208 147.215C296.208 147.215 298.864 147.316 299.488 145.345L297.928 144.181Z" fill="#FFC3BD"/>
<path d="M292.304 145.461L293.64 148.332L296.208 147.215L294.912 143.971L292.304 145.461Z" fill="#FFC3BD"/>
<path d="M299.103 249.404C309.296 239.85 310.101 224.62 300.903 215.387C291.704 206.153 275.984 206.413 265.792 215.967C255.6 225.522 254.794 240.752 263.993 249.985C273.191 259.218 288.911 258.958 299.103 249.404Z" fill="#FFC100"/>
<path d="M298.225 248.515C307.88 239.464 308.644 225.037 299.93 216.29C291.217 207.544 276.326 207.791 266.67 216.841C257.015 225.892 256.251 240.32 264.965 249.066C273.678 257.812 288.569 257.565 298.225 248.515Z" fill="white"/>
<path d="M274.272 240.824L269.928 239.45C269.928 239.45 265.2 249.538 263.656 250.144C261.544 250.92 257.256 253.1 254.608 253.62C254.178 254.28 253.93 255.037 253.888 255.816C257.552 256.732 265.256 254.714 266.832 253.403C270.4 250.423 274.272 240.824 274.272 240.824Z" fill="#FFB573"/>
<path d="M278.056 234.67C278.76 237.495 272.328 245.495 272.328 245.495L267.12 242.298C267.978 239.582 269.3 237.024 271.032 234.732C273.176 232.148 277.28 231.574 278.056 234.67Z" fill="#FFC100"/>
<path opacity="0.3" d="M278.056 234.67C278.76 237.495 272.328 245.495 272.328 245.495L267.12 242.298C267.978 239.582 269.3 237.024 271.032 234.732C273.176 232.148 277.28 231.574 278.056 234.67Z" fill="black"/>
<path opacity="0.2" d="M273.992 238.186C274.48 240.141 274.04 243.268 272.752 245.946C271.608 244.262 270.272 240.25 273.992 238.186Z" fill="black"/>
<path d="M273.92 234.352C273.008 237.588 271.224 246.085 272.68 259.425H288.312C288.672 256.887 288.208 244.494 291.88 232.536C290.019 232.179 288.134 231.946 286.24 231.838C283.826 231.702 281.406 231.702 278.992 231.838C277.961 231.931 276.941 232.113 275.944 232.381C275.46 232.512 275.019 232.763 274.664 233.108C274.31 233.453 274.053 233.882 273.92 234.352Z" fill="#FFC100"/>
<path opacity="0.3" d="M273.92 234.352C273.008 237.588 271.224 246.085 272.68 259.425H288.312C288.672 256.887 288.208 244.494 291.88 232.536C290.019 232.179 288.134 231.946 286.24 231.838C283.826 231.702 281.406 231.702 278.992 231.838C277.961 231.931 276.941 232.113 275.944 232.381C275.46 232.512 275.019 232.763 274.664 233.108C274.31 233.453 274.053 233.882 273.92 234.352Z" fill="black"/>
<path opacity="0.2" d="M287.952 237.992C287.48 239.963 287.064 244.642 289.024 247.575C289.447 242.883 290.287 238.236 291.536 233.685C290.4 233.576 288.4 236.145 287.952 237.992Z" fill="black"/>
<g opacity="0.95">
<path opacity="0.95" d="M280.552 237.89L279.696 238.255L279.04 237.681C278.207 237.011 277.601 236.112 277.303 235.103C277.004 234.094 277.027 233.021 277.368 232.024C277.897 231.922 278.431 231.847 278.968 231.799C281.382 231.663 283.802 231.663 286.216 231.799C286.776 231.799 287.336 231.869 287.88 231.923L287.336 232.598C285.501 234.822 283.185 236.629 280.552 237.89Z" fill="white"/>
</g>
<path d="M285.928 225.219C285.248 227.484 284.752 230.286 286.24 231.799C284.558 233.819 282.446 235.463 280.048 236.618C279.315 236.064 278.807 235.277 278.614 234.395C278.421 233.514 278.555 232.594 278.992 231.799C281.656 231.194 281.816 228.074 281.528 226.32L285.928 225.219Z" fill="#FFB573"/>
<path opacity="0.2" d="M281.528 226.32C281.759 227.567 281.628 228.851 281.152 230.03C281.567 229.972 281.971 229.857 282.352 229.688C283.88 229.013 284.704 227.958 285.608 226.398C285.704 225.994 285.808 225.622 285.928 225.219L281.528 226.32Z" fill="black"/>
<path d="M277.744 224.264C277.863 224.609 278.055 224.925 278.309 225.193C278.563 225.46 278.872 225.673 279.216 225.816C280.152 226.204 280.816 225.374 280.752 224.419C280.688 223.465 280.104 222.316 279.08 222.332C278.847 222.341 278.619 222.404 278.415 222.515C278.212 222.626 278.038 222.782 277.908 222.97C277.778 223.158 277.695 223.373 277.667 223.598C277.638 223.823 277.665 224.051 277.744 224.264Z" fill="#FFB573"/>
<path opacity="0.2" d="M277.744 224.264C277.863 224.609 278.055 224.925 278.309 225.193C278.563 225.46 278.872 225.673 279.216 225.816C280.152 226.204 280.816 225.374 280.752 224.419C280.688 223.465 280.104 222.316 279.08 222.332C278.847 222.341 278.619 222.404 278.415 222.515C278.212 222.626 278.038 222.782 277.908 222.97C277.778 223.158 277.695 223.373 277.667 223.598C277.638 223.823 277.665 224.051 277.744 224.264Z" fill="black"/>
<path d="M281.448 218.918C281.144 216.892 278.824 219.212 278.56 220.695C278.296 222.177 279.576 223.674 280.448 222.247C281.32 220.819 281.6 220.012 281.448 218.918Z" fill="#263238"/>
<path d="M287.768 222.433C286.768 225.436 286.336 227.221 284.376 228.516C283.783 228.956 283.072 229.222 282.328 229.281C281.584 229.34 280.838 229.191 280.179 228.851C279.52 228.511 278.976 227.994 278.611 227.363C278.246 226.731 278.075 226.011 278.12 225.288C278.2 222.448 279.824 218.017 283.136 217.319C286.448 216.62 288.8 219.429 287.768 222.433Z" fill="#FFB573"/>
<path d="M286.256 225.575C285.056 224.799 284.84 224.505 285.456 223.806C286.496 222.673 284.952 222.51 285.768 221.106C286.904 219.15 283.28 220.524 283.216 219.104C283.16 217.947 280.016 220.027 279.688 218.692C279.216 216.69 282.24 217.063 282.768 216.085C283.296 215.107 286.4 214.96 286.896 216.388C287.392 217.815 288.952 216.675 289.968 218.413C290.984 220.151 288.88 220.283 289.896 221.975C290.696 223.333 289.152 224.303 288.056 225.381C287.4 226.08 287 226.064 286.256 225.575Z" fill="#263238"/>
<path d="M288.448 225.599C287.93 226.215 287.194 226.621 286.384 226.74C285.328 226.879 285.04 225.964 285.536 225.04C286.032 224.117 287.056 223.209 288.016 223.488C288.976 223.768 289.096 224.831 288.448 225.599Z" fill="#FFB573"/>
<path d="M282.912 222.495C282.848 222.743 282.664 222.914 282.504 222.891C282.344 222.867 282.264 222.642 282.328 222.394C282.392 222.146 282.576 221.967 282.744 221.998C282.912 222.029 282.984 222.246 282.912 222.495Z" fill="#263238"/>
<path d="M280.112 222.014C280.04 222.262 279.856 222.441 279.696 222.409C279.536 222.378 279.456 222.161 279.52 221.913C279.584 221.664 279.776 221.494 279.936 221.517C280.096 221.54 280.176 221.765 280.112 222.014Z" fill="#263238"/>
<path d="M280.968 222.293C280.469 222.998 279.881 223.64 279.216 224.202C279.358 224.351 279.534 224.467 279.729 224.54C279.925 224.612 280.135 224.64 280.344 224.621L280.968 222.293Z" fill="#ED893E"/>
<path d="M280.88 225.428C280.871 225.426 280.862 225.423 280.854 225.417C280.846 225.412 280.839 225.405 280.835 225.397C280.83 225.388 280.828 225.379 280.827 225.37C280.827 225.361 280.828 225.351 280.832 225.343C280.836 225.323 280.847 225.306 280.864 225.295C280.88 225.283 280.9 225.278 280.92 225.281C281.24 225.335 281.568 225.319 281.881 225.235C282.194 225.15 282.483 224.999 282.728 224.792C282.735 224.785 282.743 224.78 282.752 224.776C282.761 224.773 282.77 224.771 282.78 224.771C282.79 224.771 282.799 224.773 282.808 224.776C282.817 224.78 282.825 224.785 282.832 224.792C282.839 224.798 282.844 224.806 282.848 224.815C282.852 224.823 282.854 224.833 282.854 224.842C282.854 224.851 282.852 224.861 282.848 224.869C282.844 224.878 282.839 224.886 282.832 224.893C282.57 225.12 282.258 225.287 281.92 225.38C281.582 225.473 281.226 225.489 280.88 225.428Z" fill="#263238"/>
<path d="M284 221.734C283.978 221.731 283.958 221.722 283.941 221.709C283.924 221.695 283.911 221.677 283.904 221.657C283.838 221.492 283.73 221.347 283.59 221.234C283.45 221.122 283.283 221.045 283.104 221.013C283.085 221.011 283.067 221.005 283.051 220.996C283.035 220.987 283.02 220.975 283.009 220.96C282.998 220.946 282.99 220.929 282.985 220.911C282.981 220.894 282.981 220.875 282.984 220.857C282.992 220.818 283.014 220.783 283.046 220.759C283.079 220.735 283.119 220.723 283.16 220.725C283.386 220.758 283.6 220.846 283.781 220.982C283.962 221.118 284.103 221.297 284.192 221.501C284.205 221.539 284.204 221.579 284.187 221.615C284.171 221.651 284.141 221.68 284.104 221.695C284.091 221.709 284.074 221.719 284.056 221.726C284.038 221.732 284.019 221.735 284 221.734Z" fill="#263238"/>
<path d="M279.112 220.811C279.094 220.816 279.074 220.816 279.056 220.811C279.042 220.798 279.031 220.782 279.023 220.765C279.016 220.747 279.012 220.729 279.012 220.71C279.012 220.691 279.016 220.672 279.023 220.655C279.031 220.638 279.042 220.622 279.056 220.609C279.212 220.424 279.411 220.277 279.636 220.179C279.86 220.08 280.106 220.034 280.352 220.043C280.371 220.045 280.389 220.052 280.406 220.062C280.422 220.071 280.436 220.084 280.448 220.099C280.459 220.115 280.467 220.132 280.471 220.15C280.475 220.168 280.475 220.187 280.472 220.206C280.464 220.245 280.442 220.279 280.41 220.304C280.377 220.328 280.337 220.34 280.296 220.337C280.101 220.334 279.907 220.373 279.73 220.453C279.553 220.532 279.396 220.649 279.272 220.795C279.249 220.811 279.222 220.821 279.194 220.824C279.166 220.827 279.138 220.822 279.112 220.811Z" fill="#263238"/>
<path d="M293.6 236.998L289.152 238.643C289.152 238.643 291.864 248.941 290.984 250.322C289.784 252.208 287.648 256.414 285.832 258.4C285.912 259.148 286.209 259.858 286.688 260.449C290.28 258.897 295.28 252.689 295.72 250.772C296.704 246.388 293.6 236.998 293.6 236.998Z" fill="#FFB573"/>
<path d="M292.8 232.668C295.64 233.545 296.416 244.044 296.416 244.044L288.976 245.162C288.27 242.68 287.751 240.151 287.424 237.596C286.96 233.685 289.744 231.729 292.8 232.668Z" fill="#FFC100"/>
<path opacity="0.3" d="M292.8 232.668C295.64 233.545 296.416 244.044 296.416 244.044L288.976 245.162C288.27 242.68 287.751 240.151 287.424 237.596C286.96 233.685 289.744 231.729 292.8 232.668Z" fill="black"/>
<path d="M287.368 258.229L284.432 257.64L285.28 261.046C285.28 261.046 287.872 261.481 288.752 259.587L287.368 258.229Z" fill="#FFB573"/>
<path d="M281.68 258.811L282.608 261.846L285.28 261.046L284.432 257.64L281.68 258.811Z" fill="#FFB573"/>
<path d="M229.153 192.349C239.345 182.795 240.151 167.564 230.952 158.331C221.754 149.098 206.034 149.358 195.842 158.912C185.65 168.466 184.844 183.696 194.043 192.929C203.241 202.163 218.961 201.903 229.153 192.349Z" fill="#FFC100"/>
<path d="M228.275 191.467C237.93 182.416 238.694 167.989 229.98 159.242C221.267 150.496 206.376 150.743 196.72 159.794C187.065 168.844 186.301 183.272 195.015 192.018C203.728 200.764 218.619 200.517 228.275 191.467Z" fill="white"/>
<path d="M222.328 181.002C222.448 182.849 222.544 184.711 222.616 186.566L222.848 192.107L222.888 192.782L222.944 193.371C223.008 193.775 223.056 194.194 223.144 194.629C223.312 195.482 223.528 196.351 223.784 197.22C224.264 198.966 224.848 200.728 225.384 202.466L223.728 203.242C222.726 201.598 221.842 199.889 221.08 198.128C220.712 197.236 220.368 196.328 220.072 195.373C219.914 194.889 219.783 194.397 219.68 193.899L219.544 193.123L219.464 192.409C219.04 188.653 218.76 184.952 218.608 181.219L222.328 181.002Z" fill="#FF8B7B"/>
<path d="M221.448 176.928C222.904 177.293 223.528 183.237 223.528 183.237L217.6 187.016C217.6 187.016 215.752 179.978 217.008 178.395C218.264 176.812 219.312 176.4 221.448 176.928Z" fill="#FFC100"/>
<path opacity="0.2" d="M221.216 178.263L221.936 184.246L219.528 185.767L221.216 178.263Z" fill="black"/>
<path d="M225.432 202.063L227.032 205.361L223.88 205.446C223.88 205.446 222.96 203.118 223.936 201.931L225.432 202.063Z" fill="#FFB573"/>
<path d="M205.2 161.625C202.696 161.974 197.456 173.583 206 179C214.544 184.416 220.848 178.263 220.848 178.263C220.848 178.263 215.648 172.272 216.4 168.361C217.152 164.45 220.4 159.522 213.744 157.877C209.056 156.752 202.752 157.838 205.2 161.625Z" fill="#263238"/>
<path d="M227.176 206.99L224.504 206.773L223.912 205.446L227.072 205.361L227.176 206.99Z" fill="#FFB573"/>
<path d="M221.448 176.928C221.448 176.928 223.12 177.518 218.248 198.066H203.568C204.224 192.277 204.48 188.708 202.464 176.827C204.538 176.423 206.639 176.164 208.752 176.051C210.968 175.9 213.192 175.9 215.408 176.051C218.248 176.292 221.448 176.928 221.448 176.928Z" fill="#FFC100"/>
<path opacity="0.2" d="M203.344 181.537C204.648 181.856 205.744 183.26 205.448 185.852C205.273 187.045 204.77 188.171 203.992 189.111C203.904 187.117 203.672 184.804 203.256 181.848L203.344 181.537Z" fill="black"/>
<path d="M214.312 180.591C214.312 180.591 211.776 182.515 211.632 184.556C209.736 183.136 207.312 179.271 207.208 176.796C207.208 176.59 207.292 176.393 207.442 176.247C207.592 176.102 207.796 176.02 208.008 176.02C208.188 176.007 208.367 175.983 208.544 175.95C208.618 175.934 208.694 175.935 208.768 175.953C208.841 175.97 208.91 176.004 208.968 176.051L214.312 180.591Z" fill="#FAFAFA"/>
<path d="M214.312 180.591C214.986 180.999 215.55 181.557 215.955 182.221C216.36 182.884 216.595 183.631 216.64 184.401C218.768 182.965 218.04 178.674 217.056 176.571C216.98 176.407 216.861 176.266 216.71 176.161C216.56 176.056 216.384 175.992 216.2 175.974C215.912 175.974 215.688 175.904 215.536 175.873C215.481 175.863 215.424 175.875 215.378 175.906C215.332 175.936 215.299 175.983 215.288 176.036L214.312 180.591Z" fill="#FAFAFA"/>
<path d="M209.92 168.764C210.192 170.844 210.344 174.654 208.752 176.036C210.245 177.925 212.142 179.479 214.312 180.591C217.448 178.263 215.408 176.036 215.408 176.036C213.056 175.485 213.24 173.77 213.768 172.156L209.92 168.764Z" fill="#FF8B7B"/>
<path opacity="0.2" d="M211.488 170.146L213.768 172.148C213.638 172.522 213.542 172.906 213.48 173.296C212.576 173.164 211.2 172.412 211.08 171.449C211.109 170.99 211.249 170.543 211.488 170.146Z" fill="black"/>
<path d="M206.568 165.428C207.32 168.772 207.568 170.2 209.632 171.558C210.323 172.033 211.132 172.323 211.976 172.397C212.82 172.471 213.67 172.326 214.438 171.979C215.205 171.631 215.865 171.092 216.349 170.417C216.832 169.743 217.123 168.955 217.192 168.136C217.472 164.931 216.192 160.003 212.512 159.398C211.677 159.272 210.824 159.343 210.023 159.606C209.223 159.869 208.501 160.315 207.917 160.907C207.333 161.5 206.905 162.22 206.671 163.007C206.436 163.794 206.401 164.625 206.568 165.428Z" fill="#FF8B7B"/>
<path d="M207.552 168.438C209.768 166.39 209.848 163.852 209.288 163.061C211.192 162.906 216.12 161.742 215.328 159.957C214.536 158.172 206.864 157.21 205.808 161.773C203.264 163.837 204.888 167.973 207.552 168.438Z" fill="#263238"/>
<path d="M212.36 165.125C212.408 165.404 212.592 165.591 212.784 165.552C212.976 165.513 213.088 165.257 213.04 164.985C212.992 164.714 212.808 164.512 212.624 164.558C212.44 164.605 212.32 164.853 212.36 165.125Z" fill="#263238"/>
<path d="M215.624 164.435C215.664 164.714 215.856 164.9 216.04 164.861C216.224 164.823 216.352 164.566 216.304 164.287C216.256 164.008 216.072 163.822 215.888 163.86C215.78 163.909 215.694 163.994 215.646 164.1C215.597 164.205 215.59 164.324 215.624 164.435Z" fill="#263238"/>
<path d="M215.8 163.899L216.464 163.557C216.464 163.557 216.192 164.147 215.8 163.899Z" fill="#263238"/>
<path d="M214.696 165.148C215.051 165.724 215.491 166.247 216 166.7C215.871 166.832 215.716 166.935 215.544 167.005C215.372 167.074 215.186 167.108 215 167.104L214.696 165.148Z" fill="#FF5652"/>
<path d="M213.6 168.5C213.745 168.493 213.89 168.475 214.032 168.446C214.055 168.441 214.074 168.427 214.088 168.409C214.101 168.39 214.107 168.368 214.104 168.345C214.104 168.334 214.1 168.324 214.095 168.314C214.089 168.305 214.081 168.297 214.072 168.291C214.063 168.285 214.052 168.281 214.041 168.28C214.03 168.278 214.019 168.28 214.008 168.283C213.662 168.371 213.298 168.375 212.95 168.295C212.601 168.215 212.278 168.054 212.008 167.825C211.992 167.811 211.97 167.802 211.948 167.802C211.926 167.802 211.904 167.811 211.888 167.825C211.88 167.833 211.873 167.842 211.868 167.852C211.863 167.862 211.861 167.873 211.861 167.884C211.861 167.895 211.863 167.905 211.868 167.916C211.873 167.926 211.88 167.935 211.888 167.942C212.117 168.146 212.388 168.302 212.683 168.398C212.978 168.494 213.29 168.529 213.6 168.5Z" fill="#263238"/>
<path d="M206.104 168.764C206.28 169.04 206.513 169.277 206.788 169.46C207.064 169.643 207.376 169.768 207.704 169.828C208.6 169.991 209.024 169.184 208.76 168.4C208.496 167.616 207.768 166.762 206.88 166.956C206.686 166.998 206.506 167.083 206.354 167.207C206.202 167.33 206.083 167.487 206.006 167.664C205.93 167.842 205.899 168.034 205.916 168.226C205.933 168.418 205.998 168.602 206.104 168.764Z" fill="#FF8B7B"/>
<path d="M210.832 164.512C210.868 164.508 210.902 164.493 210.93 164.47C210.957 164.446 210.976 164.415 210.984 164.38C211.193 163.855 211.607 163.432 212.136 163.201C212.158 163.192 212.177 163.179 212.194 163.164C212.211 163.148 212.224 163.129 212.233 163.108C212.242 163.087 212.246 163.064 212.246 163.042C212.246 163.019 212.241 162.996 212.232 162.976C212.223 162.956 212.211 162.939 212.195 162.925C212.18 162.911 212.161 162.899 212.141 162.892C212.121 162.885 212.099 162.882 212.078 162.883C212.056 162.884 212.035 162.889 212.016 162.898C211.702 163.034 211.419 163.23 211.184 163.474C210.949 163.718 210.767 164.005 210.648 164.318C210.642 164.339 210.641 164.361 210.644 164.382C210.648 164.404 210.656 164.424 210.668 164.443C210.68 164.461 210.696 164.477 210.714 164.488C210.733 164.5 210.754 164.508 210.776 164.512C210.785 164.516 210.794 164.518 210.804 164.518C210.814 164.518 210.823 164.516 210.832 164.512Z" fill="#263238"/>
<path d="M216.416 162.231C216.446 162.231 216.475 162.224 216.502 162.21C216.528 162.197 216.551 162.177 216.568 162.153C216.598 162.121 216.615 162.08 216.615 162.037C216.615 161.993 216.598 161.952 216.568 161.92C216.346 161.772 216.091 161.677 215.824 161.643C215.557 161.609 215.285 161.638 215.032 161.726C214.99 161.743 214.956 161.775 214.937 161.815C214.917 161.856 214.914 161.901 214.928 161.943C214.936 161.964 214.948 161.983 214.964 161.999C214.979 162.015 214.998 162.028 215.019 162.037C215.04 162.045 215.063 162.05 215.086 162.05C215.108 162.05 215.131 162.045 215.152 162.037C215.352 161.966 215.566 161.943 215.777 161.972C215.987 162 216.188 162.078 216.36 162.2L216.416 162.231Z" fill="#263238"/>
<path d="M212.544 164.59L213.208 164.248C213.208 164.248 212.928 164.846 212.544 164.59Z" fill="#263238"/>
<path d="M203.408 197.236L202.944 198.508C202.88 198.609 203 198.71 203.168 198.71H218.256C218.392 198.71 218.504 198.648 218.52 198.563L218.736 197.29C218.736 197.205 218.648 197.127 218.496 197.127H203.656C203.609 197.123 203.561 197.131 203.517 197.15C203.474 197.169 203.436 197.199 203.408 197.236Z" fill="#FFC100"/>
<path opacity="0.2" d="M203.408 197.236L202.944 198.508C202.88 198.609 203 198.71 203.168 198.71H218.256C218.392 198.71 218.504 198.648 218.52 198.563L218.736 197.29C218.736 197.205 218.648 197.127 218.496 197.127H203.656C203.609 197.123 203.561 197.131 203.517 197.15C203.474 197.169 203.436 197.199 203.408 197.236Z" fill="white"/>
<path d="M205.336 198.842H204.936C204.856 198.842 204.8 198.803 204.808 198.757L205.112 197.104C205.112 197.057 205.192 197.019 205.272 197.019H205.672C205.752 197.019 205.808 197.057 205.8 197.104L205.496 198.757C205.488 198.803 205.416 198.842 205.336 198.842Z" fill="#FFC100"/>
<path opacity="0.4" d="M205.336 198.842H204.936C204.856 198.842 204.8 198.803 204.808 198.757L205.112 197.104C205.112 197.057 205.192 197.019 205.272 197.019H205.672C205.752 197.019 205.808 197.057 205.8 197.104L205.496 198.757C205.488 198.803 205.416 198.842 205.336 198.842Z" fill="black"/>
<path d="M217.128 198.842H216.728C216.648 198.842 216.592 198.803 216.6 198.757L216.904 197.104C216.904 197.057 216.984 197.019 217.064 197.019H217.464C217.544 197.019 217.6 197.057 217.592 197.104L217.288 198.757C217.28 198.803 217.208 198.842 217.128 198.842Z" fill="#FFC100"/>
<path opacity="0.4" d="M217.128 198.842H216.728C216.648 198.842 216.592 198.803 216.6 198.757L216.904 197.104C216.904 197.057 216.984 197.019 217.064 197.019H217.464C217.544 197.019 217.6 197.057 217.592 197.104L217.288 198.757C217.28 198.803 217.208 198.842 217.128 198.842Z" fill="black"/>
<path d="M211.256 198.842H210.856C210.776 198.842 210.72 198.803 210.728 198.757L211.032 197.104C211.032 197.057 211.112 197.019 211.192 197.019H211.592C211.672 197.019 211.728 197.057 211.72 197.104L211.416 198.757C211.408 198.803 211.336 198.842 211.256 198.842Z" fill="#FFC100"/>
<path opacity="0.4" d="M211.256 198.842H210.856C210.776 198.842 210.72 198.803 210.728 198.757L211.032 197.104C211.032 197.057 211.112 197.019 211.192 197.019H211.592C211.672 197.019 211.728 197.057 211.72 197.104L211.416 198.757C211.408 198.803 211.336 198.842 211.256 198.842Z" fill="black"/>
<path d="M212.176 200.907L215.848 199.354L214.592 202.777C214.592 202.777 212.296 203.281 211.392 202.179L212.176 200.907Z" fill="#FFB573"/>
<path d="M204.096 181.584C203.68 183.912 203.208 186.31 202.728 188.669C202.496 189.848 202.232 190.997 201.976 192.2L201.6 193.961L201.432 194.737C201.412 194.792 201.412 194.853 201.432 194.908C201.562 195.235 201.771 195.527 202.04 195.761C202.412 196.113 202.819 196.428 203.256 196.7C204.236 197.306 205.26 197.843 206.32 198.307C207.4 198.796 208.52 199.246 209.656 199.657C210.792 200.068 211.952 200.433 213.096 200.836L212.68 202.567C210.169 202.168 207.699 201.56 205.296 200.751C204.049 200.336 202.842 199.817 201.688 199.199C201.062 198.86 200.47 198.466 199.92 198.02C199.219 197.483 198.668 196.784 198.32 195.986C198.125 195.492 198.049 194.962 198.096 194.434C198.136 194.101 198.152 194.031 198.176 193.868L198.248 193.418L198.528 191.641C198.728 190.454 198.904 189.266 199.12 188.079C199.528 185.712 199.92 183.345 200.424 180.986L204.096 181.584Z" fill="#FF8B7B"/>
<path d="M202.464 176.835C200.968 177.269 198.856 182.174 198.856 182.174L203.656 187.303C203.656 187.303 206.664 182.026 206.184 180.187C205.704 178.348 204.176 176.338 202.464 176.835Z" fill="#FFC100"/>
<path d="M218.744 200.076L217.536 202.893L214.592 202.784L215.848 199.362L218.744 200.076Z" fill="#FFB573"/>
<path opacity="0.3" d="M193.856 116.283H251.2C251.734 116.275 252.245 116.074 252.634 115.72C253.023 115.365 253.262 114.883 253.304 114.367C253.325 114.121 253.293 113.874 253.21 113.642C253.127 113.409 252.994 113.196 252.821 113.016C252.647 112.836 252.437 112.693 252.203 112.597C251.97 112.501 251.718 112.454 251.464 112.458H194.128C193.595 112.465 193.083 112.665 192.693 113.018C192.303 113.371 192.061 113.851 192.016 114.367C191.995 114.612 192.027 114.86 192.11 115.093C192.193 115.326 192.325 115.54 192.499 115.72C192.672 115.9 192.882 116.044 193.116 116.141C193.35 116.238 193.602 116.286 193.856 116.283Z" fill="#FFC100"/>
<path opacity="0.3" d="M209.696 124.695H250.584C251.118 124.686 251.629 124.484 252.02 124.13C252.41 123.776 252.651 123.295 252.696 122.779C252.717 122.533 252.685 122.286 252.602 122.054C252.519 121.821 252.386 121.608 252.213 121.428C252.04 121.248 251.829 121.105 251.595 121.009C251.362 120.913 251.11 120.866 250.856 120.87H209.968C209.435 120.877 208.923 121.077 208.533 121.43C208.143 121.782 207.902 122.263 207.856 122.779C207.835 123.024 207.867 123.272 207.95 123.505C208.033 123.738 208.165 123.951 208.339 124.132C208.512 124.312 208.722 124.456 208.956 124.553C209.19 124.65 209.442 124.698 209.696 124.695Z" fill="#FFC100"/>
<path d="M219.248 107.864H251.776C252.309 107.858 252.82 107.658 253.21 107.305C253.599 106.952 253.838 106.47 253.88 105.955C253.901 105.71 253.869 105.463 253.787 105.231C253.704 104.998 253.572 104.785 253.4 104.604C253.228 104.424 253.018 104.281 252.786 104.183C252.553 104.086 252.302 104.036 252.048 104.038H219.52C218.986 104.046 218.475 104.247 218.086 104.602C217.697 104.956 217.458 105.439 217.416 105.955C217.395 106.2 217.427 106.446 217.509 106.678C217.592 106.91 217.724 107.123 217.896 107.303C218.069 107.482 218.278 107.625 218.511 107.722C218.744 107.818 218.995 107.867 219.248 107.864Z" fill="white"/>
<path opacity="0.3" d="M219.32 239.186H242.52C242.774 239.182 243.026 239.23 243.259 239.326C243.493 239.422 243.704 239.565 243.877 239.745C244.05 239.924 244.183 240.138 244.266 240.37C244.349 240.603 244.381 240.85 244.36 241.095C244.318 241.613 244.078 242.096 243.687 242.451C243.297 242.806 242.783 243.006 242.248 243.012H219.048C218.794 243.015 218.542 242.966 218.308 242.869C218.074 242.772 217.864 242.629 217.691 242.449C217.518 242.268 217.385 242.054 217.302 241.821C217.219 241.588 217.187 241.341 217.208 241.095C217.252 240.579 217.493 240.097 217.883 239.744C218.274 239.391 218.786 239.192 219.32 239.186Z" fill="#FFC100"/>
<path opacity="0.3" d="M187.904 239.186H211.104C211.358 239.182 211.61 239.23 211.844 239.326C212.077 239.422 212.288 239.565 212.461 239.745C212.634 239.924 212.767 240.138 212.85 240.37C212.933 240.603 212.965 240.85 212.944 241.095C212.899 241.612 212.658 242.093 212.268 242.447C211.878 242.801 211.366 243.002 210.832 243.012H187.632C187.378 243.015 187.126 242.966 186.892 242.869C186.658 242.772 186.448 242.629 186.275 242.449C186.102 242.268 185.969 242.054 185.886 241.821C185.803 241.588 185.771 241.341 185.792 241.095C185.834 240.578 186.074 240.096 186.465 239.742C186.856 239.389 187.37 239.191 187.904 239.186Z" fill="#FFC100"/>
<path opacity="0.3" d="M202.208 230.775H243.096C243.35 230.771 243.602 230.818 243.836 230.914C244.069 231.01 244.28 231.153 244.453 231.333C244.626 231.513 244.759 231.726 244.842 231.959C244.925 232.191 244.957 232.438 244.936 232.684C244.894 233.2 244.656 233.682 244.266 234.037C243.877 234.391 243.366 234.592 242.832 234.6H201.936C201.682 234.603 201.43 234.555 201.197 234.458C200.964 234.361 200.754 234.217 200.581 234.037C200.409 233.856 200.277 233.642 200.195 233.409C200.112 233.176 200.082 232.929 200.104 232.684C200.146 232.168 200.385 231.686 200.774 231.333C201.164 230.98 201.675 230.781 202.208 230.775Z" fill="#FFC100"/>
<path d="M196.8 222.355H243.68C243.934 222.352 244.186 222.4 244.419 222.497C244.652 222.595 244.862 222.738 245.035 222.919C245.207 223.099 245.339 223.313 245.421 223.546C245.504 223.779 245.534 224.026 245.512 224.272C245.47 224.787 245.231 225.269 244.842 225.622C244.452 225.975 243.941 226.174 243.408 226.181H196.552C196.298 226.185 196.046 226.137 195.812 226.041C195.579 225.945 195.368 225.802 195.195 225.622C195.022 225.442 194.889 225.229 194.806 224.997C194.723 224.764 194.691 224.517 194.712 224.272C194.753 223.758 194.99 223.278 195.376 222.924C195.761 222.569 196.269 222.367 196.8 222.355Z" fill="white"/>
<path opacity="0.3" d="M294.24 182.127H251.52C250.986 182.135 250.475 182.336 250.086 182.691C249.697 183.045 249.458 183.528 249.416 184.044C249.395 184.289 249.427 184.535 249.509 184.767C249.592 184.999 249.724 185.212 249.896 185.392C250.069 185.571 250.278 185.714 250.511 185.811C250.744 185.908 250.995 185.956 251.248 185.953H293.968C294.501 185.947 295.012 185.747 295.402 185.394C295.791 185.041 296.03 184.559 296.072 184.044C296.094 183.798 296.063 183.551 295.981 183.318C295.899 183.085 295.767 182.871 295.595 182.691C295.422 182.51 295.212 182.367 294.979 182.27C294.746 182.173 294.494 182.124 294.24 182.127Z" fill="#FFC100"/>
<path opacity="0.3" d="M272.272 173.715H252.112C251.578 173.723 251.067 173.924 250.678 174.279C250.289 174.633 250.05 175.116 250.008 175.632C249.987 175.877 250.019 176.124 250.102 176.357C250.185 176.59 250.318 176.803 250.491 176.983C250.664 177.163 250.875 177.305 251.108 177.401C251.342 177.497 251.594 177.545 251.848 177.541H272C272.533 177.533 273.045 177.334 273.435 176.981C273.825 176.628 274.066 176.147 274.112 175.632C274.133 175.386 274.101 175.139 274.018 174.906C273.935 174.673 273.803 174.459 273.629 174.279C273.456 174.098 273.246 173.955 273.012 173.858C272.778 173.761 272.526 173.712 272.272 173.715Z" fill="#FFC100"/>
<path d="M284.072 165.288H252.712C252.179 165.296 251.667 165.495 251.277 165.848C250.887 166.201 250.646 166.682 250.6 167.197C250.579 167.443 250.611 167.69 250.694 167.923C250.777 168.156 250.91 168.37 251.083 168.55C251.256 168.731 251.466 168.874 251.7 168.971C251.934 169.068 252.186 169.117 252.44 169.114H283.808C284.342 169.107 284.855 168.907 285.244 168.552C285.634 168.197 285.872 167.714 285.912 167.197C285.933 166.952 285.901 166.705 285.818 166.472C285.735 166.239 285.602 166.026 285.429 165.846C285.256 165.666 285.045 165.524 284.812 165.428C284.578 165.332 284.326 165.284 284.072 165.288Z" fill="white"/>
<path opacity="0.3" d="M309.44 173.715H280.8C280.266 173.725 279.754 173.926 279.364 174.28C278.974 174.634 278.733 175.116 278.688 175.632C278.667 175.877 278.699 176.124 278.782 176.357C278.865 176.59 278.998 176.803 279.171 176.983C279.344 177.163 279.555 177.305 279.789 177.401C280.022 177.497 280.274 177.545 280.528 177.541H309.168C309.701 177.533 310.213 177.334 310.603 176.981C310.993 176.628 311.234 176.147 311.28 175.632C311.301 175.386 311.269 175.139 311.186 174.906C311.103 174.673 310.97 174.459 310.797 174.279C310.624 174.098 310.414 173.955 310.18 173.858C309.946 173.761 309.694 173.712 309.44 173.715Z" fill="#FFC100"/>
<path opacity="0.3" d="M180.648 94.3615H202.072L200.936 75.947L180.648 94.3615Z" fill="#FFC100"/>
<path d="M180.648 94.3615L203.584 91.6998L200.936 75.947L180.648 94.3615Z" fill="#FFC100"/>
<path d="M94.224 148.914C93.544 150.466 92.792 152.189 92.128 153.85C91.464 155.51 90.784 157.21 90.168 158.894C88.9152 162.187 87.8863 165.557 87.088 168.982C86.976 169.401 86.92 169.812 86.84 170.223L86.728 170.844L86.64 171.333C86.5608 172.023 86.5447 172.719 86.592 173.413C86.7298 175.108 86.9676 176.795 87.304 178.464C87.992 181.949 88.904 185.557 89.808 189.096L85.744 190.764C83.725 187.415 82.022 183.896 80.656 180.249C79.9254 178.332 79.3608 176.36 78.968 174.352C78.7337 173.197 78.6291 172.021 78.656 170.844V170.34C78.656 170.177 78.656 170.076 78.656 169.936L78.736 169.16C78.792 168.656 78.824 168.136 78.912 167.608C79.505 163.695 80.439 159.837 81.704 156.077C82.328 154.222 82.968 152.391 83.712 150.598C84.456 148.806 85.176 147.044 86.112 145.205L94.224 148.914Z" fill="#7F3E3B"/>
<path d="M89.672 188.133L92.792 191.082L85.984 194.186C85.984 194.186 84.336 191.393 85.472 188.863L89.672 188.133Z" fill="#7F3E3B"/>
<path d="M95.304 195.482L89.56 197.764L85.984 194.155L92.792 191.082L95.304 195.482Z" fill="#7F3E3B"/>
<path d="M243.837 178.505C252.825 157.457 242.521 133.325 220.821 124.607C199.121 115.888 174.244 125.883 165.256 146.932C156.267 167.981 166.572 192.112 188.272 200.831C209.971 209.549 234.849 199.554 243.837 178.505Z" fill="#FFC100"/>
<path d="M204.544 201.799C226.794 201.799 244.832 184.302 244.832 162.719C244.832 141.136 226.794 123.64 204.544 123.64C182.293 123.64 164.256 141.136 164.256 162.719C164.256 184.302 182.293 201.799 204.544 201.799Z" fill="white"/>
<path d="M222.032 171.713C222.48 174.91 222.832 178.123 223.224 181.328L224.312 190.896L224.456 192.045L224.624 193.077L224.856 194.148L225.136 195.242C225.552 196.708 226.024 198.198 226.552 199.688C227.576 202.676 228.776 205.671 229.952 208.651L227.2 210.094C225.312 207.336 223.607 204.465 222.096 201.496C221.352 199.991 220.64 198.462 220.032 196.84L219.584 195.614L219.184 194.334C219.064 193.891 218.96 193.434 218.848 192.984L218.6 191.742C217.984 188.498 217.48 185.301 217 182.088C216.52 178.876 216.096 175.663 215.744 172.435L222.032 171.713Z" fill="#FF8B7B"/>
<path d="M220.04 164.954C222.592 165.583 224.376 175.772 224.376 175.772L214.624 182.205C214.624 182.205 210.624 170.13 212.568 167.414C214.616 164.582 216.32 164.039 220.04 164.954Z" fill="#FFC100"/>
<path opacity="0.2" d="M219.816 167.228L221.776 177.495L217.824 180.094L219.816 167.228Z" fill="black"/>
<path d="M229.92 208.046L233.12 213.695L227.712 213.834C227.712 213.834 225.856 209.815 227.392 207.813L229.92 208.046Z" fill="#FFB573"/>
<path d="M190.328 138.71C186.088 139.308 178.496 159.212 193.816 168.501C209.136 177.789 219.2 167.236 219.2 167.236C219.2 167.236 209.56 156.954 210.4 150.249C211.24 143.545 216.192 135.094 204.576 132.277C196.344 130.283 185.68 132.207 190.328 138.71Z" fill="#263238"/>
<path d="M233.512 216.496L228.896 216.124L227.728 213.835L233.136 213.695L233.512 216.496Z" fill="#FFB573"/>
<path d="M220.04 164.955C220.04 164.955 222.992 165.963 217.088 201.194H191.944C192.368 191.269 192.376 185.154 187.488 164.784C191.006 164.075 194.573 163.619 198.16 163.418C201.96 163.15 205.776 163.15 209.576 163.418C214.48 163.853 220.04 164.955 220.04 164.955Z" fill="#FFC100"/>
<path opacity="0.2" d="M189.6 172.846C191.88 173.397 193.984 175.803 193.728 180.242C193.589 182.259 192.862 184.197 191.632 185.829C191.232 182.415 190.552 178.457 189.488 173.413L189.6 172.846Z" fill="black"/>
<path d="M208.256 171.224C208.256 171.224 204.136 174.515 204.136 178.014C200.712 175.586 196.096 168.959 195.608 164.722C195.593 164.551 195.613 164.379 195.668 164.215C195.724 164.052 195.812 163.902 195.929 163.773C196.045 163.644 196.187 163.539 196.347 163.465C196.506 163.39 196.679 163.348 196.856 163.34C197.163 163.324 197.468 163.285 197.768 163.224C197.897 163.197 198.03 163.2 198.157 163.231C198.285 163.262 198.404 163.32 198.504 163.402L208.256 171.224Z" fill="#FAFAFA"/>
<path d="M208.256 171.224C209.457 171.918 210.481 172.864 211.252 173.994C212.024 175.124 212.523 176.408 212.712 177.751C216.176 175.291 214.408 167.934 212.48 164.334C212.329 164.053 212.109 163.813 211.84 163.635C211.571 163.456 211.26 163.344 210.936 163.309C210.424 163.247 210.04 163.185 209.784 163.131C209.738 163.122 209.69 163.122 209.644 163.132C209.597 163.142 209.554 163.161 209.516 163.188C209.477 163.215 209.445 163.249 209.421 163.289C209.397 163.328 209.382 163.372 209.376 163.418L208.256 171.224Z" fill="#FAFAFA"/>
<path d="M199.296 150.948C200.016 154.509 200.736 161.036 198.16 163.418C200.95 166.652 204.384 169.307 208.256 171.224C213.352 167.282 209.576 163.418 209.576 163.418C205.48 162.471 205.576 159.538 206.304 156.752L199.296 150.948Z" fill="#FF8B7B"/>
<path opacity="0.2" d="M202.152 153.314L206.296 156.752C206.122 157.396 206.004 158.052 205.944 158.715C204.384 158.498 201.944 157.202 201.584 155.549C201.581 154.77 201.776 154.003 202.152 153.314Z" fill="black"/>
<path d="M193.136 145.229C194.832 150.955 195.424 153.408 199.136 155.743C204.736 159.243 211.592 155.968 211.688 149.861C211.776 144.367 208.984 135.893 202.6 134.877C201.192 134.64 199.745 134.755 198.396 135.213C197.047 135.671 195.841 136.456 194.893 137.493C193.945 138.531 193.286 139.786 192.978 141.14C192.671 142.493 192.725 143.901 193.136 145.229Z" fill="#FF8B7B"/>
<path d="M195.2 150.389C198.76 146.866 198.584 142.52 197.528 141.162C200.776 140.898 209.088 138.904 207.512 135.854C205.936 132.805 192.672 131.144 191.408 138.958C187.288 142.489 190.568 149.589 195.2 150.389Z" fill="#263238"/>
<path d="M203.032 144.709C203.144 145.182 203.488 145.485 203.832 145.438C204.176 145.391 204.32 144.934 204.216 144.46C204.112 143.987 203.76 143.684 203.416 143.731C203.072 143.777 202.928 144.235 203.032 144.709Z" fill="#263238"/>
<path d="M208.544 143.56C208.656 144.034 209 144.336 209.344 144.29C209.688 144.243 209.832 143.785 209.72 143.312C209.608 142.838 209.264 142.536 208.92 142.575C208.576 142.613 208.44 143.048 208.544 143.56Z" fill="#263238"/>
<path d="M208.8 142.598L209.896 142.016C209.896 142.016 209.488 143.032 208.8 142.598Z" fill="#263238"/>
<path d="M207.04 144.74C207.712 145.721 208.52 146.609 209.44 147.378C209.231 147.604 208.974 147.783 208.687 147.902C208.399 148.021 208.089 148.078 207.776 148.069L207.04 144.74Z" fill="#FF5652"/>
<path d="M205.6 150.497C205.848 150.481 206.094 150.448 206.336 150.397C206.374 150.387 206.406 150.365 206.427 150.333C206.448 150.301 206.455 150.263 206.448 150.226C206.439 150.189 206.415 150.158 206.382 150.138C206.35 150.117 206.31 150.11 206.272 150.117C205.668 150.259 205.039 150.263 204.434 150.129C203.828 149.994 203.263 149.724 202.784 149.341C202.756 149.316 202.719 149.301 202.68 149.301C202.641 149.301 202.604 149.316 202.576 149.341C202.562 149.354 202.551 149.37 202.543 149.387C202.536 149.405 202.532 149.423 202.532 149.442C202.532 149.461 202.536 149.48 202.543 149.497C202.551 149.514 202.562 149.53 202.576 149.543C202.989 149.889 203.47 150.152 203.989 150.316C204.508 150.48 205.056 150.541 205.6 150.497Z" fill="#263238"/>
<path d="M192.744 150.94C193.074 151.412 193.497 151.816 193.988 152.129C194.48 152.442 195.03 152.657 195.608 152.763C197.16 153.043 197.792 151.669 197.208 150.319C196.712 149.109 195.312 147.51 193.816 147.836C193.493 147.92 193.197 148.08 192.953 148.302C192.71 148.524 192.527 148.801 192.421 149.109C192.314 149.416 192.288 149.744 192.345 150.064C192.401 150.383 192.538 150.684 192.744 150.94Z" fill="#FF8B7B"/>
<path d="M200.336 143.669C200.397 143.662 200.453 143.636 200.498 143.596C200.542 143.555 200.573 143.502 200.584 143.444C200.728 143.001 200.965 142.591 201.281 142.241C201.596 141.891 201.983 141.609 202.416 141.411C202.452 141.396 202.484 141.374 202.511 141.346C202.538 141.319 202.559 141.286 202.572 141.251C202.586 141.215 202.591 141.177 202.589 141.139C202.587 141.101 202.577 141.064 202.56 141.03C202.544 140.996 202.521 140.966 202.492 140.94C202.463 140.915 202.43 140.896 202.393 140.884C202.356 140.871 202.318 140.866 202.279 140.869C202.24 140.871 202.203 140.881 202.168 140.899C201.649 141.132 201.187 141.471 200.814 141.893C200.442 142.315 200.167 142.809 200.008 143.343C200.001 143.379 200.002 143.416 200.01 143.452C200.017 143.488 200.033 143.522 200.054 143.553C200.076 143.583 200.103 143.609 200.135 143.629C200.167 143.649 200.203 143.662 200.24 143.669C200.271 143.677 200.305 143.677 200.336 143.669Z" fill="#263238"/>
<path d="M209.6 139.734C209.666 139.742 209.732 139.727 209.788 139.692C209.844 139.657 209.886 139.605 209.907 139.544C209.927 139.483 209.926 139.417 209.902 139.357C209.878 139.297 209.834 139.247 209.776 139.215C209.394 138.956 208.953 138.79 208.49 138.732C208.028 138.674 207.558 138.725 207.12 138.881C207.05 138.912 206.994 138.968 206.966 139.037C206.938 139.107 206.938 139.184 206.968 139.253C206.983 139.288 207.005 139.319 207.032 139.345C207.06 139.371 207.092 139.392 207.128 139.406C207.164 139.419 207.202 139.426 207.241 139.425C207.279 139.424 207.317 139.416 207.352 139.401C207.701 139.283 208.074 139.247 208.44 139.297C208.806 139.347 209.154 139.481 209.456 139.688C209.498 139.718 209.548 139.734 209.6 139.734Z" fill="#263238"/>
<path d="M203.28 143.785L204.376 143.203C204.376 143.203 204 144.22 203.28 143.785Z" fill="#263238"/>
<path d="M191.568 199.766L190.92 201.946C190.84 202.117 191.04 202.288 191.336 202.288H217.208C217.432 202.288 217.624 202.179 217.64 202.047L217.864 199.859C217.864 199.711 217.68 199.579 217.432 199.579H192C191.917 199.569 191.833 199.581 191.757 199.614C191.681 199.647 191.616 199.699 191.568 199.766Z" fill="#FFC100"/>
<path opacity="0.2" d="M191.568 199.766L190.92 201.946C190.84 202.117 191.04 202.288 191.336 202.288H217.208C217.432 202.288 217.624 202.179 217.64 202.047L217.864 199.859C217.864 199.711 217.68 199.579 217.432 199.579H192C191.917 199.569 191.833 199.581 191.757 199.614C191.681 199.647 191.616 199.699 191.568 199.766Z" fill="white"/>
<path d="M195.072 202.536H194.4C194.264 202.536 194.16 202.466 194.168 202.381L194.488 199.548C194.488 199.463 194.616 199.393 194.752 199.393H195.432C195.568 199.393 195.672 199.463 195.664 199.548L195.344 202.381C195.328 202.459 195.2 202.536 195.072 202.536Z" fill="#FFC100"/>
<path opacity="0.4" d="M195.072 202.536H194.4C194.264 202.536 194.16 202.466 194.168 202.381L194.488 199.548C194.488 199.463 194.616 199.393 194.752 199.393H195.432C195.568 199.393 195.672 199.463 195.664 199.548L195.344 202.381C195.328 202.459 195.2 202.536 195.072 202.536Z" fill="black"/>
<path d="M215.296 202.536H214.608C214.472 202.536 214.368 202.466 214.384 202.381L214.704 199.548C214.704 199.463 214.832 199.393 214.968 199.393H215.648C215.784 199.393 215.888 199.463 215.88 199.548L215.56 202.381C215.539 202.431 215.503 202.473 215.455 202.501C215.407 202.529 215.351 202.542 215.296 202.536Z" fill="#FFC100"/>
<path opacity="0.4" d="M215.296 202.536H214.608C214.472 202.536 214.368 202.466 214.384 202.381L214.704 199.548C214.704 199.463 214.832 199.393 214.968 199.393H215.648C215.784 199.393 215.888 199.463 215.88 199.548L215.56 202.381C215.539 202.431 215.503 202.473 215.455 202.501C215.407 202.529 215.351 202.542 215.296 202.536Z" fill="black"/>
<path d="M205.224 202.536H204.544C204.408 202.536 204.304 202.466 204.312 202.381L204.632 199.548C204.632 199.463 204.76 199.393 204.896 199.393H205.6C205.736 199.393 205.84 199.463 205.832 199.548L205.512 202.381C205.48 202.459 205.36 202.536 205.224 202.536Z" fill="#FFC100"/>
<path opacity="0.4" d="M205.224 202.536H204.544C204.408 202.536 204.304 202.466 204.312 202.381L204.632 199.548C204.632 199.463 204.76 199.393 204.896 199.393H205.6C205.736 199.393 205.84 199.463 205.832 199.548L205.512 202.381C205.48 202.459 205.36 202.536 205.224 202.536Z" fill="black"/>
<path d="M207.048 206.067L213.152 203.413L211.416 209.287C211.416 209.287 207.536 210.141 205.856 208.255L207.048 206.067Z" fill="#FFB573"/>
<path d="M190.847 172.707C190.639 174.771 190.375 176.835 190.143 178.915L189.343 185.123C189.087 187.179 188.751 189.235 188.463 191.331L188.007 194.435L187.863 195.412C187.872 195.565 187.916 195.713 187.991 195.847C188.34 196.441 188.798 196.967 189.343 197.399C190.055 197.969 190.809 198.488 191.599 198.951C193.325 199.97 195.118 200.877 196.967 201.667C198.855 202.497 200.799 203.219 202.775 203.941C204.751 204.662 206.775 205.322 208.735 205.951L208.031 208.915C203.699 208.237 199.431 207.215 195.271 205.857C193.119 205.174 191.026 204.323 189.015 203.312C187.939 202.768 186.911 202.138 185.943 201.426C184.783 200.607 183.804 199.57 183.063 198.377C182.627 197.596 182.355 196.739 182.263 195.855C182.263 195.614 182.223 195.374 182.263 195.133C182.303 194.893 182.263 194.59 182.303 194.512L182.375 193.736L182.647 190.632C182.847 188.568 182.999 186.496 183.231 184.424L183.879 178.216C184.135 176.152 184.351 174.088 184.631 172.008L190.847 172.707Z" fill="#FF8B7B"/>
<path d="M187.488 164.784C184.968 165.56 181.944 173.941 181.944 173.941L190.744 182.74C190.744 182.74 195.264 173.692 194.2 170.534C193.12 167.244 190.4 163.93 187.488 164.784Z" fill="#FFC100"/>
<path d="M218.208 204.631L216.48 209.474L211.416 209.287L213.152 203.413L218.208 204.631Z" fill="#FFB573"/>
<path opacity="0.2" d="M166.016 172.784C163.963 165.394 164.216 157.579 166.742 150.328C169.269 143.077 173.955 136.716 180.208 132.048C186.462 127.38 194.001 124.616 201.874 124.105C209.747 123.594 217.6 125.359 224.438 129.177C231.277 132.994 236.796 138.693 240.295 145.553C243.795 152.413 245.119 160.125 244.101 167.715C243.082 175.305 239.766 182.431 234.572 188.192C229.377 193.954 222.539 198.092 214.92 200.084C209.861 201.406 204.583 201.749 199.387 201.093C194.191 200.437 189.18 198.794 184.639 196.259C180.098 193.724 176.116 190.346 172.92 186.318C169.725 182.291 167.379 177.692 166.016 172.784Z" fill="#FFC100"/>
<path opacity="0.2" d="M233.456 136.048L200.6 201.232C203.418 201.511 206.259 201.488 209.072 201.162L238.616 142.574C237.143 140.225 235.413 138.037 233.456 136.048ZM243.056 152.639L242.84 151.863L219.248 198.671C228.347 195.167 235.8 188.541 240.19 180.053C244.579 171.566 245.6 161.809 243.056 152.639ZM194.152 125.347C187.188 127.168 180.863 130.786 175.85 135.816C170.836 140.845 167.322 147.099 165.681 153.912C164.039 160.724 164.332 167.841 166.528 174.505C168.724 181.169 172.741 187.131 178.152 191.757L212 124.688C206.076 123.59 199.972 123.815 194.152 125.347Z" fill="white"/>
<path d="M159.648 158.514L158.848 158.436C158.976 157.109 159.176 155.774 159.432 154.471L160.232 154.618C160 155.898 159.784 157.21 159.648 158.514ZM161.2 150.637L160.4 150.42C161.454 146.963 162.931 143.641 164.8 140.526L165.496 140.914C163.669 143.977 162.226 147.241 161.2 150.637Z" fill="#FFC100"/>
<path d="M246.128 151.84C243.912 143.862 239.307 136.701 232.895 131.261C226.483 125.822 218.552 122.349 210.106 121.281C201.659 120.213 193.076 121.599 185.441 125.262C177.806 128.926 171.462 134.703 167.212 141.864C162.962 149.024 160.996 157.246 161.563 165.49C162.13 173.735 165.204 181.631 170.397 188.18C175.589 194.73 182.668 199.639 190.737 202.287C198.805 204.935 207.502 205.202 215.728 203.056C221.192 201.63 226.312 199.174 230.797 195.829C235.282 192.483 239.044 188.313 241.867 183.557C244.69 178.801 246.519 173.552 247.25 168.11C247.981 162.668 247.6 157.139 246.128 151.84ZM166.016 172.792C163.964 165.402 164.216 157.587 166.743 150.336C169.269 143.085 173.955 136.723 180.208 132.056C186.462 127.388 194.001 124.624 201.874 124.113C209.747 123.602 217.6 125.367 224.439 129.184C231.277 133.002 236.796 138.701 240.295 145.561C243.795 152.42 245.12 160.133 244.101 167.722C243.082 175.312 239.766 182.438 234.572 188.2C229.378 193.962 222.539 198.1 214.92 200.092C209.86 201.414 204.582 201.757 199.386 201.1C194.19 200.443 189.178 198.8 184.637 196.264C180.095 193.728 176.113 190.349 172.918 186.321C169.724 182.292 167.378 177.692 166.016 172.784V172.792Z" fill="#FFC100"/>
<path d="M166.656 179.186C166.656 180.963 166.184 181.196 165.68 181.25L164.232 181.623L161.328 182.399L155.52 183.889L143.88 186.783C136.109 188.677 128.328 190.521 120.536 192.316L97.16 197.748L85.488 200.495C81.6 201.434 77.6959 202.303 73.8479 203.39C73.4577 203.501 73.0486 203.536 72.6442 203.494C72.2398 203.452 71.848 203.333 71.491 203.143C71.1341 202.954 70.819 202.699 70.5639 202.392C70.3087 202.084 70.1185 201.731 70.0039 201.353C69.8894 200.974 69.8529 200.577 69.8965 200.185C69.94 199.793 70.0628 199.413 70.2578 199.067C70.4528 198.72 70.7162 198.415 71.033 198.167C71.3498 197.92 71.7137 197.735 72.1039 197.624H72.232C76.128 196.693 79.952 195.537 83.792 194.458L95.312 191.144L118.328 184.424C126.003 182.174 133.685 179.973 141.376 177.821L152.936 174.6L158.728 173.048L161.624 172.272L163.072 171.884C163.536 171.69 164.048 171.667 164.992 173.196C166.102 175.007 166.677 177.079 166.656 179.186Z" fill="#FFC100"/>
<path d="M116.32 121.289C116.32 121.747 116.568 122.119 116.88 122.119C117.192 122.119 117.44 121.747 117.44 121.289C117.44 120.831 117.192 120.451 116.88 120.451C116.568 120.451 116.32 120.823 116.32 121.289Z" fill="#263238"/>
<path d="M116.528 122.119C117.09 123.525 117.849 124.849 118.784 126.053C118.46 126.278 118.09 126.431 117.699 126.502C117.308 126.573 116.905 126.561 116.52 126.465L116.528 122.119Z" fill="#630F0F"/>
<path d="M114.64 118.728C114.582 118.727 114.526 118.707 114.479 118.674C114.433 118.64 114.399 118.593 114.381 118.539C114.363 118.485 114.363 118.427 114.381 118.374C114.399 118.32 114.433 118.273 114.48 118.239C114.833 117.982 115.245 117.81 115.68 117.737C116.115 117.665 116.562 117.693 116.984 117.82C117.053 117.846 117.108 117.898 117.138 117.963C117.168 118.028 117.17 118.103 117.144 118.169C117.117 118.236 117.064 118.29 116.997 118.319C116.929 118.348 116.853 118.35 116.784 118.325C116.448 118.228 116.094 118.209 115.749 118.27C115.404 118.33 115.079 118.469 114.8 118.674C114.755 118.71 114.698 118.729 114.64 118.728Z" fill="#263238"/>
<path d="M101.056 124.261C101.48 128.754 101.536 136.925 98.264 139.602C98.264 139.602 99.008 144.189 106.96 144.903C115.704 145.679 111.568 140.798 111.568 140.798C106.904 139.191 107.376 135.544 108.536 132.192L101.056 124.261Z" fill="#7F3E3B"/>
<path d="M88.264 308.313C87.576 308.592 86 307.917 85.496 307.63C85.473 307.618 85.4544 307.6 85.4428 307.578C85.4313 307.556 85.4275 307.53 85.432 307.506C85.4341 307.479 85.4443 307.454 85.4614 307.433C85.4786 307.412 85.5018 307.397 85.528 307.389C85.608 307.389 87.48 306.784 88.24 307.211C88.3236 307.254 88.3962 307.315 88.4529 307.389C88.5096 307.463 88.5489 307.547 88.568 307.638C88.608 307.745 88.6117 307.863 88.5787 307.973C88.5456 308.083 88.4775 308.18 88.384 308.251C88.3467 308.276 88.3064 308.297 88.264 308.313ZM85.936 307.537C86.736 307.925 87.88 308.251 88.216 308.018C88.216 308.018 88.352 307.925 88.296 307.676C88.2843 307.624 88.2611 307.575 88.228 307.532C88.1948 307.489 88.1525 307.454 88.104 307.428C87.3844 307.263 86.6307 307.306 85.936 307.552V307.537Z" fill="#FFC100"/>
<path d="M86.0079 307.521C85.8762 307.575 85.7396 307.616 85.5999 307.645C85.576 307.654 85.5498 307.654 85.5254 307.647C85.5009 307.64 85.4794 307.626 85.4639 307.606C85.452 307.585 85.4458 307.561 85.4458 307.537C85.4458 307.512 85.452 307.488 85.4639 307.467C85.4639 307.405 86.1119 305.868 86.9279 305.542C87.0248 305.5 87.1298 305.478 87.2359 305.478C87.3421 305.478 87.4471 305.5 87.544 305.542C87.6446 305.569 87.7321 305.63 87.7908 305.714C87.8494 305.798 87.8753 305.899 87.864 306C87.784 306.52 86.7519 307.218 86.0079 307.521ZM85.8159 307.304C86.5359 307.04 87.52 306.357 87.568 305.977C87.568 305.938 87.568 305.86 87.408 305.783C87.3455 305.754 87.2772 305.739 87.208 305.739C87.1387 305.739 87.0704 305.754 87.0079 305.783C86.4879 306 86.0239 306.861 85.8159 307.296V307.304Z" fill="#FFC100"/>
<path d="M124.608 317.47C124.005 317.467 123.402 317.415 122.808 317.314C122.78 317.309 122.755 317.296 122.735 317.276C122.715 317.257 122.702 317.232 122.696 317.206C122.69 317.178 122.693 317.149 122.707 317.123C122.72 317.098 122.741 317.078 122.768 317.066C122.856 317.012 124.904 315.879 125.888 316.135C126.072 316.18 126.23 316.295 126.328 316.453C126.391 316.539 126.424 316.642 126.424 316.748C126.424 316.853 126.391 316.956 126.328 317.043C126.096 317.384 125.368 317.47 124.608 317.47ZM123.256 317.113C124.352 317.26 125.84 317.252 126.112 316.888C126.112 316.841 126.184 316.756 126.112 316.585C126.083 316.537 126.043 316.496 125.996 316.464C125.95 316.432 125.896 316.409 125.84 316.399C125.208 316.236 124 316.756 123.256 317.113Z" fill="#FFC100"/>
<path d="M122.832 317.314C122.806 317.321 122.778 317.321 122.752 317.314C122.732 317.3 122.716 317.281 122.706 317.26C122.696 317.238 122.693 317.214 122.696 317.19C122.696 317.128 122.864 315.591 123.608 314.994C123.718 314.905 123.846 314.838 123.983 314.798C124.121 314.758 124.265 314.746 124.408 314.761C124.784 314.8 124.896 314.986 124.92 315.141C125.032 315.785 123.624 317.019 122.92 317.33L122.832 317.314ZM124.272 314.986C124.093 314.991 123.921 315.054 123.784 315.165C123.34 315.657 123.061 316.269 122.984 316.918C123.712 316.499 124.664 315.529 124.584 315.141C124.584 315.141 124.584 315.017 124.312 314.994L124.272 314.986Z" fill="#FFC100"/>
<path d="M116.376 317.182H122.248L122.832 303.982H116.96L116.376 317.182Z" fill="#7F3E3B"/>
<path d="M78.9359 306.287L84.7119 307.343L91.2159 295.09L85.4399 294.042L78.9359 306.287Z" fill="#7F3E3B"/>
<path d="M85.344 306.761L79.024 304.914C78.9128 304.882 78.7936 304.887 78.686 304.93C78.5784 304.972 78.4889 305.048 78.432 305.147L75.808 309.678C75.7454 309.789 75.7095 309.913 75.7029 310.039C75.6963 310.165 75.7193 310.291 75.7701 310.408C75.8209 310.524 75.8982 310.628 75.9962 310.711C76.0942 310.795 76.2104 310.855 76.336 310.889C78.552 311.494 79.664 311.665 82.44 312.495C84.152 312.992 88.648 314.823 91.016 315.498C93.384 316.174 94.384 314.008 93.48 313.52C89.432 311.339 87.168 308.98 86.152 307.366C85.9702 307.073 85.6819 306.857 85.344 306.761Z" fill="#263238"/>
<path d="M122.208 316.523H115.808C115.692 316.522 115.579 316.56 115.489 316.631C115.398 316.702 115.336 316.801 115.312 316.911L114.152 321.978C114.123 322.1 114.123 322.226 114.151 322.348C114.18 322.47 114.237 322.584 114.318 322.681C114.399 322.778 114.502 322.856 114.619 322.909C114.735 322.962 114.863 322.989 114.992 322.987C117.312 322.987 120.656 322.824 123.568 322.824C126.968 322.824 129.904 323.002 133.896 323.002C136.296 323.002 136.976 320.635 135.968 320.418C131.368 319.448 127.616 319.34 123.64 316.965C123.215 316.69 122.719 316.537 122.208 316.523Z" fill="#263238"/>
<path d="M87.2 141.054C82.096 143.382 80 159.336 80 159.336L91.72 163.798C93.5386 159.479 95.0096 155.029 96.12 150.49C97.8 143.289 92.44 138.633 87.2 141.054Z" fill="#FFC100"/>
<path opacity="0.3" d="M87.2 141.054C82.096 143.382 80 159.336 80 159.336L91.72 163.798C93.5386 159.479 95.0096 155.029 96.12 150.49C97.8 143.289 92.44 138.633 87.2 141.054Z" fill="black"/>
<path opacity="0.2" d="M94.8241 145.733C95.2235 145.545 95.6417 145.397 96.072 145.291C96.5396 146.992 96.5561 148.78 96.12 150.49C95.0097 155.029 93.5386 159.479 91.7201 163.798L87.8561 162.332C88.5681 158.164 90.7521 147.626 94.8241 145.733Z" fill="black"/>
<path d="M121.216 140.929C121.216 140.929 127.472 147.781 121.56 190.205H90.128C89.912 185.549 92.944 162.688 88.288 140.634C91.7651 139.986 95.2817 139.556 98.816 139.346C103.266 139.098 107.726 139.098 112.176 139.346C115.227 139.644 118.25 140.174 121.216 140.929Z" fill="#FFC100"/>
<path opacity="0.3" d="M121.216 140.929C121.216 140.929 127.472 147.781 121.56 190.205H90.128C89.912 185.549 92.944 162.688 88.288 140.634C91.7651 139.986 95.2817 139.556 98.816 139.346C103.266 139.098 107.726 139.098 112.176 139.346C115.227 139.644 118.25 140.174 121.216 140.929Z" fill="black"/>
<path opacity="0.2" d="M114.888 150.024C116.312 145.88 119.736 144.553 123.224 147.013C123.928 151.033 124.424 157.513 123.856 167.787L117.72 167.732C117.72 167.732 112.8 156.193 114.888 150.024Z" fill="black"/>
<path d="M124.848 147.192C125.152 148.969 125.488 150.909 125.864 152.756C126.24 154.602 126.664 156.48 127.112 158.312C127.94 161.914 129.067 165.446 130.48 168.873C130.84 169.649 131.208 170.472 131.616 171.201L132.136 172.117C132.267 172.323 132.42 172.515 132.592 172.691C133.783 173.787 135.13 174.712 136.592 175.438C140.046 177.18 143.607 178.714 147.256 180.032L146.384 184.222C142.081 183.933 137.836 183.093 133.76 181.724C132.665 181.354 131.596 180.916 130.56 180.412C129.425 179.851 128.353 179.177 127.36 178.402C126.776 177.937 126.24 177.417 125.76 176.85L125.376 176.361L125.128 175.997C124.96 175.756 124.792 175.516 124.64 175.275C124.016 174.305 123.464 173.335 122.952 172.357C121.079 168.557 119.595 164.589 118.52 160.508C117.984 158.513 117.488 156.527 117.088 154.517C116.688 152.507 116.288 150.544 116.048 148.402L124.848 147.192Z" fill="#7F3E3B"/>
<path d="M113.36 145.112C111.704 150.319 118.424 165.839 118.424 165.839L132.576 162.386C131.71 157.48 130.252 152.691 128.232 148.115C123.64 138.431 115.352 138.834 113.36 145.112Z" fill="#FFC100"/>
<path opacity="0.3" d="M113.36 145.112C111.704 150.319 118.424 165.839 118.424 165.839L132.576 162.386C131.71 157.48 130.252 152.691 128.232 148.115C123.64 138.431 115.352 138.834 113.36 145.112Z" fill="black"/>
<path d="M147.344 180.032L153.416 182.678L147.528 187.388C147.528 187.388 144.936 186.566 144.512 182.437L143.608 179.008L146.272 179.667C146.64 179.757 146.999 179.879 147.344 180.032Z" fill="#7F3E3B"/>
<path d="M156.64 185.534L150.728 188.956L147.528 187.358L153.408 182.647L156.64 185.534Z" fill="#7F3E3B"/>
<path d="M114.848 138.842C112.312 136.762 106.152 135.265 99.256 134.892C95.312 134.683 91.256 135.311 89.568 136.041C87.88 136.77 89.88 142.039 92.088 142.156C90.92 143.94 92.616 147.386 95.152 148.061C94.752 151.041 102.496 151.32 107.152 148.914C110.912 146.998 117.888 141.333 114.848 138.842Z" fill="#263238"/>
<path opacity="0.2" d="M122.832 303.982L122.536 310.788H116.656L116.952 303.982H122.832Z" fill="black"/>
<path opacity="0.2" d="M85.432 294.042L91.216 295.097L87.864 301.406L82.08 300.351L85.432 294.042Z" fill="black"/>
<path d="M100.512 120.28C100.864 125.929 100.768 129.251 103.712 132.153C108.128 136.514 115.32 133.938 116.712 128.273C117.968 123.198 117.176 114.817 111.48 112.559C110.224 112.055 108.856 111.872 107.506 112.027C106.156 112.182 104.87 112.67 103.77 113.444C102.669 114.218 101.792 115.253 101.222 116.45C100.652 117.647 100.407 118.966 100.512 120.28Z" fill="#7F3E3B"/>
<path d="M111.408 123.431C113.608 121.273 117.224 116.571 115.96 113.04C114.096 107.817 108.536 109.587 109.424 110.627C106.224 108.578 99.76 108.477 101.112 111.224C95.296 112 94.824 114.289 96.44 115.151C92.296 118.984 92.496 122.949 95.64 122.655C93.24 124.983 97.656 129.592 102.592 131.788C104.272 127.52 113.264 126.744 111.408 123.431Z" fill="#263238"/>
<path d="M108.856 125.471C108.819 125.482 108.78 125.482 108.744 125.471C108.722 125.457 108.704 125.438 108.69 125.416C108.676 125.395 108.666 125.371 108.662 125.345C108.657 125.32 108.658 125.294 108.664 125.269C108.67 125.244 108.681 125.221 108.696 125.2C109.96 123.4 111.192 121.956 112.28 120.684C114.36 118.247 115.864 116.485 115.992 114.095C116.022 113.116 115.736 112.152 115.173 111.338C114.611 110.524 113.801 109.901 112.856 109.556C111.368 108.904 109.768 108.865 109.136 109.47C108.8 109.788 108.768 110.246 109.04 110.883C109.052 110.905 109.058 110.93 109.059 110.956C109.06 110.981 109.056 111.006 109.046 111.03C109.036 111.053 109.021 111.074 109.002 111.092C108.983 111.109 108.961 111.123 108.936 111.131C108.912 111.141 108.886 111.147 108.859 111.147C108.833 111.148 108.807 111.143 108.782 111.134C108.758 111.124 108.735 111.11 108.716 111.093C108.697 111.075 108.682 111.054 108.672 111.03C108.495 110.745 108.418 110.412 108.451 110.081C108.484 109.75 108.626 109.438 108.856 109.191C109.608 108.477 111.36 108.477 113.024 109.191C114.042 109.566 114.914 110.24 115.518 111.119C116.122 111.999 116.428 113.039 116.392 114.095C116.256 116.617 114.72 118.418 112.592 120.909C111.504 122.181 110.28 123.617 109.024 125.409C109.003 125.432 108.977 125.449 108.947 125.46C108.918 125.471 108.887 125.475 108.856 125.471Z" fill="#263238"/>
<path d="M109.144 122.794C109.25 124.195 109.83 125.523 110.792 126.573C112.072 127.939 113.416 127.085 113.64 125.425C113.84 123.919 113.424 121.397 111.856 120.645C110.288 119.892 109.04 121.103 109.144 122.794Z" fill="#7F3E3B"/>
<path d="M110.4 190.205C110.4 190.205 112.384 228.633 108.52 244.913C102.4 270.692 90.6959 300.591 90.6959 300.591L79.7999 298.597C79.7999 298.597 88.9759 268.659 90.9999 247.195C92.7839 227.919 90.1439 205.78 90.1439 190.205H110.4Z" fill="#263238"/>
<path opacity="0.2" d="M107.464 201.589C108.264 200.092 109.824 204.554 110.912 210.28C110.912 218.18 110.768 227.166 110.056 234.779C104.616 225.04 105.776 204.693 107.464 201.589Z" fill="black"/>
<path d="M93.368 297.348C93.416 297.348 91.664 301.01 91.664 301.01L79.056 298.628L80.432 294.942L93.368 297.348Z" fill="#2C6BDB"/>
<path d="M121.6 190.205C121.6 190.205 130.4 226.592 131.04 243.982C131.736 263.483 124.72 309.469 124.72 309.469H114.768C114.768 309.469 113.544 263.126 113.096 245.363C112.616 226.002 100.904 190.205 100.904 190.205H121.6Z" fill="#263238"/>
<path d="M126.64 305.62C126.688 305.62 126.08 309.632 126.08 309.632H113.968L113.64 306.054L126.64 305.62Z" fill="#2C6BDB"/>
</svg>
