<svg width="97" height="93" viewBox="0 0 97 93" fill="none" xmlns="http://www.w3.org/2000/svg">
<path fill-rule="evenodd" clip-rule="evenodd" d="M89.8802 137.986C89.5787 135.185 89.3929 132.364 89.2863 129.549C89.1798 126.737 89.3191 123.89 89.3802 121.077C89.5049 115.355 89.7074 109.619 89.252 103.905C88.8216 98.5051 87.8335 93.1427 86.2742 87.9542C85.5149 85.4273 84.7147 82.7988 83.4658 80.464C82.21 78.1165 80.2209 76.5532 78.0359 75.1197C75.7096 73.5934 73.4019 72.0382 71.0847 70.4977C69.1395 69.2046 65.6391 67.6996 64.0431 65.9709C62.3638 64.1519 62.0481 59.643 60.9298 57.4883C59.8406 55.3894 56.7576 54.0203 54.3838 54.0203C50.4545 54.0203 47.4774 53.8194 44.2465 57.4555C42.6345 59.2698 43.9171 61.1038 42.2274 62.8451C40.674 64.446 36.7013 66.0913 34.6991 67.0202C32.301 68.1328 29.8425 69.1151 27.3483 69.9901C24.804 70.8827 22.1956 71.548 19.637 72.3904C17.1846 73.1979 13.9822 76.5261 12.0784 78.2872C10.3083 79.9245 9.86902 79.7412 8.52337 81.7302C5.5701 86.0953 2.6136 90.5106 0.261816 95.2367C-0.909601 97.5909 -2.04386 100.067 -2.46888 102.682C-2.92224 105.47 -2.47273 108.165 -1.73752 110.865C-0.989137 113.613 1.38737 116.229 2.16161 118.97C2.5184 120.233 1.29367 121.611 1.85701 122.801C2.13837 123.396 2.49268 123.925 2.89607 124.443C3.20689 124.842 4.41898 124.753 4.57582 125.242C4.73427 125.735 3.85734 126.759 3.84429 127.27C3.82578 128 3.7967 128.731 3.77271 129.462L3.63104 133.781C3.53796 136.62 3.44487 139.458 3.35179 142.297C3.32134 143.224 3.27698 144.129 3.49906 145.008C3.4189 144.934 3.34272 144.853 3.27313 144.762C3.06944 144.496 2.63746 144.721 2.81033 145.033C3.09889 145.552 3.51385 145.917 4.00138 146.18C4.56795 147.016 90.3704 148.882 90.7926 146.439C91.0295 145.068 90.5984 143.601 90.426 142.239C90.2465 140.821 90.0333 139.408 89.8802 137.986Z" fill="white"/>
<path fill-rule="evenodd" clip-rule="evenodd" d="M2.72112 102.687C2.93102 102.085 3.89117 102.345 3.67978 102.951C2.59311 106.065 3.36399 109.453 4.53876 112.426C4.77451 113.022 3.81263 113.278 3.58011 112.69C2.34432 109.563 1.57978 105.957 2.72112 102.687ZM10.0073 120.473C13.072 120.904 16.1391 121.17 19.2248 121.385C19.3628 121.395 19.4821 121.374 19.5852 121.329C19.4933 122.743 19.4187 124.157 19.3603 125.572C18.5189 125.549 17.6602 125.605 16.8263 125.582C15.7364 125.552 14.6478 125.498 13.5604 125.414C11.4551 125.255 9.35366 125.002 7.27205 124.651C6.49409 124.52 5.5061 124.441 4.62002 124.182C3.78241 123.937 3.03676 123.532 2.64529 122.769C2.31223 122.122 2.25134 121.33 2.25134 120.616C2.25134 120.123 2.33584 119.623 2.3868 119.127C2.45018 119.083 2.50734 119.029 2.55333 118.969C3.47793 119.262 4.43734 119.467 5.37686 119.666C6.90668 119.991 8.45888 120.255 10.0073 120.473ZM8.27881 108.977C8.29572 109.927 8.55856 110.791 9.06995 111.591C9.41593 112.132 8.55508 112.63 8.21146 112.093C7.60947 111.151 7.3045 110.093 7.28461 108.977C7.27318 108.336 8.26738 108.338 8.27881 108.977ZM86.8365 119.344C87.2515 119.367 87.669 119.381 88.0852 119.403C88.4523 119.717 88.9606 119.878 89.4248 119.778C89.4408 119.818 89.4554 119.863 89.4687 119.915C89.5507 120.235 89.5917 120.578 89.6389 120.904C89.6861 121.225 89.7222 121.548 89.747 121.871C89.7595 122.034 89.8378 122.402 89.7383 122.544C89.6489 122.672 89.4513 122.661 89.3146 122.677C88.9467 122.716 88.5739 122.735 88.2035 122.766C87.5039 122.827 86.8042 122.888 86.1058 122.949C85.421 123.009 84.6692 122.99 83.9993 123.17C83.885 121.826 83.7806 120.483 83.6837 119.137C84.7214 119.29 85.8063 119.286 86.8365 119.344ZM-0.170875 117.115C0.246689 117.921 0.631942 118.714 1.43103 119.199C1.53542 119.262 1.65224 119.295 1.77154 119.304C1.68207 119.688 1.62614 120.081 1.57643 120.444C1.46707 121.243 1.44346 122.07 1.64354 122.858C1.83865 123.625 2.16177 124.31 2.79557 124.801C3.0901 125.03 3.41198 125.204 3.75 125.342C3.69284 125.503 3.65928 125.662 3.67668 125.837C3.5959 126.244 3.54246 126.658 3.48406 127.054C3.35605 127.934 3.22805 128.816 3.12739 129.701C2.92606 131.461 2.76823 133.222 2.63526 134.988C2.50228 136.75 2.40659 138.514 2.32705 140.28C2.28604 141.182 2.25 142.085 2.21645 142.989C2.1829 143.918 2.03252 144.867 2.44263 145.729C2.7732 146.425 3.89043 146.385 4.23343 145.729C4.6684 144.895 4.54039 143.904 4.55158 142.989C4.56276 142.127 4.57768 141.264 4.59632 140.403C4.6336 138.639 4.68828 136.876 4.73178 135.112C4.77403 133.39 4.82623 131.669 4.86102 129.947C4.87842 129.046 4.87966 128.144 4.88463 127.243C4.88712 126.743 4.90825 126.21 4.87097 125.689C5.18165 125.762 5.49483 125.825 5.80427 125.888C8.16674 126.373 10.5541 126.726 12.9563 126.945C14.163 127.054 15.3735 127.131 16.5839 127.175C17.4737 127.207 18.3958 127.269 19.2993 127.236C19.2285 129.394 19.1962 131.553 19.1999 133.713C19.2024 135.271 19.2235 136.828 19.262 138.386C19.2831 139.206 19.3005 140.025 19.3254 140.844C19.3366 141.212 19.3366 141.584 19.3614 141.951C19.3689 142.065 19.385 142.176 19.4062 142.285C19.3242 142.518 19.2558 142.747 19.1999 142.963C18.9265 144.007 18.9265 145.01 19.0483 146.074C19.1527 146.977 19.912 147.814 20.9149 147.497C21.0777 147.446 21.2405 147.392 21.402 147.338C22.8784 147.505 24.3635 147.544 25.861 147.572C28.0495 147.615 30.2392 147.628 32.429 147.64C36.7239 147.662 41.0201 147.673 45.3163 147.686C53.9497 147.71 62.5831 147.734 71.2165 147.759C73.6125 147.767 76.0085 147.773 78.4045 147.78C79.6448 147.784 80.8826 147.785 82.1216 147.832C82.6995 147.855 83.2786 147.886 83.8565 147.895C84.5263 147.906 85.1191 147.713 85.7591 147.538C86.1208 147.437 86.2637 147.074 86.1866 146.767C86.7657 146.905 87.4679 146.612 87.6655 145.959C87.8097 145.485 87.7562 144.972 87.5412 144.533V144.532C87.1262 141.91 86.5992 139.3 86.1854 136.677C85.7318 133.804 85.2956 130.924 84.9116 128.04C84.6232 125.862 84.3859 127.406 84.1808 125.218C85.0744 125.287 86.0847 125.015 86.9696 124.9C87.6046 124.818 88.2446 124.752 88.8809 124.665C88.8337 125.306 88.8474 125.96 88.83 126.575C88.7964 127.798 88.8113 129.015 88.8424 130.237C88.902 132.595 89.035 131.223 89.2475 133.571C89.4625 135.937 89.726 138.294 90.0454 140.649C90.2094 141.861 90.3846 143.072 90.5698 144.282C90.6556 144.846 90.7438 145.409 90.8345 145.974C90.9426 146.639 90.9774 147.269 91.4758 147.769C91.8548 148.148 92.629 148.116 92.8801 147.587C93.1982 146.92 93.0541 146.348 92.936 145.647C92.8403 145.084 92.7484 144.52 92.6576 143.957C92.4638 142.75 92.2798 141.542 92.1071 140.332C91.774 138.001 91.4596 135.666 91.1788 133.329C90.8954 130.973 90.6021 132.349 90.3238 129.993C90.1833 128.805 90.0429 127.619 89.8788 126.434C89.7956 125.825 89.7434 125.176 89.634 124.548C89.6688 124.543 89.7036 124.537 89.7384 124.53C90.494 124.392 91.139 123.966 91.3291 123.188C91.5106 122.443 91.2943 121.586 91.1415 120.855C91.011 120.233 90.8931 119.438 90.4924 118.905C91.9042 117.106 92.8224 114.842 93.4081 112.666C94.0462 110.295 94.3132 107.82 94.3698 105.37C94.4354 102.531 94.2215 99.7089 93.7352 96.9335C93.7238 96.3453 93.6967 95.7574 93.6531 95.1701C93.2256 89.4065 91.431 82.5849 85.7417 79.8919C85.7194 79.8809 85.6957 79.8708 85.6721 79.8609C85.226 79.3275 84.6692 78.8476 84.2194 78.3989C83.4228 77.6031 82.5901 76.8423 81.7078 76.1411C79.9604 74.7525 78.0441 73.6435 76.052 72.6451C74.0375 71.6344 71.9932 70.6859 70.0247 69.583C68.3097 68.6207 66.7662 67.462 65.301 66.1542C63.6543 64.6834 62.4824 62.7005 62.0226 60.536C61.999 60.423 61.8312 60.454 61.8287 60.5621C61.7082 64.5293 64.385 68.0352 67.4658 70.2531C71.1493 72.9026 75.5972 74.1569 79.3329 76.7255C80.2612 77.3633 81.1299 78.0831 81.9563 78.8476C80.6899 78.7183 79.4012 78.8004 78.2144 79.151C77.7471 79.1224 77.2774 79.1138 76.8088 79.0913C75.7376 79.0378 74.6651 78.9882 73.5926 78.9409C71.4066 78.844 69.2194 78.7557 67.0321 78.6787C62.7409 78.5269 58.4484 78.4125 54.156 78.3368C45.53 78.1837 36.8929 78.1539 28.2682 78.4039C25.9294 78.471 13.6311 78.0048 12.4928 78.1365C14.1667 76.6869 16.0035 75.5034 18.023 74.5299C20.5495 73.3152 23.1605 72.5046 25.8585 71.7636C31.4149 70.2382 37.185 68.7674 41.6315 64.8923C42.7363 63.9288 43.7181 62.8212 44.5222 61.5941C45.2902 60.423 46.144 58.9235 46.1651 57.495C46.18 56.4807 44.7682 56.1113 44.2662 56.9803C43.9542 57.5186 43.8001 58.1092 43.5454 58.6736C43.2918 59.2331 42.9911 59.7726 42.6568 60.2887C41.9994 61.3032 41.1841 62.2081 40.2968 63.0249C38.4053 64.768 36.1137 66.0448 33.7425 67.0108C28.359 69.2026 22.4708 70.1275 17.3693 73.017C15.1373 74.2812 13.001 76.0256 11.6601 78.2509C11.4439 78.2845 11.2289 78.3242 11.0139 78.369C11.1742 78.1663 11.3358 77.9638 11.4986 77.7623C11.6054 77.6305 11.4401 77.4566 11.3097 77.5733C8.7732 79.831 6.43683 82.269 4.31918 84.927C2.2935 87.4707 0.404519 90.1363 -0.932681 93.1151C-3.33616 98.466 -3.86557 104.586 -2.62406 110.308C-2.28604 111.867 -1.80882 113.393 -1.20112 114.869C-0.887942 115.631 -0.548671 116.382 -0.170875 117.115Z" fill="black"/>
<path fill-rule="evenodd" clip-rule="evenodd" d="M54.587 5.51829C61.6434 5.51829 70.4813 13.5708 73.0679 16.9975C75.2426 19.8785 74.9349 34.7204 74.9349 43.5246C74.9349 45.366 74.1029 48.8509 73.8008 50.6123C72.694 57.0665 67.8718 62.4794 58.3277 62.4794C50.5565 62.4794 44.5761 60.017 38.7929 53.7189C37.4735 52.2821 31.03 57.4259 29.7123 55.5735C26.2703 55.5735 23.3922 23.4013 30.1501 13.7515C36.908 4.10169 47.5305 5.51829 54.587 5.51829Z" fill="white"/>
<path fill-rule="evenodd" clip-rule="evenodd" d="M33.3785 7.7842C37.4559 4.07314 42.888 2.28785 48.3685 2.41964C51.207 2.48801 54.0355 3.02882 56.7161 3.95503C58.057 4.42 59.3557 5.0267 60.5972 5.71297C61.0446 5.9597 61.457 6.24881 61.8541 6.55585L61.953 6.63297H61.9543C63.0193 7.01588 63.97 7.70339 64.8325 8.50777C66.5611 8.36977 68.3035 8.52517 69.975 9.05852C72.3014 9.80198 74.4551 11.1633 75.9675 13.0966C77.7292 15.3472 78.3149 18.0772 78.1059 20.8954L78.0673 21.3742C77.8607 23.8637 77.4905 27.0659 75.448 28.7017C75.2927 28.826 75.1212 28.9205 74.9435 28.9777C76.2596 31.2329 77.3395 33.7368 77.9857 36.2655C80.4526 45.9242 78.5562 55.9969 75.5897 65.3063C75.3461 66.0734 74.1867 66.5831 73.5963 65.8334C72.5425 64.4932 71.0114 63.4713 69.289 63.2798C68.2264 63.1617 67.1688 63.3755 66.1647 62.8932C65.7707 62.7029 65.3905 62.3921 65.1171 62.0142C63.422 62.6569 61.5963 62.9603 59.7857 62.8857C56.8142 62.7639 53.6378 61.7345 51.5935 59.4767C51.2654 59.1143 51.1822 58.7074 51.2578 58.3407C51.5142 58.2492 51.7774 58.181 52.0485 58.1384C54.6409 59.6668 57.4985 60.6882 60.5696 60.7523C62.3441 60.7894 64.075 60.5411 65.5139 59.4326C65.8252 59.1927 66.1115 58.927 66.3762 58.6415C69.3845 56.7056 71.5055 53.4173 72.5139 49.8951C73.4534 46.6105 73.3379 43.1903 73.0147 39.8212L72.8443 38.0433C72.5958 35.4338 72.3653 32.8166 72.3007 30.196L72.3202 30.195C72.9555 30.154 72.9601 29.159 72.3202 29.2004C70.6649 29.3076 69.0223 29.036 67.3722 29.1543C67.3584 28.3739 67.3022 27.597 67.0729 26.8444C66.942 26.4144 66.1935 26.3296 66.1142 26.8444C66.0081 27.5331 65.9693 28.218 65.9578 28.9099C63.4883 28.8771 61.0212 28.6692 58.5514 28.7546C58.0958 28.2685 57.9507 27.4066 57.7376 26.807C57.7065 26.7187 57.6755 26.6317 57.6432 26.5434C57.4559 27.4002 57.1904 28.2383 56.8412 29.0587L56.2355 29.0608C52.7987 29.0769 49.2919 29.1797 45.936 29.8937C45.7027 29.7145 45.5639 29.402 45.5263 29.1181C45.2829 27.2712 44.9355 25.4734 44.3197 23.7133L44.2317 23.465C44.2245 23.4444 44.2169 23.4225 44.2089 23.3995C43.7552 24.1321 43.2138 24.8151 42.6234 25.451C42.2754 25.8258 41.9106 26.1842 41.5361 26.5325C41.1724 26.9365 40.7964 27.3345 40.4321 27.7398C40.4464 27.8135 40.4588 27.8883 40.4688 27.9645C40.5803 28.8056 40.5919 29.6586 40.5102 30.5029C40.3626 32.0292 39.9319 33.4999 39.2399 34.8605L39.218 34.9968C39.1129 35.6344 38.9634 36.2933 38.6143 36.7735C39.05 37.2618 39.3857 37.8452 39.5803 38.4933C39.7535 39.0703 38.9555 39.5703 38.5417 39.0981C38.213 38.723 37.8478 38.4126 37.4466 38.1649C37.4213 38.1994 37.3755 38.2163 37.3242 38.1876C36.207 37.5672 34.3093 37.7549 33.1933 38.3392C31.8051 39.0653 31.2633 40.5559 31.4174 42.0665C31.5653 43.5099 32.1966 45.1969 33.4207 45.9367C33.9824 46.2761 34.4199 46.3047 35.0164 46.1418C35.2071 46.09 35.4436 45.931 35.5451 45.8521L35.645 45.772C36.036 45.4628 36.4002 45.251 36.8619 45.2429C37.334 45.0956 37.8086 45.3 37.9891 45.7952L38.0002 45.8272C38.0848 46.0796 38.2389 46.3967 38.2053 46.7821C38.1705 47.1948 37.9816 47.5703 37.6995 47.8724C37.651 47.9246 37.5988 47.9768 37.5454 48.0253C42.4046 53.2879 43.0284 61.4883 40.5367 68.0625C40.4286 68.351 40.313 68.6357 40.1925 68.9179C39.7761 69.8851 38.173 69.5855 37.9692 68.627C37.9083 68.3398 37.8412 68.0538 37.7679 67.7704C37.6331 67.2466 37.4787 66.7277 37.3046 66.2163L37.2384 66.0249C37.0906 65.6022 36.9526 65.1757 36.8035 64.753L36.7886 64.7047C36.783 64.6856 36.7768 64.6635 36.7699 64.6387L36.5176 65.1894L35.7509 66.8516C35.3921 67.6273 34.252 67.2057 34.2096 66.4583L34.2086 66.4327C34.2049 66.2947 34.1999 66.1579 34.1912 66.0224C34.1365 65.0067 33.9613 64.0195 33.6829 63.0535L33.5825 63.1784C32.087 65.0281 30.3318 66.7618 27.924 67.1885C27.3201 67.2955 26.6365 66.6639 27.0516 66.0535C27.2231 65.8011 27.3884 65.5425 27.545 65.2802C27.4095 65.2168 27.2815 65.1509 27.1635 65.0837C26.25 64.5703 25.4895 63.8393 24.8606 63.01C23.5272 61.2521 23.05 59.0391 22.9331 56.8734C22.8089 54.5846 23.0102 52.1715 23.6353 49.9635C23.9062 49.0087 24.2728 48.0924 24.6966 47.2035C24.6668 47.1239 24.6382 47.0444 24.6096 46.9648C24.1523 45.6893 23.777 44.3851 23.465 43.066C22.8362 40.403 22.4982 37.6555 22.4572 34.9191C22.3826 30.017 23.2277 25.0366 25.0085 20.4652C26.8478 15.7509 29.6142 11.2093 33.3785 7.7842ZM31.0882 50.6435C30.7505 50.1115 29.9055 50.591 30.2191 51.1267L30.2307 51.1458C30.7664 51.99 31.0174 52.9498 31.3256 53.8909C31.5232 54.4963 32.4839 54.2378 32.2838 53.6261L32.2175 53.4219C31.9108 52.4675 31.6311 51.4976 31.0882 50.6435ZM34.0296 40.4888L34.254 40.3801C34.9617 40.0423 35.5819 39.8121 36.4181 40.1071C37.5379 40.5012 38.7371 41.7556 37.9803 42.9728C37.7019 43.4216 37.2073 43.6006 36.6978 43.4949C35.8388 43.3167 35.6171 42.5429 35.1812 41.9076L35.1062 41.8001C34.8404 41.4157 34.5043 40.8843 34.0619 40.7337C33.9612 40.6989 33.919 40.5422 34.0296 40.4888ZM34.661 14.647L34.7332 14.5822C35.2142 14.157 34.5083 13.4559 34.0298 13.8786C31.8401 15.8143 31.0795 18.8441 29.9437 21.4263C29.6889 22.0069 30.5452 22.5141 30.8024 21.9285C31.8859 19.4645 32.6051 16.5169 34.661 14.647ZM60.975 13.8002C60.4029 13.5423 59.9023 14.3753 60.4524 14.6495L60.473 14.6593C62.4067 15.5333 63.2294 17.5126 64.0173 19.3501C64.2683 19.9369 65.1246 19.4309 64.876 18.849L64.7338 18.5193C63.9117 16.6257 62.9528 14.6955 60.975 13.8002ZM64.0058 12.6042C63.3993 12.3941 63.1396 13.3539 63.7411 13.564C65.3803 14.1347 66.5049 15.3655 67.4532 16.7728C67.8086 17.2999 68.6698 16.8026 68.3107 16.2705C67.2096 14.6369 65.9022 13.2656 64.0058 12.6042Z" fill="black"/>
<path fill-rule="evenodd" clip-rule="evenodd" d="M60.6774 53.7497C59.842 53.4088 59.0966 52.8401 58.5516 52.1136C58.3622 51.861 58.3131 51.5943 58.3528 51.3504C58.3975 51.0761 58.5597 50.8275 58.7809 50.6608C59.0028 50.4935 59.2804 50.4111 59.5487 50.4531C59.7819 50.4896 60.014 50.6174 60.1977 50.8823L60.2361 50.9352C60.5601 51.3737 60.9823 51.7335 61.4633 51.9654C61.927 52.1889 62.4455 52.2932 62.9821 52.2325C64.0041 52.117 64.7086 51.5641 65.4573 50.8132C65.5501 50.7184 65.643 50.6207 65.7363 50.5213C65.7952 50.4313 65.877 50.3734 65.9678 50.343C66.0686 50.3093 66.1827 50.3112 66.2871 50.3477C66.3879 50.3828 66.4779 50.4495 66.5383 50.5382C66.5957 50.6225 66.6283 50.7267 66.6177 50.8465C66.5492 51.6246 66.1425 52.3191 65.5649 52.8644C64.9233 53.4701 64.0728 53.889 63.2722 54.036C62.3901 54.1979 61.4913 54.0819 60.6774 53.7497ZM63.6883 41.7451C64.6267 42.3158 66.0566 43.6464 65.0471 45.0611C63.8587 46.3085 62.1478 44.8783 61.3047 44.2315C60.5229 43.7301 59.6445 45.0195 60.3698 45.6048C66.4623 50.1172 68.9347 41.8943 64.1629 41.0742C63.6375 40.9838 63.4424 41.5686 63.6883 41.7451ZM52.7706 36.4961C52.8743 35.2085 54.8344 34.9162 55.0294 36.1902C55.204 37.3315 54.9985 38.3799 54.4846 39.4075C53.9936 40.3891 52.7595 39.9311 52.6661 39.0373C52.541 37.839 52.7061 37.297 52.7706 36.4961ZM67.6915 35.9261C67.9648 35.568 68.3594 35.3236 68.8321 35.4617C70.3091 35.8935 69.8738 37.9912 69.355 39.0123C69.0732 39.5667 68.1621 39.7074 67.7504 39.2191C67.0793 38.423 66.7579 36.833 67.6111 36.0488C67.6342 36.0082 67.6599 35.9673 67.6915 35.9261ZM54.4638 30.8622L54.6971 30.8214C55.4189 30.6965 56.3163 30.5765 56.8269 31.157C57.0977 31.4648 57.1909 32.037 56.8269 32.3316C56.1866 32.85 55.4787 32.6491 54.7115 32.693C54.0792 32.7293 53.4715 32.834 52.8624 33.0082C51.5262 33.3902 50.4374 34.0877 49.2962 34.8535C49.1464 34.954 48.9936 34.7624 49.065 34.6223C49.7238 33.3314 51.0005 32.2711 52.2793 31.6247C52.9618 31.2797 53.7087 30.9935 54.4638 30.8622ZM66.3451 30.284L66.5237 30.3205C68.467 30.7269 70.9918 31.5387 71.9121 33.4482C71.9471 33.7182 71.9101 33.7761 71.88 33.8139L71.8699 33.8265C71.8451 33.8588 71.8253 33.9033 71.7083 33.94C71.6758 33.9323 71.6431 33.9241 71.6099 33.9154C71.1881 33.8048 70.8543 33.6525 70.5312 33.4944L70.1809 33.3217C69.7745 33.1223 69.3644 32.9302 68.9299 32.7884C68.0025 32.4858 67.0487 32.2727 66.08 32.1588C65.8701 32.1342 65.6679 32.0633 65.5084 31.9418C65.357 31.8265 65.2414 31.6668 65.1886 31.4546C65.1203 31.18 65.1399 30.9721 65.2872 30.7243C65.398 30.5382 65.5565 30.4093 65.7385 30.3352C65.924 30.2597 66.1352 30.2419 66.3451 30.284Z" fill="black"/>
<path fill-rule="evenodd" clip-rule="evenodd" d="M74.1676 42.8579C73.3309 43.9824 71.7797 44.3405 70.3489 44.2168C67.263 43.9197 66.2918 40.4137 66.1907 37.6886C68.26 38.2709 66.0157 34.1466 73.0893 33.6931C75.5829 33.4852 74.8954 34.9918 75.9971 36.0925C75.9745 38.4027 75.5901 40.9129 74.1676 42.8579ZM59.4695 40.2033C57.6477 48.7385 47.6711 46.7083 46.6231 39.0144C47.5908 38.3311 47.3359 36.6439 48.5382 36.0326C50.4436 34.8148 52.8254 34.8668 54.9892 34.8954C57.7549 35.0855 58.5431 36.2317 59.9638 37.4821C59.8954 38.3173 59.6983 39.3072 59.4695 40.2033ZM78.1197 32.2795C78.0174 32.2625 77.915 32.2465 77.8126 32.2314C77.7327 32.186 77.6389 32.1511 77.5298 32.1301C77.2806 32.0668 77.0332 32.0242 76.7861 32.0012C73.2403 31.2029 65.0373 32.3363 64.6987 35.3634C63.5696 35.7405 62.5925 35.4028 61.2838 35.4364C60.2876 31.2709 43.0652 31.8588 42.2369 34.3702C42.2338 34.3693 42.2307 34.3685 42.2274 34.3675C41.4316 34.1211 40.2583 34.1806 39.3474 34.1415C37.4023 34.1007 35.4551 34.2742 33.552 34.6846C29.9884 35.2511 25.1249 35.9144 27.6034 40.3662C27.6039 40.3669 27.6042 40.3678 27.6048 40.3685L27.6052 40.3682C28.0324 40.8062 28.7573 40.4534 28.7842 39.8605C27.951 37.7515 29.833 37.4983 31.281 36.8922C34.8841 35.5972 38.5525 35.4177 42.279 35.8183C42.5594 36.1485 42.9848 36.4364 43.4344 36.5871C45.926 37.0008 44.6129 38.8498 46.1878 39.1187C45.8985 45.5639 53.7205 49.082 58.2527 44.8452C60.0623 43.0753 60.4936 40.4534 60.9132 38.0902C61.135 38.0403 61.2761 37.919 61.3585 37.7584C61.892 37.2255 62.2271 36.7334 63.2821 36.5871C64.3371 36.4409 65.1492 36.7344 65.2591 36.8243C65.2868 36.8801 65.3165 36.9361 65.3511 36.992C65.3993 37.0754 65.4649 37.142 65.5395 37.1943C64.4977 43.6124 69.4782 47.6713 74.5063 44.3425C76.691 42.2866 77.1527 39.139 77.2439 36.3295C77.5401 36.1507 77.7276 35.8042 77.6251 35.3686C77.4838 34.7681 77.8151 34.2482 78.3428 33.9871C79.0284 33.6481 78.9071 32.4099 78.1197 32.2795Z" fill="black"/>
</svg>
