<svg width="150" height="150" viewBox="0 0 150 150" fill="none" xmlns="http://www.w3.org/2000/svg">
<path d="M150 114.72H0V114.795H150V114.72Z" fill="#EBEBEB"/>
<path d="M134.97 119.547H125.034V119.622H134.97V119.547Z" fill="#EBEBEB"/>
<path d="M99.3663 120.363H96.7593V120.438H99.3663V120.363Z" fill="#EBEBEB"/>
<path d="M124.734 116.763H118.977V116.838H124.734V116.763Z" fill="#EBEBEB"/>
<path d="M28.6948 117.267H15.7378V117.342H28.6948V117.267Z" fill="#EBEBEB"/>
<path d="M33.2672 117.267H31.3682V117.342H33.2672V117.267Z" fill="#EBEBEB"/>
<path d="M67.5449 118.533H39.4409V118.608H67.5449V118.533Z" fill="#EBEBEB"/>
<path d="M71.0999 101.34H13.1729C12.7191 101.339 12.2842 101.158 11.9636 100.837C11.643 100.516 11.4629 100.081 11.4629 99.627V18.198C11.4668 17.7468 11.6486 17.3154 11.9688 16.9975C12.289 16.6795 12.7217 16.5008 13.1729 16.5H71.0999C71.5542 16.5 71.9899 16.6805 72.3112 17.0017C72.6324 17.323 72.8129 17.7587 72.8129 18.213V99.627C72.8129 100.081 72.6324 100.517 72.3112 100.838C71.9899 101.16 71.5542 101.34 71.0999 101.34ZM13.1729 16.56C12.739 16.5608 12.3231 16.7337 12.0166 17.0408C11.7101 17.3479 11.5379 17.7641 11.5379 18.198V99.627C11.5379 100.061 11.7101 100.477 12.0166 100.784C12.3231 101.091 12.739 101.264 13.1729 101.265H71.0999C71.5341 101.264 71.9502 101.091 72.2573 100.784C72.5643 100.477 72.7371 100.061 72.7379 99.627V18.198C72.7371 17.7638 72.5643 17.3476 72.2573 17.0406C71.9502 16.7336 71.5341 16.5608 71.0999 16.56H13.1729Z" fill="#EBEBEB"/>
<path d="M135.993 101.34H78.0631C77.609 101.339 77.1738 101.158 76.8527 100.837C76.5316 100.516 76.3509 100.081 76.3501 99.627V18.198C76.3548 17.7465 76.5373 17.3151 76.858 16.9973C77.1786 16.6794 77.6116 16.5008 78.0631 16.5H135.993C136.444 16.5016 136.876 16.6807 137.195 16.9985C137.515 17.3164 137.696 17.7473 137.7 18.198V99.627C137.7 100.08 137.52 100.515 137.2 100.836C136.881 101.157 136.446 101.338 135.993 101.34ZM78.0631 16.56C77.6289 16.5608 77.2127 16.7336 76.9057 17.0406C76.5987 17.3476 76.4259 17.7638 76.4251 18.198V99.627C76.4259 100.061 76.5987 100.477 76.9057 100.784C77.2127 101.091 77.6289 101.264 78.0631 101.265H135.993C136.427 101.264 136.843 101.091 137.15 100.784C137.457 100.477 137.63 100.061 137.631 99.627V18.198C137.63 17.7638 137.457 17.3476 137.15 17.0406C136.843 16.7336 136.427 16.5608 135.993 16.56H78.0631Z" fill="#EBEBEB"/>
<path d="M20.0371 114.72H60.7471L60.7471 28.683H20.0371L20.0371 114.72Z" fill="#E6E6E6"/>
<path d="M19.1342 114.72H59.8442L59.8442 28.683H19.1342L19.1342 114.72Z" fill="#F5F5F5"/>
<path d="M58.2212 112.896L58.2212 30.507L20.7602 30.507L20.7602 112.896H58.2212Z" fill="#FAFAFA"/>
<path d="M49.5928 112.896L40.1008 30.507H29.3848L38.8768 112.896H49.5928Z" fill="white"/>
<path d="M21.4438 112.896L21.4438 30.507H20.7598L20.7598 112.896H21.4438Z" fill="#E6E6E6"/>
<path d="M19.8059 40.092L59.1719 40.092V37.644L19.8059 37.644V40.092Z" fill="#F5F5F5"/>
<path d="M82.269 114.72V64.8H65.832V114.72H82.269Z" fill="#F0F0F0"/>
<path d="M81.3657 80.889V66.258H66.7347V80.889H81.3657Z" fill="#F5F5F5"/>
<path d="M81.3657 96.834V82.203H66.7347V96.834H81.3657Z" fill="#F5F5F5"/>
<path d="M81.3657 112.779V98.148H66.7347V112.779H81.3657Z" fill="#F5F5F5"/>
<path d="M77.2894 66.066H70.8004C70.7984 66.2655 70.8362 66.4634 70.9116 66.6481C70.987 66.8329 71.0986 67.0007 71.2396 67.1417C71.3807 67.2828 71.5485 67.3943 71.7332 67.4698C71.918 67.5452 72.1159 67.583 72.3154 67.581H75.7594C75.9595 67.5826 76.1579 67.5446 76.3433 67.4692C76.5286 67.3938 76.6973 67.2825 76.8394 67.1417C76.9816 67.0009 77.0946 66.8334 77.1718 66.6488C77.249 66.4642 77.289 66.2661 77.2894 66.066Z" fill="#E6E6E6"/>
<path d="M77.2888 82.011H70.7998C70.7998 82.4131 70.9593 82.7987 71.2434 83.0833C71.5274 83.3679 71.9127 83.5282 72.3148 83.529H75.7588C75.959 83.5302 76.1575 83.4918 76.3429 83.4161C76.5283 83.3404 76.6969 83.2288 76.8391 83.0877C76.9812 82.9467 77.0941 82.779 77.1713 82.5942C77.2485 82.4094 77.2884 82.2112 77.2888 82.011Z" fill="#E6E6E6"/>
<path d="M77.2888 97.956H70.7998C70.7998 98.3581 70.9593 98.7437 71.2434 99.0283C71.5274 99.3129 71.9127 99.4732 72.3148 99.474H75.7588C75.959 99.4752 76.1575 99.4368 76.3429 99.3611C76.5283 99.2854 76.6969 99.1738 76.8391 99.0328C76.9812 98.8917 77.0941 98.724 77.1713 98.5392C77.2485 98.3544 77.2884 98.1562 77.2888 97.956Z" fill="#E6E6E6"/>
<path d="M90.4771 114.72V64.8H82.266V114.72H90.4771Z" fill="#F5F5F5"/>
<path d="M126.147 113.493H130.704V75.909H126.147V113.493Z" fill="#F0F0F0"/>
<path d="M86.3157 114.72H130.074V113.493H86.3157V114.72Z" fill="#F0F0F0"/>
<path d="M126.147 75.909H85.6831V113.493H126.147V75.909Z" fill="#FAFAFA"/>
<path d="M93.5998 97.872H118.218C119.38 97.872 120.495 97.4102 121.317 96.5882C122.139 95.7663 122.601 94.6514 122.601 93.489C122.601 92.3266 122.139 91.2117 121.317 90.3897C120.495 89.5678 119.38 89.106 118.218 89.106H93.5998C92.4373 89.106 91.3225 89.5678 90.5005 90.3897C89.6786 91.2117 89.2168 92.3266 89.2168 93.489C89.2168 94.6514 89.6786 95.7663 90.5005 96.5882C91.3225 97.4102 92.4373 97.872 93.5998 97.872ZM118.224 89.4C118.761 89.4 119.292 89.5058 119.789 89.7113C120.285 89.9167 120.735 90.2179 121.115 90.5976C121.495 90.9773 121.796 91.4281 122.002 91.9242C122.207 92.4203 122.313 92.952 122.313 93.489C122.313 94.026 122.207 94.5577 122.002 95.0538C121.796 95.5499 121.495 96.0007 121.115 96.3804C120.735 96.7601 120.285 97.0612 119.789 97.2667C119.292 97.4722 118.761 97.578 118.224 97.578H93.5998C92.5153 97.578 91.4753 97.1472 90.7084 96.3804C89.9416 95.6135 89.5108 94.5735 89.5108 93.489C89.5108 92.4045 89.9416 91.3645 90.7084 90.5976C91.4753 89.8308 92.5153 89.4 93.5998 89.4H118.224Z" fill="#F0F0F0"/>
<path d="M93.5998 108.777H118.218C119.38 108.777 120.495 108.315 121.317 107.493C122.139 106.671 122.601 105.556 122.601 104.394C122.601 103.232 122.139 102.117 121.317 101.295C120.495 100.473 119.38 100.011 118.218 100.011H93.5998C92.4373 100.011 91.3225 100.473 90.5005 101.295C89.6786 102.117 89.2168 103.232 89.2168 104.394C89.2168 105.556 89.6786 106.671 90.5005 107.493C91.3225 108.315 92.4373 108.777 93.5998 108.777ZM118.218 100.305C118.764 100.29 119.307 100.385 119.816 100.584C120.325 100.783 120.789 101.081 121.18 101.462C121.572 101.843 121.883 102.299 122.096 102.802C122.308 103.305 122.418 103.846 122.418 104.392C122.418 104.939 122.308 105.48 122.096 105.983C121.883 106.486 121.572 106.942 121.18 107.323C120.789 107.704 120.325 108.002 119.816 108.201C119.307 108.4 118.764 108.495 118.218 108.48H93.5998C93.0537 108.495 92.5102 108.4 92.0013 108.201C91.4925 108.002 91.0286 107.704 90.6371 107.323C90.2456 106.942 89.9345 106.486 89.722 105.983C89.5095 105.48 89.4 104.939 89.4 104.392C89.4 103.846 89.5095 103.305 89.722 102.802C89.9345 102.299 90.2456 101.843 90.6371 101.462C91.0286 101.081 91.4925 100.783 92.0013 100.584C92.5102 100.385 93.0537 100.29 93.5998 100.305H118.218Z" fill="#F0F0F0"/>
<path d="M102.201 92.544H109.629C109.872 92.5432 110.104 92.4466 110.275 92.2751C110.447 92.1037 110.543 91.8714 110.544 91.629C110.543 91.3866 110.447 91.1543 110.275 90.9829C110.104 90.8114 109.872 90.7148 109.629 90.714H102.201C101.959 90.7148 101.726 90.8114 101.555 90.9829C101.384 91.1543 101.287 91.3866 101.286 91.629C101.287 91.8714 101.384 92.1037 101.555 92.2751C101.726 92.4466 101.959 92.5432 102.201 92.544Z" fill="#EBEBEB"/>
<path d="M93.5998 86.967H118.218C119.38 86.967 120.495 86.5052 121.317 85.6832C122.139 84.8613 122.601 83.7464 122.601 82.584C122.601 81.4215 122.139 80.3067 121.317 79.4847C120.495 78.6628 119.38 78.201 118.218 78.201H93.5998C92.4373 78.201 91.3225 78.6628 90.5005 79.4847C89.6786 80.3067 89.2168 81.4215 89.2168 82.584C89.2168 83.7464 89.6786 84.8613 90.5005 85.6832C91.3225 86.5052 92.4373 86.967 93.5998 86.967ZM118.218 78.495C119.302 78.495 120.342 78.9258 121.109 79.6926C121.876 80.4595 122.307 81.4995 122.307 82.584C122.307 83.6685 121.876 84.7085 121.109 85.4753C120.342 86.2422 119.302 86.673 118.218 86.673H93.5998C92.5153 86.673 91.4753 86.2422 90.7084 85.4753C89.9416 84.7085 89.5108 83.6685 89.5108 82.584C89.5108 81.4995 89.9416 80.4595 90.7084 79.6926C91.4753 78.9258 92.5153 78.495 93.5998 78.495H118.218Z" fill="#F0F0F0"/>
<path d="M102.201 81.639H109.629C109.872 81.6382 110.104 81.5416 110.275 81.3701C110.447 81.1987 110.543 80.9664 110.544 80.724C110.54 80.4839 110.442 80.255 110.271 80.0867C110.1 79.9183 109.869 79.824 109.629 79.824H102.201C101.961 79.824 101.731 79.9183 101.559 80.0867C101.388 80.255 101.29 80.4839 101.286 80.724C101.287 80.9664 101.384 81.1987 101.555 81.3701C101.726 81.5416 101.959 81.6382 102.201 81.639Z" fill="#EBEBEB"/>
<path d="M102.201 103.446H109.629C109.869 103.446 110.1 103.352 110.271 103.183C110.442 103.015 110.54 102.786 110.544 102.546C110.539 102.306 110.441 102.078 110.27 101.91C110.099 101.741 109.869 101.647 109.629 101.646H102.201C101.961 101.647 101.731 101.741 101.56 101.91C101.389 102.078 101.291 102.306 101.286 102.546C101.29 102.786 101.388 103.015 101.559 103.183C101.731 103.352 101.961 103.446 102.201 103.446Z" fill="#EBEBEB"/>
<path d="M84.849 75.909H126.144V73.998H84.849V75.909Z" fill="#F0F0F0"/>
<path d="M131.598 74.001H126.147V75.912H131.598V74.001Z" fill="#E6E6E6"/>
<path d="M96.5998 43.917C97.5208 44.379 100.017 43.881 99.1858 45.57C98.7072 46.4548 98.1349 47.2855 97.4788 48.048C96.5488 49.197 96.7258 50.448 97.8238 50.892C98.0593 50.9727 98.2673 51.1183 98.4238 51.312C98.9308 52.038 97.7368 53.01 97.1488 53.736C96.5608 54.462 96.3268 55.176 96.7588 55.716C97.2388 56.316 98.2348 56.091 99.0268 56.271C100.929 56.706 98.9728 59.331 99.1738 60.678C99.3118 61.602 100.074 61.86 101.079 61.989C101.91 62.097 103.017 62.172 103.062 63.021C103.104 63.759 102.144 64.593 101.892 65.367C101.772 65.7 101.727 66.0552 101.759 66.4076C101.791 66.76 101.9 67.1011 102.078 67.407C102.247 67.6649 102.467 67.8849 102.725 68.0532C102.983 68.2216 103.274 68.3345 103.578 68.385C104.52 68.583 105.945 68.385 106.014 69.441C106.044 69.915 105.714 70.341 105.942 70.773C106.068 70.9552 106.233 71.1079 106.424 71.2203C106.615 71.3327 106.828 71.4022 107.049 71.424C107.951 71.5617 108.87 71.5455 109.767 71.376C110.874 71.172 112.509 70.197 111.909 69.258C111.805 69.1233 111.676 69.0105 111.529 68.9261C111.382 68.8416 111.219 68.7872 111.051 68.766C110.787 68.712 110.013 68.796 109.914 68.616C109.815 68.436 110.082 67.743 110.091 67.494C110.118 66.8025 110.009 66.1124 109.77 65.463C109.464 64.614 108.977 63.842 108.342 63.201C108.078 62.934 107.661 62.739 107.607 62.352C107.553 61.965 107.796 61.539 108.066 61.152C108.489 60.552 109.146 59.988 109.383 59.352C109.755 58.35 108.852 58.032 108.015 57.804C107.259 57.597 106.263 57.333 106.515 56.415C106.701 55.752 107.538 55.215 107.787 54.561C108.126 53.694 107.304 53.661 106.719 53.361C105.954 52.959 105.762 52.239 106.038 51.33C106.497 49.83 109.248 47.709 107.838 46.734C107.481 46.485 107.148 46.404 106.938 46.029C106.728 45.654 106.674 45.129 106.374 44.775C105.9 44.202 104.919 44.106 104.409 43.575C103.356 42.483 105.627 40.548 103.554 40.086C103.116 40.0297 102.702 39.8566 102.354 39.585C102.165 39.408 102.009 38.553 101.796 38.493C100.845 38.229 99.1318 40.074 98.5918 40.641C97.9348 41.325 95.5078 43.365 96.5998 43.917Z" fill="#E0E0E0"/>
<path d="M112.917 69.363C112.353 68.316 109.884 67.263 111.522 66.063C112.405 65.4618 113.356 64.9655 114.354 64.584C115.788 63.984 116.298 62.604 115.572 61.461C115.405 61.2208 115.302 60.9421 115.272 60.651C115.212 59.595 116.787 59.343 117.693 58.962C118.599 58.581 119.193 57.999 119.094 57.177C118.992 56.277 117.996 55.875 117.393 55.2C115.947 53.574 119.079 52.101 119.622 50.595C119.994 49.563 119.472 48.834 118.644 48.069C117.969 47.442 117.03 46.68 117.444 45.78C117.804 45 119.097 44.742 119.733 44.106C120.026 43.8185 120.26 43.4754 120.419 43.0969C120.579 42.7184 120.662 42.3118 120.663 41.901C120.649 41.1812 120.365 40.4929 119.868 39.972C119.142 39.183 117.768 38.508 118.281 37.377C118.509 36.873 119.028 36.648 119.058 36.057C119.049 35.8011 118.989 35.5496 118.881 35.3173C118.773 35.0849 118.62 34.8764 118.431 34.704C117.728 34.0155 116.907 33.4595 116.007 33.063C114.921 32.583 112.956 32.568 112.983 33.903C113.017 34.2961 113.192 34.6637 113.475 34.938C113.682 35.16 114.408 35.553 114.399 35.799C114.39 36.045 113.799 36.588 113.64 36.837C113.242 37.5446 112.971 38.3162 112.839 39.117C112.653 40.1786 112.671 41.2658 112.89 42.321C112.977 42.756 113.244 43.221 113.082 43.647C112.92 44.073 112.482 44.361 112.041 44.58C111.348 44.928 110.463 45.105 109.914 45.609C109.047 46.404 109.674 47.292 110.292 48.045C110.85 48.726 111.585 49.614 110.868 50.397C110.349 50.961 109.32 50.997 108.768 51.504C108.006 52.185 108.711 52.728 109.068 53.412C109.524 54.312 109.311 55.152 108.579 55.911C107.379 57.165 103.809 57.627 104.532 59.511C104.715 59.988 104.961 60.279 104.952 60.795C104.943 61.311 104.706 61.875 104.778 62.43C104.889 63.312 105.702 64.02 105.87 64.881C106.212 66.654 103.17 67.227 104.754 68.985C105.124 69.3318 105.399 69.7677 105.552 70.251C105.627 70.551 105.303 71.52 105.459 71.715C106.158 72.576 108.657 71.754 109.437 71.505C110.358 71.19 113.592 70.608 112.917 69.363Z" fill="#F5F5F5"/>
<path d="M119.241 67.002C119.241 67.002 118.941 74.001 107.487 74.001C96.0329 74.001 95.7329 67.002 95.7329 67.002H119.241Z" fill="#F0F0F0"/>
<path d="M75 128.268C107.125 128.268 133.167 126.748 133.167 124.872C133.167 122.996 107.125 121.476 75 121.476C42.8753 121.476 16.833 122.996 16.833 124.872C16.833 126.748 42.8753 128.268 75 128.268Z" fill="#F5F5F5"/>
<g opacity="0.2">
<path opacity="0.2" d="M108.219 122.361L89.1119 87.045L70.0049 122.361H108.219Z" fill="#A6A6A6"/>
<path opacity="0.2" d="M108.219 62.616L89.1119 97.929L70.0049 62.616H108.219Z" fill="#A6A6A6"/>
</g>
<path d="M92.6128 83.466L89.8168 88.632C89.7482 88.7592 89.6464 88.8655 89.5223 88.9396C89.3982 89.0137 89.2564 89.0528 89.1118 89.0528C88.9673 89.0528 88.8254 89.0137 88.7013 88.9396C88.5772 88.8655 88.4754 88.7592 88.4068 88.632L85.6108 83.466C85.3587 82.9991 85.2323 82.4746 85.2439 81.9441C85.2555 81.4136 85.4047 80.8952 85.6769 80.4397C85.9491 79.9842 86.335 79.6073 86.7967 79.3458C87.2584 79.0843 87.7802 78.9472 88.3108 78.948H89.9278C90.4572 78.9498 90.977 79.0887 91.4367 79.3513C91.8964 79.6139 92.2801 79.9911 92.5506 80.4462C92.821 80.9012 92.9689 81.4186 92.9798 81.9479C92.9907 82.4771 92.8643 83.0002 92.6128 83.466Z" fill="#A6A6A6"/>
<path d="M89.4147 113.445L98.0997 117.015C98.2692 117.086 98.4089 117.214 98.4954 117.376C98.5819 117.539 98.6099 117.726 98.5747 117.906C98.5395 118.087 98.4433 118.25 98.3022 118.368C98.161 118.486 97.9836 118.551 97.7997 118.554H80.4387C80.2548 118.551 80.0774 118.486 79.9363 118.368C79.7952 118.25 79.6989 118.087 79.6637 117.906C79.6285 117.726 79.6565 117.539 79.743 117.376C79.8295 117.214 79.9693 117.086 80.1387 117.015L88.7997 113.445C88.8971 113.404 89.0016 113.383 89.1072 113.383C89.2128 113.383 89.3174 113.404 89.4147 113.445Z" fill="#A6A6A6"/>
<path d="M89.112 106.653C89.7267 106.653 90.225 106.155 90.225 105.54C90.225 104.925 89.7267 104.427 89.112 104.427C88.4973 104.427 87.999 104.925 87.999 105.54C87.999 106.155 88.4973 106.653 89.112 106.653Z" fill="#A6A6A6"/>
<path d="M89.1121 94.488C89.4285 94.488 89.6851 94.2315 89.6851 93.915C89.6851 93.5985 89.4285 93.342 89.1121 93.342C88.7956 93.342 88.5391 93.5985 88.5391 93.915C88.5391 94.2315 88.7956 94.488 89.1121 94.488Z" fill="#A6A6A6"/>
<path d="M89.1119 100.107C89.4715 100.107 89.7629 99.8155 89.7629 99.456C89.7629 99.0964 89.4715 98.805 89.1119 98.805C88.7524 98.805 88.4609 99.0964 88.4609 99.456C88.4609 99.8155 88.7524 100.107 89.1119 100.107Z" fill="#A6A6A6"/>
<path d="M108.123 120.618H70.1008C69.6393 120.62 69.1972 120.804 68.8712 121.13C68.5451 121.457 68.3616 121.899 68.3608 122.361C68.3624 122.822 68.5463 123.264 68.8722 123.59C69.1982 123.916 69.6399 124.099 70.1008 124.101H108.123C108.584 124.099 109.025 123.916 109.351 123.59C109.677 123.264 109.861 122.822 109.863 122.361C109.862 121.899 109.679 121.457 109.353 121.13C109.026 120.804 108.584 120.62 108.123 120.618Z" fill="#A6A6A6"/>
<path d="M108.123 60.876H70.1008C69.6399 60.8776 69.1982 61.0614 68.8722 61.3874C68.5463 61.7134 68.3624 62.155 68.3608 62.616C68.3624 63.077 68.5463 63.5187 68.8722 63.8446C69.1982 64.1706 69.6399 64.3544 70.1008 64.356H108.123C108.584 64.3544 109.025 64.1706 109.351 63.8446C109.677 63.5187 109.861 63.077 109.863 62.616C109.861 62.155 109.677 61.7134 109.351 61.3874C109.025 61.0614 108.584 60.8776 108.123 60.876Z" fill="#A6A6A6"/>
<path d="M58.3889 121.704L56.2739 121.017L57.5879 116.028L59.7029 116.715L58.3889 121.704Z" fill="#FF8B7B"/>
<path d="M56.241 120.735L58.617 121.506C58.6571 121.518 58.6911 121.545 58.7118 121.581C58.7324 121.618 58.7383 121.66 58.728 121.701L58.233 123.621C58.2013 123.72 58.1318 123.802 58.0396 123.85C57.9474 123.898 57.8401 123.907 57.741 123.876C56.919 123.594 56.541 123.417 55.494 123.078C54.849 122.868 52.731 122.322 51.843 122.034C50.955 121.746 51.264 120.876 51.666 120.918C53.466 121.107 55.086 121.023 55.836 120.747C55.966 120.698 56.1084 120.694 56.241 120.735Z" fill="#263238"/>
<path opacity="0.2" d="M59.7027 116.718L57.5877 116.028L56.9097 118.602L59.0277 119.289L59.7027 116.718Z" fill="black"/>
<path d="M65.4837 66.216C65.4837 66.216 61.6887 83.781 60.7977 90.096C59.8227 97.011 56.1597 117.777 56.1597 117.777L60.0867 118.863C60.0867 118.863 65.5287 98.724 67.1187 92.001C68.8437 84.702 73.4187 66.201 73.4187 66.201L65.4837 66.216Z" fill="#A6A6A6"/>
<path opacity="0.3" d="M70.1758 71.976C68.6758 75.378 67.9348 82.776 68.5168 86.181C69.5788 81.816 70.8568 76.626 71.8438 72.633C71.5108 71.475 70.9588 70.2 70.1758 71.976Z" fill="black"/>
<path d="M60.186 118.941L55.98 117.783L56.064 116.07L60.798 117.705L60.186 118.941Z" fill="#263238"/>
<path d="M55.3709 120.861C55.5666 120.918 55.7677 120.954 55.9709 120.969C55.981 120.97 55.991 120.967 55.9998 120.963C56.0087 120.958 56.016 120.951 56.021 120.942C56.026 120.933 56.0284 120.923 56.0281 120.913C56.0277 120.903 56.0245 120.893 56.0189 120.885C55.9649 120.816 55.4999 120.213 55.2089 120.231C55.1755 120.233 55.1429 120.243 55.1146 120.261C55.0862 120.279 55.0629 120.303 55.0469 120.333C55.0169 120.376 54.9988 120.427 54.9946 120.48C54.9904 120.532 55.0002 120.585 55.0229 120.633C55.108 120.748 55.2315 120.829 55.3709 120.861ZM55.8479 120.861C55.4459 120.813 55.1699 120.711 55.1039 120.582C55.0901 120.552 55.0848 120.518 55.0885 120.485C55.0922 120.451 55.1048 120.42 55.1249 120.393C55.1325 120.379 55.1437 120.366 55.1573 120.357C55.171 120.348 55.1867 120.343 55.2029 120.342C55.3589 120.324 55.6529 120.618 55.8479 120.852V120.861Z" fill="#263238"/>
<path d="M55.9499 120.966H55.9739C55.9826 120.964 55.9907 120.96 55.9975 120.954C56.0043 120.949 56.0096 120.941 56.0129 120.933C56.0129 120.909 56.2679 120.315 56.1209 120.033C56.1026 119.998 56.0762 119.967 56.0439 119.943C56.0116 119.92 55.9743 119.904 55.9349 119.898C55.8923 119.885 55.8466 119.887 55.8053 119.903C55.7639 119.92 55.7292 119.95 55.7069 119.988C55.5839 120.204 55.7549 120.747 55.9259 120.942L55.9499 120.966ZM55.9499 120.015C55.9699 120.021 55.9886 120.031 56.0046 120.044C56.0206 120.058 56.0336 120.074 56.0429 120.093C56.0931 120.335 56.0647 120.586 55.9619 120.81C55.8166 120.586 55.7619 120.314 55.8089 120.051C55.8089 120.024 55.8509 119.994 55.9259 120.009L55.9499 120.015Z" fill="#263238"/>
<path d="M69.5218 49.539C69.4078 49.809 69.3118 50.013 69.2068 50.241C69.1018 50.469 68.9878 50.679 68.8768 50.895C68.6548 51.33 68.4208 51.753 68.1778 52.176C67.6869 53.0254 67.146 53.8448 66.5578 54.63C65.9558 55.4419 65.2886 56.2035 64.5628 56.907C63.7896 57.6681 62.913 58.3165 61.9588 58.833L61.8838 58.872C61.7624 58.9347 61.6333 58.9811 61.4998 59.01C60.8165 59.1521 60.1088 59.1243 59.4388 58.929C58.8821 58.7624 58.3526 58.5158 57.8668 58.197C57.0518 57.649 56.3203 56.9861 55.6948 56.229C55.1137 55.5385 54.5853 54.8055 54.1138 54.036C53.6482 53.2798 53.2343 52.493 52.8748 51.681C52.7822 51.4662 52.7702 51.2253 52.8409 51.0024C52.9116 50.7794 53.0603 50.5895 53.2598 50.4673C53.4592 50.3452 53.696 50.299 53.9267 50.3374C54.1574 50.3757 54.3666 50.4959 54.5158 50.676L54.5458 50.712C55.0408 51.312 55.5778 51.951 56.1178 52.533C56.644 53.1125 57.2029 53.6614 57.7918 54.177C58.3123 54.6488 58.891 55.0521 59.5138 55.377C59.7466 55.4967 59.9966 55.5797 60.2548 55.623C60.3994 55.6499 60.5486 55.6374 60.6868 55.587L60.2278 55.764C60.8478 55.346 61.4132 54.8521 61.9108 54.294C62.4525 53.6856 62.9536 53.0422 63.4108 52.368C63.8848 51.678 64.3348 50.955 64.7578 50.211C64.9738 49.842 65.1808 49.467 65.3758 49.086L65.6758 48.519C65.7688 48.336 65.8708 48.126 65.9428 47.979L65.9608 47.937C66.1795 47.4755 66.5705 47.1182 67.0498 46.9419C67.5292 46.7656 68.0585 46.7844 68.5241 46.9942C68.9897 47.204 69.3545 47.5881 69.5399 48.064C69.7253 48.5398 69.7167 49.0695 69.5158 49.539H69.5218Z" fill="#263238"/>
<path opacity="0.3" d="M64.6172 53.613C65.5592 51.111 67.5602 51.069 68.4272 51.732C68.3642 51.849 68.2982 51.966 68.2322 52.083C67.7616 52.902 67.2458 53.6942 66.6872 54.456C66.1139 55.2397 65.4832 55.9797 64.8002 56.67C64.5842 56.883 64.3622 57.093 64.1312 57.297C64.0517 56.0491 64.2168 54.7976 64.6172 53.613Z" fill="black"/>
<path d="M52.8001 51.837L50.8501 51.909L51.3361 49.824C52.0074 49.8573 52.6738 49.9578 53.3251 50.124C53.4437 50.1599 53.5521 50.2232 53.6417 50.3089C53.7313 50.3945 53.7994 50.5 53.8406 50.6168C53.8818 50.7337 53.8949 50.8586 53.8788 50.9815C53.8627 51.1043 53.818 51.2217 53.7481 51.324C53.6426 51.4791 53.5015 51.6066 53.3365 51.6959C53.1716 51.7851 52.9876 51.8335 52.8001 51.837Z" fill="#FF8B7B"/>
<path d="M53.8919 50.076C53.7005 49.9242 53.4814 49.8111 53.2469 49.743C53.0849 50.595 52.0469 52.032 52.0469 52.032H52.8599C52.9645 52.0323 53.0679 52.0096 53.1627 51.9655C53.2576 51.9215 53.3416 51.8571 53.4089 51.777L53.9789 51.093C54.0413 51.0211 54.0887 50.9375 54.1182 50.8469C54.1476 50.7564 54.1587 50.6609 54.1505 50.5661C54.1424 50.4712 54.1154 50.379 54.0709 50.2948C54.0265 50.2106 53.9656 50.1362 53.8919 50.076Z" fill="#A6A6A6"/>
<path d="M49.356 50.949L49.902 49.479L51.33 49.827L50.844 51.909L49.356 50.949Z" fill="#FF8B7B"/>
<path d="M73.8747 122.676H71.6517L71.5737 117.525H73.7967L73.8747 122.676Z" fill="#FF8B7B"/>
<path d="M71.5349 122.418H74.0339C74.0548 122.417 74.0756 122.421 74.0952 122.428C74.1148 122.435 74.1328 122.446 74.1481 122.46C74.1635 122.475 74.1758 122.492 74.1845 122.511C74.1933 122.53 74.1981 122.55 74.1989 122.571L74.3189 124.548C74.3189 124.652 74.278 124.752 74.2051 124.826C74.1321 124.9 74.0329 124.942 73.9289 124.944C73.0589 124.929 72.6449 124.878 71.5289 124.878C70.8539 124.878 68.5949 124.947 67.6619 124.947C66.7289 124.947 66.7619 124.023 67.1489 123.939C68.9249 123.567 70.5089 123.039 71.1359 122.556C71.2487 122.465 71.3899 122.416 71.5349 122.418Z" fill="#263238"/>
<path opacity="0.2" d="M73.7997 117.528H71.5737L71.6157 120.183H73.8387L73.7997 117.528Z" fill="black"/>
<path d="M69.8221 66.216C69.8221 66.216 68.9731 85.539 69.3331 91.908C69.7291 98.88 70.5571 119.541 70.5571 119.541H74.6311C74.6311 119.541 75.6571 99.441 75.9031 92.541C76.1701 85.041 77.3791 66.216 77.3791 66.216H69.8221Z" fill="#A6A6A6"/>
<path d="M74.7961 119.541H70.3951L70.0591 117.903L74.9161 118.146L74.7961 119.541Z" fill="#263238"/>
<path d="M70.746 122.805C70.9482 122.8 71.1492 122.774 71.346 122.727C71.3555 122.724 71.364 122.718 71.3708 122.711C71.3776 122.704 71.3825 122.695 71.385 122.685C71.3861 122.675 71.3847 122.666 71.3811 122.657C71.3774 122.648 71.3715 122.64 71.364 122.634C71.292 122.583 70.662 122.154 70.389 122.262C70.3587 122.274 70.3318 122.294 70.3109 122.319C70.2899 122.344 70.2755 122.374 70.269 122.406C70.2553 122.455 70.2542 122.506 70.2657 122.555C70.2772 122.605 70.3011 122.65 70.335 122.688C70.453 122.776 70.5993 122.818 70.746 122.805ZM71.196 122.652C70.797 122.73 70.506 122.718 70.401 122.616C70.3794 122.591 70.3648 122.56 70.3584 122.528C70.3521 122.495 70.3544 122.461 70.365 122.43C70.3672 122.414 70.3736 122.399 70.3836 122.386C70.3936 122.374 70.4069 122.364 70.422 122.358C70.569 122.301 70.938 122.487 71.196 122.652Z" fill="#263238"/>
<path d="M71.3283 122.727C71.3361 122.73 71.3445 122.73 71.3523 122.727C71.3598 122.723 71.3662 122.717 71.3709 122.709C71.3756 122.702 71.3785 122.694 71.3793 122.685C71.3793 122.658 71.4303 122.019 71.2053 121.803C71.1767 121.775 71.1421 121.754 71.1041 121.742C71.0662 121.729 71.0258 121.725 70.9863 121.731C70.9423 121.733 70.9002 121.749 70.8666 121.777C70.8329 121.805 70.8096 121.844 70.8003 121.887C70.7463 122.13 71.0793 122.595 71.3013 122.727C71.3101 122.73 71.3195 122.73 71.3283 122.727ZM71.0283 121.827C71.0489 121.826 71.0694 121.83 71.0884 121.838C71.1075 121.846 71.1248 121.857 71.1393 121.872C71.2632 122.086 71.3147 122.334 71.2863 122.58C71.0943 122.415 70.8723 122.061 70.9053 121.902C70.9053 121.872 70.9293 121.836 71.0043 121.827H71.0283Z" fill="#263238"/>
<path d="M78.492 48.282C78.5253 48.0944 78.5203 47.9021 78.4775 47.7165C78.4348 47.5309 78.355 47.3558 78.2429 47.2018C78.1309 47.0477 77.9889 46.9178 77.8255 46.8199C77.6621 46.722 77.4807 46.6581 77.292 46.632H77.268C76.551 46.527 75.651 46.419 74.769 46.377C73.0853 46.2809 71.3976 46.2809 69.714 46.377C68.937 46.449 68.178 46.578 67.572 46.695H67.548C67.1691 46.7715 66.8183 46.95 66.5334 47.2111C66.2484 47.4723 66.0402 47.8062 65.931 48.177C65.205 50.622 64.338 55.614 65.472 66.213H77.367C77.451 65.151 77.214 61.695 77.388 57.294C77.5618 54.2694 77.9306 51.2591 78.492 48.282Z" fill="#263238"/>
<path opacity="0.3" d="M78.3781 48.936C78.1321 50.358 77.8291 52.293 77.6191 54.336C77.6191 54.336 76.5331 52.206 76.3351 50.385C76.1371 48.564 77.7001 48.426 78.3781 48.936Z" fill="black"/>
<g opacity="0.2">
<path opacity="0.2" d="M70.4012 49.218C70.3765 49.2168 70.3529 49.2077 70.3338 49.1919C70.3148 49.1762 70.3014 49.1547 70.2956 49.1307C70.2899 49.1066 70.2921 49.0814 70.3019 49.0587C70.3118 49.036 70.3287 49.0172 70.3502 49.005L74.0582 47.082C74.0846 47.0692 74.1149 47.067 74.1428 47.0759C74.1707 47.0849 74.1942 47.1042 74.2082 47.13C74.2219 47.1567 74.2246 47.1877 74.2156 47.2163C74.2066 47.245 74.1867 47.2689 74.1602 47.283L70.4522 49.2C70.4365 49.2092 70.4192 49.2153 70.4012 49.218Z" fill="white"/>
<path opacity="0.2" d="M72.0992 49.392C72.0846 49.3926 72.07 49.3899 72.0565 49.3842C72.043 49.3785 72.031 49.3699 72.0212 49.359L69.9872 47.34C69.9672 47.3183 69.9561 47.29 69.9561 47.2605C69.9561 47.231 69.9672 47.2026 69.9872 47.181C70.0085 47.1603 70.037 47.1487 70.0667 47.1487C70.0964 47.1487 70.1249 47.1603 70.1462 47.181L72.1772 49.203C72.1979 49.2243 72.2095 49.2528 72.2095 49.2825C72.2095 49.3122 72.1979 49.3407 72.1772 49.362C72.1669 49.3719 72.1546 49.3797 72.1412 49.3848C72.1278 49.39 72.1136 49.3924 72.0992 49.392Z" fill="white"/>
<path opacity="0.2" d="M74.778 46.374C73.0954 46.2779 71.4086 46.2779 69.726 46.374H69.642C69.6011 46.5284 69.5915 46.6894 69.6137 46.8475C69.6358 47.0056 69.6893 47.1578 69.771 47.295C70.053 47.745 70.644 47.997 71.532 48.045H71.865C74.265 48.045 75.192 46.587 75.231 46.524L75.315 46.389L74.778 46.374Z" fill="white"/>
</g>
<path d="M69.9656 46.356C71.4356 46.008 71.6936 45.099 71.5946 44.1C71.5713 43.8498 71.5322 43.6013 71.4776 43.356L73.3196 41.826L74.6726 40.704C74.2976 42.333 73.8746 45.3 74.9726 46.386C74.9726 46.386 74.0726 47.886 71.5436 47.754C69.4226 47.637 69.9656 46.356 69.9656 46.356Z" fill="#FF8B7B"/>
<path opacity="0.2" d="M71.478 43.356C71.5326 43.6013 71.5717 43.8498 71.595 44.1C72.282 43.962 73.2 43.23 73.296 42.528C73.3298 42.2956 73.3378 42.0602 73.32 41.826L71.478 43.356Z" fill="black"/>
<path d="M70.5001 35.55C69.5011 36.15 69.6601 37.65 69.3901 38.724C70.0261 38.787 71.0281 37.656 71.0281 37.656L71.6281 35.937L70.5001 35.55Z" fill="#263238"/>
<path d="M75.8129 38.568C75.1739 40.686 74.9129 41.955 73.5569 42.84C73.1208 43.1316 72.6133 43.2985 72.0892 43.3225C71.5651 43.3465 71.0445 43.2267 70.5836 42.9762C70.1227 42.7257 69.739 42.3539 69.4742 41.901C69.2093 41.4482 69.0733 40.9316 69.0809 40.407C69.0809 38.388 70.1189 35.262 72.4349 34.83C72.9341 34.7233 73.4525 34.7498 73.9382 34.9069C74.4239 35.0639 74.8598 35.3459 75.2021 35.7247C75.5443 36.1034 75.7809 36.5655 75.8881 37.0646C75.9953 37.5636 75.9694 38.0821 75.8129 38.568Z" fill="#FF8B7B"/>
<path d="M73.8178 40.365C75.3178 38.625 73.4428 37.767 74.9758 36.558C73.2508 36.639 70.4098 36.516 69.9028 35.334C69.3958 34.152 70.9558 32.55 72.2548 32.4C73.7548 32.226 73.4308 34.083 73.4308 34.083C73.4308 34.083 79.1698 33.726 77.3488 36.183C78.7288 36.099 78.3478 38.331 75.9478 40.215C75.3448 40.416 73.8178 40.365 73.8178 40.365Z" fill="#263238"/>
<path d="M77.0039 36.213C77.0039 36.213 78.1859 35.862 78.1469 34.926C78.5729 35.22 78.6179 36.114 77.0039 36.213Z" fill="#263238"/>
<path d="M76.1636 40.779C75.8184 41.2055 75.336 41.4991 74.7986 41.61C74.1176 41.733 73.9586 41.103 74.2976 40.488C74.5976 39.936 75.3266 39.207 75.9386 39.36C76.5506 39.513 76.5986 40.242 76.1636 40.779Z" fill="#FF8B7B"/>
<path d="M72.3961 38.514C72.3541 38.688 72.2281 38.814 72.1111 38.787C71.9941 38.76 71.9371 38.604 71.9791 38.43C72.0211 38.256 72.1471 38.13 72.2611 38.154C72.3751 38.178 72.4381 38.337 72.3961 38.514Z" fill="#263238"/>
<path d="M70.4071 38.115C70.3651 38.289 70.2391 38.415 70.1251 38.391C70.0111 38.367 69.9481 38.208 69.9901 38.034C70.0321 37.86 70.1581 37.734 70.2721 37.758C70.3861 37.782 70.4491 37.941 70.4071 38.115Z" fill="#263238"/>
<path d="M71.0189 38.328C70.6802 38.8219 70.2766 39.2679 69.8188 39.654C69.9208 39.764 70.0457 39.8502 70.1846 39.9067C70.3235 39.9632 70.4731 39.9886 70.6229 39.981L71.0189 38.328Z" fill="#FF5652"/>
<path d="M71.2348 40.593C71.4424 40.6125 71.6519 40.5896 71.8505 40.5256C72.049 40.4617 72.2325 40.358 72.3898 40.221C72.3949 40.2165 72.399 40.2109 72.4018 40.2047C72.4046 40.1985 72.406 40.1918 72.406 40.185C72.406 40.1782 72.4046 40.1715 72.4018 40.1652C72.399 40.159 72.3949 40.1535 72.3898 40.149C72.3797 40.1393 72.3663 40.1339 72.3523 40.1339C72.3383 40.1339 72.3248 40.1393 72.3148 40.149C72.1423 40.2956 71.9383 40.4003 71.7187 40.455C71.4991 40.5096 71.2698 40.5127 71.0488 40.464C71.042 40.4627 71.0351 40.4628 71.0285 40.4642C71.0218 40.4656 71.0155 40.4684 71.0099 40.4723C71.0043 40.4762 70.9995 40.4812 70.9959 40.487C70.9923 40.4928 70.9898 40.4992 70.9888 40.506C70.9861 40.5199 70.989 40.5343 70.9969 40.5461C71.0047 40.5579 71.0169 40.5661 71.0308 40.569L71.2348 40.593Z" fill="#263238"/>
<path d="M73.1641 38.028C73.1806 38.0335 73.1985 38.0335 73.2151 38.028C73.2277 38.0225 73.239 38.0145 73.2484 38.0045C73.2579 37.9945 73.2652 37.9827 73.27 37.9699C73.2747 37.957 73.2768 37.9432 73.2762 37.9295C73.2755 37.9158 73.2721 37.9024 73.2661 37.89C73.2017 37.7366 73.1003 37.6015 72.971 37.4968C72.8417 37.3921 72.6885 37.3211 72.5251 37.29C72.4973 37.2865 72.4693 37.294 72.4469 37.3108C72.4245 37.3275 72.4095 37.3524 72.4051 37.38C72.4034 37.3938 72.4045 37.4078 72.4083 37.4212C72.412 37.4345 72.4184 37.447 72.4271 37.4579C72.4357 37.4688 72.4465 37.4779 72.4587 37.4846C72.4708 37.4913 72.4842 37.4955 72.4981 37.497C72.6251 37.5238 72.7438 37.5809 72.8441 37.6634C72.9444 37.746 73.0233 37.8515 73.0741 37.971C73.0829 37.9875 73.0958 38.0014 73.1115 38.0114C73.1273 38.0214 73.1454 38.0271 73.1641 38.028Z" fill="#263238"/>
<path d="M69.9149 36.921C69.9311 36.9269 69.9485 36.9283 69.9654 36.9251C69.9823 36.922 69.998 36.9143 70.0109 36.903C70.1145 36.8168 70.2368 36.7559 70.368 36.7251C70.4992 36.6944 70.6358 36.6947 70.7669 36.726C70.7801 36.7303 70.794 36.732 70.8079 36.731C70.8217 36.7299 70.8352 36.7262 70.8476 36.7199C70.86 36.7136 70.8711 36.705 70.8801 36.6945C70.8892 36.6839 70.8961 36.6717 70.9004 36.6585C70.9047 36.6453 70.9064 36.6314 70.9054 36.6175C70.9043 36.6037 70.9006 36.5902 70.8943 36.5778C70.888 36.5654 70.8794 36.5543 70.8689 36.5453C70.8583 36.5362 70.8461 36.5293 70.8329 36.525C70.6687 36.4844 70.4974 36.4826 70.3323 36.5195C70.1673 36.5565 70.0131 36.6313 69.8819 36.738C69.8601 36.7552 69.8459 36.7802 69.8426 36.8078C69.8392 36.8353 69.8469 36.8631 69.8639 36.885C69.8761 36.9027 69.8942 36.9155 69.9149 36.921Z" fill="#263238"/>
<path d="M78.5996 47.427L78.8486 47.766L79.0736 48.084C79.2236 48.297 79.3586 48.51 79.4996 48.723C79.7726 49.152 80.0306 49.587 80.2796 50.025C80.7787 50.9006 81.2313 51.8018 81.6356 52.725C81.8456 53.181 82.0256 53.655 82.2176 54.12C82.4096 54.585 82.5716 55.068 82.7186 55.554C83.0347 56.5213 83.2951 57.5059 83.4986 58.503L83.5226 58.617C83.5666 58.8183 83.5705 59.0264 83.5339 59.2292C83.4974 59.4321 83.4211 59.6257 83.3096 59.799C82.9231 60.3923 82.4646 60.9354 81.9446 61.416C81.4098 61.9061 80.8027 62.3108 80.1446 62.616C79.4949 62.9188 78.7995 63.1114 78.0866 63.186C77.7378 63.2219 77.3865 63.228 77.0366 63.204C76.8626 63.204 76.6886 63.171 76.5146 63.144L76.2506 63.093L75.9506 63.018C75.9153 63.0094 75.8848 62.9873 75.8657 62.9564C75.8466 62.9256 75.8405 62.8884 75.8486 62.853L76.2626 61.113C76.2626 61.098 76.3406 61.095 76.3886 61.083L76.5536 61.05C76.6676 61.026 76.7786 60.999 76.8926 60.969C77.1148 60.9088 77.3324 60.8326 77.5436 60.741C77.9525 60.5732 78.3353 60.3479 78.6806 60.072C79.3561 59.516 79.8959 58.8132 80.2586 58.017L80.0696 59.313C79.8116 58.464 79.5386 57.624 79.2086 56.793C78.8786 55.962 78.5186 55.146 78.1256 54.342C77.7326 53.538 77.3126 52.743 76.8596 51.969C76.6376 51.582 76.4036 51.201 76.1696 50.823L75.8126 50.265L75.6356 49.995L75.4706 49.755L75.4106 49.665C75.1138 49.2421 74.9972 48.7186 75.0864 48.2098C75.1755 47.7009 75.4632 47.2483 75.8861 46.9515C76.309 46.6547 76.8325 46.5381 77.3413 46.6273C77.8502 46.7164 78.3028 47.0041 78.5996 47.427Z" fill="#263238"/>
<path d="M74.6343 62.844L73.9893 63.9L76.7883 63.789C76.7883 63.789 77.5233 61.905 76.5213 61.608L76.1313 61.713C75.5075 61.8877 74.9727 62.2917 74.6343 62.844Z" fill="#FF8B7B"/>
<path d="M75.7859 61.365C75.5842 61.5013 75.411 61.6756 75.2759 61.878C76.0379 62.292 77.0999 63.702 77.0999 63.702L77.3459 62.928C77.3771 62.8282 77.3861 62.7227 77.3721 62.619C77.3581 62.5153 77.3215 62.416 77.2649 62.328L76.7999 61.578C76.749 61.4955 76.6819 61.4241 76.6026 61.3683C76.5233 61.3126 76.4335 61.2735 76.3386 61.2536C76.2438 61.2337 76.1458 61.2333 76.0508 61.2524C75.9558 61.2716 75.8656 61.3099 75.7859 61.365Z" fill="#A6A6A6"/>
<path d="M74.2353 65.526L76.5423 65.322L76.7883 63.789L73.9893 63.9L74.2353 65.526Z" fill="#FF8B7B"/>
<path d="M45.9181 28.902L45.7651 28.644C46.2051 28.3833 46.6633 28.1547 47.1361 27.96L47.2501 28.239C46.7903 28.4267 46.3451 28.6483 45.9181 28.902Z" fill="#A6A6A6"/>
<path d="M41.5378 34.2L41.2378 34.098C41.949 32.1288 43.2356 30.4188 44.9308 29.19L45.1078 29.433C43.4661 30.6275 42.2222 32.2886 41.5378 34.2Z" fill="#A6A6A6"/>
<path d="M51.0597 46.851C56.1595 46.851 60.2937 42.7168 60.2937 37.617C60.2937 32.5172 56.1595 28.383 51.0597 28.383C45.9599 28.383 41.8257 32.5172 41.8257 37.617C41.8257 42.7168 45.9599 46.851 51.0597 46.851Z" fill="#A6A6A6"/>
<path opacity="0.6" d="M58.7732 37.617C58.7726 39.4164 58.1429 41.1591 56.993 42.5432C55.8431 43.9273 54.2455 44.8658 52.4767 45.1963C50.7078 45.5268 48.8791 45.2284 47.3071 44.3528C45.735 43.4772 44.5186 42.0795 43.8684 40.4016C43.2181 38.7238 43.175 36.8714 43.7464 35.1651C44.3179 33.4588 45.4679 32.006 46.9975 31.0582C48.5271 30.1103 50.34 29.7272 52.1223 29.9749C53.9046 30.2227 55.5441 31.0859 56.7572 32.415C56.7595 32.4139 56.7621 32.4134 56.7647 32.4134C56.7673 32.4134 56.7698 32.4139 56.7722 32.415C58.0655 33.8382 58.7794 35.6939 58.7732 37.617Z" fill="white"/>
<path d="M58.7726 37.617C58.7726 39.1163 58.3356 40.583 57.5151 41.8379C56.6946 43.0927 55.5262 44.0812 54.1527 44.6825C52.7793 45.2837 51.2604 45.4717 49.7819 45.2233C48.3033 44.9749 46.9292 44.301 45.8276 43.284C44.4807 41.8163 43.7539 39.8845 43.7994 37.893C43.8448 35.9015 44.659 34.0048 46.0715 32.6001C47.4839 31.1954 49.3851 30.3916 51.3768 30.3571C53.3685 30.3226 55.2963 31.0601 56.7566 32.415C56.7589 32.4139 56.7615 32.4134 56.7641 32.4134C56.7667 32.4134 56.7692 32.4139 56.7716 32.415C58.0649 33.8382 58.7788 35.6939 58.7726 37.617Z" fill="white"/>
<path d="M51.0596 38.067C51.0005 38.0671 50.942 38.0555 50.8874 38.0328C50.8328 38.0102 50.7833 37.9769 50.7416 37.935L46.9797 34.173C46.9354 34.1318 46.9 34.0821 46.8754 34.0269C46.8508 33.9717 46.8376 33.9121 46.8365 33.8517C46.8354 33.7913 46.8465 33.7313 46.8692 33.6752C46.8918 33.6192 46.9255 33.5683 46.9682 33.5256C47.011 33.4828 47.0619 33.4492 47.1179 33.4265C47.1739 33.4039 47.2339 33.3928 47.2944 33.3938C47.3548 33.3949 47.4144 33.4081 47.4696 33.4327C47.5248 33.4573 47.5745 33.4928 47.6156 33.537L51.0596 36.981L53.0486 34.992C53.1339 34.9125 53.2468 34.8692 53.3634 34.8713C53.4799 34.8733 53.5912 34.9206 53.6736 35.003C53.7561 35.0855 53.8033 35.1967 53.8053 35.3133C53.8074 35.4299 53.7641 35.5427 53.6846 35.628L51.3776 37.935C51.2931 38.0191 51.1789 38.0666 51.0596 38.067Z" fill="#263238"/>
</svg>
