<svg width="150" height="150" viewBox="0 0 150 150" fill="none" xmlns="http://www.w3.org/2000/svg">
<path d="M150 114.72H0V114.795H150V114.72Z" fill="#EBEBEB"/>
<path d="M25.6738 117.576H15.7378V117.651H25.6738V117.576Z" fill="#EBEBEB"/>
<path d="M67.9678 116.763H51.3418V116.838H67.9678V116.763Z" fill="#EBEBEB"/>
<path d="M33.0568 119.358H27.2998V119.433H33.0568V119.358Z" fill="#EBEBEB"/>
<path d="M128.595 117.54H115.638V117.615H128.595V117.54Z" fill="#EBEBEB"/>
<path d="M133.167 117.54H131.268V117.615H133.167V117.54Z" fill="#EBEBEB"/>
<path d="M97.2151 118.593H83.1631V118.668H97.2151V118.593Z" fill="#EBEBEB"/>
<path d="M71.0999 101.34H13.1729C12.7191 101.339 12.2842 101.158 11.9636 100.837C11.643 100.516 11.4629 100.081 11.4629 99.627V18.198C11.4668 17.7468 11.6486 17.3154 11.9688 16.9975C12.289 16.6795 12.7217 16.5008 13.1729 16.5H71.0999C71.5542 16.5 71.9899 16.6805 72.3112 17.0017C72.6324 17.323 72.8129 17.7587 72.8129 18.213V99.627C72.8129 100.081 72.6324 100.517 72.3112 100.838C71.9899 101.16 71.5542 101.34 71.0999 101.34ZM13.1729 16.56C12.739 16.5608 12.3231 16.7337 12.0166 17.0408C11.7101 17.3479 11.5379 17.7641 11.5379 18.198V99.627C11.5379 100.061 11.7101 100.477 12.0166 100.784C12.3231 101.091 12.739 101.264 13.1729 101.265H71.0999C71.5341 101.264 71.9502 101.091 72.2573 100.784C72.5643 100.477 72.7371 100.061 72.7379 99.627V18.198C72.7371 17.7638 72.5643 17.3476 72.2573 17.0406C71.9502 16.7336 71.5341 16.5608 71.0999 16.56H13.1729Z" fill="#EBEBEB"/>
<path d="M135.993 101.34H78.0631C77.609 101.339 77.1738 101.158 76.8527 100.837C76.5316 100.516 76.3509 100.081 76.3501 99.627V18.198C76.3548 17.7465 76.5373 17.3151 76.858 16.9973C77.1786 16.6794 77.6116 16.5008 78.0631 16.5H135.993C136.444 16.5016 136.876 16.6807 137.195 16.9985C137.515 17.3164 137.696 17.7473 137.7 18.198V99.627C137.7 100.08 137.52 100.515 137.2 100.836C136.881 101.157 136.446 101.338 135.993 101.34ZM78.0631 16.56C77.6289 16.5608 77.2127 16.7336 76.9057 17.0406C76.5987 17.3476 76.4259 17.7638 76.4251 18.198V99.627C76.4259 100.061 76.5987 100.477 76.9057 100.784C77.2127 101.091 77.6289 101.264 78.0631 101.265H135.993C136.427 101.264 136.843 101.091 137.15 100.784C137.457 100.477 137.63 100.061 137.631 99.627V18.198C137.63 17.7638 137.457 17.3476 137.15 17.0406C136.843 16.7336 136.427 16.5608 135.993 16.56H78.0631Z" fill="#EBEBEB"/>
<path d="M109.833 109.032H49.4341V114.717H109.833V109.032Z" fill="#F0F0F0"/>
<path d="M109.833 103.347H54.4141V109.032H109.833V103.347Z" fill="#F0F0F0"/>
<path d="M109.833 97.662H59.394V103.347H109.833V97.662Z" fill="#F0F0F0"/>
<path d="M109.836 91.974H64.377V97.659H109.836V91.974Z" fill="#F0F0F0"/>
<path d="M118.698 27H84.0991V91.974H118.698V27Z" fill="#F5F5F5"/>
<path d="M118.698 27H84.0991V27.501H118.698V27Z" fill="#EBEBEB"/>
<path d="M83.79 23.013L83.334 25.527V27H118.023V23.013H83.79Z" fill="#FAFAFA"/>
<path d="M117.9 23.013L117.444 25.527V27H118.701V23.013H117.9Z" fill="#E0E0E0"/>
<path d="M116.598 29.7H86.1987V91.974H116.598V29.7Z" fill="white"/>
<path d="M115.629 60.837C115.63 61.1268 115.544 61.4103 115.384 61.6515C115.223 61.8927 114.994 62.0808 114.727 62.192C114.459 62.3032 114.165 62.3324 113.88 62.276C113.596 62.2196 113.335 62.0801 113.13 61.8752C112.925 61.6703 112.786 61.4091 112.729 61.1249C112.673 60.8406 112.702 60.546 112.813 60.2784C112.924 60.0107 113.112 59.7821 113.354 59.6215C113.595 59.4608 113.878 59.3754 114.168 59.376C114.555 59.3768 114.927 59.531 115.2 59.8048C115.474 60.0786 115.628 60.4498 115.629 60.837Z" fill="#EBEBEB"/>
<path d="M86.6997 29.7H86.1987V91.974H86.6997V29.7Z" fill="#E6E6E6"/>
<path d="M115.176 81.6L100.995 102.489V114.72H124.581V81.6H115.176Z" fill="#F5F5F5"/>
<path d="M120.18 81.6L105.999 102.489V114.72H129.585V81.6H120.18Z" fill="#E0E0E0"/>
<path d="M62.7299 26.274H21.8159V75.351H62.7299V26.274Z" fill="#F0F0F0"/>
<path d="M60.4951 75.351H19.5811V76.803H60.4951V75.351Z" fill="#F5F5F5"/>
<path d="M60.498 76.806H62.73V75.354H60.498V76.806Z" fill="#E6E6E6"/>
<path d="M60.6538 73.275V28.353L23.8948 28.353V73.275H60.6538Z" fill="#FAFAFA"/>
<path d="M26.127 73.272L43.899 28.353H48.333L30.561 73.272H26.127Z" fill="white"/>
<path d="M31.7012 73.272L49.4702 28.353H53.9042L36.1322 73.272H31.7012Z" fill="white"/>
<path d="M44.0669 73.275V28.353H40.4819V73.275H44.0669Z" fill="#F0F0F0"/>
<path d="M44.064 73.275V28.353H43.62V73.275H44.064Z" fill="#E6E6E6"/>
<path d="M44.934 104.601H16.833V114.72H44.934V104.601Z" fill="#EBEBEB"/>
<path d="M19.65 104.601H16.833V114.72H19.65V104.601Z" fill="#F5F5F5"/>
<path d="M75 128.268C107.125 128.268 133.167 126.748 133.167 124.872C133.167 122.996 107.125 121.476 75 121.476C42.8753 121.476 16.833 122.996 16.833 124.872C16.833 126.748 42.8753 128.268 75 128.268Z" fill="#F5F5F5"/>
<path d="M66.42 43.068C64.167 45.801 67.434 48.993 63.501 49.035C59.568 49.077 58.299 48.567 58.332 52.866C58.365 57.165 54.633 54.366 55.068 58.701C55.503 63.036 71.796 66.258 71.724 61.524C71.652 56.79 69.255 56.259 72.42 55.026C75.585 53.793 78.375 46.482 75.6 44.784C76.668 41.832 69.567 39.246 66.42 43.068Z" fill="#263238"/>
<path d="M75.2519 56.718C75.4649 56.931 75.7349 57.183 75.9839 57.414C76.2329 57.645 76.4999 57.882 76.7669 58.107C77.3039 58.554 77.8379 59.007 78.4019 59.415C79.5038 60.2388 80.6822 60.9551 81.9209 61.554C82.2209 61.686 82.5389 61.83 82.8419 61.944C83.1449 62.058 83.4689 62.163 83.7959 62.265C84.4589 62.463 85.1549 62.637 85.8539 62.802C87.2519 63.129 88.6859 63.429 90.1079 63.732L89.9909 65.064C88.4882 65.0865 86.9854 65.0184 85.4909 64.86C84.7409 64.782 83.9909 64.68 83.2259 64.527C82.8419 64.449 82.4579 64.365 82.0589 64.245C81.6599 64.125 81.3029 63.984 80.9249 63.849C79.4744 63.2587 78.098 62.5005 76.8239 61.59C76.1883 61.1505 75.5755 60.6789 74.9879 60.177C74.6879 59.928 74.4059 59.673 74.1239 59.409C73.8419 59.145 73.5719 58.887 73.2749 58.572L75.2519 56.718Z" fill="#FFC3BD"/>
<path d="M74.9221 55.983C77.655 57.729 77.433 58.803 77.433 58.803L75.714 61.29C75.714 61.29 71.3341 59.532 71.0581 58.158C70.7701 56.727 73.5961 55.137 74.9221 55.983Z" fill="#455A64"/>
<path opacity="0.3" d="M74.9221 55.983C77.655 57.729 77.433 58.803 77.433 58.803L75.714 61.29C75.714 61.29 71.3341 59.532 71.0581 58.158C70.7701 56.727 73.5961 55.137 74.9221 55.983Z" fill="black"/>
<path d="M77.5828 58.557C77.6081 58.5747 77.6297 58.5972 77.6462 58.6232C77.6628 58.6492 77.6741 58.6783 77.6793 58.7086C77.6846 58.739 77.6839 58.7702 77.6771 58.8003C77.6703 58.8304 77.6576 58.8588 77.6398 58.884L75.8818 61.404C75.8642 61.4293 75.8417 61.4508 75.8156 61.4674C75.7896 61.484 75.7606 61.4952 75.7302 61.5005C75.6998 61.5058 75.6687 61.505 75.6386 61.4983C75.6085 61.4915 75.58 61.4788 75.5548 61.461C75.5292 61.4436 75.5074 61.4212 75.4906 61.3952C75.4738 61.3692 75.4624 61.3401 75.457 61.3096C75.4517 61.2791 75.4526 61.2478 75.4596 61.2176C75.4666 61.1875 75.4796 61.159 75.4978 61.134L77.2558 58.617C77.2916 58.5661 77.3459 58.5313 77.407 58.5201C77.4682 58.5088 77.5313 58.5221 77.5828 58.557Z" fill="#455A64"/>
<path d="M89.6638 63.825L91.8508 63.246L91.4998 65.91C91.4998 65.91 89.8048 65.796 89.0308 64.554L89.6638 63.825Z" fill="#FFC3BD"/>
<path d="M93.8909 64.143L93.4229 66.291L91.5029 65.91L91.8509 63.246L93.8909 64.143Z" fill="#FFC3BD"/>
<path d="M58.9053 120.969L61.2363 121.668L63.1503 115.857L60.8223 115.158L58.9053 120.969Z" fill="#FFC3BD"/>
<path d="M43.4341 113.463L45.5701 114.807L48.6271 109.761L46.4911 108.42L43.4341 113.463Z" fill="#FFC3BD"/>
<path d="M45.6929 114.615L43.8599 112.437C43.8284 112.399 43.7843 112.374 43.7358 112.367C43.6873 112.359 43.6376 112.369 43.596 112.395L41.4029 113.715C41.3553 113.747 41.3149 113.788 41.2844 113.837C41.2539 113.885 41.234 113.939 41.2261 113.996C41.2181 114.053 41.2223 114.111 41.2383 114.166C41.2543 114.22 41.2818 114.271 41.319 114.315C41.9699 115.062 42.3239 115.392 43.1189 116.349C43.6139 116.949 44.7809 118.62 45.4679 119.433C46.1549 120.246 47.2679 119.496 47.0429 119.097C46.0889 117.297 45.8429 115.914 45.8429 115.041C45.8436 114.886 45.7906 114.735 45.6929 114.615Z" fill="#263238"/>
<path d="M61.8148 120.6L59.0428 119.436C58.9912 119.414 58.9337 119.409 58.8793 119.423C58.825 119.438 58.7769 119.469 58.7428 119.514L57.2188 121.455C57.1823 121.501 57.1569 121.554 57.1448 121.611C57.1327 121.669 57.1342 121.728 57.149 121.784C57.1639 121.841 57.1918 121.893 57.2305 121.937C57.2691 121.981 57.3175 122.015 57.3718 122.037C58.3468 122.454 58.8118 122.637 60.0298 123.156C60.7828 123.471 62.8468 124.752 63.9628 124.887C65.0788 125.022 65.4178 123.948 64.9768 123.792C63.0088 123.096 62.4838 121.707 62.1328 120.918C62.0707 120.776 61.9571 120.662 61.8148 120.6Z" fill="#263238"/>
<path opacity="0.2" d="M63.1499 115.86L62.1629 118.854L59.7539 118.392L60.8189 115.161L63.1499 115.86Z" fill="black"/>
<path opacity="0.2" d="M46.4911 108.42L48.6271 109.764L47.0491 112.362L44.9131 111.021L46.4911 108.42Z" fill="black"/>
<path d="M74.9217 55.983C74.9217 55.983 75.9147 56.661 69.6147 70.35L59.6997 67.602C60.9837 63.609 61.6767 61.122 62.0427 52.302C63.5103 52.3957 64.9692 52.5963 66.4077 52.902C67.9355 53.2102 69.4394 53.6273 70.9077 54.15C72.2762 54.6918 73.616 55.3036 74.9217 55.983Z" fill="#455A64"/>
<path opacity="0.3" d="M74.9217 55.983C74.9217 55.983 75.9147 56.661 69.6147 70.35L59.6997 67.602C60.9837 63.609 61.6767 61.122 62.0427 52.302C63.5103 52.3957 64.9692 52.5963 66.4077 52.902C67.9355 53.2102 69.4394 53.6273 70.9077 54.15C72.2762 54.6918 73.616 55.3036 74.9217 55.983Z" fill="black"/>
<path d="M68.2528 47.961C68.1358 49.491 67.6858 52.224 66.4018 52.911C66.4018 52.911 65.6098 55.059 68.9068 55.746C71.5438 56.295 70.9078 54.159 70.9078 54.159C69.4078 53.325 70.3318 51.849 70.6078 50.196L68.2528 47.961Z" fill="#FFC3BD"/>
<path opacity="0.2" d="M68.2532 47.964C68.1602 49.191 67.8512 51.201 67.0532 52.296C67.9532 52.386 69.4052 52.107 69.8132 51.429C70.0219 50.9433 70.1914 50.4417 70.3202 49.929L68.2532 47.964Z" fill="black"/>
<path d="M74.265 47.772C73.197 50.052 72.795 51.039 71.142 51.771C68.655 52.872 66.09 51.063 66.453 48.513C66.78 46.215 68.469 42.876 71.124 42.849C71.7087 42.8413 72.2858 42.9831 72.8005 43.2608C73.3151 43.5385 73.7504 43.9431 74.0649 44.4361C74.3795 44.9291 74.563 45.4943 74.598 46.0781C74.633 46.6619 74.5184 47.2449 74.265 47.772Z" fill="#FFC3BD"/>
<path d="M74.8499 45.324C72.6509 45.924 69.1319 43.776 68.7539 42.987C71.1389 42.024 73.7249 42.264 74.6879 43.2C75.6509 44.136 74.8499 45.324 74.8499 45.324Z" fill="#263238"/>
<path d="M74.2201 50.34C73.8402 50.6454 73.3547 50.7878 72.8701 50.736C72.2311 50.661 72.1531 50.031 72.5341 49.554C72.8761 49.122 73.6231 48.654 74.1691 48.954C74.2871 49.025 74.3855 49.1242 74.4555 49.2428C74.5255 49.3614 74.5648 49.4956 74.5699 49.6332C74.575 49.7708 74.5456 49.9075 74.4845 50.0309C74.4234 50.1543 74.3325 50.2606 74.2201 50.34Z" fill="#FFC3BD"/>
<path d="M74.7179 44.667C73.0439 44.451 72.1829 46.575 72.5159 47.967C72.8489 49.359 69.1019 51.132 69.1499 53.7C69.2249 57.762 75.5489 57.351 74.4989 54.6C74.1449 53.664 75.5309 51.933 75.9509 50.85C76.8929 48.396 75.9989 44.832 74.7179 44.667Z" fill="#263238"/>
<path d="M69.6151 70.35C69.6151 70.35 72.3391 84.657 70.0231 95.478C68.4721 102.726 63.6841 117.378 63.6841 117.378L59.3101 117.264C59.3101 117.264 62.7361 101.898 63.6121 95.856C65.1121 85.518 62.3491 68.346 62.3491 68.346L69.6151 70.35Z" fill="#455A64"/>
<path opacity="0.2" d="M64.92 74.286L63.438 77.064C63.8444 81.0512 64.0507 85.0562 64.056 89.064C66.3 83.646 65.4 77.07 64.92 74.286Z" fill="black"/>
<path d="M64.2903 118.233L58.9053 117.378L59.3103 115.35L64.9233 116.445L64.2903 118.233Z" fill="#263238"/>
<path d="M67.44 69.777C67.44 69.777 64.776 84.456 60.363 93.345C56.799 100.524 47.91 111.708 47.91 111.708L45.48 109.2C45.48 109.2 51.279 97.128 53.928 92.358C60.426 80.658 55.29 71.148 59.694 67.599L67.44 69.777Z" fill="#455A64"/>
<path d="M48.3418 112.338L44.6758 109.938L45.4258 108.348L49.4608 111.162L48.3418 112.338Z" fill="#263238"/>
<path d="M59.6997 66.978L59.0067 67.743C58.9527 67.803 59.0067 67.896 59.1297 67.926L69.5397 70.8C69.6297 70.827 69.7167 70.8 69.7377 70.749L70.0737 69.885C70.0977 69.825 70.0347 69.75 69.9357 69.723L59.8887 66.942C59.8567 66.9317 59.8227 66.9296 59.7897 66.9359C59.7566 66.9422 59.7257 66.9567 59.6997 66.978Z" fill="white"/>
<path d="M60.7439 68.475L60.4769 68.4C60.4229 68.385 60.3899 68.346 60.4019 68.316L60.8489 67.197C60.8489 67.164 60.9149 67.149 60.9689 67.164L61.2389 67.239C61.2899 67.254 61.3259 67.293 61.3109 67.323L60.8669 68.442C60.8528 68.4602 60.8332 68.4733 60.811 68.4793C60.7887 68.4852 60.7652 68.4837 60.7439 68.475Z" fill="#455A64"/>
<path d="M68.7571 70.695L68.4901 70.62C68.4361 70.605 68.4031 70.566 68.4151 70.533L68.8621 69.414C68.8621 69.381 68.9281 69.366 68.9821 69.381L69.2521 69.456C69.3061 69.456 69.3391 69.51 69.3241 69.543L68.8801 70.662C68.8681 70.695 68.8111 70.71 68.7571 70.695Z" fill="#455A64"/>
<path d="M64.7519 69.6L64.4819 69.525C64.4279 69.525 64.3949 69.471 64.4099 69.438L64.8539 68.319C64.8539 68.286 64.9229 68.274 64.9769 68.289L65.2439 68.361C65.2979 68.376 65.3309 68.415 65.3189 68.448L64.8719 69.567C64.8599 69.6 64.7999 69.6 64.7519 69.6Z" fill="#455A64"/>
<path d="M70.4639 47.025C70.3889 47.214 70.2269 47.325 70.1039 47.28C69.9809 47.235 69.9389 47.037 70.0139 46.848C70.0889 46.659 70.2509 46.548 70.3739 46.593C70.4969 46.638 70.5389 46.836 70.4639 47.025Z" fill="#263238"/>
<path d="M68.3159 46.176C68.2379 46.365 68.0789 46.476 67.9529 46.431C67.8269 46.386 67.7879 46.188 67.8659 45.996C67.9439 45.804 68.0999 45.696 68.2259 45.741C68.3519 45.786 68.3999 45.984 68.3159 46.176Z" fill="#263238"/>
<path d="M68.2771 45.774L67.8721 45.474C67.8721 45.474 67.9651 45.9 68.2771 45.774Z" fill="#263238"/>
<path d="M68.7537 46.728C68.4123 47.094 68.0227 47.4119 67.5957 47.673C67.6652 47.7803 67.7573 47.8711 67.8657 47.939C67.974 48.0069 68.0958 48.0502 68.2227 48.066L68.7537 46.728Z" fill="#ED847E"/>
<path d="M68.9612 49.176C68.838 49.1533 68.7173 49.1181 68.6012 49.071C68.5949 49.0687 68.5891 49.0651 68.5842 49.0605C68.5792 49.0559 68.5752 49.0504 68.5724 49.0443C68.5697 49.0381 68.5681 49.0315 68.5679 49.0248C68.5677 49.018 68.5688 49.0113 68.5712 49.005C68.5771 48.9933 68.587 48.984 68.5991 48.9791C68.6113 48.9741 68.6248 48.9737 68.6372 48.978C68.8731 49.078 69.1293 49.1206 69.3848 49.1023C69.6404 49.0841 69.8879 49.0055 70.1072 48.873C70.1166 48.8644 70.1289 48.8596 70.1417 48.8596C70.1545 48.8596 70.1668 48.8644 70.1762 48.873C70.1812 48.8772 70.1853 48.8825 70.1881 48.8885C70.1909 48.8944 70.1923 48.9009 70.1923 48.9075C70.1923 48.9141 70.1909 48.9206 70.1881 48.9265C70.1853 48.9325 70.1812 48.9378 70.1762 48.942C69.8171 49.1753 69.3812 49.2592 68.9612 49.176Z" fill="#263238"/>
<path d="M71.7869 45.996C71.77 45.9929 71.7542 45.9855 71.741 45.9744C71.7279 45.9634 71.7178 45.9491 71.7119 45.933C71.6619 45.7866 71.5775 45.6543 71.4658 45.5473C71.3541 45.4402 71.2183 45.3616 71.0699 45.318C71.0443 45.3116 71.0222 45.2955 71.0082 45.2731C70.9942 45.2507 70.9894 45.2238 70.9949 45.198C70.9977 45.1851 71.0031 45.1729 71.0107 45.1622C71.0183 45.1514 71.0279 45.1423 71.0391 45.1353C71.0503 45.1283 71.0627 45.1236 71.0758 45.1215C71.0888 45.1194 71.1021 45.1199 71.1149 45.123C71.2953 45.1737 71.4607 45.2673 71.597 45.3958C71.7334 45.5243 71.8366 45.6839 71.8979 45.861C71.9068 45.8857 71.9059 45.9129 71.8953 45.9369C71.8846 45.961 71.8652 45.98 71.8409 45.99C71.8236 45.9964 71.8051 45.9985 71.7869 45.996Z" fill="#263238"/>
<path d="M67.9617 44.544C67.9444 44.5439 67.9275 44.539 67.9127 44.5301C67.8979 44.5211 67.8858 44.5083 67.8777 44.493C67.8714 44.4816 67.8673 44.469 67.8659 44.4561C67.8644 44.4431 67.8655 44.4299 67.8691 44.4174C67.8727 44.4048 67.8788 44.3931 67.887 44.3829C67.8952 44.3727 67.9053 44.3643 67.9167 44.358C68.0786 44.264 68.2608 44.2106 68.4478 44.2022C68.6349 44.1938 68.8211 44.2308 68.9907 44.31C69.0027 44.3157 69.0135 44.3238 69.0222 44.3338C69.0309 44.3439 69.0374 44.3556 69.0414 44.3683C69.0453 44.381 69.0466 44.3943 69.0451 44.4075C69.0436 44.4208 69.0394 44.4335 69.0327 44.445C69.0265 44.4565 69.018 44.4666 69.0078 44.4747C68.9976 44.4829 68.9859 44.489 68.9734 44.4926C68.9608 44.4962 68.9477 44.4973 68.9347 44.4959C68.9217 44.4944 68.9091 44.4904 68.8977 44.484C68.757 44.4213 68.6033 44.3929 68.4494 44.4013C68.2956 44.4096 68.1459 44.4544 68.0127 44.532C67.9971 44.5405 67.9795 44.5447 67.9617 44.544Z" fill="#263238"/>
<path d="M62.2139 55.32C61.9559 55.263 61.7549 55.215 61.5329 55.158C61.3109 55.101 61.1039 55.038 60.8909 54.975C60.4709 54.843 60.0509 54.708 59.6399 54.555C58.8172 54.2415 58.0112 53.886 57.2249 53.49C56.4365 53.086 55.6758 52.63 54.9479 52.125L54.4079 51.732C54.2279 51.597 54.0569 51.453 53.8829 51.315L53.6219 51.102L53.3519 50.865C53.1779 50.706 53.0069 50.544 52.8509 50.376C51.6624 49.0721 50.6534 47.6152 49.8509 46.044C49.4489 45.288 49.0799 44.52 48.7319 43.746C48.3839 42.972 48.0749 42.189 47.7959 41.37L49.0259 40.845C49.4159 41.547 49.8209 42.27 50.2469 42.966C50.6729 43.662 51.0929 44.361 51.5489 45.03C52.4 46.3511 53.394 47.5745 54.5129 48.678C54.6479 48.804 54.7859 48.921 54.9239 49.035L55.1339 49.2L55.3709 49.365C55.5299 49.473 55.6709 49.59 55.8449 49.695L56.3339 49.995C56.9986 50.3987 57.6835 50.7682 58.3859 51.102C59.0939 51.432 59.8189 51.732 60.5609 52.002C60.9269 52.137 61.3019 52.26 61.6739 52.377L62.2319 52.539C62.4119 52.59 62.6129 52.644 62.7599 52.68L62.2139 55.32Z" fill="#FFC3BD"/>
<path d="M49.4579 41.751L48.6629 39.129L46.7729 40.989C46.7729 40.989 47.5649 42.147 48.6149 42.246L49.4579 41.751Z" fill="#FFC3BD"/>
<path d="M47.1899 37.908L46.0649 39.276L46.7729 40.989L48.6629 39.129L47.1899 37.908Z" fill="#FFC3BD"/>
<path d="M44.6701 49.32C44.7183 49.877 44.9857 50.392 45.4136 50.7518C45.8414 51.1116 46.3947 51.2866 46.9516 51.2385C47.5086 51.1904 48.0236 50.923 48.3834 50.4951C48.7432 50.0672 48.9183 49.514 48.8701 48.957C48.8701 48.864 48.8701 48.771 48.8521 48.678L48.8311 48.54L48.8011 48.378L48.3001 45.807L46.3621 35.517L44.4541 25.224L43.5001 20.076L43.0231 17.502C42.8566 16.642 42.7563 15.7704 42.7231 14.895L43.0021 14.844C43.2879 15.6715 43.5086 16.5201 43.6621 17.382L44.1511 19.953L45.1321 25.095L47.0851 35.382L49.0111 45.675L49.4851 48.249L49.5151 48.408L49.5391 48.594C49.5536 48.7175 49.5606 48.8417 49.5601 48.966C49.554 49.2159 49.5156 49.4639 49.4461 49.704C49.2699 50.3026 48.8974 50.8246 48.3886 51.1859C47.8798 51.5472 47.2643 51.7269 46.641 51.6961C46.0178 51.6653 45.423 51.4257 44.9523 51.016C44.4817 50.6062 44.1625 50.0501 44.0461 49.437L44.6701 49.32Z" fill="#263238"/>
<path d="M29.9217 23.502L29.6997 23.298C31.0313 21.9015 32.5449 20.6906 34.1997 19.698L34.3557 19.956C32.7257 20.9343 31.2344 22.127 29.9217 23.502Z" fill="#455A64"/>
<path d="M28.1429 25.713L27.8999 25.545C28.2285 25.0601 28.582 24.5924 28.9589 24.144L29.1869 24.336C28.7999 24.783 28.4579 25.248 28.1429 25.713Z" fill="#455A64"/>
<path d="M26.7719 34.635C26.7299 34.41 28.1459 33.957 29.9339 33.621C31.7219 33.285 33.2069 33.195 33.2339 33.42C33.1919 33.195 34.8659 32.694 36.9749 32.298C39.0839 31.902 40.8239 31.764 40.8749 31.998C40.8329 31.776 43.044 31.173 45.813 30.654C48.5819 30.135 50.8619 29.895 50.913 30.117C50.874 29.895 52.5449 29.391 54.6539 28.995C56.7629 28.599 58.5089 28.461 58.5539 28.695C58.5119 28.473 59.9249 28.02 61.713 27.684C63.5009 27.348 64.986 27.258 65.0129 27.48C63.6119 20.013 54.0869 15.516 43.6529 17.346L43.3259 17.406L42.9989 17.469C32.6159 19.521 25.3709 27.168 26.7719 34.635Z" fill="#455A64"/>
<path opacity="0.2" d="M33.2489 33.42C33.2069 33.195 34.8809 32.694 36.9899 32.298C39.0989 31.902 40.8389 31.764 40.8899 31.998C40.8479 31.776 43.0589 31.173 45.8279 30.654C48.5969 30.135 50.8769 29.895 50.9279 30.117C50.8889 29.895 52.5599 29.391 54.6689 28.995C56.7779 28.599 58.5239 28.461 58.5689 28.695C57.1739 21.27 50.5529 16.254 43.6829 17.346L43.3559 17.406L43.0289 17.469C36.2069 18.915 31.8539 25.992 33.2489 33.42Z" fill="white"/>
<path d="M40.8812 31.986C40.8392 31.764 43.0502 31.161 45.8192 30.642C48.5882 30.123 50.8682 29.883 50.9192 30.105C49.5032 22.56 46.1192 16.863 43.3442 17.382C40.5692 17.901 39.4652 24.441 40.8812 31.986Z" fill="#455A64"/>
<path d="M65.664 53.568C65.205 52.368 60.564 51.525 60.564 51.525L59.064 54.549C59.064 54.549 62.304 56.949 63.885 56.502C65.232 56.124 66.252 55.086 65.664 53.568Z" fill="#455A64"/>
<path opacity="0.3" d="M65.664 53.568C65.205 52.368 60.564 51.525 60.564 51.525L59.064 54.549C59.064 54.549 62.304 56.949 63.885 56.502C65.232 56.124 66.252 55.086 65.664 53.568Z" fill="black"/>
<path d="M58.9799 54.753C58.9278 54.7254 58.8881 54.6792 58.8686 54.6236C58.8491 54.568 58.8514 54.507 58.8749 54.453L60.3959 51.429C60.4096 51.4014 60.4286 51.3767 60.4519 51.3564C60.4752 51.3362 60.5022 51.3207 60.5315 51.311C60.5608 51.3012 60.5917 51.2973 60.6225 51.2996C60.6533 51.3018 60.6833 51.3101 60.7109 51.324C60.7382 51.338 60.7626 51.3572 60.7826 51.3806C60.8025 51.404 60.8177 51.4311 60.8271 51.4604C60.8366 51.4896 60.8402 51.5205 60.8378 51.5511C60.8353 51.5818 60.8269 51.6116 60.8129 51.639L59.2949 54.663C59.2646 54.7163 59.2146 54.7555 59.1557 54.7723C59.0968 54.7892 59.0337 54.7822 58.9799 54.753Z" fill="#455A64"/>
<path d="M46.296 116.004C46.3762 116 46.453 115.971 46.515 115.92C46.5435 115.9 46.5665 115.874 46.5817 115.843C46.597 115.812 46.6039 115.777 46.602 115.743C46.575 115.425 45.771 114.996 45.681 114.948C45.6729 114.943 45.6636 114.94 45.654 114.94C45.6445 114.94 45.6351 114.943 45.627 114.948C45.6189 114.953 45.6127 114.961 45.6095 114.97C45.6063 114.98 45.6061 114.99 45.609 114.999C45.699 115.323 45.909 115.878 46.209 115.98C46.2366 115.992 46.266 116 46.296 116.004ZM45.741 115.104C46.014 115.26 46.485 115.566 46.503 115.761C46.5034 115.778 46.4992 115.796 46.4907 115.811C46.4823 115.826 46.47 115.839 46.455 115.848C46.4253 115.875 46.3889 115.895 46.3496 115.904C46.3102 115.914 46.269 115.913 46.23 115.902C46.059 115.833 45.879 115.539 45.741 115.095V115.104Z" fill="#455A64"/>
<path d="M46.4189 115.221C46.5469 115.231 46.6746 115.199 46.7819 115.128C46.8161 115.098 46.8391 115.058 46.8473 115.013C46.8555 114.968 46.8483 114.922 46.8269 114.882C46.8097 114.841 46.784 114.804 46.7514 114.773C46.7188 114.743 46.6801 114.719 46.6379 114.705C46.2959 114.585 45.6599 114.933 45.6329 114.948C45.6255 114.952 45.6194 114.958 45.6152 114.966C45.611 114.973 45.6088 114.982 45.6089 114.99C45.6076 114.999 45.6089 115.008 45.6126 115.016C45.6164 115.024 45.6224 115.03 45.6299 115.035C45.8757 115.155 46.1453 115.219 46.4189 115.221ZM46.4699 114.78C46.5158 114.779 46.5615 114.786 46.6049 114.801C46.6342 114.81 46.6611 114.825 46.6835 114.846C46.7059 114.867 46.7231 114.892 46.7339 114.921C46.7639 114.999 46.7339 115.032 46.7159 115.053C46.5659 115.179 46.0379 115.107 45.7679 114.993C45.9854 114.876 46.2241 114.804 46.4699 114.78Z" fill="#455A64"/>
<path d="M62.856 121.578C63.0408 121.673 63.2509 121.706 63.456 121.674C63.5099 121.662 63.5601 121.638 63.6028 121.603C63.6456 121.568 63.6795 121.523 63.702 121.473C63.7183 121.447 63.727 121.418 63.727 121.388C63.727 121.357 63.7183 121.328 63.702 121.302C63.522 121.026 62.322 121.068 62.184 121.074C62.1737 121.074 62.1637 121.078 62.1555 121.085C62.1474 121.091 62.1416 121.1 62.139 121.11C62.1359 121.12 62.1359 121.13 62.1392 121.14C62.1424 121.15 62.1487 121.158 62.157 121.164C62.3753 121.326 62.6095 121.464 62.856 121.578ZM63.501 121.278C63.5412 121.29 63.5767 121.314 63.603 121.347C63.6094 121.358 63.6127 121.37 63.6127 121.383C63.6127 121.396 63.6094 121.408 63.603 121.419C63.5863 121.457 63.5611 121.49 63.5293 121.516C63.4975 121.542 63.4601 121.56 63.42 121.569C63.12 121.644 62.598 121.341 62.325 121.161C62.7213 121.14 63.1183 121.183 63.501 121.287V121.278Z" fill="#455A64"/>
<path d="M62.1477 121.17H62.1687C62.5227 121.17 63.3687 120.93 63.4437 120.663C63.4587 120.606 63.4437 120.522 63.3177 120.45C62.8017 120.15 62.1537 121.05 62.1177 121.092C62.1132 121.1 62.1108 121.109 62.1108 121.117C62.1108 121.126 62.1132 121.135 62.1177 121.143C62.1255 121.154 62.1358 121.163 62.1477 121.17ZM63.2337 120.519L63.2697 120.54C63.3597 120.591 63.3507 120.627 63.3447 120.639C63.2997 120.81 62.6727 121.035 62.2737 121.068C62.4387 120.867 62.8827 120.375 63.2337 120.519Z" fill="#455A64"/>
<path d="M70.425 46.623L70.02 46.323C70.02 46.323 70.113 46.761 70.425 46.623Z" fill="#263238"/>
<path d="M95.8857 123.435H95.3787L93.1647 94.335C93.3194 94.1178 93.4023 93.8577 93.4017 93.591V90.261C93.4009 90.0356 93.3416 89.8142 93.2296 89.6186C93.1176 89.423 92.9567 89.2598 92.7627 89.145V44.727C92.9184 44.6667 93.0524 44.5609 93.1471 44.4234C93.2418 44.2859 93.2929 44.123 93.2937 43.956V43.002C93.2927 42.8354 93.2415 42.673 93.1468 42.536C93.0521 42.399 92.9182 42.2937 92.7627 42.234V28.008C92.7613 27.9576 92.7553 27.9073 92.7447 27.858C92.9064 27.802 93.0466 27.6972 93.146 27.558C93.2455 27.4187 93.2992 27.2521 93.2997 27.081V26.13C93.3008 26.0074 93.2744 25.8861 93.2224 25.775C93.1705 25.6639 93.0944 25.5659 92.9997 25.488C93.7587 25.23 94.2897 24.651 94.2897 23.988H94.0227L95.6187 14.952H95.9187C95.9187 14.127 94.5387 13.452 92.7327 13.317C92.7701 13.2511 92.7897 13.1767 92.7897 13.101V12.561C92.7897 12.4385 92.741 12.321 92.6544 12.2343C92.5677 12.1477 92.4502 12.099 92.3277 12.099H91.9197C91.7977 12.0998 91.681 12.1488 91.595 12.2354C91.509 12.3219 91.4607 12.439 91.4607 12.561V13.089C91.4607 13.1647 91.4804 13.2391 91.5177 13.305C89.7177 13.434 88.3317 14.115 88.3317 14.94H88.6317L90.2277 23.976H89.9607C89.9607 24.651 90.4887 25.23 91.2507 25.476C91.156 25.5539 91.0799 25.6519 91.028 25.763C90.9761 25.8741 90.9497 25.9954 90.9507 26.118V27.069C90.9508 27.2393 91.0036 27.4055 91.1019 27.5446C91.2002 27.6837 91.3392 27.789 91.4997 27.846C91.4876 27.8951 91.4816 27.9455 91.4817 27.996V42.222C91.3262 42.2817 91.1924 42.387 91.0976 42.524C91.0029 42.661 90.9517 42.8234 90.9507 42.99V43.944C90.9515 44.111 91.0026 44.2739 91.0973 44.4114C91.192 44.5489 91.326 44.6547 91.4817 44.715V89.145C91.2873 89.2596 91.126 89.4227 91.0135 89.6183C90.901 89.8139 90.8411 90.0353 90.8397 90.261V93.582C90.8402 93.8489 90.9241 94.1091 91.0797 94.326L88.8657 123.426H88.3557C88.242 123.426 88.1294 123.448 88.0244 123.492C87.9193 123.536 87.824 123.6 87.7437 123.68C87.6634 123.761 87.5998 123.856 87.5566 123.961C87.5134 124.067 87.4913 124.179 87.4917 124.293V124.893H96.7917V124.293C96.7906 124.177 96.7661 124.062 96.7196 123.955C96.673 123.848 96.6055 123.752 96.5209 123.672C96.4364 123.592 96.3365 123.529 96.2274 123.489C96.1183 123.448 96.0021 123.43 95.8857 123.435ZM91.3617 23.976L90.1797 14.94H94.0167L92.8347 23.976H91.3617ZM93.6477 23.976H93.1917L94.3737 14.94H95.2437L93.6477 23.976ZM88.9527 14.94H89.8227L91.0047 23.976H90.5487L88.9527 14.94Z" fill="#263238"/>
</svg>
